<?xml version="1.0" encoding="UTF-8"?>
<svg id="Capa_2" data-name="Capa 2" xmlns="http://www.w3.org/2000/svg" viewBox="0 0 529.42 240">
  <g id="Capa_1-2" data-name="Capa 1">
    <g>
      <g>
        <path d="M205.01,0v158.84c-3.54,58.68-50.02,52.22-90.58,73.69-4.26,2.26-8.08,5.35-12.42,7.48-7.53-4.49-14.69-9.45-22.72-13.11-24.7-11.26-56.2-11.42-71.52-36.98-2.36-3.93-7.77-17-7.77-21.11V1c1.27.54,2.95-1,3.48-1h201.53ZM198.04,5.98H5.97v159.84c0,42.61,61.63,45.94,90.26,62.05,2.1,1.18,3.56,3.28,5.95,4.04,20.69-18.18,57.92-17.39,78.44-32.73,7.21-5.39,17.42-22.43,17.42-31.36V5.98Z"/>
        <path d="M195.06,8.96v92.62h-92.06l-1.49,1.49v123.99c-5.18-3.02-10.45-6-15.96-8.43-28.89-12.77-76.6-13.93-76.6-56.8v-58.76l1.49-1.49h91.06V8.96h93.55Z"/>
        <path d="M139.33,195.2c3.69-3.48,5.18-17.59,3.45-21.87-.65-1.6-4.24-4.81-5.1-7.08-5.73.93-8.95,5.68-15.26,3.05.92-5.66,8.63-6.02,12.93-3.98-4.39-11.38-14,4.77-22.41-3.95-1.63-2.47,4.45-4.83,6.1-5,4.25-.42,7.3,2.98,11.35,2.97.09-4.09-4.96-2.7-7.79-3.65-5.07-1.7-9.45-6.79-9.12-12.28,7.41-.66,10.85,2.05,14.77,7.63.95,1.36,1.04,3.38,2.12,4.85,1.03,1.39,6.65,5.93,7.99,4.95-3.28-2.56-6.05-7.8-2.48-11.44,7.51,4.27-1.1,15.73,8.45,17.9-.52-3.7,1-9.64-.51-12.92-.19-.42-5.52-6.78-5.91-7.04-4.34-2.89-12.44-1.51-11.49-10.9,7.51-.38,10.42,5.15,13.43,10.94.66-3.22-2.42-7.2.99-9.93,3.95,3.31,1.71,6.33.7,10.3l3.77,2.62c-.26-4.31,2.08-7.44.24-11.69-2.05-4.76-15.08-3.81-13.17-14.19,8.08.29,9.72,6.24,13.43,11.93,2.36-1.89,1.54-5.28,1.38-7.84-5.07-.39-8.33-3.86-7.84-9.07.7-.75,4.27,1.6,5,2.46,1.73,2.03,1.13,4.63,2.95,5.5,2.02-5.53-4.74-12.25,1.99-15.93,3.77,6-.64,9.66.02,15.93,2.18-.91,1.38-4.18,3.43-6.02.7-.63,5.03-2.42,5.52-1.94-.43,4.95-3.91,8.97-8.96,8.97l1.01,7.96c5.35-4.79,5.45-12.22,14.91-11.94-.62,8.81-5.59,8.25-10.85,11.54-6.43,4.02-2.1,7.91-3.07,14.35,7.77-1.11-.03-8.98,4.47-12.92,4.41,3.58.99,5.92.99,9.93,3.6-6.41,5.98-11.29,14.43-10.94-.15,3.48-3.11,7.85-6.22,9.2-1.87.81-4.21.41-5.69,1.28-.43.25-6.03,7.19-6.24,7.7-1.98,4.83.33,8.86.25,13.69,8.62-5.31.49-13.58,7.47-18.91,2.41-1,1.6,5.7,1.46,6.45-.49,2.55-3.74,3.25-2.47,5.49,9.96-5.45,9.96-20.32,24.39-17.91-2.36,6.91-3.73,10.1-10.89,12.49-2.5.84-7.17-.68-7.02,3.43,7.06-1.81,13.95-6.19,18.9,1.98-2.88.31-5.54,2.86-8.46,2.86-4.96,0-12.38-8.51-15.42,1.13,4.64-1.95,11.94-2.15,12.93,3.98-6.11,2.57-8.81-1.81-14.24-2.87-7.18,5.13-6.65,13.11-5.58,21.21.36,2.73,1.72,5.15,2.9,7.56h-17.91Z"/>
        <path d="M48.76,71.7l-10.94,8.96,4.96-12.94-12.93,2.49c.8-1.54,10.76-7.73,8.95-9.46l-13.92-1.98,13.93-4.01c.49-2.33-.31-1.6-1.28-2.22-3.2-2.08-7.83-3.15-10.66-6.24l13.92,1.49-6.95-11.95,11.93,5.97-1.49-12.94,8.45,9.95,2.51-12.95c2.25-.73,1.33,2.05,1.61,3.33.69,3.19,1.45,6.39,1.87,9.62,2.29.57,1.63-.45,2.27-1.26,2.38-3.04,5.2-7.11,6.69-10.69,1.85-.23.74,2,.54,3.03-.74,3.93-2.32,7.84-2.54,11.89.85.9,7.97-4.3,9.44-5,1.18-.56,2.56-1.21,2.48.52-.04.92-8.22,9.21-6.94,10.45l13.93-1.98-11.94,8.46,12.93,4.98-12.93,1.49c-1.4,1.34,8.21,8.14,8.95,9.94l-12.93-2.97,3.97,10.94-9.95-6.97v14.94c-2.4-1.21-5.04-12.58-6.48-12.95-2.02-.53-1.38.96-1.97,1.97l-5.49,10.98v-14.94ZM61.54,67.51c3.06-5.39,6.84-5.99,6.17-13.24-1.38-15.1-24.83-14.22-23.97,1.96.52,9.61,9.64,12.24,17.79,11.28Z"/>
      </g>
      <path d="M234.67,109.32h5.04v15.22h19.16v-15.22h5.04v36.84h-5.04v-17.23h-19.16v17.23h-5.04v-36.84ZM277.07,109.32v22.77c0,2.67.5,4.9,1.5,6.67,1.49,2.67,4,4.01,7.52,4.01,4.23,0,7.11-1.45,8.63-4.34.82-1.57,1.23-3.69,1.23-6.34v-22.77h5.07v20.69c0,4.53-.61,8.02-1.83,10.46-2.24,4.45-6.47,6.67-12.69,6.67s-10.44-2.22-12.66-6.67c-1.22-2.44-1.83-5.93-1.83-10.46v-20.69h5.07ZM309.9,109.32h5.04v36.84h-5.04v-36.84ZM323.06,109.32h5.89l18.61,29.84v-29.84h4.74v36.84h-5.59l-18.88-29.82v29.82h-4.76v-36.84ZM376.1,108.37c3.46,0,6.45.67,8.98,2.01,3.66,1.92,5.9,5.29,6.72,10.11h-4.94c-.6-2.69-1.85-4.65-3.74-5.87-1.89-1.24-4.27-1.86-7.15-1.86-3.41,0-6.29,1.28-8.63,3.84-2.32,2.56-3.49,6.37-3.49,11.44,0,4.38.96,7.95,2.88,10.71,1.92,2.74,5.06,4.11,9.4,4.11,3.33,0,6.08-.96,8.25-2.88,2.19-1.94,3.31-5.07,3.36-9.38h-11.54v-4.14h16.17v19.71h-3.21l-1.2-4.74c-1.69,1.86-3.18,3.14-4.49,3.86-2.19,1.24-4.97,1.86-8.35,1.86-4.36,0-8.12-1.41-11.26-4.24-3.43-3.54-5.14-8.41-5.14-14.59s1.67-11.08,5.02-14.72c3.18-3.48,7.29-5.22,12.34-5.22ZM419.06,131.07l-5.59-16.27-5.94,16.27h11.54ZM410.86,109.32h5.64l13.37,36.84h-5.47l-3.74-11.03h-14.57l-3.99,11.03h-5.12l13.87-36.84ZM434.4,109.32h5.89l18.61,29.84v-29.84h4.74v36.84h-5.59l-18.88-29.82v29.82h-4.76v-36.84ZM490.42,131.07l-5.59-16.27-5.94,16.27h11.54ZM482.22,109.32h5.64l13.37,36.84h-5.47l-3.74-11.03h-14.57l-3.99,11.03h-5.12l13.87-36.84ZM505.77,109.32h4.99v32.45h18.66v4.39h-23.65v-36.84Z"/>
      <path d="M260.09,74.06h-3.15c-1.25-5.17-4.64-7.71-10.16-7.63-3.88.07-6.69,1.49-8.46,4.26-1.81,2.74-2.69,6.08-2.67,10.03,0,1.82.19,3.56.57,5.22.39,1.73,1.02,3.29,1.88,4.65,1.68,2.99,4.66,4.51,8.96,4.57,2.8-.03,5.05-.88,6.75-2.56,1.7-1.6,2.86-3.7,3.45-6.29h3.17c-.66,3.19-2.07,5.86-4.24,8-2.19,2.24-5.43,3.39-9.72,3.45-4.92-.09-8.47-1.79-10.64-5.11-2.19-3.22-3.26-7.17-3.23-11.84.03-6.12,1.46-10.49,4.3-13.11,2.77-2.59,6.33-3.88,10.69-3.85,6.95.03,11.12,3.43,12.5,10.2ZM265.19,80.86c0-4.84,1.28-8.85,3.85-12.04,2.53-3.25,6.2-4.9,10.99-4.96,5.08.06,8.89,1.7,11.43,4.92,2.51,3.19,3.76,7.22,3.76,12.08s-1.25,8.67-3.76,11.91c-2.53,3.28-6.29,4.95-11.28,5-4.95-.06-8.68-1.73-11.19-5-2.53-3.23-3.8-7.2-3.8-11.91ZM280.22,95.17c4.17-.06,7.2-1.51,9.11-4.35,1.88-2.77,2.82-6.09,2.82-9.96-.15-9.43-4.15-14.23-12.02-14.42-4.09.07-7.09,1.52-9,4.35-1.94,2.81-2.91,6.17-2.91,10.07,0,1.88.24,3.69.72,5.42.44,1.72,1.15,3.23,2.14,4.54,1.91,2.84,4.95,4.29,9.13,4.35ZM321.59,96.92h-20.32v-32.21h3.04v29.61h17.29v2.6ZM348.05,96.92h-21.87v-32.21h21.44v2.58h-18.4v11.65h16.61v2.6h-16.61v12.78h18.84v2.6ZM378.1,82.87h-10.86v-2.6h13.77v16.65h-2.6v-5.51c-1.06,1.94-2.53,3.47-4.41,4.61-1.94,1.14-4.47,1.72-7.6,1.75-4.15,0-7.51-1.43-10.07-4.3-2.65-2.86-3.99-7.13-4.02-12.83,0-4.87,1.22-8.85,3.65-11.95,2.45-3.16,6.19-4.77,11.23-4.83,3.47,0,6.41.83,8.83,2.49,2.39,1.7,3.94,4.28,4.65,7.71h-3.12c-.57-2.45-1.78-4.33-3.63-5.64-1.85-1.33-4.01-1.99-6.49-1.99-4.21.03-7.28,1.45-9.22,4.26-1.94,2.8-2.89,6.51-2.86,11.14,0,3.64,1.03,6.75,3.08,9.31,2.03,2.62,4.89,3.96,8.59,4.02,1.82,0,3.63-.43,5.42-1.29,1.76-.87,3.2-2.32,4.3-4.35.95-2.03,1.41-4.25,1.38-6.66ZM392.47,96.92h-3.04v-32.21h3.04v32.21ZM399.58,80.86c0-4.84,1.28-8.85,3.85-12.04,2.53-3.25,6.2-4.9,10.99-4.96,5.08.06,8.89,1.7,11.43,4.92,2.51,3.19,3.76,7.22,3.76,12.08s-1.25,8.67-3.76,11.91c-2.53,3.28-6.29,4.95-11.28,5-4.95-.06-8.68-1.73-11.19-5-2.53-3.23-3.8-7.2-3.8-11.91ZM414.61,95.17c4.17-.06,7.2-1.51,9.11-4.35,1.88-2.77,2.82-6.09,2.82-9.96-.15-9.43-4.15-14.23-12.02-14.42-4.09.07-7.09,1.52-9,4.35-1.94,2.81-2.91,6.17-2.91,10.07,0,1.88.24,3.69.72,5.42.44,1.72,1.15,3.23,2.14,4.54,1.91,2.84,4.95,4.29,9.13,4.35Z"/>
    </g>
  </g>
</svg>