<?xml version="1.0" encoding="UTF-8"?>
<svg id="Capa_2" data-name="Capa 2" xmlns="http://www.w3.org/2000/svg" viewBox="0 0 1413.31 540.01">
  <defs>
    <style>
      .cls-1 {
        fill: #060606;
      }
    </style>
  </defs>
  <g id="Capa_1-2" data-name="Capa 1">
    <g>
      <path class="cls-1" d="M257.25,532.99c-35.12,8.73-66.93,9.21-102.39,2.02-19.2-3.94-37.71-9.45-56.08-16.45-34.67-13.2-67.52-30.21-98.53-50.51L.08,204.31l-.08-176.78c33.3,7.87,66.2,8.15,99.2-.89l59.89-17.83c10.8-3.21,21.27-5.56,32.29-7.59,8.03-1.48,15.5-1.62,23.63-.39,14.46,2.19,28.27,5.53,42.19,10.1l36.12,11.84c27.57,8.77,55.82,12.67,84.76,11.63,8.87-.11,17.33-.75,26.21-2.55v429.81c-27.59,19.86-56.72,36.75-87.64,50.58-19.3,8.63-38.95,15.64-59.42,20.76ZM16.71,320.08v60.05s-.02,78.88-.02,78.88c27.69,17.23,56.39,31.94,86.64,43.54,19.87,7.62,39.93,13.6,60.83,17.38,33.25,6.07,63.1,4.24,95.58-4.65,45.74-12.69,88.69-35.28,128.11-62.19l-.05-72.6-.04-60.01V50.59c-34.13,2.12-67.62-1.53-99.97-12.2l-34.3-11.31c-12.91-4.07-25.55-7.38-38.86-9.61-7.72-1.29-14.78-1.21-22.43.36-11.02,2.26-21.52,4.82-32.41,7.99l-56.58,16.75c-28.11,8.32-57.63,9.17-86.66,4.96l.03,69.03.13,203.5Z"/>
      <path class="cls-1" d="M621.88,385.92l-55.2,107.67-11.52-42.21,21.46-31.84,23.81-41.47,35.43-70.79-119.49-.12,24.08-15.22,102.59,1.11,44.91-99.66-3.22-10.4,23.53-22.4,5.02,17.2,15.88,66.1,42.97,190.08-29.21,29.61-1.43-18.47-5.79-39.38-17.81-97.96-61.14-.03-9.04,23.2-25.81,54.99ZM714.53,291.97l-19.46-74.03-31.9,74.48,51.36-.45Z"/>
      <path class="cls-1" d="M1127.52,402.41c-2.72,6.72-5.1,13.64-9.16,20.06-6.33,10.71-15.73,18.46-27.4,22.98-10.09,3.9-20.51,6.21-31.45,6.88-29.95,1.86-56.07-19.66-57.76-50.32-.51-9.29,1.18-17.95,4.27-26.72,5.41-15.35,13.19-29.45,24.06-41.56,19.94-22.22,47.36-34.18,75.52-20.13,6.75,3.72,12.16,8.76,15.7,15.85l17.72-7.7,4.21,61.67,1.78,25.24,5.93,35.66-23.3,8.65-.12-50.55ZM1107.49,408.17c9.8-16.5,15.19-41.24,7.41-59.13-2.91-6.7-7.73-11.93-14.33-14.98-22.38-10.36-45.65.53-59.65,19.62-15.81,21.56-25.69,59.59.56,74.48,22.69,12.87,52.46,2.81,66-20Z"/>
      <path class="cls-1" d="M775.13,170.11c23.66,8.98,45.25,2.43,67.26-8.28,13.29-6.54,25.45-14.14,37.9-23.13l-1.39,15.68c-14.01,11.39-29.19,20.95-45.79,28.34-16.9,7.53-35.14,12.15-53.27,10.2-35.74-3.84-59.43-37.82-51.29-72.66,3.36-14.4,8.12-28.22,14.71-41.71,14.83-30.36,35.5-57.39,67.11-71.02,19.19-8.28,43.25-10.13,56.03,8.04l-1.71,11.93c-9.47-10.58-20.66-15.21-34.32-11.09-23.99,7.22-44.28,26.24-57.06,47.61-10.34,17.29-17.19,36.36-20.42,56.24-3.39,20.87,1.44,41.96,22.23,49.85Z"/>
      <path class="cls-1" d="M1413.24,512.11c.14.6.06,1.21-.08,1.38-.28.36-.71.19-1.62.19h-786.16c-.4-2.46-.4-5.04,0-7.68h787.64c.52,2.03.19,3.86.23,6.11Z"/>
      <polygon class="cls-1" points="850.59 439.53 821.35 452.99 825.36 320.03 825.73 297.77 824.61 212.26 850.67 224.66 849.72 392.3 850.59 439.53"/>
      <path class="cls-1" d="M1145.46,221.26c3.44,8.05,9.89,13.59,18.16,15.7,11.48,2.9,22.04,2.79,28.34-7.78l4.95-10.88c2.74-6.03,4.11-12.08,4.85-18.79,1.64-15.07,2.03-29.81,1.69-45.4-2.55,6.4-5.5,12.32-10.44,17.13-5.14,4.94-11.16,8.11-18.15,9.67-13.58,4.06-27.72-1.56-35.07-13.76-4.3-7.13-5.72-15.3-5.01-23.86,1.47-17.6,10.63-33.87,24.76-44.24,9.3-6.82,20.51-9.01,31.39-5.53,6.24,2,11.14,6.55,13.19,12.89l13.03-8.95-1.47,78.33c-.21,10.97-2.22,21.29-5.11,31.75-6.13,22.2-19.75,41.28-44.09,42.59-19.42,1.05-31.21-15.06-35.65-32.96l10.73-17.02c.21,7.59.78,14.35,3.91,21.1ZM1169.21,167.74c15.45-1.26,27.76-11.96,32.32-26.33,4.56-14.37,2.76-31.61-12.37-36.15-8.51-2.55-17.13-.89-23.97,5.3-11.08,10.02-19.88,29.2-15.55,43.89,2.53,8.59,10.21,14.06,19.58,13.29Z"/>
      <path class="cls-1" d="M1317.13,372.32c-8.98,10.94-10.66,19.08-11.71,32.75s-.48,26.83.55,40.38l-27.37,9.26c-.83-7.13-.22-13.61.15-20.63l5.64-58.5.21-16.35-1.99-36.39,24.38-10.31.14,44.13c11.96-14.4,24.74-27.1,41.21-35.8,6-3.04,11.96-5.42,18.79-6.22l-1.65,6.11-1.49,16.63c-4.35.7-8.07,2.27-11.88,4.58-13.27,8.02-24.99,18.17-34.99,30.36Z"/>
      <polygon class="cls-1" points="942.31 444.87 913.02 452.46 914.39 434.81 920 344.09 882.08 345.62 890.78 328.8 919.98 328.25 920.53 300.63 942.26 296.27 941.21 327.72 986.2 326.06 979.73 343.45 939.53 343.45 939.08 364.63 942.31 444.87"/>
      <path class="cls-1" d="M1200.29,454l4.12-63.97.44-25.52c-.6-15.63-2.12-30.83-4.63-46.25l25.69-5.14,2.9,115.62.68,15.96-29.19,9.3Z"/>
      <path class="cls-1" d="M1111.73,161.44c.65,2.32.61,4.49.59,6.84-9.72,11.91-28.66,13.05-43.57,12.45-15.63-3.83-29.9-16.34-30.5-32.81-.31-8.48.84-16.77,3.33-24.87,6.81-22.14,26.25-36.9,49.53-32.9,15.9,3.12,21.53,17.94,21.39,33.33l-61.27,17.87c-.59,9.14,2.69,17.95,9.9,23.43s16.22,7.25,25.28,6.01c8.98-1.31,17.04-4.55,25.32-9.34ZM1101.16,120.09c-.25-5.37-2.18-9.8-5.29-13.57-7.97-8.81-21.25-7.27-29.75.86-6.79,6.5-11.12,14.97-14.34,24.09l49.37-11.38Z"/>
      <path class="cls-1" d="M1352.08,169.59c-11.25,13.13-28.32,14.8-44.4,10.12-10.57-3.07-18.45-10.8-22.02-21.16-3.69-10.72-4.49-24.7-.03-35.31,5.12-12.19,14.44-22,26.33-27.74,8.22-3.97,16.79-4.77,25.59-2.76,6.1,1.4,11.85,3.26,16.67,7.39,5.08,4.34,8.1,10.33,9.25,17.1,2.85,16.83,0,39.07-11.38,52.35ZM1326.04,171.57c11.43-.56,20.43-7.06,24.32-17.77s4.4-22.03,1.78-32.83c-2.05-8.45-8.03-14.64-16.14-17.07-9.87-2.95-20.36-2.17-28.44,4.41-13.58,11.07-16.24,31.14-9.29,46.66,4.95,11.06,15.55,17.21,27.78,16.6Z"/>
      <path class="cls-1" d="M972.09,160.48c-10.22,18.59-29.81,22.8-49.38,17.01-10.24-3.03-17.87-10.28-21.56-20.25-2.12-5.73-3-11.54-3.32-17.73-.36-6.98.65-13.55,3.61-19.97,5.18-11.25,14.02-20.48,25.16-25.96,11.8-5.81,23.86-4.98,35.78.07,15.91,6.74,18.12,23.52,17,39.64-.67,9.65-2.67,18.82-7.28,27.2ZM964.94,153.03c4.2-10.33,4.88-21.7,2.77-32.49-1.07-5.47-3.65-10.38-7.67-13.97-4.58-4.1-10.3-5.59-16.29-6.27-20.43-2.33-34.11,15.36-34,34.87.04,6.94,1.36,13.47,4.56,19.44,5.53,10.33,16.04,15.65,27.66,14.75,10.31-.8,18.9-6.33,22.97-16.33Z"/>
      <path class="cls-1" d="M1013.29,173.13l-14.66,8.33,2.28-121.51-1.02-29.04c4.38,2.82,8.11,5.81,13.36,6.97l.03,135.25Z"/>
      <path class="cls-1" d="M1241.53,182.95l2.64-52.05c.58-11.41-1.19-22.25-2.74-33.52l15.2-3.23,2.11,83.06-17.21,5.75Z"/>
      <polygon class="cls-1" points="1225.96 292.53 1200.29 299.46 1201.13 278.72 1226.78 271.86 1225.96 292.53"/>
      <polygon class="cls-1" points="1256.69 81.22 1241.52 85.47 1241.93 72.4 1257.22 68.07 1256.69 81.22"/>
      <path class="cls-1" d="M387.75,320.48l.04,60.01-371.09-.37v-60.05s371.05.41,371.05.41ZM202.17,371.48l6.66-14.53,14.66-6.71-14.7-6.73-6.63-14.65-6.68,14.73-14.57,6.62,14.5,6.62,6.75,14.65ZM57.61,361.34l4.07-8.12,7.97-4.18-7.91-4.02-4.14-8.05-4.12,8.05-7.94,4.02,7.98,4.17,4.09,8.13ZM102.91,361.29l3.69-8.24,8.31-4.01-8.25-3.82-3.9-8.37-3.93,8.42-8.23,3.71,8.08,4.23,4.23,8.09ZM147.91,361.24l4.23-8.13,7.92-3.94-8.02-4.18-4.05-7.89-4.18,7.98-8.09,4.01,8.36,3.83,3.83,8.31ZM256.43,361.24c1.54-2.39,2.04-6.08,4.14-8.15l7.83-4.11-8.16-3.75-3.93-8.39-3.77,8.25-8.4,3.88,8.1,4.23,4.18,8.04ZM301.53,361.36l3.96-8.47,8.2-3.64-8.09-4.27-4.05-7.88-4.04,7.81c-2.13,2.11-5.71,2.45-8.23,4.19l8.38,3.82,3.87,8.44ZM346.79,361.3l3.83-8.37,8.22-3.7-8.07-4.29-4.02-7.86-4.24,8.03-7.84,4.03,7.91,3.99,4.23,8.16Z"/>
      <polygon class="cls-1" points="297.21 107.39 206.65 247.88 202.78 253.6 195.11 226.04 192.96 218.03 186.44 194.5 184.85 188.57 77.64 199.08 49.84 201.65 182.02 146.32 246.83 119.2 255.12 115.72 305.26 94.83 297.21 107.39"/>
      <polygon class="cls-1" points="233.71 65.24 246.83 119.2 182.02 146.32 230.72 53.65 233.71 65.24"/>
      <path class="cls-1" d="M281.15,262.71c.41,1.7,1.07,3.43.93,5.62l-50.06-44.45,28.96-44.89,20.17,83.71Z"/>
      <path class="cls-1" d="M192.96,218.03c-.84.31-1.26.84-2.13,1.55l-67.38,54.68-16.02,12.68,46.69-88.98,32.32-3.47,6.52,23.54Z"/>
      <path class="cls-1" d="M283.29,409.22c.28,3.44-1.28,7.06-4.7,7.78l-7.67.23-.02-14.08,6.72.07c3.24.03,5.39,2.56,5.67,6ZM278.9,413.33c.83-1.92.78-4.06.2-5.89-.65-2.01-2.54-2.96-4.59-2.54v10.48c1.77.51,3.58-.15,4.39-2.05Z"/>
      <path class="cls-1" d="M332.69,409.92c.03,3.48-1.7,6.64-5.05,7.16l-7.29.18-.03-14.17,6.34.08c3.66.04,6.01,2.77,6.04,6.75ZM328.32,413.32c.76-1.79.72-3.75.3-5.49-.52-2.19-2.49-3.35-4.7-2.93v10.47c1.81.56,3.59-.13,4.4-2.04Z"/>
      <path class="cls-1" d="M207.29,477.09c.1,3.64-1.75,7.29-5.28,7.34l-7.1.1.03-13.98,6.13-.02c3.65-.01,6.11,2.65,6.22,6.57ZM203.12,480.08c.52-1.82.51-3.64-.04-5.25-.7-2.04-2.65-3.13-4.54-2.55v10.49c1.9.5,3.93-.42,4.57-2.69Z"/>
      <path class="cls-1" d="M290.77,443.95c-.06,4.42-2.7,7.13-6.97,7.17-1.9.02-3.95-.24-5.41-1.49-2.79-2.4-3.06-8.21-.59-10.98,1.43-1.61,3.54-2.08,5.74-2.13,4.46-.09,7.29,2.86,7.22,7.43ZM286.44,440.42c-.51-1.46-1.76-2.31-3.08-2.3-3.52.04-4.37,5.98-2.6,9.91.61,1.37,2.18,1.64,3.44,1.38,2.76-.57,3.45-5.53,2.24-8.99Z"/>
      <path class="cls-1" d="M122.17,450.74l-3.13-5.35c-.51,2.05-.2,3.58-.2,5.49l-3.66-.03v-14.11s6.11.05,6.11.05c2.01.02,3.42,1.38,3.77,3.01.44,2.05-.5,3.75-2.78,4.52l3.68,6.31c-.85.26-2.62.61-3.78.13ZM118.87,443.53c2.45-.28,2.59-1.68,2.57-2.93s-.76-2.41-2.66-2.31l.09,5.24Z"/>
      <path class="cls-1" d="M160.17,477.12c1.87,1.09,2.43,2.46,2.22,4.04s-1.25,3.27-3.08,3.29l-7.08.07v-13.99s6.15-.04,6.15-.04c1.85-.01,3.32.86,3.66,2.4s.13,3.16-1.86,4.24ZM156.06,476.33c1.05,1.01,2.62-.59,2.63-1.8.01-1.7-.72-2.92-2.77-2.39.03,1.02-.49,3.17.14,4.19ZM158.81,480.42c-.07-1.74-1.33-2.6-2.94-2.16l.09,4.41c.21.54,1.76.33,2.17-.07.45-.44.72-1.1.68-2.18Z"/>
      <path class="cls-1" d="M254.5,484.49l-3.31-5.41-.17,5.39-3.62.06v-14.05s5.99,0,5.99,0c2.21,0,3.7,1.35,4.02,3.41.27,1.76-.81,3.45-2.85,4.19l3.75,6.37c-1.15.08-2.58.28-3.81.04ZM251.28,477.18c2.72-.39,2.48-1.98,2.45-3.35-.03-1.14-1.53-2.37-2.53-1.64-.48,1.3-.3,3.57.08,4.99Z"/>
      <path class="cls-1" d="M177.1,417.07c-1.02.3-1.88.17-2.94.14l-7.1-9.29-.13,9.14c-.38.22-1.06.24-1.75.11v-14.02s3.08.02,3.08.02l6.85,9.2.23-9.26h1.72s.02,13.97.02,13.97Z"/>
      <path class="cls-1" d="M200.26,445.3l-.16,5.53-3.68.02v-14.11s5.95.05,5.95.05c2.35.02,3.99,1.38,4.23,3.48s-.61,3.96-2.86,4.68c-.95.3-1.98.34-3.47.35ZM202.02,438.65c-.42-.31-1.42-.42-1.88-.08l.06,5.01c.63.42,1.9-.15,2.21-.65.88-1.48.66-3.52-.39-4.28Z"/>
      <path class="cls-1" d="M107.14,403.12h1.74s-.06,9.37-.06,9.37c-.02,3.36-2.5,4.9-5.66,4.97-2.76.06-6.05-.86-6.09-4.02l-.15-10.32h3.67s.05,9.9.05,9.9c0,1.86,1.7,2.69,3.26,2.67,1.43-.01,3.18-.85,3.19-2.68l.06-9.89Z"/>
      <path class="cls-1" d="M302.87,413.49c-1.68-.43-3.24-.41-4.78.01l-1.26,3.64c-.51.09-1.03.17-1.8,0l4.79-13.87c1.02-.3,2.06-.3,3.13,0l5.08,14-4.05-.1-1.12-3.66ZM302.02,411.47c-.57-2.02-.69-3.02-1.6-4.59l-1.57,4.65c1.22.11,1.91.15,3.18-.07Z"/>
      <path class="cls-1" d="M79.49,413.8c-1.02-1.09-3.3-.59-4.55-.33l-1.37,3.56c-.2.38-1.51.35-1.73-.13l4.75-13.62c1.13-.32,2.12-.3,3.16,0l4.88,13.88-3.85-.02-1.29-3.33ZM78.84,411.47l-1.77-4.77-1.44,4.81c1.28.16,2.03.2,3.21-.03Z"/>
      <path class="cls-1" d="M110.05,484.65c-1.89.33-3.99.1-5.65-.9-.27-.43-.15-1.6.38-2.24,1.17.63,2.22,1.44,3.67,1.4,1.06-.03,1.87-.63,2.01-1.53.45-2.89-7.76-2.6-5.99-8.31.88-2.86,5.06-3.65,8.41-2.07.4.33.1,1.84-.56,2.04-1.15-.98-3.31-1.7-4.31-.45-2.33,2.91,5.88,2.45,5.86,7.36,0,2.3-1.3,4.26-3.82,4.7Z"/>
      <path class="cls-1" d="M231.41,470.8c.01-.51,1.52-.5,1.61-.13l-.18,10.22c-.05,2.9-3.23,3.93-5.86,3.93s-5.58-.95-5.64-3.72l-.24-10.51c1.37-.24,2.28-.24,3.6.02l.18,10.11c.03,1.66,1.9,2.31,3.28,2.27s3-.78,3.04-2.46l.21-9.73Z"/>
      <path class="cls-1" d="M174.92,450.96c-1.98.38-4.09.09-5.63-.9-.6-.39-.07-2.15.57-2.09,1.42,1.14,3.97,2.09,5.1.38,1.99-3.04-5.38-2.98-5.88-6.89-.25-1.92.62-3.82,2.61-4.53s4.27-.51,6.02.35c.31.52.11,1.85-.64,2.17-1.21-1.28-3.8-1.87-4.53-.06-1.08,2.69,6.18,2.14,6.1,6.97-.04,2.07-1.13,4.1-3.72,4.59Z"/>
      <path class="cls-1" d="M296.5,480.75c-1.36-.23-3.39-.61-4.57.12-.95.77-1.04,2.68-1.42,3.64-.78.07-1.1.09-1.81-.14l4.81-13.6c.51-.55,2.15-.42,3.05-.13l4.99,13.79c-1.54.22-2.64.19-3.91.02l-1.14-3.69ZM295.66,478.77c-.43-1.67-.64-2.95-1.72-4.48l-1.5,4.49c1.4.26,2.04.21,3.21,0Z"/>
      <path class="cls-1" d="M151.86,410.89c-1.48-.04-2.9-.16-4.48.18v4.36s4.51.08,4.51.08v1.71s-8.13.04-8.13.04v-14.17s8.12.03,8.12.03v1.61s-4.5.09-4.5.09v4.38s4.51.08,4.51.08l-.03,1.62Z"/>
      <path class="cls-1" d="M133.78,481.02c-1.18-1.01-3.29-.48-4.55-.29l-1.29,3.63c-.34.23-1.14.34-1.83.05l4.85-13.54c.24-.66,2.18-.55,3.02-.31l5,13.82c-1.47.26-2.49.21-3.71.11l-1.48-3.47ZM133.18,478.78l-1.65-4.68-1.67,4.73c1.32.16,1.91.16,3.31-.05Z"/>
      <path class="cls-1" d="M232.42,444.42l-4.5.14v4.54s4.32.03,4.32.03c.08.57.1,1.07-.03,1.77l-8.03-.02.02-14.15h8.02c.1.48.12.99.02,1.61l-4.33.03.02,4.52h3.91c.16.01.83.35.59,1.52Z"/>
      <path class="cls-1" d="M151.52,444.47l-4.26.17c-.2,1.51-.2,2.87,0,4.44l4.27.06c.12.58.14,1.06.02,1.69l-8.07.03v-14.12s8.03,0,8.03,0c.13.49.18.99.04,1.68h-4.31c-.19,1.54-.2,2.86.03,4.48l4.26.05c.08.19.19.97-.02,1.53Z"/>
      <path class="cls-1" d="M233.85,406.47c-1.79,3.25-.71,8.31,2.08,9.07,1.43.39,2.79-.16,4.17-1.13.49.24.59,1.85.1,2.27-2.36,1.04-5.38,1.05-7.74-.03-2.61-1.19-3.13-3.88-3.25-6.52-.17-3.79,2.01-6.86,5.97-7.14,1.6-.11,3.64-.32,4.98.6.56.39.44,2.02-.12,2.3-2.09-1.77-4.92-1.74-6.2.58Z"/>
      <path class="cls-1" d="M256.17,450.81l-3.66.04v-12.07c-1.4-.34-2.41-.21-3.7-.08.13-.77.11-1.21.02-1.95h11c-.1.74-.11,1.19.02,1.95-1.29-.13-2.3-.26-3.7.08l.02,12.03Z"/>
      <path class="cls-1" d="M128.03,417.14l-3.67.05v-12.26s-3.42.02-3.42.02c-.28-.74-.18-1.48.11-1.85h10.33c.28.39.37,1.11.11,1.84h-3.44s-.02,12.2-.02,12.2Z"/>
      <path class="cls-1" d="M196.48,417.27l-3.62-.11-.03-11.81c-.68-.71-2.21-.59-3.4-.3-.28-.7-.24-1.24-.15-1.95h10.69c.14.55.19,1.02.05,1.81-1.24-.04-2.28-.16-3.6.15l.07,12.2Z"/>
      <polygon class="cls-1" points="215.96 417.13 212.31 417.21 212.29 403.1 215.95 403.1 215.96 417.13"/>
      <polygon class="cls-1" points="257.01 417.18 253.38 417.19 253.38 403.1 257.02 403.09 257.01 417.18"/>
      <path class="cls-1" d="M275.45,484.4c-1.32.28-2.5.17-3.69.1v-13.91c1.18-.2,2.34-.22,3.67.03l.03,13.79Z"/>
      <path class="cls-1" d="M180.16,484.31c-1.36.39-2.36.3-3.58.13v-13.83c1.22-.24,2.2-.24,3.56.02v13.68Z"/>
    </g>
  </g>
</svg>