<?xml version="1.0" encoding="UTF-8"?>
<svg id="Capa_2" data-name="Capa 2" xmlns="http://www.w3.org/2000/svg" viewBox="0 0 358.53 190.23">
  <g id="Capa_1-2" data-name="Capa 1">
    <g>
      <path d="M180.94,0l-8.97,37.9,20.91-5.02L184.93,0h15.96c.72,3.23,7.89,25.11,9.03,25.89,2.57,1.75,6.59-5.1,8.91-5.94,1.87,9.87-10.69,13.76-18.16,16.24-18.34,6.09-38.74,6.55-56.13,15.69-.73-4.01,4.09-6.3,5.99-9.97,5.32-10.32,10.07-26.05,14.5-37.39.56-1.45.99-2.95.96-4.52h14.96Z"/>
      <path d="M221.83,54.86l14.97,42.89c-6.75-1.67-13.7-2.66-20.56-3.87-2.84-.5-6.87,1.09-8.17-1.8l-7.13-30.18,20.9-7.04Z"/>
      <path d="M134.04,83.78c-1.74.23-1.11-3.53-.92-4.42,2.47-11.73,17.53-16.3,27.65-19.23,15.62-4.52,33.42-6.68,48.63-12.22,7.81-2.85,13.39-6.31,18.41-13,.47,5.14-.01,9.05-3.45,13-8.29,9.53-56.23,17.72-70.89,22.88-6.73,2.37-16.62,6.11-19.43,13Z"/>
      <path d="M295.64,140.66c.59.62,1.11,14.72,2.5,16.96,1.23.01,3.51-16.12,4.62-16.84.52-.34,11.15-.34,11.7.01,1.52.97,3.52,16.84,4.63,16.83,1.4-2.24,1.91-16.34,2.5-16.96.4-.41,8.28.27,9.96,0-2.6,4-3.21,18.27-5.47,20.95-1.16,1.37-12.81,1.38-13.38.89-.67-.57-2.83-13.8-3.58-15.86-2.64,2.05-3.35,15-4.63,15.82-.72.46-11.95.35-12.89-.31-1.43-1-4.43-18.35-4.93-21.5,1.59.26,8.59-.39,8.97,0Z"/>
      <path d="M159.85,129.81c1.48.96,10.78,28.87,13.1,32.78-2.38-.36-7.16.8-9.01-.45-2.45-1.65-1.19-9.55-6.4-9.58-10.56-.05-13.3,13.28-24.48,10.03l13.44-31.94c1.23-1.26,12.33-1.5,13.36-.83ZM153.99,135.66c-1.62-1.73-1.69.54-2.08,1.4-1.8,3.95-2.14,8.88-4.89,12.56.42.35,9.64-3.6,9.89-4.56.12-.48-2.58-9.04-2.92-9.4Z"/>
      <path d="M138.05,66.83c-.94-11.51,13.9-15.18,22.72-17.67,20.95-5.93,48.39-5.85,63.05-23.23.36,13.13-8.87,16.56-19.5,19.89-21.76,6.82-47.41,7.91-66.26,21.01Z"/>
      <path d="M232.81,129.68v32.92c-3.75-.54-9.15,2.06-7.99-3-8.96,6.93-19.3,3.7-19.01-8.49.27-11.22,10.08-12.81,19.01-9.46.24-8.21-2.77-13.08,7.99-11.97ZM224.72,146.74c-16.31-4.79-11.18,15.64-1.9,8.35,2.78-2.18,2.2-5.08,1.9-8.35Z"/>
      <path d="M71.21,129.68v13.97c17.74-10.91,18.75,4.89,17.96,18.96h-8.99c-.57-3.05,1-11.98-.43-14.03s-8.54-.38-8.54.06v13.97h-7.98v-31.92c0-.4,7.03-1.06,7.98-1Z"/>
      <path d="M162.98,71.82l-5.11,21.81c-9.71-.01-19.25,2.52-28.79,4.11,3.31-16.85,19.2-22.03,33.91-25.92Z"/>
      <path d="M32.65,143.98c11.46-11.91,37.71,3.09,22.65,16.17-11.84,10.29-34.89-3.44-22.65-16.17ZM50.02,147.87c-2.64-2.61-10.96-2.42-11.73,2.31-2.02,12.39,19.3,5.18,11.73-2.31Z"/>
      <path d="M267.72,153.62c-.48,2.33.28,1.6,1.28,2.25,5.67,3.65,9.83.36,15.67-.25,2.57,11.52-19.97,8.47-23.96,3.24-9.92-12.99,11.64-26.19,21.66-14.91,1.24,1.4,4.37,9.67,1.81,9.67h-16.46ZM276.69,147.65c-1.46-1.51-9.39-1.85-9.97,1.97.79-.14,12.87,1.03,9.97-1.97Z"/>
      <path d="M93.16,140.65c3.75.54,9.15-2.06,7.99,3,17.73-10.94,18.74,4.92,17.95,18.95h-8.99c-.57-3.05,1-11.98-.43-14.03s-8.54-.38-8.54.06v13.97h-7.98v-21.95Z"/>
      <path d="M357.45,141.69c.46.48-.2,4.64.04,5.94l-14.96-.98c3.87,4.42,16.79,1.79,15.96,10.36-.91,9.35-22.58,6.4-23.8,4.45-.68-1.08.14-4.29-.13-5.85.52-.57,14.91,4.54,14.94.5,0-1.47-6.69-1.85-8.51-2.44-12.65-4.14-6.77-13.83,4.04-14.1,1.42-.03,11.98,1.67,12.42,2.12Z"/>
      <path d="M176.95,140.65c.32-.31,6.38.59,7.97-1l.5,3.98c4.38-4.61,16.47-5.6,16.47,2.5v16.46h-7.99c-.49-3.4,1.6-14.53-2.46-15.04-10.46-1.29-5.44,8.04-6.51,15.04h-7.99c.59-3.02-.79-21.19,0-21.95Z"/>
      <path d="M26.32,129.68v22.44c0,7.02-8.93,11.98-15.34,11.39-6.79-.63-12.58-1.91-10.59-9.89,3.88.88,13.29,4.08,16.05.59.76-.96,1.77-12.5,1.94-15.02.56-8.27-4.24-10.39,7.94-9.52Z"/>
      <path d="M237.8,140.65c.29-.27,6.43.07,7.97-1l.5,3.99c5.75-5.81,12.2-6.18,10.48,4-13.52-1.92-11.02,4.49-10.97,14.96h-7.99c.6-2.93-.8-21.2,0-21.95Z"/>
      <path d="M295.66,186.53c2.1.35,3.78-10.71,5.97-7.97v10.96c-4.33.85.75-5.05-1.49-6.99l-2.51,5.99c-3.44.75-1.86-3.54-3.97-3.98-1.61,11.55-4.81-1.69-1.99-6.99,2.6,1.67,3.51,6.12,3.99,8.97Z"/>
      <path d="M122.1,185.53l.99-6.97c1.23-1.62,1.81.02,1.99,1.47.38,2.95-.27,6.45,0,9.49-4.18.11-3.86-5.48-6.97-6.98-.6,2.11,1.72,7.8-2,6.98v-10.96c1.24-1.43,5.98,5.53,5.99,6.97Z"/>
      <path d="M257.74,178.55c10.38-3.39,12.87,11.04,3.47,11.05-5.65,0-2.9-7.03-3.47-11.05ZM259.75,187.53c1.71,1.71,7.31-1.5,4.5-6-3.78-6.06-6,4.5-4.5,6Z"/>
      <path d="M65.23,189.53c.28-1.78-.4-10.59,0-10.98.95-.95,8.32-.54,8.98,3.55.97,5.93-3.82,7.88-8.98,7.43ZM67.23,187.53c1.71,1.71,7.31-1.5,4.5-6-3.78-6.06-6,4.5-4.5,6Z"/>
      <path d="M248.76,189.53c-4.03-3.43-5.61-4.77-8.96,0-.23-1.6,2.54-10.62,2.99-10.97,2.39-1.86,6.52,9.09,5.96,10.97Z"/>
      <path d="M53.25,178.55l4,10.96c-2.95.64-1.99-3.11-4.48-3.09-2.83.03-3.38,1.93-5.49,3.1-.67-1.85,3.8-13.03,5.97-10.97Z"/>
      <path d="M108.12,178.56l-5.99,3.47,4.99,2.49h-4.99s0,3,0,3l5.99.5c-10.77,7.2-12.05-13.29,0-9.46Z"/>
      <path d="M213.85,189.53c-4.03-3.43-5.61-4.77-8.96,0-.24-1.55,2.54-10.63,2.99-10.97,2.42-1.83,6.11,8.95,5.96,10.97Z"/>
      <path d="M282.68,178.56l-.48,1.97c-5-2.64-7.04,3.43-.51,2.02.21,4.47-5.46-.65-4,4.98.71.74,6.09-1.7,4.99,1.99h-6.98s0-10.97,0-10.97h6.98Z"/>
      <path d="M166.97,178.56l-.47,1.97-4.51,2.01c10.58.25,4.38,11.57-2,5l5.98-1.99c-8.01-1.7-8.41-8.36.99-6.99Z"/>
      <path d="M84.17,178.56c.59.59,1.33,6.67,2.52,6.99,3.36.9.38-9.22,5.48-6.98l-5.49,10.94c-1.13.02-4-8.09-4.33-9.63-.42-1.92,1.3-1.85,1.83-1.32Z"/>
      <path d="M230.81,178.56l-.47,1.97c-4.64-3.98-8.96,4.2-5.56,6.56,1.89,1.32,6.24-.86,7.03,1.42-12.09,4.85-14.47-12.26-.99-9.96Z"/>
      <path d="M313.62,182.55l5.97-3.98c-1.86,3.59-4.87,6.49-4,10.96l-4.97-10.48,3,3.5Z"/>
      <path d="M183.93,178.56c.03,2.03-3.05.26-3.87,2.6s.72,6.09-.61,8.35c-2.89-1.57-.73-9.12-1.57-9.92-.6-.57-3.25.9-2.92-1.04h8.97Z"/>
      <path d="M141.03,178.56c.34,1.94-2.31.47-2.92,1.04-.42.4.9,13.81-2.06,9.92-.42-2.87.54-6.77.06-9.42-.25-1.41-3.4.5-3.06-1.53h7.97Z"/>
      <path d="M152.01,178.56c-2.21,3.65,2.29,8.72-1.98,10.97l-1-10.97h2.99Z"/>
    </g>
  </g>
</svg>