<?xml version="1.0" encoding="UTF-8"?>
<svg id="Capa_2" data-name="Capa 2" xmlns="http://www.w3.org/2000/svg" viewBox="0 0 570.2 579.38">
  <defs>
    <style>
      .cls-1 {
        fill: #060606;
      }
    </style>
  </defs>
  <g id="Capa_1-2" data-name="Capa 1">
    <g>
      <path class="cls-1" d="M291.11,114.01l-.19,197.67,139.22.22v98.85c-1.86,24.3-14.68,43.76-31.69,60.31-28.42,27.65-70.43,48.12-107.63,60.97l-.04-167.76-.05-52.33-52.76-.1-87.37-.52.07-197.28,140.43-.02ZM190.14,228.19c-3.59-7.6-5.6-14.45-5.86-22.65-.49-15.53,9.56-30.41,25.42-33.23,16.06-2.85,46.54,3.08,46.27,21.43,2.54-6.61,5.02-12.58,9.01-18.09.89-1.22,2.55-1.61,3.14-3.71-13.18-3.13-25.95-5.41-39.32-5.94-10.84-.43-21.38,1.96-31.08,6.2-18.01,7.88-27.77,24.76-27.74,44.05.03,20.01,8.75,37.86,25.82,48.59,8.43,5.3,17.59,7.89,27.96,7.23,13.53-.86,26.48-4.94,38.51-11,.89-.45,1.35-1.82.75-2.42-.3-.3-.92-.36-1.78.01-29.1,12.71-58.02-2.77-71.09-30.48ZM335.65,387.27l31.2.29,13.13,29.43c3.69,8.27,8.97,19.41,17.02,20.3,6.14.68,12.1.35,18.05-.83-4.01-2.26-7.01-4.62-9.08-8.17l-6.63-11.38c-7.6-15.09-13.42-30.48-19.65-46.24l-12.64-31.98c-1.43-3.63-4.79-6.1-8.82-5.93l-19.63.83.08.98c2.64.99,6.1-.56,8.65,2.26,1.12,1.24,1.51,3.04.94,4.66l-6.65,18.82-26.48,59.95c-3.06,6.92-7.7,12.15-13.16,17.02l14.27.94,20.85-2.12-9.27-2.87c-12.96-4.01-4.31-20.94.56-32.91,1.8-4.72,3.63-9.29,7.29-13.05Z"/>
      <path class="cls-1" d="M379.21,62.77l-.16-13.08-13.1-4.99-8.21,9.24c-.64.72-1.03,1.83-.77,2.64.21.63,1.29,1.24,2.34,1.51,1.21.27.6,1.77-.45,1.4-9.31-4.44-18.91-6.64-29.19-7.34-.52-.04-.86-.17-1.16-.4s-.32-.44-.03-.73c.27-.27.64-.4,1.11-.32,2.57.41,3.92-1.06,4.29-3.34l2.99-18.29-23.6-3.57-2.66,18.91c-.68,4.86,5.31,2.81,5.7,5.59l-19.45-2.78c-.2-1.23.57-1.41,1.29-1.28,2.57.45,3.9-1.18,4.26-3.5l5.63-36.21c.19-1.23-.17-2.51-.83-3.12-1.91-1.76-5.17-.52-4.27-2.92l19.14,3.4c-2.08,1.23-5.21-.06-5.63,2.46l-2.63,15.87,23.44,3.65,2.29-15.86c.29-1.99-2.57-3.05-4.42-3.04-1.37,0-1.07-1.69.15-1.5l17.91,2.78c.68,2.46-1.96.25-4.26,1.52-.6.33-1.2,1.39-1.37,2.53l-5.47,37c-.18,1.22.3,2.28.76,2.98.49.75,1.98.67,2.6.95,3.58,1.61,5.83.9,8.26-1.73l31.87-34.55,1.55,47.12c.12,3.71,2.2,5.14,5.55,7.68-5.86-.75-10.15-3.54-15.67-5.4,1.29-1.09,2.18-1.7,2.16-3.29ZM379.1,46.08l.06-16.69-10.96,12.5,10.9,4.19Z"/>
      <path class="cls-1" d="M183.1,51.67c-.08,6.09-.5,14.51,1.17,15.91,1.53,1.28,4.26-1.38,4.9.83-5.28,1.83-10.01,3.62-15.06,5.97-1.24.58-1.88-.92-.76-1.39,3.02-.94,4.72-3.21,4.73-6.39l.13-49.48c0-.74.27-1.22.5-1.42.39-.32,1.44-.3,2.06.36l32.89,34.85c2.76,2.93,5.38,3.85,9.44,2.87.86-.21,2.53.95,3.41-.23.7-.93,1.31-2.07.98-3.64l-7.79-37.47c-.38-1.85-3.33-1.93-4.89-1.41-1.48.43-1.52-1.35-.27-1.46,6.92-.72,17.34-4.2,18.12-3.18,1.1,1.44-5.78.69-4.78,5.4l7.04,33.14c.52,2.46,2.11,4.32,4.71,3.79l7.96-1.62c2.6-.53,3.68-2.7,3.99-5.48l.16-1.42c.24-2.15,2.7,2.73,1.29,9.58l-24.23,5.05c-2.23.46-4.4.05-6.25.69l-14.56,5.08c-.32-.62.09-1.72.26-2.7l-10.6-11.82-14.54,5.58ZM194.78,42.99l-12.25-13.69.35,18.62,11.9-4.93Z"/>
      <path class="cls-1" d="M48.1,278.69l-1.13,15.33c-1.96-1.7.06-4.48-4.27-5.55L.69,278.04c-.79-.2-.77-.9-.58-1.33.16-.36.61-.76,1.23-.99l36.72-13.72L3.42,241.46c-.17-.44-.11-1.1.02-1.29s.6-.43,1.14-.46l41.58-2.25c6.03-.33,3.97-5.61,6.66-6.84l-1.8,15.63c-1.13.09-1.96-.89-2.77-1.18l-28.3,1.36,28.93,17.32c.62.37.97,1.63.33,1.91-10.16,4.58-20.27,7.78-31.25,12.07l26.52,6.12c2.55-.53,1.83-3.02,3.61-5.18Z"/>
      <path class="cls-1" d="M530.19,269.21c-2,.3-4.05.49-5.2,2.23-.73,1.11.76,3.91-.95,5.63l-2.92-19.83c2.31.94,1.46,2.72,2.21,3.32.83.67,2.01.94,3.2.79l18.64-2.45-3.41-23.7-18.94,3.05c-4.35.7-1.42,5.59-3.79,6.95l-2.53-18.38c-.23-1.16.94-1.49,1.26-.49.22,2.51,1.91,3.87,4.35,3.52l36.22-5.12c1.28-.18,2.45-.6,3.01-1.57,1.31-2.3-.85-5.51,1.54-5.06l2.62,17.67c-1.56,3.97-.9-3.73-4.77-3.19l-15.41,2.13,3.42,23.63,13.93-2.03c1.34-.2,2.65-.71,3.12-1.45,1.21-1.92,0-4.48.59-5.21.16-.2,1.17.1,1.22.43l2.58,18.26c.05.34-.74.41-1.02.25-.82-.45-.5-2.58-1.48-3.67-.65-.72-1.82-.96-3.02-.79l-34.49,5.09Z"/>
      <path class="cls-1" d="M547.35,386.98c-6.15,5.08-14.05,5-20.9,2.88-14.53-4.49-21.15-18.89-16.21-32.93,3.92-11.13,13.65-17.99,25.77-16.44,10.2,1.3,19.45,8.21,21.42,18.83,1.87,10.07-2,21.01-10.08,27.67ZM538.98,382.15c9.2-.87,15.61-7.91,15.69-16.63.04-4.09-1.97-7.73-5.18-10.2-11.54-8.88-30.04-9.5-36.31,3.92-2.7,5.78-1.42,12.12,3.74,16.22,5.93,4.72,13.94,7.46,22.06,6.69Z"/>
      <path class="cls-1" d="M567.2,318.96c-3.62,9.52-12.26,13.94-21.68,13.66-15.8-.46-26.54-12.89-24.84-28.49,1.36-12.49,10.45-21.73,23.45-22.03,10.79-.25,21.01,5.79,24.18,16.43,1.97,6.62,1.38,13.87-1.12,20.43ZM554.3,322.21c8.05-2.67,12.82-9.94,11.93-17.98-1.42-12.81-19.4-15.9-30.88-11.48-7.09,2.73-11.82,9.17-11.54,16.78.47,12.65,18.43,16.67,30.48,12.68Z"/>
      <path class="cls-1" d="M65.1,195.04c-.31.63-1.18-.05-1.06-.53l.28-1.06c.24-.93.91-1.81.75-2.75-.12-.67-.82-1.52-1.78-2.07l-38.3-21.81,22.09-6.42,26.94-7.61-26.52-13.61c-2.25-1.16-4.54-.11-5.31,2.21-.33.42-.69.66-.81.89-.24.46-1.43.01-1.04-.7,2.56-4.63,5.23-9.16,7.43-13.87,2.09,1.09-1.9,4.5,1.98,6.68l36.11,20.37.93.67c.26.19.05,1.42-.42,1.55l-46.55,13.29,25.54,13.08c2.28,1.17,4.58.34,5.51-1.97l.7-.89c.25-.31,1.4.03,1.18.41-2.78,4.87-5.23,9.21-7.66,14.13Z"/>
      <path class="cls-1" d="M29.4,384.75c-9.76,4.29-5.85,18.03.54,25.21,8.01,8.98,23.26,4.46,31.3-3.5s8.86-19.45,2.72-28.49c-3.07-4.52-7.08-6.1-13.54-5.08,3.32-3.37,7.61-3.45,11.98-4.11,5.99,6.79,9.99,15.02,11.34,23.92,1.71,11.2-3.44,20.99-12.98,26.39-12.25,6.94-26.91,3.94-34.74-7.99-4.53-6.9-7.45-14.49-8.98-22.82l11.44-4.87c.88-.37,1.46.73.91,1.34Z"/>
      <path class="cls-1" d="M440.63,46.63l13.88,8.91c-2.04.9-4.85-1.56-5.78-.09l-11.73,18.47c-2.4,3.78-4.8,7.49-8.51,10.16-8.92,6.44-22.19.83-27.49-7.85-3.18-5.21-2.36-11.89.71-17.02l13.18-22.06c.58-.96.93-1.86.65-2.97-.2-.78-1.17-1.56-2.15-2.35l-.93-.74c-.34-.27-.16-1.6.31-1.32l14.98,9.03c1.09.66.92,1.72.77,1.72-1.35-.08-4.45-2.42-6.07.27l-14.66,24.38c-3.88,6.46-1.22,13.9,5.38,16.91,5.54,2.52,11.27.98,14.54-4.28l15.04-24.15c2.34-3.76-3.66-4.56-2.11-7.01Z"/>
      <path class="cls-1" d="M493.95,168.72c-6.67-3.73-10.31-10.96-11.14-18.11,3.38-2.54,6.91-4.27,10.74-6.01.78.82.05,1.79-.76,2.33-4.93,3.29-5.79,9.15-2.49,13.86,1.68,2.39,4.06,4.06,6.86,4.14s5.61-1.64,7.33-4.27c3.95-6.06,1.49-16.91,7.15-24.67,2.43-3.33,6.05-5.42,9.48-5.73,8.98-.81,15.67,7.87,17.92,17.62-3.49,1.69-6,4.72-10.37,4.81,4.88-4.02,6.09-8.74,3.03-13.33-1.56-2.34-3.85-4.17-6.64-3.92-10.29.93-5.68,16.52-11.2,26.7-3.76,6.95-12.52,10.72-19.93,6.58Z"/>
      <path class="cls-1" d="M547.46,183.54c-6.65-9.07-21.49-5.98-29.46,1.18-7.53,6.78-8.88,17.02-3.92,25.45,2.5,4.24,6.08,5.9,11.76,5.43-3.35,2.77-7.07,2.6-11.3,2.78-5.1-6.93-8.28-15.32-8.44-24.02-.18-10.01,5.41-17.9,14.19-21.81,11.86-5.28,24.96-1.08,31.03,10.54,3.43,6.56,5.43,13.51,6.14,21.12l-10.12,3.34c-.25.08-1.29.16-1.58.12-.23-.04-.1-.7.01-1.26,3.75-1.18,6.5-4.46,6.36-8.82-.16-5.06-1.67-9.96-4.67-14.05Z"/>
      <path class="cls-1" d="M51.7,214.07c1.78.56,3.72.11,4.47-1.37,1.5-2.95,2.69-6.28,2.68-9.57,0-2.46-2.21-3.22-4.23-5.25,3.26-.4,6.61,1.49,8.99,3.77-1.23,5.02-3.04,9.34-4.47,14.12l-3.66,12.2c-.12.39-.52.84-.73.81-1.43-.2.36-2.77-.72-4.41-.46-.7-1.55-1.46-2.7-1.81l-35.56-11.07c-3.43-1.07-3.77,3.12-4.49,4.5-.1.2-.87.23-1.05.09-1.01-.83,6.71-20.02,8.01-28.48,2.83,1.23,5.91,1.66,8.88,4.13-2.64.29-4.98-.41-6.12,1.76-1.66,3.15-2.64,6.55-3.51,10.05l15.67,4.82,2.67-8.09c.68-2.05.72-3.7-.03-6.28,3.55,1.17,6.33,2.9,9.74,3.51.4,2.78-4.68-.96-6.07,3.18l-2.89,8.62,15.12,4.76Z"/>
      <path class="cls-1" d="M125.91,99.75c1.66,1.96,3.99,2.05,5.8.6,2.32-1.85,4.99-3.62,6.35-6.34,1.08-2.16-.61-4.05-1.05-6.46,3.19,1.68,4.58,4.94,5.91,7.96-4.85,4.64-10.02,8.11-14.94,12.46l-6.34,5.61c-.61.54-1.32.26-1.13-.64.68-.79,1.66-1.69,1.84-2.45.28-1.2-.3-2.59-1.2-3.65l-23.49-27.7c-.85-1-1.89-1.7-2.94-1.66-1.89.06-3.3,2.35-4.57,2.07-.3-.07-.33-.89.14-1.27,7.56-6.14,14.91-11.98,21.7-18.81l5,7.03c.54.76-.53,1.41-.98.96-1.9-2.14-4.32-2.38-6.5-.59l-6.84,5.63,10.87,12.7,7.34-6.3c1.32-1.13,1.63-2.34,2.25-4.61l6.3,8.83c-2.54-.32-3.96-3.33-6.69-1.07l-6.97,5.78,10.13,11.92Z"/>
      <path class="cls-1" d="M7.33,318.03l16.53-1.8-.96-9.12c-.22-2.05-.95-3.35-2.69-5l10.26-.46c.51-.02.64.5.46.81-.49.85-4.87.54-4.51,4.44l.81,8.86,15.67-1.69c5.04-.54,4.54-8.09,2.13-13.1-1.1-2.28-3.74-1.93-6.16-3.12,3.18-1.23,6.71-.86,10.14-.22l2.92,28.73c-2-.96-1.5-2.75-2.08-3.37-.85-.91-2.65-1.2-4.12-1.04l-36.02,3.99c-4.86.54-1.91,5.5-4.33,6.4l-2.83-25.44-.96-3.77c3.39.16,6.25-.83,10.15.36-3.68,1.3-5.62,2.65-5.27,6.06l.85,8.47Z"/>
      <path class="cls-1" d="M99.09,138.88c-1.45-1.83.47-2.7.51-3.56.05-1.22-.66-2.31-1.72-3.21l-28.99-24.61-7.1,8.87c-1.69,2.11-.95,4.1.2,7.21-3.4-1.51-4.77-4.33-6.63-7.24,2.5-1.65,4.05-3.24,5.79-5.3l17.02-20.23,3.32-4.67c2.48,2.58,5.28,3.67,7,7.12-2.96-1.22-5.39-1.95-7.52.39l-7,7.69,28.74,23.97c1.01.85,2.2,1.59,3.25,1.52,2.24-.14,4.53-4.18,5.08-2.83.41,1.02-8.11,9.63-11.94,14.88Z"/>
      <path class="cls-1" d="M283.53,47.72l-20.04.99c.99-1.91,2.79-1.19,3.52-1.77,1.1-.88,1.39-2.28,1.31-3.89l-1.89-37.55-10.82.72c-3.32.22-4.04,2.18-5.89,5.47-.96-3.84.31-6.5.69-10.05,2.93.54,5.45.76,8.4.59l26.79-1.54,4.91-.69c-.12,3.55,1.1,6.46-.52,10.08-.73-3.34-2.25-5.47-5.5-5.38l-10.24.28,2.06,34.76c.12,2.06.09,4.92,1.66,6.25,1.33,1.12,3.62.52,4.88.7.42.29.62.65.68,1.05Z"/>
      <path class="cls-1" d="M465.07,97.67c-.32,8.93-8.07,15.93-16.66,13.62-6.39-1.72-11.49-6.76-13.93-12.65,2.61-3.35,4.91-5.93,8.35-8.47.21,2.4-1.78,3.77-2.41,5.82-1.02,3.31.1,6.29,2.37,8.65,1.96,2.04,5.41,3.76,8.65,2.4,4.63-1.95,5.79-7.31,4.86-12.03-1.74-8.83-3.26-19.08,4.54-23.79s17.01,1.15,22.04,9.77l-6.88,7.22c-.93-2.24,1.1-3.45,1.31-5.41.5-4.73-3.66-9.38-8.48-9.14-4.37.22-6.23,4.82-5.7,8.75.71,5.18,2.12,9.77,1.93,15.26Z"/>
      <path class="cls-1" d="M15.13,372.11l-4.5-16.6c-.19-.69.34-1.12.81-.96.97.34.78,2.47,1.92,3.73.68.75,1.91,1.03,3.08.71l32.94-9.11c1.39-.38,3.25-1.37,3.3-3.06.12-3.86-1.04-8.01-2.92-11.32-1.37-2.42-4.22-1.59-6.96-2.55,3.37-1.62,6.86-1.88,10.36-1.53l7.56,29.34c-2.16-.64-1.81-2.74-2.61-3.22-1.14-.68-2.52-.73-3.9-.36l-35.19,9.45c-2.3.62-3.25,2.47-2.49,4.92.1.31.1,1.16.01,1.52-.06.25-.38.48-.73.14-.19-.18-.51-.57-.65-1.08Z"/>
      <path class="cls-1" d="M532.26,425.67c-2.24-.91,2.18-5-1.05-6.77l-30.52-16.71c-2.06-1.13-4.15-.96-5.52,1.07-1.89,2.8-4.1,6.02-4.65,9.48-.38,2.38,1.87,3.56,3.07,5.86-3.23-.37-5.73-2.97-7.98-5.27.35-1.95,1.17-3.38,2.09-5l12.4-21.88c1.2,1.85-.39,3.3-.18,4.53s1.36,2.02,2.64,2.73l32.21,17.86c2.95,1.64,4.23-1.88,5.64-2.95.36-.27,1.19.13.76.91l-8.9,16.13Z"/>
      <path class="cls-1" d="M70.39,449.92c5.45-1.18,9.97,2.26,11.05,6.75,1.25,5.18-1.94,10.09-6.83,11.22-4.89,1.14-9.66-1.72-11.05-6.51s1.32-10.27,6.82-11.46Z"/>
      <path class="cls-1" d="M505.41,449.89c5.48-1.11,9.88,2.52,10.86,7.03,1.12,5.17-2.25,9.92-6.81,10.95-5.23,1.18-9.86-1.82-11.09-6.39-1.38-5.13,1.45-10.45,7.04-11.59Z"/>
      <path class="cls-1" d="M394.34,549.94l1.6,6.29c.9.2,1.74.23,2.26.79-1.91.75-3.12,1.4-4.38,1.5l-2.61-15.98,10.9,8.26,1.18-13.66,8.64,11.84c.56.77,1.73.31,2.18-.02.57-.42,1.22-1.21,1.17-2.23l-.69-15.32,14.5,10.15c-1.12.95-2.35,1.89-3.86,2.18-1.23-2.57-3.47-4.13-5.86-2.64-1.26.79-2.34,1.32-2.49,2.57-.18,1.53.49,2.66,2.08,3.59l-9.17,4.44-5.42-8.03-1.24,11.3-7.94-5.73-.87.69ZM420.22,539.11l-3.84-3.03.41,5.01c1.4-.54,2.16-.95,3.42-1.98ZM394.94,548.95c-.23-.59-.98-.31-.79.3l.79-.3Z"/>
      <path class="cls-1" d="M359.72,566.73l-2.58-9.61c-.23-.85-1.32-1.18-2.33-1.44,2.11-.92,4.18-1.4,6.77-1.76-.23.76-1.74,1.49-1.6,1.98l3.1,10.71c.35,1.22,4.75,1.03,6.03-2.62.63.73.54,1.33.52,1.63-.03.52.41.82.87.55.36-.21.69-.68.76-1.2l2.12-15.86,9.55,10.12c1.26,1.34,2.5,1.96,4.58,1.67-1.67,1.24-3.35,1.62-5.51,2.24-.91-1.22-1.6-3.14-3.38-3.8-1.05-.39-3.55.52-4.41,1.27-1.62,1.42-.98,3.56.77,5.1l-16.17,4.39c.67-1.11,1.23-2.13.9-3.36ZM377.55,557.74l-3.14-3.78-.51,4.93c1.61-.06,2.34-.41,3.64-1.15Z"/>
      <path class="cls-1" d="M323.03,567.77c-.71,4.36-1.3,7.63,1.44,9.05-2.11.39-3.45.67-5.72.39.67-.49,1.78-.95,1.85-1.85l1.08-14.24,8.07,10.66,4.61-12.51,5.2,13.35c.32.83,1.08.96,2.13,1.71l-4.98.49-2.85-9.07-4.07,10.63-6.76-8.59Z"/>
      <path class="cls-1" d="M434.89,537.82c.06,1.2-2.63,2.24-3.03,2.2-.81-.06-.69-1.38-.96-1.9l-6.21-12.05,16.92,2.8-4.37-6.62c-.64-.97-1.79-1.38-2.82-1.32,1.54-1.56,2.71-2.22,4.8-2.93-.69,1.4-.87,2.28-.07,3.59l6.53,10.64-17-2.39,4.87,7.62c.15.23,1.33.09,1.34.35Z"/>
      <path class="cls-1" d="M193.65,562.19c-4.09,1.34-8.13.02-10.97-2.52-2-1.79-2.87-4.48-2.43-6.82.47-2.5,2.12-5.02,4.99-5.92,4.4-1.38,9.85.28,12.45,4.31s.48,9.47-4.05,10.95ZM193.66,549.68c-1.18-1.26-3.73-2.66-5.99-1.68-4.39,1.9-5.6,8.26-2.37,11.51,1.68,1.69,3.67,2.32,5.82,1.81,3.45-.83,6.1-7.82,2.53-11.64Z"/>
      <path class="cls-1" d="M169.97,554.62c-4.38-.73-7.62-3.24-11.1-4.88,1.34-.52,2.18-.87,2.67-1.86l3.76-7.65c.55-1.12.62-2.12.64-3.85l9.41,4.54c3.54,1.71,4.71,5.65,3.6,8.82-1.28,3.65-4.6,5.61-8.97,4.88ZM172.36,552.94c3.1-1.23,4.24-5.34,3.46-7.89-.88-2.86-3.55-4.97-6.72-5.68l-5.06,10.93c1.58,2.16,5.19,3.88,8.32,2.64Z"/>
      <path class="cls-1" d="M246.56,577.01l-10.81-12.68c-.75,2.89-1.43,6.71-1.31,8.91.14.51,2.01.59,1.48,1.78l-5.85-1.35c.89-.27,1.9-.75,2.01-1.24l3.01-13.64,10.51,13.05,1.26-8.62c.1-.69-.85-1.36-1.36-1.74,2.03-.23,3.55,0,5.13.4.23.56-.94,1.12-1.53,1.17l-2.54,13.95Z"/>
      <path class="cls-1" d="M466.8,516.09l-3.76,3.08-9.07-13.02,17.61.5-4.97-5.74c-.86-.99-1.62-1.48-3.24-1.56l3.55-2.83c0,1.65.59,2.33,1.38,3.33l7.53,9.46-17.22-.05,4.17,5.44c1.04,1.36,2.16,1.85,4.02,1.38Z"/>
      <path class="cls-1" d="M137.38,532.77c-2.15,4.23-8.19.84-13.08-3.07,1.27-.48,2.07-.8,2.69-1.71l4.56-6.76c.93-1.38,1.38-2.71,1.17-4.14l6.28,4.26c1.21.82,1.26,2.24,1.11,3.45s-2.33,1.81-3.17,2.56c.23,1.78,1.3,3.73.45,5.41ZM132.9,524.85c1.99,1.56,3.66.94,4.31-.35.87-1.73.45-3.48-1.51-4.16l-2.8,4.51ZM132.87,533.01c1.82-.87,2.07-2.61,1.98-3.89-.1-1.35-.8-2.67-2.66-3.35-1.02,1.53-2.67,3.1-2.94,4.99-.19,1.32,2.39,2.85,3.62,2.26Z"/>
      <path class="cls-1" d="M292.79,579.27c-1.81.07-3.27.3-5.31-.23,1.47-.43,2.46-1.04,3.45-2.38l3.52-4.77-3.77-5.62c-.8-1.19-2-1.44-3.16-2l6.58-.2c-.87,2.22.99,4.13,2.36,5.03,1.92-2.03,2.66-3.52,1.87-5.32,1.37.03,2.06-.28,3.69.41l-4.65,6.54c1.95,2.69,3.41,5.31,6.5,7.73-1.13.74-2.9.68-4.66.5-.96-2.15-1.99-3.88-3.91-5.77l-2.35,3.64c-.4.63-.59,1.27-.17,2.44Z"/>
      <path class="cls-1" d="M207.87,554.59c-4.18.99-5.5,6.37-3.58,9.6,1.94,3.27,6.62,5.32,9.77,2.38.42,1.11-.51,2.94-1.4,3-3.25.19-6.51-1-9.14-2.74-3.2-2.12-4.17-5.81-3.01-8.99,2.33-6.36,9.8-5.63,16.8-2.38-.32,1.6-.39,2.9-1.57,3.95-.31-3.68-3.91-5.76-7.87-4.82Z"/>
      <path class="cls-1" d="M223.04,565.28c-.79.9-1.44,3.75-.99,4.72,1,2.17,4.39,1.83,5.88.19.24.79-.39,2.69-1.12,2.89l-10.41-2.26c.46-1.01,1.28-1.03,2.15-1.26l2.56-10.31c.27-1.1,0-2.17-.35-3.07l9.19,1.84c-.12,1.4-.12,2.26-1.14,3.28-.68-2.24-2.33-2.89-4.41-2.73l-.99,4.77c1.81.69,3.08.76,4.95.76-.16,1.14-.25,2.06-1.15,3.19-.08-1.7-3.09-3.26-4.16-2.03Z"/>
      <path class="cls-1" d="M147.37,538.38c.04-1.07-2.78-2.21-3.78-2.4-2.02-.39-3.4,1.74-4.33,3.09-1.69-.83-3.01-1.09-4.09-2.73,2.09.88,3.39.08,5.05-1.06l11.05-7.57-.92,14.38c-.11,1.76.41,2.78,1.96,3.85-2.06-.07-3.44-1.24-5.13-2.18l.2-5.38ZM147.79,536.52c.46-2.25.59-2.91.43-4.76l-3.73,2.81c1.17,1.2,1.97,1.58,3.3,1.94Z"/>
      <path class="cls-1" d="M107.27,498.19c-.57-.53.12-.72.27-.63l.53.54,7.24,6.02c.09.97-1.18,2.06-1.96,2.09.22-1.99-1.38-3.84-3.02-3.81-.95.02-2.66,2.15-2.87,3.13.34,1.43,2.34,2.37,3.94,3.12-.41,1.23-1,1.99-2.47,2.13.35-1.7-1.72-4.07-2.9-3.48-1.46.72-2.21,2.4-3.29,3.57.47,2.52,3.07,3.75,5.53,3.23.02.87-1.8,2.47-2.42,1.95l-8.31-6.9c.91-.17,2.28,0,3-.84l6.5-7.58c.57-.67.61-1.68.59-2.29l-.36-.25Z"/>
      <path class="cls-1" d="M310.74,571.4c-.61,1.09-.34,4.09.46,4.95,1.29,1.39,4.53.78,4.73-1.38.04-.48,1.49-.12,1.25.7-.17.59.26,2.13-1.05,2.22l-9.99.69c1.07-.9,1.7-1.73,1.59-3.23l-.71-9.37c-.09-1.2-.8-1.95-1.63-2.44l9.8-1.02-.07,3.38c-1.13-1.49-3.41-2.48-4.82-1.08-.73.73-.47,3.67.24,4.42,1.26.77,3.42-.06,4.9-.65l-.16,3.45c-.66-1.53-3.63-2.26-4.53-.65Z"/>
      <path class="cls-1" d="M453.57,523.77c1.54.6,4.29-1.78,3.93-4.1.86-.2,1.35.86,1.43,1.47.14,1.03-.52,1.77-1.38,2.35l-7.77,5.3c-.08-.79.94-2.24.69-2.71l-6.73-9.77c-.34-.34-1.75.35-2.45.13l7.49-5.75c.25-.19.77-.79,1.01-.72.36.11,1.01.6,1.3,1.83-1.73.48-3.58,1.02-4.68,2.75l2.62,3.71c1.74-.54,2.9-1.77,4.34-3.17,1,.97,1.31,1.69,1.42,2.85-2.04-.92-3.71.37-4.61,1.89,1.06,1.16,1.54,3.21,3.39,3.93Z"/>
      <path class="cls-1" d="M92.65,484.77c-.54-.49.19-1,.52-.46.06.12.15.25.26.35l4.48,4.36c-1.21.07-2.1.87-2.5,2.16l-2.58,8.23,7.75-3.06c1.16-.46,2.11-.87,2.78-2.28l2.65,2.35-17.12,5.96,3.8-12.78c.49-1.65,1-3.04.33-4.52-.1-.13-.26-.26-.38-.31Z"/>
      <path class="cls-1" d="M348.56,570.77l2.48,1.27-6.92,1.31c1.3-1.51,1.41-2.85.85-4.6-1.05-3.27-.77-6.6-2.76-9.98,2.47-1,5.69-2.2,8.82-1.52,2.25.49,2.75,3.09,2.21,4.86s-2.03,3.59-4.51,3.14c1.77-1.1,2.47-2.55,2.03-4.09-.56-1.96-2.3-3.24-4.9-2.38l2.71,11.99Z"/>
      <path class="cls-1" d="M280.59,572.24c-.92.72-.86,4.01-.17,5.04,1.17,1.75,4.77.99,5.49-.81.52,1.15.26,1.85,0,2.79l-11.01-.16c1.25-.6,1.99-1.21,2.04-2.43l.39-9.36c.07-1.65-.67-2.51-1.98-3.12l10.31-.16c.04,1.24.09,2.08-.45,3.28-.42-1.91-3.9-2.78-4.78-1.45-.6,1.52-.21,3.39-.22,4.74,1.93.28,3.39.01,5.21-.43-.1,1.25.1,2.06-.51,3.41-.79-1.42-2.8-2.44-4.33-1.32Z"/>
      <path class="cls-1" d="M262.17,578.38l-7.34-.69c1.47-1.03,2.23-1.47,2.38-2.99l1.04-10.52c-2.15-.68-4.11-.72-5.9.54-.24-1.03.06-2.02.66-2.71l13.87,1.37c.2.92.34,1.67-.39,2.85-.24-1.57-4.86-2.63-5.03-1.15l-1.34,11.6,2.05,1.71Z"/>
      <path class="cls-1" d="M113.93,522.26l-4.36-3.37c1.64-.18,2.48-.65,3.28-1.71l5.19-6.86c.76-1.01.85-2.25.73-3.29l6.46,4.8c1.64,1.22,1.96,3.11,1.34,4.79s-2.94,2.01-4.71,2.44c-.97,2.86.49,6.56,1.4,9.57-6.63-1.79-2.53-11.45-6.2-11.27-1.5.07-2.8,3.14-2.63,4.28.09.21.26.36.38.44.61.67-.32,1.11-.62.44-.05-.08-.14-.18-.24-.25ZM118.3,515.51c.06,2.52,3.17,2.48,4.34,1.37.74-.69,1.56-2.07,1.4-3.43-.12-1.01-1.42-3.06-2.63-2.34-1.08.64-2.94,3.17-3.11,4.4Z"/>
      <path class="cls-1" d="M482.95,502.16c-.32-1.54-.79-2.36-1.65-3.28l-6.75-7.23c-2.16.93-3.76,2.83-4.02,5.07-1.06-.64-1.62-1.74-1.56-2.65l10.72-9.84c.52-.48,2.09.84,1.79,1.79-2.18.27-3.64,1.61-4.73,3.24l7.16,7.68c.9,1.23,2.13,1.21,3.73.48-1.33,2.13-3,3.08-4.69,4.74Z"/>
      <path class="cls-1" d="M378.91,260.01c-.23,1.16-1.35,1.33-2.39,1.09-.87-.2-1.64-.47-2.8-1.56-.07,1.34-2.47,2.94-3.2,2.02.77-5.09-4.71-6.32-3.76-12.8-3.33.88-6.03-.06-9.63-1.49,3.58,7.17,9.34,19.45,5.39,22.72-.48.4-2.13-.58-2.73-.51-.78.08-1.56,1.46-2.45,1.94-1.7.92-3.4,1.05-3.94,3.51-1.94-.93-4.07-1.74-5.38-2.96l-.41-2c-.04-.19-3.69-2.64-7.45.4-.85.69-3.04,1.47-4.02,2.01-2.04,1.12-2.42-1.97-3.03-2.97-.73-1.2-1.98-2.18-1.95-3.61.03-1.13.67-2.24,1.79-3.43-1.42-1.36-2.5-2.79-2.1-4.37,1.28-4.98,7.45-1.02,6.12-5.83,1.03-1.11,3.01-.52,4.26-.02,2.3.92.34,7.14,9.5,6.57-.49-4.23-5.11-6.84-7.38-11.43-.86.85-1.66,1.47-2.98,1.47l-.1-7.03c-.84.36-1.42.53-1.8.44-.48-.12-.68-1.36-.33-1.86-.15-5.5,3.39-9.96,8.88-9.66,1.21-2.09,3.04-2.78,5.25-2.86l11.2-.41c-3.89-4.8-9.77-1.8-11.17-2.65-.54-.33-1.07-1.85-1.68-1.98-2.47-.55-3.9-1.76-5.48-3.44s-3.49-2.8-3.43-5.94c-3.05.17-5.81-.79-8.6.05-1.89.57-4.21,2.53-6.37.95-1.68-1.23-3.36-1.67-5.1.21l-2.3,1.11c-.52.25-.47,2.46-1.11,2.81-5.43-1.92-1.37-9.38-4.86-7.84-2.11-1-3.04-4.43-1.97-6.74.91-1.98,3.09-3.89,5.97-3.11-.31-1.78-1.11-1.91-2.05-2.61.7-2.26,3.02-3.84,4.97-3.55,2.45.37,3.68,2.31,4.13,5.12.73-1.55,1.45-2.25,2.86-2.16,4.6.31,5.43,4.66,8.31,2.13-.44-2.13-1.76-3.88-.42-6.18-1.66-.72-2.26-2.49-3.55-3.18-3.82-2.01-8.31-3.27-12.35-2.68-.46.71-.97,1.86-1.51,2.01-2.41.7-4.58-1.56-6.15-4.69,1.5-.03,2.81-.38,3.36-1.22.62-.95.43-3.8-.6-3.96-1.36-.21-2.37.03-3.22-.74-.6-.55-.65-1.6-1.05-2.78l-2.03-1.85c.37-1.6,1.27-2.71,2.25-3.07,1.39-.52,2.81-.23,4.74.2-.06-1.43-.92-2.23-1.94-3.35,1.4-3.05,4.13-2.93,7.22-2.45,1.8.28,4.75-.83,6.26.86,1.73,1.95.78,5.24-1.46,7.18,1.85,2.37,5.17,5.2,8.38,4.63,2.34-.41,4.14-1.36,6.98-.22.75.3,2.28.69,3.22.48.88-.19,1.59-1.56,2.5-2.87l-3.21-1.8c1.92-1.78,2.47-3.44,1.86-5.97-.43-1.74-2.06-2.83-4.5-3.38-1.51-.34-4.85-2.99-3.65-4.76,4.24-6.28,11.32-9.67,12.59-13.56.39-1.19,3.61-1.09,5-.53.25-1.47-1.56-1.72-2.2-2.29.63-2.22,3.96-2.59,5.92-1.75,4.82,2.06,6.43-1.8,8.92-1.17.8.21,1.07,1.28,1.68,2.1l3.31,1.06c3.62,3.67,8.94,7.48,13.81,8.87l-1.4,2.12c-.33.5,2.97,5.22,6.85,7.35-1.85,2.37-3.54,1.52-6.87,1.46,3.24,1.84,2.72,3.95,3.57,6.36.8,2.28,2.04,3.91,2.07,6.62l.12,12.01c5.03-3.97,10.06-6.53,15.69-8.78,5.26-2.11,6.16-11.14,2.16-17.56l-.52.45c.77,1.84,1.61,4.36.17,6.43l-3.64,1.77c.52,2.33-1.44,5.11-3.41,4.62-.2-1.7-.6-3.68-1.87-5.05l-4.12-4.47c-2.22-2.41-2.11-4.92-.91-7.8.58-1.39.49-3.05,1.68-3.89,4.04-2.83,6.75.9,10.32-2.1.54-.45,1.8,0,1.86.43l.38,2.65c4.91,6.33,8.02,14.51,5.72,22.52-1.22,4.22-5.65,6.6-9.11,9,2.21,3.22,3.85,1.25,5.16,1.04,1.59-.26,1.76,1.59,1.49,2.42-.46,1.42-1.29,1.9-2.94,1.96l-4.08.16c2.02,2.02,4.29.95,6.77.8,1.53.58.82,4.69-1.07,5.28-6.78,2.13-11.82-4.67-14.81-2.9-4.27,2.52-3.85,8.04-.69,11.18s6.22,5.27,9.74,7.68c5.5,3.76,8.04,10.58,6.8,17.05-.87,4.56-4.83,6.94-9.21,5.92l-6.75-2.73c.81,2.85-.77,4.12-1.56,5.91s-.74,3.49-2.39,5.2c-.45.46-.34,2.25-.05,2.82,1.2,2.32,6.86-2.76,12.5.38.64.36,1.03,1.2,1,1.63-.05.75-.99,1.34-2.55,1.37,1.89,3.74,1.7,7.84-.27,11.68-4.21,8.21.48,14.51-.95,19.79-.37,1.36-3.27,2.4-2.82,4.6,1.24,6.05-3.27,4.46-1.76,8.11-1.53.84-4.2,1.12-5.24-.47l-1.07-1.64c-.4-.61-1.76.48-2.42.65-2.68.67-3.53-2.62-4.57-4.28-1.64-2.6-3.21-5.28-1-8.19.42-.55,2.21-.34,3.4-.98-2.06-1.3-4.22-3.12-4.18-3.4.35-2.91,3.47-2.58,7.89-2.02l1.05-11.44c.27-2.93-2.12-5.35-5.09-5.27l-5.56.14c-.14.2-.27.5-.32.72ZM407.55,161.91c-1.74-1.91-4.79-3.69-7.36-2.3-1.34.73-1.85,3.01-.35,4.04.37-1.6,1.34-2.67,2.7-2.89,1.86-.29,3.37.55,4.46,1.78l.54-.64ZM385.84,186.29l-.33.33.33.33.33-.33-.33-.33ZM392.36,212.33c-.96,2.81-1.8,4.32-4.35,4.4-.08-3.18-1.13-5.14-2.2-7.38-3.24-6.8-2.23-14.32,3.33-19.64-1.05-.83-1.8-1.17-2.57-2.37-1.59,1.34-1.54,3.22-2.17,5.25-2.75,8.87-9.2,19.06,1.03,24.5,5.08,2.7,13.49,19.07,19.53,10.87,3.63-4.93-7.36-9.42-12.6-15.62ZM378.07,259.39l.86-.3-.86.3Z"/>
      <path class="cls-1" d="M223.45,424.81c.8,6.04-4.27,7.35-3.55,12.14-1.02.98-2.56-.8-3.11-1.61-1.52.6-3.07,1.81-4.69.96-.19-.24-.16-1.04-.08-1.54l-5.72-.09c-3.2-.05-5.31,2.33-5.01,5.42l.99,10.24h5.92c.92,0,1.34.94,1.51,1.44.37,1.11-1.77,2.33-4.13,4.14,1.11.16,2.91.02,3.47.69,2.27,2.68.72,5.48-1,7.87-.82,1.15-.68,2.77-2.15,3.58-1.32.73-2.47.9-4.12-.86-.85,1.6-1.45,2.47-2.4,3.01-.73.42-2.93.42-3.48-.35,0-1.7-1.35-3.27-2.38-4.44.43-3.04.16-6.09-2.97-7.73l1.32-11.52c.68-5.91-5.86-10.54-1.99-18.24-1.08-.21-2.08-.47-2.32-.82-.34-.5.1-1.78.93-2.18,5.13-2.45,9.7.96,11.3.25.71-.32,1.11-2.38.57-2.97-1.53-1.68-1.62-3.22-2.4-5.06s-2.03-3.22-1.58-5.83c-3.25,1.98-6.36,3.31-9.97,2.71-3.19-.54-5-3.57-5.35-6.53-.85-7.17,2.63-13.11,8.59-16.7,3.63-2.19,7.15-4.93,9.3-8.67,1.35-2.35,0-6.32-2.21-7.64-3.38-2.01-11.79,6.7-15.85,1.38-.74-.96-.68-3.95.43-3.84,2.76.6,4.6.85,7.03-1l-4.72.05c-1.42.01-2.02-.56-2.55-1.37-.57-.86-.11-3.03,1.16-2.69,1.93.51,3.92,1.25,5.29-1.05-3.52-2.21-7.78-4.5-8.95-8.7-2.12-7.58.8-15.29,5.5-21.24.34-.42.26-1.72.22-2.12-.06-.58,1.01-1.42,1.87-.84,3.83,2.57,6.27-.21,9.73,1.77.98.56,4.26,7.52,1.56,10.61l-5.57,6.39c-.82.93-.54,2.56-.74,3.67-2.66-.41-3.43-2.47-3.36-4.66l-3.44-1.41c-1.72-3.09-.37-7.3,3.19-8.17,2.2-.54,4.03.67,4.25,3.01,1.1-1.02.9-2.24.48-3.12-.72-1.53-2.22-1.71-3.83-1.38-3.84.79-5.56,3.93-6.39,7.61-.98,4.29-.48,9.64,3.87,11.78,5.06,2.49,10.31,4.28,14.72,8.33,2.03-3.02-.63-9.17,1.4-15.04.6-1.73,2.35-3.19,1.51-5.54l3.39-3.42c-2.55.51-4.61,1.51-6.86-.77,3.45-2.29,6.72-6.63,6.7-6.83-.04-.43-.84-.97-1.49-2.17,6.31-1.97,11.75-7.75,13.59-8.56,2.04-.9,2.91-1.08,4.31-2.92,1.16-.96,4.04,1.24,5.38,1.76,2.81-.46,6.25-2.49,9.1.28l-2.65,2.65c1.7-.32,4.7-.69,5.35.98.91,2.34,2.37,2.8,3.93,4.34l7.7,7.62c1.9,1.88-1.48,4.79-3.41,5.19-2.39.5-3.71,1.42-4.12,3.05-.55,2.21-.53,3.94,1.76,5.43-1.04,1.17-1.84,1.29-3.17,1.44.39,1.18,1.07,2.07,1.61,2.64.92.96,2.7.72,3.78.24,4.34-1.92,7.87,3.44,15.02-4.07-2.07-1.63-3.22-4.7-1.74-6.74s4.43-.8,6.25-1.1c2.77-.45,5.05-.65,6.87,1.9l-1.99,3.72c1.5-.6,2.91-.6,4.12-.48,1.05.1,3.04,1.66,2.38,3.15-.49,1.11-2.29,1.65-2.19,3.73.06,1.22-1.96,1.41-2.94,1.41-1.6,0-1.65,2.02-1.42,3.12.26,1.23,1.63,1.83,3.46,1.69-1.45,3.53-4.74,5.37-5.53,4.64l-2-1.85c-4.07-.88-8.26.59-11.89,2.53l-2.69,2.78c.3,1.86-.53,4.17-.63,5.85,2.78,3.09,6.92-5.77,10.49.03.47-2.3,1.45-4.17,3.41-4.7,2.2-.59,4.97,1.2,5.03,3.25-.21.51-1.99.92-1.57,2.67,2.46-1.06,4.77.96,5.63,2.94,1.06,2.44-.03,5.84-2.52,6.29-.2-1.17-.66-2.14-1.97-1.66,1.76,3.37,1.57,7.7-2.44,9.5,0-2.71-1.15-3.31-2.71-4.26-2.01-1.22-3.27-1.46-5.23,0-2.32,1.74-6.1-3.07-13.84-.67-1.27,3.57-5.1,7.55-8.55,8.35l-2.42,2.33c-3.59-.73-7.87-.92-10.16,2.34,4.92.63,9.94-.87,13.85,1.33,1.54.86,1.98,1.94,4.23,2.09,5.95.4,7.02,10.16,5.91,10.58-.34.13-1.23-.23-1.75-.29l-.1,6.48c-1.1.18-1.95-.21-2.89-1.35-2,4.22-6.27,6.43-7.1,10.75,8.22.9,6.99-5.19,9.1-6.13,1.22-.55,3.19-.92,4.16-.08-1.58,4.7,3.55.85,5.63,5.09.79,1.61-.25,3.01-1.53,4.61.4,1.04,1.45,2.39,1.34,3.41-.13,1.24-3.18,6.05-3.23,6.08-1.18.8-1.92-.02-3.06-.61-1.54-.8-3.21-.82-3.86-2.93l-5.63,1.16c.43,2.63-4.36,4.65-5.18,4.63-.48-.01-.87-1.36-1.41-1.61-1.8-.84-3.79-2.11-5.01-3.66l-2.13,1.06c-1.81.91-2.9-5.38,1.08-14.22l3.41-7.59c-3.17,1.4-5.62,2.23-9.05,1.45ZM193.91,405.97l9.72-9.88c1.95-1.98,5.21-2.77,6.33-5.64,2.42-6.19-.93-12.03-3.33-18.6-.66-1.82-.54-3.81-2.01-5.67l-2.59,2.68c5.31,4.72,6.34,12.03,3.17,18.22-1.11,2.17-1.65,4.66-2.41,7.02-1.48.73-3.85-1.69-3.5-4.24-3.52,3.47-6.84,6.25-10.78,9.05-2.12,1.51-2.81,4.75-1.57,6.27,1.7,2.08,4.92,2.87,6.97.79Z"/>
      <polygon class="cls-1" points="365.74 383.92 335.93 383.88 351 348 355.77 357.29 365.74 383.92"/>
      <rect class="cls-1" x="385.6" y="186.39" width=".47" height=".47" transform="translate(-18.95 327.49) rotate(-45)"/>
    </g>
  </g>
</svg>