<?xml version="1.0" encoding="UTF-8"?>
<svg id="Capa_2" data-name="Capa 2" xmlns="http://www.w3.org/2000/svg" viewBox="0 0 459.98 261.42">
  <defs>
    <style>
      .cls-1 {
        fill: #040303;
      }
    </style>
  </defs>
  <g id="Capa_1-2" data-name="Capa 1">
    <g>
      <path class="cls-1" d="M308.86,0v126.32c0,5.7-6.56,20.6-9.56,25.97-30.96,55.41-118.51,51.49-143.06-7.52-1.71-4.12-5.77-16.12-5.77-20.06V1.21c0-.09,1.13-1.21,1.21-1.21h157.18ZM201.38,181.61c.07.74-.35,1.09.48,1.69,1.17.85,7.43,2.74,8.98,1.76,31.35-33.75,61.37-68.91,92.79-102.69.52-.72,1.99-3.06,1.99-3.67v-27.85l-3.62.82c-29.49,33.42-59.26,66.94-89.35,99.62-3.39,3.68-6.28,9.44-11.27,10.95-.36-11.65-.08-23.15,0-34.71,1.25,1.26.19,2.2,2.02.81,2.15-1.62,5.32-5.16,7.28-7.26,32.44-34.54,62.93-71.3,94.58-106.51.52-1.63.78-8.68,0-9.78-1.04-1.49-16.12-.76-19.04-.35-25.2,29.12-51.62,57.17-77.19,85.95-2.7,3.03-5.46,6.27-7.67,9.7-.11-11.67-.39-25.16-1.39-36.97-.13-1.55-1.18-2.97,1.39-2.58.4,4.3,1.66,3.37,4.36.72,17-16.65,31.74-37.7,49.01-54.36l.77-2.86h-27.07c-1.83,0-21.22,24.19-25.09,26.6l-1.98,3.26c0-.14-.83-1.28-.87-2.73-.19-7.11,1.21-18.81.06-25.12-.12-.67-.64-2.02-1.21-2.02h-44.85v123.09c0,8.3,13.04,31,18.98,37.54,6.58,7.25,18.12,15.64,27.89,16.94ZM304.82,117.04l-61.41,68.6c28.07-1.9,49.29-22.24,58.21-47.99,2.3-6.64,4.37-13.56,3.2-20.61Z"/>
      <path class="cls-1" d="M295.93,259.91c-.26-2.09,2.23-2.41,2.43-4.45.37-3.85-1.09-8.17-5.21-8.51-5.88-.49-8.84,2.36-7.72,8.49.38,2.11,2.58,2.38,2.42,4.47-3.31-.5-6.54,1.09-9.69,0-.48-2.33,2.47-2.5,3.21-3.85l9.81-32.78c.45-.67.88-1.55,1.91-1.3,1.95.47,7.84,28.55,9.93,32.87,1.93,3.96,7.56,5.34,8.3-.14.43-3.18.32-26.82-.46-28.67-.46-1.1-2.74-1.87-2-4.05,3.19.29,6.95-.41,10.04-.02,2.35.3-2.53,4.02-2.81,6.03-.49,3.55-.46,25.19.41,27.95,1.05,3.34,8.11,2.19,10.04-.56.71-1.01,1.76-7.45,4.13-5.16.79.77-.84,7.97-.8,9.69h-33.94ZM295.13,244.57c.33-1.9-2.28-12.07-3.64-12.09l-3.63,12.09h7.27Z"/>
      <path class="cls-1" d="M434.52,221.97c1.67.51,1.53,8.55,1.21,8.88-1.98,1.99-3.66-3.32-4.37-4.1-1.81-2.02-8.43-3.76-9.24-.18l.72,12.32c1.33.14,2.76.22,4.01-.37,2.27-1.08,1.39-4.94,4.04-4.44v13.72c-2.99.4-.95-3.93-3.22-5.26-1.5-.88-3.95-.24-5.67-.39v12.51c0,3.51,8.76,4.36,11.2.7.68-1.02,3.29-10.77,4.87-5.4.23.79-.99,9.27-1.48,9.6-.36.24-7.51,1.22-8.54,1.23-4.14.02-8.88-1.68-13.33-.88.23-2.4,2.09-2.35,2.46-5.2s.31-27.48-.45-28.69-3.71-1.1-2.83-4.04c5.15.99,16.28-1.33,20.61,0Z"/>
      <path class="cls-1" d="M373.91,221.97c2.09.29,6.23,4.25,6.69,6.23.52,2.25.34,5.85-.55,8s-5.79,4.53-5.64,6.22c.17,1.9,8.87,14.44,11.2,16.29.5,1.9-2.72,1.34-3.67,1.25-5.62-.55-6.65-7.91-9.41-12.39-5.73-9.31-6.12.57-5.49,6.31.45,4.08,2.13,2.87,3.23,6.03h-10.5c-.33-1.88,1.76-2.25,2.25-3.8.68-2.14.91-9.19,1.02-11.9.13-3.03.46-17.36-.82-18.63-.86-.85-3.15-1.06-3.25-1.2-.47-.62.78-2.41,1.21-2.41,4.12,0,9.92-.53,13.74,0ZM367.04,225.6c-.58,1.85,0,10.13,0,12.91,0,.26.89,1.96,1.36,2.07,9.14,2.14,12.15-17.02,1.46-16.27-.97.07-2.51.28-2.82,1.29Z"/>
      <path class="cls-1" d="M101.58,221.97c2.07.64.97,6.93,1.21,8.87l-6.42-6.09c-1.75-.49-5.71-1.13-6.4.96-.5,1.51-.4,12.13.64,12.86,4.53,3.17,4.92-4.34,8.14-4.49v12.91c-2.55.74-1.69-3.33-4.04-4.44-1.52-.72-3.26-.36-4.85-.4v13.32c0,2.33,8.99,3.63,11.49-.63,1.55-2.65.29-6.37,3.86-5.43.4,1.51-.41,10.5-2.02,10.5h-21.41c-.38-2.69,2.98-2.29,3.3-4.41.71-4.73.53-22.53-.14-27.43-.51-3.73-3.47-2.59-3.16-6.1,4.96.95,15.63-1.29,19.8,0Z"/>
      <path class="cls-1" d="M135.12,242.96c.28,2.22-2.55,2.83-3.07,4.6-.8,2.74.56,7.14-.26,9.43-.09.24-3.9,3.05-4.14,3.15-10.35,4.4-18.91-4.36-20.01-14.35-.64-5.88.91-16.94,5.63-21.04.23-.2,4.01-2.93,4.25-3.02,5.49-2.15,9.17,1.48,14.37,1.05-.04,1.46.9,14.53-2.42,12.11-.59-.43-.67-7.72-3.72-9.61-.94-.58-8.06-1.95-8.37-1.66s-2.71,6.37-3.27,7.48c-.27.54-1.53.41-1.59,1.05-.29,3.25-.34,9.61-.02,12.81.6,6.04,3.29,14.26,10.83,13.31,4.74-.6,5.98-8.67,4.39-11.16-.48-.75-5.08-.72-3.91-4.16h11.31Z"/>
      <path class="cls-1" d="M352.9,221.97c2.07.64.97,6.93,1.21,8.87-3.05.41-3.01-4.89-4.65-5.63-1.4-.64-9.08-1.61-9.08.39v12.11c0,1.6,4.65,1.42,5.95.47,1.19-.86.7-5.38,3.75-4.91v14.53c-3.01.38-2.35-4.26-4.02-5.26-1.46-.88-3.98-.22-5.68-.39v13.32c0,2.52,8.23,2.28,9.97,1.89,2.22-.39,3.33-8.71,4.97-7.93,2.3,1.09.59,8.97-.8,10.49h-21.41c-.35-2.11,2.18-2.64,2.81-4.05.87-1.93.76-27.44-.13-29.68-.4-1-3.55-1.55-1.37-3.44.1-.08,1.43-.76,1.52-.76,3.5,0,14.66-.71,16.97,0Z"/>
      <path class="cls-1" d="M241.51,227.89c7.96,11.79-.18,41.77-16.46,31.39-8.21-5.24-8.9-19.2-6.29-27.61,1.23-3.96,2.4-4.09,4.89-6.43.69-.65.95-2.03,1.72-2.5,2.39-1.43,9.08-.85,11.51.51.29.16,4.43,4.37,4.62,4.65ZM227.01,224.56c-5.07,1.46-4.97,18.26-4.55,22.76.51,5.49,3.24,12.27,10.01,10.96,8.04-1.56,7.65-19.3,6.82-25.34-.89-6.52-5.63-10.29-12.28-8.37Z"/>
      <path class="cls-1" d="M49.78,228.12c.27.4,1.13.48,1.52,1.33,1.84,4.06,1.91,13.39,1.33,17.88-1.03,7.85-9.08,17.14-17.47,12.74-16.34-8.58-8.8-45.6,8.92-37.97,3.57,1.54,3.94,3.37,5.7,6.02ZM43.68,223.68c-5.94.69-7.38.08-10.38,4.95-.34.56-1.47.52-1.6,1.15-.7,3.25-1.05,10.99-.84,14.41.18,2.87,1.11,9.81,2.98,11.56,5.99,5.61,12.24,1.92,13.95-5.2,2.08-8.68,1.19-19.58-4.1-26.87Z"/>
      <path class="cls-1" d="M458.36,222.78v11.3h-2.42c1.51-10.71-13.52-14.63-10.33-1.38.89,3.68,5.98,4.46,8.74,6.6,6.25,4.83,7.82,13.19,2.03,19.04-6.23,6.3-9.16-.04-15.79,1.57.12-3.79-1.12-7.04-.81-10.91.09-1.17-.62-2.36,1.19-1.99,3.26.67,1.47,2.94,2.23,5.03,3.08,8.48,12.58,8.6,12.58-.6,0-8.09-7.91-7.24-11.97-11.3-6.42-6.41-2.48-19.78,6.87-19.03,2.58.21,4.78,2.38,7.68,1.67Z"/>
      <path class="cls-1" d="M176.05,255.6c-.18.24-4.02,4.04-4.26,4.21-6.06,4.27-13.95-.93-16.48-6.75s-3.31-16.3-1.05-22.04c.32-.81,1.38-.85,1.82-1.61,1.1-1.84.53-3.84,3.7-5.01,3.55-1.32-.96,4.18-1.03,4.44-1.45,5.82-1.61,19.19.96,24.66,3.78,8.04,12.97,5.58,14.64-2.43,1.25-5.99,1.6-15.53-.62-21.27-1.89-4.88-6.13-6.72-11.15-6.23,3.5-3.93,9.77-1.79,12.94,2.01,5.55,6.65,5.66,23.13.52,30.01Z"/>
      <path class="cls-1" d="M266.03,234.07c-3.3.07-2.44-4.52-3.43-6.66-1.89-4.07-8.95-5.04-9.52,1.41-.76,8.57,7.64,7.76,11.69,12.56,4.69,5.57,3.46,15.97-3.4,19.1-5.31,2.42-7.8-1.99-13.12-1.4.84-2.17-1.57-10.44.41-11.29,1.81-.77,2.63,6.4,4.08,7.2,3.95,6.19,10.84,3.3,10.72-3.6-.19-10.45-15.63-6.69-14.42-20.96.9-10.68,8.9-10.3,17.01-7.29l.69.88-.73,10.03Z"/>
      <path class="cls-1" d="M409.86,234.88c-1.1,1.01-1.41-.15-1.8-1.02-.98-2.2-1.46-7.86-4.04-8.93-12.91-5.37-13.37,17.98-10.35,25.72.3.78,3.1,6.46,3.38,6.7.7.61,7.85.03,9-.67s1.79-5.14,2.98-6.1c2.6-2.1,2.5,2.4.84,4.88-4.05,6.06-11.58,7.4-17,2.21-8.52-8.18-7.53-27.89,2.24-34.93,4.59-3.31,7.33-.92,11.3-.13,2.12.42,3.81-2.34,4.3,2.14.18,1.66.06,9.29-.86,10.13Z"/>
      <path class="cls-1" d="M23.6,234.88c-2.68,2.61-3.46-5.44-4.14-6.76-1.29-2.5-5.41-5.01-8.22-4.56-.32.05-4.41,4.4-4.54,4.7-3.3,7.79-3.41,32.03,9.86,29.05,4.55-1.02,4.71-6.55,5.44-7.09.6-.44,2.24.57,2.39,1.26.29,1.38-2.8,5.4-3.99,6.43-9.39,8.09-18.86-1.52-20.16-11.39-.67-5.08,0-14.89,3.14-19.11.65-.87,2.29-1.6,3.32-2.57,3.47-3.29,2.46-4.49,9.19-3.61,2.93.39,2.82,2.2,3.43,2.34,1,.22,4.29-.2,4.29.01,0,1.64.41,10.91,0,11.3Z"/>
      <path class="cls-1" d="M204.62,221.97c.85,2.98-1.59,2.32-2.48,3.55-1.18,1.61-1.06,23.8-.79,27.56.07,1.04.26,4.17,1.38,4.43,2.24.52,7.12.16,8.69-1.71.48-.58,3.01-8.12,4.51-6.38-.21,2.62.76,7.78-1.19,9.7-1.58,1.56-17.84.75-21.43.78-.52-2.52,2.41-1.48,3.08-3.77.37-1.28.9-8.37.99-10.31.22-4.92.04-13.85-.85-18.59-.39-2.1-3.04-2.76-2.41-5.25h10.5Z"/>
      <path class="cls-1" d="M68.04,221.97c1.67,1.65-2.89,3.45-3.24,5.23-.47,2.4-.39,26.19.17,28.1.8,2.72,5.94,2.7,8.17,2.02,3.17-.96,3.4-8.44,5.8-7.91,1.65.36.9,2.26.85,3.21-.09,1.84-.17,6.65-1.76,7.17-5.1,1.65-14.91-.74-20.49.11.83-2.77,2.69-3.62,3.15-6.93s.53-24.42-.46-26.78c-.4-.94-4.28-2.66-2.7-4.22.37-.37,10.12-.37,10.5,0Z"/>
      <path class="cls-1" d="M149.66,224.38c-.53.66-3.6-.45-4.08,3.6-.53,4.41-.69,22.69.06,26.66.47,2.48,3.27,2.78,3.21,5.26-2.23-.67-11.04,1.18-12.11,0-1.51-1.67,2.99-2.11,3.65-3.21.76-1.26.88-26.86.39-29.47-.57-3.04-4.91-2.17-4.03-4.02,1.09-2.26,15.31-1.8,12.92,1.19Z"/>
      <path class="cls-1" d="M168.66,53.27c-.83-.24-2.35-2.31-1.86-3.39,3.48-9.64,4.31-22.45,7.93-31.71.39-1.01.57-2.2,2-2.04l10.08,36.28c-.72-.09-1.7.86-1.99.86-3.56,0-13.63.72-16.16,0Z"/>
      <path class="cls-1" d="M167.85,146.9c-2.2-.67-.55-5.63-.16-7.43,1.58-7.29,4.51-21.2,7.04-27.67.39-1.01.57-2.2,2-2.04l9.97,34.52c.52.85-.5,2.62-1.08,2.62-3.66,0-15.34.74-17.78,0Z"/>
      <path class="cls-1" d="M177.14,62.96l9.71,36.3c-1.17,1.66-17.12-.35-20.2.01l8.27-34.92,2.23-1.4Z"/>
    </g>
  </g>
</svg>