<?xml version="1.0" encoding="UTF-8"?>
<svg id="Capa_2" data-name="Capa 2" xmlns="http://www.w3.org/2000/svg" viewBox="0 0 350.83 152.08">
  <defs>
    <style>
      .cls-1 {
        fill: none;
        stroke: #000;
        stroke-miterlimit: 10;
        stroke-width: 3px;
      }
    </style>
  </defs>
  <g id="Capa_1-2" data-name="Capa 1">
    <g>
      <path d="M65.31,12.44c5.22,8.68,10.97,17.07,16.8,25.35.17.19.36.34.63.35,1.07.03,6.71-4.99,8.16-5.68l14.98,22.62-19.45,58.48-4.77-1.77-.02-.57c5.21-15.94,11.08-31.71,16.06-47.73.48-1.53,2.26-6.48,2.24-7.67,0-.36-.03-.7-.25-1l-9.79-14.43-.46-.24-3.85,2.71,6.9,10.25-4.1,3.07-7.13-10.11-15.88,12.07-16.25-12.07-5.92,8.66c-.41,1.11.72,3.81,1.1,5.06,6.25,20.53,14.02,40.67,20.4,61.17l.37.25,9.89-29.41,4.96,2.38-15.22,43.36-27.75-82.98,7.6-11.56c-.77-.43-3.78-3.45-4.42-3.08l-10.41,15.64,18.78,56.26-4.94,1.74-19.76-58.96,15.07-22.36,8.89,6.18,17.55-25.95ZM65.31,22.08l-13.33,19.37,13.25,10,12.94-9.96-12.86-19.41Z"/>
      <path class="cls-1" d="M128.56,27.05c-.92,23.66-7.44,46.98-18.05,68.03-8.62,17.11-20.48,33.27-34.44,46.39-3.32,3.12-7.06,5.96-10.31,9.09-.52.24-2.96-1.73-3.53-2.18-13.27-10.34-26.22-25.72-35.23-39.91C11.33,83.8,2.33,55.93,1.54,26.53c22.71-2.59,44.55-12.17,63.41-24.72,19.03,12.78,40.71,22.23,63.61,25.25Z"/>
      <g>
        <path d="M268.23,83.2h-3.23s-1.29-10.34-1.29-10.34l-3.93,10.29-2.84.04c-.46-2.47-1.35-4.95-2.19-7.34-.32-.92-.65-2.36-1.38-2.98l-1.35,10.13-.42.45-2.76-.24,2.59-14.54,3.84.03,2.94,10.31c.79.1.51,0,.68-.45,1.19-3.25,1.97-6.94,3.2-10.22l3.57.47,2.56,14.4Z"/>
        <path d="M274.37,105.18l-3.17-.07-5.88-9.3.32,9.37h-2.91c.16-2.77-.3-5.49-.34-8.26-.01-1.08.35-2.06.36-3.22.02-2.94-1.87-4.18,2.89-3.23l5.81,9.54-.32-9.69h3.23v14.86Z"/>
        <path d="M331.56,68.66v14.54l-3.24-.16-5.81-8.89v8.56c0,.07.48.37.32.48h-3.23s0-14.54,0-14.54l3.18.05,5.39,9.32c.7.13.49-.33.5-.82.02-2.37-.02-4.71,0-7.12,0-.73-.7-1.68.33-1.63l2.56.2Z"/>
        <path d="M239.39,90.07c10.11-1.72,13.31,12.32,3.72,15.02-5.92,1.67-11.18-4.1-9.28-9.93.78-2.4,3.02-4.66,5.57-5.1ZM240.03,92.97c-3.63.67-4.61,5.39-2.34,8.01,1.98,2.29,6.32,1.71,7.67-1.07,1.89-3.88-1.11-7.72-5.33-6.94Z"/>
        <path d="M215.88,75.45c-.44,2.7-.87,4.93-3.25,6.6-6.67,4.7-15.18-2.25-11.55-9.61,2.82-5.73,11.88-5.44,13.83.75-.96-.34-2.13.2-3-.06-.64-.18-1.17-1.33-1.93-1.64-2.75-1.11-6.16.59-6.63,3.55-.91,5.76,6.99,8.43,8.97,2.67h-3.88s0-2.26,0-2.26h7.43Z"/>
        <path d="M230.02,68.42c10.15-1.53,12.48,13.82,2.16,15.08s-11.73-13.63-2.16-15.08ZM227.95,72.65c-4.26,4.57,2.69,11.35,6.84,6.36,3.91-4.69-2.81-10.68-6.84-6.36Z"/>
        <path d="M341.97,68.29c4.2-.51,8.42,2.65,8.83,6.95.58,6.05-6.66,10.51-11.79,7.23-5.94-3.79-4.13-13.32,2.96-14.18ZM342.29,71.2c-5.09.74-5.08,8.6-.39,9.35,7.73,1.22,7.16-10.33.39-9.35Z"/>
        <path d="M166.37,68.43c10.38-1.42,12.17,14.05,2.14,15.06s-11.63-13.76-2.14-15.06ZM170.86,79.54c4.09-3.98-1.28-10.98-6.19-7.32-5.28,3.93,1.7,11.69,6.19,7.32Z"/>
        <path d="M156.75,89.99c1.91.68,3.99.08,5.95.35,6.6.9,8.16,10.9,2.03,13.92-.53.26-2.19.91-2.64.91h-5.33v-15.19ZM159.66,102.59c7.81.47,7.78-10.59,0-9.69v9.69Z"/>
        <path d="M292.63,68.66c4.15.83,4.72,8.43-.16,8.89l3.56,5.65-3.56-.16-3.39-5.33c-1.23.69.04,5.29-.16,5.49l-3.23.32v-14.86c2.04.28,5.05-.38,6.95,0ZM292.71,74.72c1.04-3.16-1.43-3.86-4.12-3.48l.3,4.06c1.3.44,2.65-.04,3.82-.58Z"/>
        <path d="M230.75,89.99v15.19h-2.91v-6.14l-5.34-.22c-.36.05-.48.77-.48,1.02v5.33h-2.91s0-14.86,0-14.86h3.23s0,5.81,0,5.81h5.49v-6.14h2.91Z"/>
        <path d="M199.73,94.19l-3.36.35c-.5-4.49-7.7-1.18-4.52.91,2.17,1.42,9.25.57,8.13,5.94-1.2,5.77-11.55,5.44-12.53-.73.89.12,2.22-.22,3.02.05.49.17.85,1.27,1.52,1.71,2.58,1.7,6.53-.92,4.28-2.75-1.84-1.5-8.51-.45-8.16-5.28.44-6.12,10.55-5.76,11.62-.2Z"/>
        <path d="M288.58,94.19c-.92-.11-2.16.2-3.01-.06s-.76-1.81-3-1.85c-1.81-.03-3.39,1.64-1.83,2.9,1.98,1.59,7.23.63,8.03,4.82,1.25,6.51-11.79,7.88-12.14.66l3.52.03c-.12,3.26,5.58,2.84,5.52.12-.05-2.15-7.74-1.86-8.39-5.17-1.37-7.01,10.01-7.82,11.3-1.45Z"/>
        <path d="M158.04,73.18c-1-.07-1.98.57-3,.27-.76-.23-1.46-1.74-2.48-2.06-7.8-2.41-8.32,10.45-1.05,9.35,2.7-.41,3.28-2.67,3.51-2.72,1.11-.28,2.3.63,3.34.01-2.07,6.82-12.34,7.55-14.69.64-3.3-9.73,10.27-14.58,14.37-5.49Z"/>
        <path d="M216.53,94.83l-3,.34c-3.12-5.29-10.32-.9-8.14,4.51,1.68,4.16,6.13,3.54,8.46.37l3,.28c-4.15,9.78-18.34,3.91-14.13-5.9,2.6-6.07,11.81-6.01,13.81.4Z"/>
        <path d="M311.48,90.37l6.19,14.81-3.24-.15-1.48-3.04-5.74-.06-1.2,3.21-3.19.04,5.51-14.85,3.16.04ZM312.17,99.68l-2.26-5.81-1.62,5.81c1.29-.7,2.55-.17,3.87,0Z"/>
        <path d="M278.21,68.7l5.53,14.5-3.19-.04-.98-2.66-5.65-.16-1.21,2.83-3.52.04,5.51-14.52,3.5.02ZM278.57,78.03c.19-.25-1.6-5.38-2.26-5.82l-1.62,5.81c1.33-.16,2.59-.7,3.87,0Z"/>
        <path d="M317.99,83.2l-3.51-.04-1.23-2.88-5.13-.18c-.38.06-.55.46-.74.73-1.55,2.24-.25,2.78-4.25,2.37l5.8-14.39,3.08.17,5.98,14.22ZM312.5,77.71l-2.1-5.16c-.57,0-1.33,4.44-1.78,5.16h3.88Z"/>
        <path d="M259.83,90.31v2.58h-5.82l.16,3.26c1.75.66,3.56.06,5.34-.03v2.59s-5.49,0-5.49,0v3.88h5.82v2.58h-8.72v-14.86h8.72Z"/>
        <path d="M197.47,68.66v2.58h-6.14l.32,3.23h5.49v2.58h-5.49v3.55h5.82v2.58h-9.05c-.12-.35.32-.71.32-.81v-13.73h8.72Z"/>
        <path d="M179.69,90.31l.32,2.58h-6.14v3.55h5.49v2.58c-.12.16-.42-.32-.48-.32h-5.01v3.88h6.14c-.46.88-.47,1.7,0,2.58h-9.05v-14.86h8.72Z"/>
        <path d="M337.7,105.18h-3.23c.54-3.87.5-8.19.01-12.07l-4.22-.21v-2.4s11.64-.51,11.64-.51v2.91s-4.2,0-4.2,0v12.28Z"/>
        <polygon points="302.16 90.31 302.16 92.9 297.63 92.9 297.63 105.18 294.73 105.18 294.73 92.9 290.2 92.9 290.2 90.31 302.16 90.31"/>
        <path d="M329.3,90.31v2.59s-4.2,0-4.2,0l.33,12.28h-2.91v-12.28s-4.52,0-4.52,0v-2.91c.12-.16.42.32.48.32h10.82Z"/>
        <path d="M180.99,68.34v12.28h5.49l.32,2.58h-8.72v-14.86c1.04.26,1.9.6,2.91,0Z"/>
        <rect x="218.15" y="68.34" width="2.91" height="14.86"/>
        <polygon points="300.87 83.21 297.96 83.21 297.96 68.34 300.66 68.39 301.14 68.87 300.87 83.21"/>
      </g>
    </g>
  </g>
</svg>