<?xml version="1.0" encoding="UTF-8"?>
<svg id="Capa_2" data-name="Capa 2" xmlns="http://www.w3.org/2000/svg" viewBox="0 0 352.93 352.86">
  <defs>
    <style>
      .cls-1 {
        fill: #060606;
      }
    </style>
  </defs>
  <g id="Capa_1-2" data-name="Capa 1">
    <g>
      <path class="cls-1" d="M163.52.48c97.79-7.18,181.89,66.7,188.93,162.98s-66.09,181.8-163.06,188.92S8.26,286.92.56,190.24C-7.14,93.62,65.58,7.67,163.52.48ZM289.27,303.89c71.11-63.06,76.9-171.07,13.92-241.11C238.69-8.96,128.18-13.13,58.69,53.55-13.16,122.5-11.07,237.33,63.51,303.76c63.99,56.99,161.07,57.5,225.76.13Z"/>
      <path class="cls-1" d="M174.42,125.66c-10.96,1.42-22.04.68-33.11.59-.17-3.32-5.89-4.42-11.56-3.71l.08,111.08c6.68,1.16,12.61-1.51,14.52-7.61,1.9-.72,3,.88,4.64,1.4l9.48,3c.51.16,1.49-.05,1.98-.05-.28,1.17.56,1.96,1.51,2.01.61.03,1.97-.02,2.36.35,1.13,1.08,3.02,1.3,5.3,1.68,1.28.21,1.25,3.22,1.05,4.09-1.2,9.23-11.51,27.28-23.41,27.37l-53.5.39-.07-32.67,9.1-.05-.16-110.8c-2.84-.77-5.1-.4-8.03-.35l.02-31.83,51.8.25c15.94.08,25.96,20.98,27.98,34.87Z"/>
      <path class="cls-1" d="M261.36,196.21l-.08,44.14c0,.99.42,1.74.57,2.08-.07,5.03-2.82,10.95-6.56,14.68-10.59,10.55-26.17,11.61-39.05,3.82l-1.49,4.7-30.34-.13v-30.15c.87-.58,1.75-1.04,2.81-1.09l2.05-.09,26.2-.11.17,7.07c.14,5.8,7.83,8.05,11.15,6.11,1.57-.91,2.35-2.64,2.36-4.97l.03-32.92c0-4.97-3.13-8.65-6.82-10.98v-30.89c.01-.74.64-1.15,1.14-1.12,16.46,10.21,32.29,11.52,37.85,29.84Z"/>
      <path class="cls-1" d="M216.48,124.47c.3,1.45-.82,2.08-1.57.63-1.57.87-3.26,1.45-5.45,1.41l-23.29-.43c1.16-7.85,1.68-15.95,5.81-23.02,2.5-4.28,6.43-9.59,11.58-10.14,6.54-.7,13.18-.67,19.62.06l11.07,4.4.25-6.69,27.5.12.21,31.47-29.36.02c-.83-3.99-4.06-8.62-8.04-8.03-5.01.74-7.06,6.33-8.33,10.2Z"/>
      <path class="cls-1" d="M202.07,319.87l4.18,18.15c-1.9.68-3.58,1.07-6.24,1.23l-6.96-28.74,10.29-2.42,10.84,18.39,1.56-21.7,10-2.47,7.13,28.9c-2.15.98-4.12,1.43-6.4,1.79l-5.7-21.02-1.76,22.62c-1.82.92-3.41,1.38-5.53,1.36l-10.25-16.69-1.17.59ZM202.75,318.39c-.11-2.11-2.41-1.01-1.27.4l1.27-.4Z"/>
      <path class="cls-1" d="M293.41,110.1l14.05-10.59-16.37,4.3c-2.15.57-6.01-1.97-4.63-4.16l9.08-14.4-13.31,8.37c-1.69-.32-3.62-3-3.94-4.87l23.77-16.65,5.36,7.77-11.37,16.13,19.03-5.2,5.43,7.83-23.45,16.09c-1.15.65-4.15-3.3-3.63-4.61Z"/>
      <path class="cls-1" d="M295.25,248.69l20.21,13.58c-.31,2.43-1.44,4.31-3.28,5.84l-20.23-13.2-4.97,6.54c-.98.48-3.4-.83-4.33-2.53l12.55-18.64c1.34-1.99.98-1.67,1.78-3.77l8.12-21.26,4.82,1.59-2.96,8.28,22.49,9.22c-.3,2.37-1.05,4.24-2.26,6.24l-23-8.98c-.76,4.03-2.98,6.25-4.56,8.98-1.33,2.29-.56,4.69-4.38,8.1Z"/>
      <path class="cls-1" d="M285.16,298.17c1.26,1.35-2.29,4.46-3.87,4.59l-20.48-21.22,6.82-6.24,21.26,7.19-12.6-14.56c-.94-1.08,2.48-4.49,4-4.09l20.48,20.88-6.56,6.3-19.07-7.33c-.58-.1-1.71,1.87-1.23,2.39l11.25,12.1ZM271.94,283.69l-.65.02.65.02h.67l.65-.02-.65-.02h-.67Z"/>
      <path class="cls-1" d="M47.55,155.94l-27.73-6.84c-.43-1.69-.12-5.11,1.18-6.51l20.26-7.48-17.38-4.69,1.36-6.06,28,6.88c.37,1.73.14,6.09-1.83,6.77l-20.09,6.99,17.35,4.59c.2,1.91.1,3.43-1.11,6.33Z"/>
      <path class="cls-1" d="M339.59,169.9l-28.75,3.62c-.76-1.74-1.73-5.86-.13-7.28l14.42-12.8c-6.63-.97-11.27,1.05-16.69,1.2l-.86-6.26,28.6-3.5c.92,1.36,1.88,5.55.53,7l-15.99,13.55,18.15-1.86.72,6.33Z"/>
      <path class="cls-1" d="M141.32,126.25c11.06.09,22.15.83,33.11-.59l.09.61c.22,1.5,2.03,2.2,3.99,2.2l37.9.02c1.43,0,2.48.5,2.9,1.68.24.69,0,1.81-.66,2.51-.04-.86-.02-1.71-.58-3.24l-72.49-.18c-2.14,0-4.52,1.57-5.86,1.22-.32-.08-1.26.27-1.26,1.11l.5,78.69c.05,7.8,12.15,13.02,20.33,16.4l13.43,5.54-.06,2.93c-.79.88-1.8,2.13-1.96,3.33.2-.87.23-3.88-1.05-4.09-2.29-.37-4.18-.6-5.3-1.68.75.27,1.08-.04,1.67-.33s.79-1.67.29-1.82c-2.06-.59-4.05-.21-5.83-.22-.49,0-1.46.21-1.98.05.09-5.15-7.06-3.59-13.29-6.92-5.17-2.76-9.31-8.67-9.32-15.18l-.14-81.46c2.06-1.48,3.86-.62,5.59-.61Z"/>
      <path class="cls-1" d="M195.85,28.63c.57,9.07-5.07,15.99-13.33,16.58s-15.33-4.58-16.06-13.42,4.23-16.31,12.48-17.28c8.9-1.05,16.3,4.41,16.91,14.11ZM189.04,30.21c.17-5.85-2.87-10.16-8.04-10.16-4.77,0-7.68,4.5-7.84,9.65s2.7,9.83,7.82,9.88c4.68.04,7.9-3.66,8.06-9.36Z"/>
      <path class="cls-1" d="M98.72,319.54c-.21-3.63,3.69-7,2.91-10.25-.55-2.31-4.05-3.42-6.11-4.46l-5.98,9.62c-2.32-.47-4.24-1.53-5.91-3.33l15.27-25.28,13.23,7.82c3.11,1.84,4.29,5.41,3.43,8.82-.81,3.2-3.55,5.85-8.41,5.6,1.27,2.58,1.08,4.39.17,6.75l-3.29,8.48c-1.96-.58-5.18-1.85-5.3-3.78ZM102.16,293.85c-.97.14-4.15,5-3.49,6.59.28.67,5.2,4.18,7.74,2.98,1.82-.86,2.48-2.44,2.51-3.78.05-3.06-5.55-5.96-6.75-5.79Z"/>
      <path class="cls-1" d="M172.21,329.25c-1.88,7.46-7.43,11.4-14.72,10.83-4.25-.33-8.06-2.01-10.51-4.97-5.51-6.66-3.17-21.43,5.37-25.12,4.99-2.16,11.92-1.45,16.11,2.12,4.96,4.22,5.33,10.92,3.76,17.15ZM163.8,331.85c2.11-3.78,2.75-8.03,2.12-11.92-.57-3.54-3.03-5.85-5.92-6.18-3.22-.37-6.08,1.19-7.46,4.49-2.85,6.84-1.95,15.4,3.75,16.67,2.7.6,5.79.02,7.51-3.06Z"/>
      <path class="cls-1" d="M265.92,310.48c-1.97,8.46-12.3,13-19.56,9.53-6.91-3.31-11.34-12.11-9.62-19.64s11.07-12.75,18.4-9.96,12.75,11.64,10.78,20.07ZM249.01,313.94c2.44,2.05,5.6,1.99,7.99.62,5.76-3.29,2.7-12.72-3.31-17.7-2.67-2.21-5.97-2.03-8.43-.32-5.23,3.65-2.22,12.38,3.75,17.39Z"/>
      <path class="cls-1" d="M281.83,74.77l-10.42-8.41c-2.12,1.34-3.49,3.04-4.28,5.04l10.84,9.74c.38,1.57-1.78,4.11-3.61,4.69l-16.46-15.06,19.51-21.88,16.27,14.74c-.1,1.7-1.9,3.48-3.5,4.21l-11.06-9.83c-1.93.91-3.1,2.61-3.94,4.33l9.69,8.82c.8.73-1.88,4.56-3.03,3.62Z"/>
      <path class="cls-1" d="M59.15,120.38c-3.34,4.37-8.27,5.41-12.57,3.54.3-2.12,1.12-4.52,2.31-5.46,4.81.29,8.02-2.18,8.75-7.15.18-1.25-.07-2.58-.93-3.26-1.06-.83-2.87-.8-4.04.47l-6.69,7.25c-2.08,2.26-4.5,3.22-7.58,2.67-2.29-.4-5.31-2.12-6.05-5.38-1.45-6.43,1.65-13.19,7.59-16.3,1.58-.83,5.22-.93,6.46.31,1.17,1.17-.71,5.54-2.46,5.57-3.24.06-4.44,1.29-5.66,3.2-1.07,1.68-1.51,5.82,1.64,5.79,4.87-.04,8.12-13.85,17.72-10.53,3.01,1.04,5.77,4.49,5.61,8.51-.15,3.76-1.7,7.6-4.12,10.77Z"/>
      <path class="cls-1" d="M101.57,34.1c1.87-1.65,3.75-2.3,6.39-2.66l8.62,18.28c1.27,2.7,4.77,2,6.66,1.16,2.37-1.05,4.82-3.14,3.59-6.13l-7.45-18.06c.49-1.72,4.11-3.17,5.87-2.85l7.44,16.65c3.11,6.97-.63,13.22-7.61,15.71-3.24,1.15-6.39,2.09-10.09.73-2.39-.87-4.57-3.43-6.02-6.61l-7.4-16.22Z"/>
      <path class="cls-1" d="M70.49,257.5c1.73.92,3.65,3.73,3.31,5.64l-16.67,11.44c-5.37,3.68-12.03-.46-15.21-5.42-2.07-3.22-3.21-6.19-2.63-10.03.41-2.74,2.8-5.6,5.75-7.58l14.02-9.44c1.56-.4,4.04,3.34,3.94,5l-16.92,12.41c-2.5,1.83-.98,5.15.16,6.78,1.52,2.18,4.58,4.69,7.26,2.85l17-11.67Z"/>
      <path class="cls-1" d="M229.14,53.93c-1.54-1.35-.62-4.9-.96-6.93-3.51-.91-7.17-3.14-10.45-2.93-1.26,1.27-2.53,4.34-4.08,4.38-2.11.05-5.26-.72-5.66-2.54l19.33-23.11c2.71.25,4.58.99,6.83,2.27l1,30.71c-1.72-.06-4.18-.29-6.01-1.85ZM228.35,41.48l-.21-10.04-6.37,7.59c1.98,1.3,3.86,2.15,6.59,2.45Z"/>
      <path class="cls-1" d="M307.5,145.74c-1.89-1.56-2.84-4.78-1.94-6.93.54-1.28,4.11-2.76,3.98-4.08-.42-4.07-1.99-6.57-3.33-10.01-2.01,0-4.15.52-5.97-.31-1.67-.76-2.41-3.83-2.3-6.09l30.36,1.28c1.64.75,2.41,4.71,2.57,6.65l-23.36,19.48ZM322.43,125.11l-10.36-.09c.62,2.85,1.19,4.35,2.44,6.62l7.92-6.52Z"/>
      <path class="cls-1" d="M81.54,293.05l-8.64-7.36c-2.17,1.61-3.85,3.18-4.85,5.49l9.19,9c.17,1.3-2.17,3.72-3.48,3.47l-14.42-13.4,20.37-22.1,14.08,13.24c.27,1.4-1.72,3.54-3.13,4.07l-9.68-8.61c-1.97,1.47-3.1,2.8-4.33,4.72l8.43,8.12c.92.88-2.24,4.47-3.55,3.36Z"/>
      <path class="cls-1" d="M38.82,237.66l-3.92-7.87c-3.85.39-6.85,1.96-10.49,3.54-1.27-1.77-1.79-3.74-2.61-6.42l27.87-10.65,4.82,14.08c1.4,4.1-1.35,7.43-4.46,8.85-3.53,1.61-8.14,2.04-11.21-1.54ZM48.18,232.15c1.61-2.44.09-6.03-1.11-7.73-2.35.89-4.97,1.12-6.69,2.86-1.27,1.29.75,4.22,1.9,5.27,1.27,1.15,4.48,1.76,5.89-.4Z"/>
      <path class="cls-1" d="M216.48,124.47c.73,1.36,3.48,1.49,4.56,2.23,1.67,2.11.69,4.82,1.04,6.65-.32.43-.24.85-.25,1.29l-.81,30.7c-.09,3.45-.05,6.37-.2,10.48l-.52,14.57c-.14,4.02-.5,7.98,1.82,11.1-.12,1.54-.2,3.24,0,4.74l-.41.97c-.18.42-.11,1.15.45,1.28-.92,3.66-1.72,7.82-4.8,10.89-6.17,6.14-14.6,10-22.68,11.18-1.56-4.24,6.28-3.24,15.7-9.42,3.8-2.49,8.38-6.72,8.43-11.8l.72-72.82c.01-1.02-.64-1.78-.94-2.05l.05-1.8c.65-.71.9-1.83.66-2.51-.42-1.18-1.47-1.68-2.9-1.68l-37.9-.02c-1.96,0-3.77-.69-3.99-2.2,3.86.96,7.87-.24,11.65-.17l23.29.43c2.19.04,3.88-.54,5.45-1.41.75,1.44,1.86.82,1.57-.63Z"/>
      <path class="cls-1" d="M72.53,97.13l-17.76-14.52c-2.47,1.24-3.41,3.39-4.78,5.27-.97,1.33-2.38.57-3.09.19-.79-.43-2.67-1.89-1.84-3.08,4.48-6.44,9.48-11.96,14.5-18.11,2.21.74,3.52,1.9,4.55,3.61l-5.38,6.56,18.07,14.61c-.91,2.03-1.68,3.16-4.28,5.46Z"/>
      <path class="cls-1" d="M98.3,71.1l-13.95-18.68-5.95,4.3c-1.57,1.14-4.69-2.72-3.86-4.01,5.79-4.96,12.22-9.19,18.56-13.78,1.2-.77,4.07,3.24,3.22,4.35l-6.25,4.9,13.51,18.81c-.96,1.86-2.82,3.13-5.29,4.11Z"/>
      <path class="cls-1" d="M148.71,47.46l-4.31-22.87-8.01.99c-1.51.19-1.97-4.01-1.47-5.25l23.45-4.53c1.07,1.82,1.25,3.69,1.02,5.63l-8.28,1.61,4.34,23.28-6.74,1.14Z"/>
      <path class="cls-1" d="M126.6,332.01c-2.44-.3-4.1-.9-6.36-2.19l7.81-22.92-8.1-2.91c.2-1.94.59-3.41,1.73-5.05l22.7,7.76c-.12,1.79-.82,4.16-1.8,4.58l-8.02-2.26-7.97,22.99Z"/>
      <path class="cls-1" d="M257.32,63.69c1.31.84-1.53,5.32-2.72,4.62l-17.58-10.36,14.73-24.95c2.36.44,4.36,1.6,6,3.64l-11.89,19.67,11.47,7.38Z"/>
      <path class="cls-1" d="M84.48,83.59l-20.3-20.95,5.07-4.88,20.34,20.82c-1.44,1.93-2.56,2.97-5.11,5.01Z"/>
      <polygon class="cls-1" points="46.71 167.73 17.83 165.36 18.13 158.58 47.32 160.96 46.71 167.73"/>
      <path class="cls-1" d="M28.8,187.09c4.23-1.08,7.48,1.67,8.03,4.85.65,3.79-.92,6.88-4.99,7.93-2.89.75-6.45-1.08-7.52-4.52-.94-3.02.43-7.23,4.48-8.26Z"/>
      <path class="cls-1" d="M324.19,188.07c4.2-1.1,7.11,1.3,7.86,4.12,1.07,4.03-.78,7.45-4.44,8.22-3.36.71-6.67-.34-7.9-3.97-1.01-2.96.27-7.27,4.48-8.37Z"/>
      <path class="cls-1" d="M223.51,166.37c-.5-.04-1.13.37-1.13,1.12v30.89s-.26,3.13-.26,3.13c-2.32-3.11-1.97-7.08-1.82-11.1l.52-14.57c.15-4.1.11-7.03.2-10.48,1.22.12,1.82.6,2.49,1.01Z"/>
      <path class="cls-1" d="M188.5,230.16c.18,1.58-.23,3.04-1.27,4.1-1.06.05-1.95.5-2.82,1.09l-2.88,1.92c-2.24-.83-4.61-1.14-6.95-.9-.49-.34-1.57-.6-1.93-1.22l.06-2.93c1.34.55,3.87,2.23,5.72,2.13l10.07-4.2Z"/>
      <path class="cls-1" d="M261.85,242.43c-.15-.34-.57-1.09-.57-2.08l.08-44.14c.21.69,1.14,1.59,1.11,3.11l-.63,43.12Z"/>
      <path class="cls-1" d="M181.52,237.28c-.83.55-1.58,3.15-2.98,3.09-2.26-.1-3.06-2.88-3.97-3.99,2.34-.23,4.71.07,6.95.9Z"/>
      <path class="cls-1" d="M221.83,134.65c.01-.45-.07-.87.25-1.29.08.44-.2.97-.25,1.29Z"/>
      <path class="cls-1" d="M158.48,230.41l-9.48-3c-1.65-.52-2.75-2.12-4.64-1.4l.83-2.52c6.24,3.33,13.38,1.77,13.29,6.92Z"/>
      <path class="cls-1" d="M164.33,232.72c-.39-.37-1.75-.32-2.36-.35-.95-.05-1.79-.84-1.51-2.01,1.78,0,3.77-.38,5.83.22.5.14.29,1.54-.29,1.82s-.92.6-1.67.33Z"/>
      <path class="cls-1" d="M193.47,230.34c-.49,2.3-3.16,2.31-4.19,3.84l-2.05.09c1.04-1.07,1.45-2.52,1.27-4.1,1.62-.67,3.46-1.57,4.98.17Z"/>
      <path class="cls-1" d="M138.95,210.28l-.5-78.69c0-.85.94-1.19,1.26-1.11l-.75,79.81Z"/>
      <path class="cls-1" d="M218.81,209.35c-2.05-1.19-.5-3.18-.51-4.96l-.17-35.89c-.01-2.58-.1-4.49-.05-7.14l.51-26.89c.3.27.95,1.04.94,2.05l-.72,72.82Z"/>
      <path class="cls-1" d="M222.16,208.5c-.57-.14-.63-.86-.45-1.28l.41-.97c.07.7.21,1.56.04,2.26Z"/>
      <path class="cls-1" d="M174.52,149.71l2.26.03c-.49.94-.46,2.46.27,2.77.88.37,3.53-.16,3.37-.94-.61-1.55-2.67-2.68-3.79-3.09-.79-1.89,1.22-3.38,1.35-5.17l.59-8.77c2.96-.3,4.12,2.88,8.17,1.34-1.41,2.99-1.44,4.48-.63,6.97,1.5,4.64-.91,11.3,1.41,15.54,1.98,3.62,7.68.81,10.18-.51,5.6-2.98,9.64-8.09,8.02-14.68-2.84,1.57-5.76,2.94-8.39,1.28s-2.9-7.24-.12-9.09c6.1-4.05,12.31,4.99,15.91.24.55,2.21-.32,3.35-3.18,4.09,4.86,6.11,4.36,12.38,4.43,19.38l.18,19.11-.21,29.19c0,1.14-1.39,1.28-2,.94.02-1.67-1.67-2.09-2.91-2.96l-.07-45.72c-.91-.15-1.95.85-1.95,1.76l-.14,42.01c-2.26-1.34-3.13-2.97-3.11-4.98l.21-32.94c-.89.03-1.97,1.02-1.97,1.87l.13,31.79c-2.29-.1-2.46-1.52-2.99-2.71l-.15-1.11-.24-2.77.08-3.35-.8-4.82c1.17.17,1.17-1.16-.01-1l-.03-4.02c1.57-1.92,1.15-5.02.88-8.18.99-1.42-1.02-2.76-1.82-1.09l-.24,21.98c-1.59.99-3.69-.75-3.72-2.83l-.28-17.84h-1.56s-.34,18-.34,18c-6.38-3.79-1.41-9.58-5.75-12.29-5.59,13.21,8.84,16.91,8.87,23.41-.69-.27-1.74-.05-1.89.43-.2.63-.25,1.85,0,2.3-1.14.34-1.94,1-2.8,1.99-1.12-1.66-3.42-3.54-4.95-3.58-2.94,1.15-.02,4.47.09,6.07.36,5.54,2.38,10.89,8.59,12.83-.9,1.8-2.08,2.59-3.56,2.83-1.76.29-3.13-1.47-4.52-2.08-2.22-.98-2.97,2.09-3.79,2.99-3.12.28-4.66-2.86-5.92-4.94-1.98.64-5.41,2.43-7.01-.13,1.33-.48,2.3-1.72.37-2.14,2.33-1.62,3.01-2.79,2.97-5.66-.06-3.8,1.76-7.83.01-11.35l-5.74,4.36c-.57-1.89-1.95-3.56-4.1-3.93.16-5.21,10.99-11.29,10.08-16.14l-2.07-10.97c-.13-.69-1.29-.67-1.39-.29s-.1,1.03-.08,1.3c-4.7.02.1,7.81-4.29,10.11l.13-11.17c.01-.96-.04-1.57-.55-1.95s-1.39.08-1.52.51.7,1.28.7,1.93l.06,16.36c0,1.65-2.33,3.34-3.63,4.07l-.3-24.87h-1.62s-.25,27.3-.25,27.3c-2.2-.11-2.71-1.72-2.74-3.71l-.41-27.72c-2.86,2.03-1.72,4.93-1.73,7.11-.38-.07-1.18-.12-1.49.1-.35.25-.62,1.04-.62,1.86v16.13c0,.81.3,1.63.61,1.85s1.11.18,1.45.07v6.98c-.01,1.93-1.59,2.96-2.98,3.03l.02-39.97c0-1.13-.43-1.81-.87-2.26-.8-.82-1.41-.79-2.16-.34-1.5.89-.1,1.88-.1,2.76l.09,43.31c-1.59,1.23-2.59,3.57-4.57,4.79l-.41-56.22c-.04-4.97,2.08-8.87,3.76-13.11,2.5-6.3,10.96-8.68,15.02-4.48.83,1.47-.3,5.61-1.49,6.77-1.98,1.93-4.99,1.12-7.46-.73-2.26,4.86-1,9.51,3.48,12.35s10.02,3.45,15.57,3.16c.62-3.76,2.02-6.37,4.12-8.73ZM180.96,148.48l-.5.5.5.5.5-.5-.5-.5ZM182.4,151.12c-.18,1.52,1.16,1.6,1.55,1.36.54-.32.74-.92.51-1.5-.19-.47-1.32-1.18-2.06.14ZM192.32,167.1c2.37,3.18,2.36,7.24,2.74,12.06,2.67-3.93.75-7.76,1.34-11.76l3.97-1.9c1.74-1.83,3.07-3.07,5.82-3.34l.13-8.9c0-.57-1.85-.78-1.91-.26l-.25,2.01c-.29,2.33-.02,4.02-1.16,5.69-1-2.78-3.03-2.04-4.01-1.53-4.81,2.52-.27,8.47-5.9,7.06l-.76.85ZM142.8,166.44c.39.15,1.24.24,1.73-.47l-.29-11.51h-1.49s.05,11.98.05,11.98ZM192.52,165.7c.79-.74,1.97-1.25,1.69-3.34-7.48,1.4-7.82-2.75-9.35-.83-1.63,2.05.37,4.98,3.39,8.13l-.03-5.29c2.13-.08,2.83,1.04,3.54,1.99l.76-.66Z"/>
      <path class="cls-1" d="M194.44,200.54c0,1.81,2.48,5.37,4.58,4.57,1.52-.58,2.58-2.89,3.74-2.67,3.18.61,5.11,5.22,4.01,5.95-.47.31-2.97-.08-3.24.36.42,1.12,2.51,1.44,2.69,2.25.28,1.23-.54,2.69-1.49,3.33-1.48-2.81-3.2-4.34-6.39-4.29.2,4.05.58,6.97-.9,10.71-3.35-1.83-3.64-4.91-3.64-8.72l-4.36,1.84c-1.07-1.93-1.23-3.37-.89-4.76.5-2.03,5.12-1.78,4.85-4.07-.07-.56-.52-1.17-.85-1.77-.24-.45-.19-1.67,0-2.3.15-.48,1.2-.7,1.89-.43Z"/>
      <path class="cls-1" d="M166.28,204.46c-2.3.08-3.49,1.07-2.99,1.45,3.2,2.39,4.95,2.18,5.32,3.9.32,1.48-.37,3.3-1.91,3.29-.21-1.17-.75-2.81-1.71-2.87-1.41-.09-3.18-.1-3.57.68-1.11,2.27,1.48,4.41.28,8.11-.34,1.05-2.13,1.73-3.06,1.08l-.24-9.81c-3.36-.18-5.09,2.18-6.74,5.18-2.64-3.79.87-6.12,4.02-6.84-.93-2.96-3.02-2.22-5.8-3.15,3.23-2.41,6.3-.7,9.6.26,1.12-1.73,2.64-3.76,2.69-5.21,2.16.37,3.53,2.04,4.1,3.93Z"/>
      <path class="cls-1" d="M178.57,134.53l-.59,8.77c-.12,1.8-2.14,3.29-1.35,5.17.13.31.12.86.14,1.27l-2.26-.03c3.76-3.52-3.52-2.21-4.68-4.92-1.42-3.3,4.75-1.25,3.81-4.7-.16-.58-.66-1.51-1.58-1.57-.59-.03-1.52.64-2.18,1.89-2.08-.98-2.08-4.92-.16-6.55,2.84-2.43,6.71-1.28,8.85.66Z"/>
      <path class="cls-1" d="M169.04,217.11c1.93.42.96,1.66-.37,2.14,1.59,2.56,5.02.77,7.01.13,1.26,2.09,2.79,5.22,5.92,4.94-1.87,2.05-6.55,1.58-7.57-1.4-.44-1.27-1.18-1.78-2-1.71-.46.04-1.16.37-1.75.88-2.2,1.9-5.21,2.02-7.05-.94l5.82-4.04Z"/>
      <path class="cls-1" d="M149.53,202.4c-.4.02-1.04-.11-1.04-1.02l.2-41.21c.44.45.87,1.13.87,2.26l-.02,39.97Z"/>
      <path class="cls-1" d="M152.56,172.39l-.04,20.01c-.34.11-1.14.16-1.45-.07s-.61-1.04-.61-1.85v-16.13c0-.81.28-1.61.62-1.86.3-.22,1.11-.17,1.49-.1Z"/>
      <path class="cls-1" d="M168.71,174.44l.02,7.98c.02,3.19-1.29,4.73-3.79,7.63l-.52-5.5c4.4-2.29-.41-10.08,4.29-10.11Z"/>
      <path class="cls-1" d="M212.35,208.33c.61.34,1.99.2,2-.94l.21-29.19c.45.35.88,1.09.88,2.13l-.07,30.02c-1.35-.59-2.28-1.26-3.01-2.02Z"/>
      <path class="cls-1" d="M198.39,179.39c-.02-2.88.89-6.29-.94-9.28.8-1.67,2.81-.33,1.82,1.09.27,3.16.68,6.26-.88,8.18Z"/>
      <path class="cls-1" d="M199.15,192.58c-.69-1.06-1.02-2.42.08-3.35l-.08,3.35Z"/>
      <path class="cls-1" d="M198.44,184.4v-1c1.17-.17,1.17,1.16,0,1Z"/>
      <path class="cls-1" d="M199.55,196.45c-.68-.12-.79-.83-.15-1.11l.15,1.11Z"/>
      <path class="cls-1" d="M193.07,166.25c5.63,1.41,1.09-4.54,5.9-7.06.98-.52,3.01-1.25,4.01,1.53,1.15-1.67.87-3.37,1.16-5.69l.25-2.01c.07-.52,1.92-.31,1.91.26l-.13,8.9c-2.75.27-4.08,1.5-5.82,3.34l-3.97,1.9c-.59,4,1.33,7.83-1.34,11.76-.38-4.82-.38-8.88-2.74-12.06l-.55-.74c-.71-.95-1.41-2.07-3.54-1.99l.03,5.29c-3.02-3.15-5.02-6.08-3.39-8.13,1.52-1.92,1.87,2.23,9.35.83.28,2.08-.89,2.6-1.69,3.34l.55.55Z"/>
      <path class="cls-1" d="M142.8,166.44l-.05-11.98h1.49s.29,11.51.29,11.51c-.49.71-1.34.62-1.73.47Z"/>
      <path class="cls-1" d="M176.78,149.74c-.02-.4,0-.95-.14-1.27,1.11.42,3.17,1.54,3.79,3.09.16.78-2.49,1.31-3.37.94-.74-.31-.77-1.83-.27-2.77Z"/>
      <path class="cls-1" d="M182.4,151.12c.75-1.32,1.88-.6,2.06-.14.23.58.03,1.18-.51,1.5-.39.23-1.73.16-1.55-1.36Z"/>
      <rect class="cls-1" x="180.61" y="148.62" width=".71" height=".71" transform="translate(-52.34 171.59) rotate(-45)"/>
    </g>
  </g>
</svg>