<?xml version="1.0" encoding="UTF-8"?>
<svg id="Capa_2" data-name="Capa 2" xmlns="http://www.w3.org/2000/svg" viewBox="-115 0 385 195.2">
  <defs>
    <style>
      .cls-1 {
        fill: none;
      }
    </style>
  </defs>
  <g id="Capa_1-2" data-name="Capa 1">
    <g>
      <path d="M34.65,92.55c1.22-2.82-1.97-9.56-5.47-7.15-1.49,1.03-4.63,6.79-5.84,6.9-.46.04-1.06-1.44-1.23-1.83-1.76-4.13-1.27-8.28,2.05-11.43-1.69-1.63-3.25-3.58-3.96-5.86s-.36-4.64-.75-7.07c-.42-2.61-1.6-4.73-3.1-6.84,2.63-.19,5.3.45,7.35,2.14.38.31.49.73.8.99,1.13.94,2.92,2.11,4.01.44,2.07-3.18-3.89-6.75-5.8-8.47-4.25-3.83-6.78-8.25-5.68-14.19.22-1.17.54.36.7.63,2.08,3.46,2.99,2.26,5.84,3.76,1.02.54,1.35,1.26,2.16,1.97v-3.24c0-1.85-2.8-5.12-3.75-6.74-2.79-4.78-4.51-12.89-.6-17.49.24-.28,1.86-1.84,2.12-1.56-.34,2.4.09,5.46,1.15,7.68,1.45,3.05,4.26,3.95,6.68,6.06.46.4,3.58,3.91,4.02,3.46-1.84-5.82-2.79-12.48,1.25-17.63.35-.44,3.66-3.86,4.11-3.37-.79,3.37-2,7.07-.78,10.49.7,1.97,2.44,2.48,3.97,3.62,1.74,1.3,3.48,2.61,5.18,3.97-.54-3.46-.58-7.07.49-10.45.24-.2.4-1.82.84-1.61.2.1,1.4,2.01,1.81,2.43,4.01,4.08,8.65,2.63,10.81,9.51,1.55,4.93.8,8.67-.95,13.35-1.05,2.81-3.75,6.64-3.72,9.41.01,1.03.73,2.74.64,3.58-.06.56-1.15,2.05-1.45,2.81-.74,1.93-1.04,4.13.47,5.78.36.39,1.91,1.5,2.41,1.35.22-.07,1.15-2.52,1.44-3.04,5.72-10.14,23.55-9.39,27.99,1.56l.63,1.71c-.63-3.9,4.37-5.2,7.15-3.57.34-.92.07-2.08-.21-3.03s-1.75-3.12-1.79-3.57c-.07-.71.67-2.56.68-3.57.03-2.69-2.22-5.67-3.25-8.16-2.18-5.22-3.17-10.14-.82-15.56,2.16-5,6.88-5.86,10.66-9.22.4-.2,1.19-1.96,1.55-1.8.66.3,1.57,3.59,1.65,4.38.27,2.57-.33,4.59-.42,6.9-.01.34-.16.64.33.55,1.16-1.08,2.43-2.06,3.71-2.99,3.62-2.63,5.77-2.98,5.57-8.3-.08-2.13-.94-4.14-1.26-6.11-.04-.22-.27-.62.24-.47,1.01.31,3.35,2.68,4.01,3.59,3.09,4.34,3.04,8.97,1.99,14.01-.23,1.08-.72,2.11-.95,3.07-.07.31,0,.41.32.32.78-.23,2.97-2.84,3.81-3.56,3.16-2.73,5.82-3,7.19-7.55.59-1.98.68-4.03.84-6.08,5.43,3.77,4.65,11.27,2.39,16.68-1.78,4.24-5.82,7.17-4.95,12.36.62.06.61-.74,1.11-1.24,1.49-1.47,3.85-1.18,5.47-2.57,1.03-.88,1.38-1.99,2.02-3.12,1.22,5.12-.63,9.99-4.25,13.62-2.1,2.11-7.96,5.21-7.47,8.59.15,1.01.96,1.97,2.06,1.87,1.65-.16,2.71-2.02,3.85-2.86,1.52-1.11,4.18-1.71,6.03-1.56.33.03.65-.18.55.33-2.3,2.28-3.04,5.63-3.33,8.75-.05.48.23.88.19,1.28-.34,3.79-1.8,6.89-4.67,9.41,2.03,1.82,3.26,4.64,3.12,7.37-.05.99-1.18,5.7-2.15,5.89s-4.13-4.96-4.99-5.89-1.39-1.58-2.8-1.46c-2.86.26-4.51,5.2-3.68,7.6-27.46-10.33-57.86-10.35-85.31,0ZM82.45,71.55c2.29.22,4.8,1.08,6.69-.79,1.1-1.1-.3-4.37-1.06-5.62-7.34-12.06-30.53-5.52-26.24,8.37,2.98,9.63,18.8,11.47,24.85,3.85l-7.99-2.19c-1.45.16-2.68.54-4.18.4-3.18-.3-7.2-2.81-5.8-6.47,2.23-5.86,14.64-4.82,13.73,2.45ZM94.45,64.91c-1.22.15-2.97.89-3.06,2.3-.02.31.21,1.38.43,1.55.27.21,3.9.88,4.69,1.12,1.62.48,3.8,1.26,5.21,2.16,1.26.8,2.53,2.98,3.7.71.54-1.05.2-2.01-.32-2.97-1.7-3.12-3.18-.51-4.79-1-1.8-.54-2.06-4.33-5.85-3.87ZM74.34,67.58c-.75.17-2.41,1.97-2.39,2.75.03.99,2.76,3.09,3.78,3.36,3.92,1.03,8.11,1.53,11.91,3.06,1.6.64,4.58,3.03,5.69,3.25,1.74.34,6.02-2.29,7.41-3.44,1.6-1.32.79-2.07-.54-3.21-2.38-2.04-5.66-2.91-8.7-3.36-1.28.81-1.97,2-3.47,2.57-2.39.9-8.6-.15-10.23-2.27-1.27-1.66-.59-3.36-3.45-2.71ZM101.87,78.25c1.44.4,3.38,1.15,4.62,1.97.63.41,1.02,1.06,1.52,1.39.21.14.2.37.45,0,.28-.42.62-1.79.52-2.29-.27-1.32-3.82-2.92-4.96-2.79-.3.04-2.46,1.39-2.15,1.73ZM104.78,82.49c.1-.41-.14-.43-.37-.63-.35-.3-3.77-2.46-4-2.5-.37-.05-3.49,1.16-3.67,1.35-.35.37,1.23.97,1.48,1.08,2.05.91,4.39,1.57,6.56.7Z"/>
      <path d="M23.26,105.06c.48-.26,3.8-2.21,4.02-2.01,7.05,25.13,28.53,56.42,58.74,49.03,21.06-5.15,35.25-29.39,40.98-48.81l.25-.21c.35-.11,2.85,1.24,3.38,1.51.28.15.44.46.5.49-7.25,26.69-29.15,59.31-61.01,53.76-15.82-2.76-28.39-15.91-36.32-29.12-4.56-7.61-8.24-16.06-10.54-24.64Z"/>
      <path d="M81.52,118.65c.13-.22-.03-.95.08-1.37.43-1.58,1.36-4.45,2.31-5.73.53-.71,3.2-2.77,3.95-2.67,1.37.18.45,1.81.39,2.77-.12,1.87.44,5.14.77,7.04.25,1.39,1.21,4.09,1.24,5.25.03,1.24-1.05,2.79-.64,3.98.2.59,2,.9,2.65,1.37,1.79,1.29,1.22,3,.78,4.82-.94,3.9-3.88,8.79-6.29,12.03-.83,1.12-3.36,4.15-4.56,4.59-2.85,1.05-4.8-5.59-5.48-5.7-.9-.15-1.2,1.34-1.66,1.91-.77.97-2.95,2.95-4.17,3-.79.04-1.42-.36-1.99-.87-2.2-1.99-4.56-9.22-5.64-12.23-1.01-2.81-3.41-8.95-3.17-11.79.31-3.57,3.44-4.75,6.54-3.42.59.25,1.22.97,1.66,1.04,1.05.16,1.37-2.3.41-2.89s-4.73-.03-5.17-.64c-.3-.41-.2-1.23.46-1.36,1.33-.25,3.48.37,4.89.41.99-.72.54-2.07.6-2.95.16-2.29.11-4.96.44-7.16.27-1.84,2.06-.82,2.17.24.04.39-.33.87-.38,1.33-.18,1.93-.69,4.69-.68,6.46,0,.65.22,2.06,1.01,2.12,1.91.07,3.89.08,5.8.23.66.05,3.31.76,3.66.19ZM86.46,111.76c-.5-.52-1.72,1.62-1.9,2.01-.44,1-.97,3.34-.93,4.4.03.71.55,1.09.57,1.51.03.53-.56,1.29-.58,1.97-.02.84.45,1.91.57,2.75.19,1.36.3,2.74.48,4.1.63.04,2.3-.03,2.7-.53.13-.16.64-3.63.65-4.06.03-1.43-.37-3.36-.89-4.69l-.68-7.47ZM71.42,120.06c-.92.31-.61,3.32-.48,4.2l7.13,6.27c.72.44,4.01-.72,4.39-1.23.16-.21.22-2.04.19-2.44-.1-1.23-.4-4.3-.71-5.34-.1-.33-.23-.61-.49-.85l-10.03-.62ZM68.32,124.55c-.11-.13-2.71-1.51-3.01-1.57-1.03-.19-2.74-.05-2.96,1.18-.07.37.17,2.58.25,3.09.46,3.13,1.41,5.29,2.38,8.12,1.18,3.46,2.28,7.96,4.47,10.94,1.37,1.87,2.23,1.79,3.72.04.5-.59,2.12-3.33,2.26-4,.21-.96-1.56-4.27-1.6-5.89-.02-.68.17-2.01.41-2.67.26-.73,1.5-1.95,1.51-2.28.02-.75-4.26-4.79-4.8-4.75-.99.08-.84,3.28-1.06,4.24-.24,1.01-.48,2.09-1.73,1.74-.51-1.66,1.1-7.09.17-8.21ZM84.23,133.65c.42.48,3.06-3.11,1.41-3.55-1.07-.28-1.67,2.75-1.41,3.55ZM82.63,131.67c-.38-.61-1.8-.05-2.15.57-.49.85.03,2.43-.15,3.65-.28,1.93-2.58,6-2.56,7.03.02.97,3.42,5.62,4.33,5.62.25,0,.47-.23.67-.37,2.61-1.87,8.78-12.61,8.84-15.75.03-1.59-.97-2.57-2.57-2.33-2.02.3-1.84,2.68-2.66,4.26-.46.89-3.29,5.07-4.27,4.88-.34-.06-.36-.69-.35-.99.05-1.13,1.22-6.01.87-6.57ZM76.42,139.68c1.02.71,2.09-3.09,2.17-3.74.44-3.49-2.29-3.15-3.03-.33.02.54.68,3.95.86,4.07Z"/>
      <path d="M58.77,95.01h-3.91c-.08,0-.4-.67-.71-.85-.93-.54-4.95-.76-4.52.71s9.32.4,9.77,3.89c.1.8-.37,1.78-.96,2.29-2.08,1.79-7.85,1.71-10.39,1.01-1.38-.38-3.27-1.36-3.12-3.02h4.24c.05,0,.09.57.55.9.97.71,5.68.72,5.47-.54-.27-1.57-9.1-.66-9.77-3.64-1.1-4.88,9.69-4.82,12.35-2.74.64.5,1.12,1.16,1.01,2.01Z"/>
      <path d="M74.4,95.01h-4.24c-.05,0-.04-.56-.58-.87-1.01-.57-4.4-.8-4.54.74.31,1.04,7.55.98,9.26,2.59,1.16,1.09.55,2.81-.56,3.69-2.29,1.84-8.78,1.63-11.39.44-1.08-.49-1.98-1.31-2.01-2.57h4.13c.08,0,.44.68.7.87.85.6,3.36.6,4.39.42,1.12-.2,1.68-1.07.35-1.58-1.95-.75-8.55-.42-8.91-3.16-.57-4.33,7.1-4.22,9.85-3.6,1.57.35,3.47,1.23,3.56,3.03Z"/>
      <path d="M92.05,95.68h-4.24c-.1,0-.05-1-1.3-1.49-2.96-1.17-5.61,1.37-4.45,4.45.64,1.72,3.21,2.09,4.71,1.26.73-.4.95-1.31,1.04-1.31h4.24c-.21,1.41-1.22,2.42-2.45,3.02-3.29,1.62-11.23,1.43-12.01-3.19-.9-5.3,4.17-7.09,8.52-6.73,2.29.19,5.94,1.21,5.95,3.99Z"/>
      <path d="M107.68,95.68h-4.13c-.09,0-.68-1.04-1.15-1.31-1.52-.88-4.41-.33-4.89,1.53-.79,3.04,1.18,5.14,4.19,4.19,1.14-.36,1.73-1.5,1.85-1.5h3.91c-.6,3.86-6.36,4.31-9.47,3.77-3.49-.61-5.23-2.47-4.83-6.12.64-5.8,13.33-6.32,14.52-.56Z"/>
      <path d="M118.85,109.52c-2.44-.35-4.86-.92-7.29-1.3-22.46-3.55-45.34-3.51-67.79.02-2.25.35-5.39,1.32-7.49,1.45-1,.06-1.4-.72-.56-1.02,1.13-.4,3.4-.63,4.71-.87,2.86-.53,5.78-.99,8.67-1.38,22.95-3.06,47.03-2.42,69.66,2.19l.1.91Z"/>
      <path d="M109.63,101.32c1.2,1.16-1.83,1.94-2.15.69-.24-.94,1.56-1.26,2.15-.69Z"/>
      <path d="M77.51,102.36c-.19.28-2.65.62-2.17-.71s2.85-.3,2.17.71Z"/>
      <path d="M39.79,176.98c-.32-.11-1.65-.17-1.76-.25-.37-.3-2.24-8.04-2.71-9.13l-.44.11,1.56,8.6c-.46,0-1.83.1-2.01-.39l-2.46-15.47c.13-.13,2.99.12,3.15.35l2.88,10.14v-9.83l3.34.23,2.02,16.07c-.51-.03-1.8-.1-1.97-.59-.45-2.72-.76-5.47-1.19-8.19-.06-.37-.08-1.35-.41-1.49v9.83Z"/>
      <path d="M72.61,181.9c-.57.43-1.34-2.18-1.71-2.25-.4-.08-1.61.31-2.42.24-4.92-.45-5.05-9.95-4.29-13.45.52-2.36,1.82-4.21,4.48-3.95,5.16.49,4.92,10.16,4.24,13.79-.09.5-.51,1.14-.51,1.48,0,.65.93,1.43.88,2.22,0,.1-.59,1.85-.67,1.92ZM70.6,174.3c.2-1.77.42-7.36-1.95-7.78-3.01-.54-2.35,6.51-1.73,8.22.33.9,1.03,1.84,2.11,1.79-.46-.51.18-3.09.45-3.35.48-.46.63,1.17,1.11,1.12Z"/>
      <path d="M59.22,172.07c.39.05.21-.51.22-.78.11-2.83-.2-5.78-.45-8.6l2.43.25.92,16.28-2.57-.44-3.68-9.16c-.39.06-.25,1.16-.23,1.46.16,2.56.68,5.12.68,7.7-.73,0-1.56.12-2.13-.44l-1.45-15.86c.71.11,2.33-.26,2.8.22l3.46,9.39Z"/>
      <path d="M103.66,162.24l-1.43,16.1-2.36.43.67-6.48c-.6.18-3.25.11-3.48.43-.25.8-.33,6.04-.54,6.27-.08.08-1.86-.06-2.24,0l.89-16.31h2.46c.19,2.1-.53,4.17-.11,6.26.7-.49,3.01.07,3.36-.44.28-.88.11-5.4.42-5.84.22-.31,1.87-.24,2.36-.43Z"/>
      <path d="M93.16,162.91v3.8c-1.65-.04-3.28-.01-4.91.23,0,.98.08,1.96-.23,2.9h4.47v3.35l-4.47.22-.22,2.68h4.69c0,.54.05,2.85-.25,3.1-.26.22-6.07.24-6.9.25l.45-16.31,7.37-.22Z"/>
      <path d="M77.53,163.13v10.61c0,.11.26,1.47.32,1.69.58,2.24,2.77,1.31,3.03-1.02.3-2.7-.18-5.94,0-8.72.02-.39.14-2.47.23-2.56s2.06.07,2.46,0c.19,1.03-.2,2.06-.23,3.01-.1,3.16.8,11.13-1.79,13.18-2.91,2.31-6.26-.53-6.24-3.79l-.23-12.39h2.46Z"/>
      <path d="M113.71,161.57c-.36,3.39-.56,7.01-1.15,10.36-.44,2.48-1.26,6.14-4.31,6.41s-3.11-1.19-3.45-3.72l1.19-12.39c.29-.42,1.81-.13,2.36-.21l-1.13,11.51c-.06,1.35.91,1.95,2.04,1.12s1.33-4.64,1.52-6.07c.31-2.32.46-4.68.7-7.01h2.24Z"/>
      <path d="M122.64,160.46l-.66,3.7-4.25.56-.24,2.89,3.8-.45c.11.13-.38,3.18-.49,3.31-.23.27-3.35.45-3.97.5l-.46,2.67,4.24-.44c-.32.75-.28,2.38-.65,2.98-.31.5-5.33.94-6.27,1.04l2.34-15.87c.24-.34,5.7-.56,6.6-.88Z"/>
      <path d="M53.19,178.55c-.51-.26-2.2-.11-2.43-.25-.24-.15-.51-2.2-.75-2.38-.26-.19-2.75-.38-2.86-.27v2.24s-2.46-.23-2.46-.23l.89-15.86c.11-.11,2.87.24,3.02.44l4.57,16.31ZM47.38,166.71v5.81c.39-.13,1.57.35,1.57-.34,0-1.04-.59-2.24-.74-3.29l-.83-2.19Z"/>
      <path d="M95.96,73.34c.53.09,3.28,1.69,3.46,2.13.17.41-.25.33-.48.4-2.23.63-4.64-.09-6.32-1.64-.27-.25-.64-.45-.57-.89,1.2.14,2.77-.19,3.91,0Z"/>
      <path d="M47.38,166.71l.83,2.19c.15,1.05.74,2.25.74,3.29,0,.69-1.18.2-1.57.34v-5.81Z"/>
      <g>
        <path class="cls-1" d="M128.25,92.55c-.67-.37-2.07.57-3.41,1.94-1.23,1.26-2.4,2.88-2.91,4.2-1.46,3.77,1.86,9.03,3.41,8.97.1,0,.19-.05.27-.09.5-1.45.97-2.89,1.38-4.29l.1-.08s.02-.09.04-.14c.15-.49,1.2-3.92,1.58-6.75.25-1.8.23-3.36-.47-3.75Z"/>
        <path class="cls-1" d="M125.61,107.56c-6.44,18.54-20.06,39.74-39.59,44.52-28.47,6.96-49.17-20.41-57.37-44.62-.68-.6-.82-2.61-1.37-4.42-.22-.2-3.53,1.75-4.02,2.01-1.02.55-5.05,2.61-5.58,3.24-.18.21-.28.37-.25.67l8.08,62.75c1.54,5.57,4.67,6.07,9.53,7.44,9.51,2.68,19.63,4.98,29.3,7.1,3.64.8,8.19,2.12,11.79,2.5,4.34.46,16.99-3.14,21.94-4.29,8.15-1.89,17.88-3.79,25.68-6.48,3.09-1.07,4.13-3.15,5.34-6.05l8.08-62.75c0-.21,0-.42-.06-.62-.24-.79-5.02-2.99-5.99-3.51-.07-.04-.22-.35-.5-.49-.53-.27-3.03-1.62-3.38-1.51l-.15.13c-.56,1.89-.7,3.96-1.48,4.38Z"/>
        <path class="cls-1" d="M36.26,109.69c2.11-.12,5.24-1.09,7.49-1.45,22.46-3.54,45.34-3.58,67.79-.02,2.44.39,4.85.96,7.29,1.3l-.1-.91c-22.64-4.61-46.71-5.25-69.66-2.19-2.89.39-5.81.85-8.67,1.38-1.31.24-3.58.47-4.71.87-.84.3-.44,1.08.56,1.02Z"/>
        <path class="cls-1" d="M69.55,100.31c-1.03.18-3.53.18-4.39-.42-.26-.18-.62-.87-.7-.87h-4.13c.03,1.26.94,2.08,2.01,2.57,2.61,1.19,9.11,1.4,11.39-.44,1.1-.89,1.72-2.61.56-3.69-1.71-1.6-8.95-1.55-9.26-2.59.14-1.54,3.53-1.31,4.54-.74.55.31.53.87.58.87h4.24c-.09-1.8-1.99-2.68-3.56-3.03-2.76-.62-10.42-.73-9.85,3.6.36,2.74,6.95,2.4,8.91,3.16,1.34.52.77,1.39-.35,1.58Z"/>
        <path class="cls-1" d="M89.6,101.6c1.23-.6,2.24-1.61,2.45-3.02h-4.24c-.09,0-.31.91-1.04,1.31-1.5.83-4.07.46-4.71-1.26-1.16-3.08,1.49-5.62,4.45-4.45,1.24.49,1.19,1.49,1.3,1.49h4.24c0-2.79-3.66-3.8-5.95-3.99-4.35-.36-9.41,1.43-8.52,6.73.78,4.62,8.73,4.81,12.01,3.19Z"/>
        <path class="cls-1" d="M49.72,99.92c-.46-.33-.5-.9-.55-.9h-4.24c-.15,1.65,1.74,2.64,3.12,3.02,2.54.7,8.31.78,10.39-1.01.59-.51,1.06-1.49.96-2.29-.45-3.48-9.36-2.45-9.77-3.89-.42-1.47,3.59-1.25,4.52-.71.31.18.63.85.71.85h3.91c.11-.85-.37-1.51-1.01-2.01-2.66-2.08-13.45-2.14-12.35,2.74.67,2.98,9.5,2.07,9.77,3.64.22,1.26-4.5,1.25-5.47.54Z"/>
        <path class="cls-1" d="M143.69,19.34c-28.04-11.08-61.23-14.96-91.03-10.52-15.62,2.33-31.49,6.43-46.05,12.47l9.95,79.97c3.03-1.63,6.05-3.33,9.15-4.85-.26-1.85-.26-3.46.45-3.86.68-.38,2.11.6,3.47,2.01.34-.16.68-.31,1-.44,1.27-.54,2.72-1.08,4.02-1.56,27.46-10.35,57.86-10.33,85.31,0,1.32.5,2.72,1.02,4.02,1.56.27.11.56.24.85.38,1.34-1.37,2.74-2.31,3.41-1.94.7.39.72,1.94.47,3.75,3.18,1.52,6.29,3.21,9.33,4.97l9.94-79.74c-.35-.77-3.39-1.82-4.3-2.18Z"/>
        <path class="cls-1" d="M77.51,102.36c.68-1.01-1.67-2.09-2.17-.71-.48,1.34,1.98.99,2.17.71Z"/>
        <path class="cls-1" d="M92.28,129.28c-.65-.47-2.45-.78-2.65-1.37-.41-1.18.67-2.74.64-3.98-.03-1.16-.99-3.86-1.24-5.25-.34-1.89-.89-5.17-.77-7.04.06-.96.97-2.58-.39-2.77-.74-.1-3.42,1.96-3.95,2.67-.95,1.27-1.89,4.15-2.31,5.73-.12.42.05,1.15-.08,1.37-.35.57-3-.14-3.66-.19-1.91-.15-3.88-.16-5.8-.23-.79-.05-1.01-1.47-1.01-2.12-.01-1.77.5-4.53.68-6.46.04-.45.42-.94.38-1.33-.11-1.06-1.89-2.08-2.17-.24-.33,2.2-.28,4.87-.44,7.16-.06.88.39,2.24-.6,2.95-1.41-.04-3.57-.65-4.89-.41-.66.12-.76.94-.46,1.36.44.61,4.24.06,5.17.64.96.59.63,3.05-.41,2.89-.43-.07-1.07-.79-1.66-1.04-3.1-1.33-6.23-.15-6.54,3.42-.24,2.84,2.15,8.98,3.17,11.79,1.08,3.01,3.44,10.24,5.64,12.23.57.51,1.2.91,1.99.87,1.22-.06,3.39-2.03,4.17-3,.46-.58.76-2.06,1.66-1.91.68.11,2.63,6.75,5.48,5.7,1.2-.44,3.73-3.47,4.56-4.59,2.41-3.24,5.35-8.12,6.29-12.03.44-1.82,1.01-3.53-.78-4.82Z"/>
        <path class="cls-1" d="M107.48,102c.32,1.26,3.35.47,2.15-.69-.59-.57-2.39-.25-2.15.69Z"/>
        <path class="cls-1" d="M97.99,102.35c3.11.54,8.87.09,9.47-3.77h-3.91c-.12,0-.71,1.14-1.85,1.5-3,.96-4.98-1.15-4.19-4.19.48-1.85,3.37-2.4,4.89-1.53.46.27,1.06,1.31,1.15,1.31h4.13c-1.18-5.76-13.88-5.25-14.52.56-.4,3.65,1.34,5.51,4.83,6.12Z"/>
        <path d="M150.19,15.07c-3.93-2.01-9.48-3.68-13.76-5.01C114.74,3.34,93.47-.82,70.56.14,51.5.94,26.47,6.39,8.69,13.31,3.09,15.48-.32,16.68.02,23.65l19.24,149.63c1.34,4.18,3.9,8.51,8.12,10.19,8.56,3.4,21.48,5.81,30.71,7.93,5.27,1.21,11.01,2.73,16.3,3.58,4.29.68,7.06-.28,11.17-1.12,11.06-2.26,22.66-5,33.55-8,7.6-2.09,12.91-3.01,15.92-11.33,5.96-48.3,13.27-96.53,18.84-144.89.65-5.62,2.38-11.47-3.68-14.57ZM138.05,101.26c-3.05-1.76-6.16-3.44-9.33-4.97-.39,2.83-1.43,6.26-1.58,6.75-.01.05-.02.09-.04.14l.15-.13c.35-.11,2.85,1.24,3.38,1.51.28.15.44.46.5.49.97.51,5.75,2.72,5.99,3.51.06.2.07.41.06.62l-8.08,62.75c-1.22,2.9-2.25,4.98-5.34,6.05-7.8,2.69-17.53,4.59-25.68,6.48-4.95,1.15-17.6,4.75-21.94,4.29-3.6-.38-8.15-1.7-11.79-2.5-9.67-2.13-19.79-4.42-29.3-7.1-4.87-1.37-8-1.87-9.53-7.44l-8.08-62.75c-.03-.29.07-.45.25-.67.53-.63,4.56-2.69,5.58-3.24.48-.26,3.8-2.21,4.02-2.01-.15-.48-1.17-3.84-1.57-6.64-3.09,1.53-6.12,3.23-9.15,4.85L6.62,21.29c14.56-6.04,30.43-10.14,46.05-12.47,29.8-4.44,62.99-.56,91.03,10.52.9.36,3.95,1.41,4.3,2.18l-9.94,79.74Z"/>
      </g>
    </g>
  </g>
</svg>