<?xml version="1.0" encoding="UTF-8"?>
<svg id="Capa_2" data-name="Capa 2" xmlns="http://www.w3.org/2000/svg" viewBox="0 0 654.87 529.63">
  <defs>
    <style>
      .cls-1 {
        fill: #060606;
      }
    </style>
  </defs>
  <g id="Capa_1-2" data-name="Capa 1">
    <g>
      <path class="cls-1" d="M338.06,394.06c-5.47.95-11.94,1.12-18.71,1.03l-.07-163.37-144.95,100.49h-77.66s.27-55.49.27-55.49c.1-20.71,10.64-37.54,28.93-46.85,10.73-4.34,22.13-7.85,34.69-7.85h335.62c11.66,0,22.23,3.07,32.51,6.49,19.57,8.76,31.47,26.44,31.57,48.18l.24,55.53-77.74-.04-144.48-100.12-.22,162Z"/>
      <path class="cls-1" d="M500.09,202.81l-18.07.27-110.15-1.13c14.67-17.16,25.79-35.27,33.17-56.33l77.35-53.33,77.97-.17.18,47.18c.14,34.65-24.32,62.96-60.46,63.51Z"/>
      <path class="cls-1" d="M284.49,201.89l-111.32,1.22c-12.9.75-25.64-.88-37.71-4.28-24.32-9.7-39.48-31.38-39.23-57.68l-.17-48.96,77.75-.08,77.57,53.32c7.31,21.09,17.75,38.2,33.12,56.46Z"/>
      <path class="cls-1" d="M407.77,87.92l-11.13-15.64-7.35,4.38.53-21.58,5.74-5.86c1.21-1.24-.94-6.73-2.67-6.81l-8.89-.45c-3.34-.17-8.47.57-9.99,2.84-2.33,3.47.11,7.94,5.01,9.15l.49,27.99-10.64,4.16c-3.77-27.6-11.04-51.69-27.01-74.29,20.3-14.26,48.93-12.82,66.14,6.82,24.63,28.1,20.14,70.11-10.27,91.72-44.38,31.55-106.45,30.2-144.22-9.13-16.91-17.61-21.33-40.9-16.02-63.99C242.67,14.76,260.51.37,283.96.9c12.86.29,25.64,2.19,36.9,9-22.6,21.04-29.2,44.55-31.71,75.58l-11.12-3.71.58-26.84c2.55-1.92,6.1-5.15,6.14-7.31s-3.74-6.02-5.91-5.85l-13.46,1.01c-1.59.12-4.6,4.81-3.45,5.96l6.28,6.24.36,21.84-8.25-6.03-11.47,14.88c41.61,34.13,112.89,34.12,158.91,2.26Z"/>
      <path class="cls-1" d="M360.38,197.89c-15.6,15.43-35.66,18.75-53.91,7.68-25.34-17.35-38-46.56-44.79-77.56,40.83,19.14,94.35,19.08,135.39-.2-5.71,27.06-17.35,50.95-36.69,70.08Z"/>
      <path class="cls-1" d="M481.3,54.6c-.36,33.43-27.67,52.08-60.76,57,26.84-34.32,26.03-78.39-6.09-111.1l67.43-.49-.58,54.6Z"/>
      <path class="cls-1" d="M237.57,111.31c-32.69-4.31-60.2-23.36-60.6-56.09L176.29.12l67.71.09c-30.72,31.14-34.4,75.95-6.42,111.1Z"/>
      <path class="cls-1" d="M329.3,42.99l-7.3-.19c-1.93-.05-5.1,4.88-4.08,6.54s3.55,3.71,6.3,5.78l.26,37.48-17.08-1.47c1.84-24.41,4.53-47.69,20.67-66.27,19.95,16.66,22.86,41.14,23.12,66.09l-17.08,1.92.26-37.77,5.53-4.32c1.52-1.19.06-7.53-1.88-7.58l-8.72-.22Z"/>
      <path class="cls-1" d="M652.88,213.72c5.22,14.78-.11,31.38-12.84,40.45-4.71,3.36-12.08,4.28-17.3,2.39-4.46-1.62-10.92-7.08-12.56-12.64-4.38-14.85,2.66-29.69,14.69-38.06l13.89,41.99c9.97-6.09,14.91-19.76,8.44-29.9l-2.98-4.67c-.63-.99,2.65-3.39,3.69-4.2,1.15-.9,2.77,1.75,4.98,4.64ZM633.19,250.28l-11.59-35.8c-9.13,9.99-10.49,23.42-3.05,30.66,3.23,3.14,9.56,5.12,14.64,5.14Z"/>
      <path class="cls-1" d="M188.19,469.88c6.68,3.95,12.84,9.52,11.84,15.53-1.3,7.87-8.38,13.29-16.52,10.37-11.44-4.09-22.3-9.4-33.33-15.04l18.27-36.42,15.84,6.25c2.34.92,6.22,4.84,7.11,7.11.97,2.47-.64,6.61-3.22,12.21ZM182.9,465.04c2.07.2,4.17-7.81,2.4-8.65l-6.19-2.98c-1.72-.83-7.39-3.07-8.21-1.3l-4.02,8.69c4.05,1.7,10.38,3.69,16.01,4.24ZM194.08,485.82c-.37-11.09-16.93-13.7-31.08-17.78l-5.7,11.44c16.31,9.19,37.13,16.71,36.78,6.34Z"/>
      <path class="cls-1" d="M46.22,251.48l-.83,4.83c-.16.92-2.17.88-3.48.75l-31.05-3.13c-1.47-.15-5.39-.87-5.54-2.14l-.64-5.18,29.25-15.68-32.64-4.59-1.27-6.88,35.74-16.72,3.07,4.95-28.36,13.79,29.95,5c1.52.32,2.28,6.16.96,6.94l-27.32,14.68,32.17,3.39Z"/>
      <path class="cls-1" d="M65.12,348.33c2.64,5.86,4.15,13.26,1.16,18.01-2.63,4.18-12.39,7.77-16.64,3.27-9.4-9.96-14.6-22.69-21.04-35.84l36-17.88,8.88,13.54c1.66,2.53,2.74,9.23,1.21,11.6s-6.05,5.21-9.56,7.29ZM61.51,339.46c.98,1.41,5.48,2.12,6.75,1,1.01-.9,2.99-5.17,2.34-6.28l-6.64-11.36-10.55,4.99,8.1,11.66ZM46.84,331.35l-12.39,5.97c7.67,14.73,17.14,33.9,25,27.81,8.32-6.45-3.25-21.38-12.61-33.78Z"/>
      <path class="cls-1" d="M20.67,281.55c-5.95,10.92-.71,23.38,9.25,28.47,1.06.54,5.22.14,5.09,1.26l-.6,5.23c-.59,5.14-19.88-4.29-20.68-27.72-.28-8.16,3.27-16.43,8.98-20.35,6.64-4.56,17.4-4.41,23.42.94,10.56,9.39,13.6,24.96,8.27,38l-33.72-25.84ZM51.64,298.26c2.35-9.67-.86-18.36-7.16-22.68s-14.39-4.13-21.18.63l28.35,22.05Z"/>
      <path class="cls-1" d="M367.95,513.03l4.51,3.21c4.74,3.37-20.47,23.59-43.55,6.84-5.3-3.84-8.11-10.86-7.59-16.8.46-5.23,4.39-12.16,9.77-15.16,11.76-6.55,26.05-5.39,37.67,2.51l-34.59,26.3c6.48,4.48,12.82,6.12,19.91,4.82,5.65-1.04,10.18-5.63,13.88-11.72ZM358.9,494.23c-10.58-5.09-22.38-2.74-27,3.95-3.3,4.78-4.1,10.26-1.53,17.76l28.53-21.71Z"/>
      <path class="cls-1" d="M71.67,383.89c-3.99,9.32,1.07,23.62,11.71,26.37l5.39,1.4c1.36.35,1.18,3.38.94,4.73-1.07,6.03-21.65-1.92-24.25-26.97-.92-8.88,3.19-17.64,10.13-21.35,7.53-4.02,17.99-2.7,23.89,3.7,8.31,9.03,11.7,20.58,9.23,33.81l-37.04-21.7ZM104.21,396.47c1.41-9.7-2.77-17.31-9.12-21.19s-14.41-2.98-21.47,2.88l30.6,18.31Z"/>
      <path class="cls-1" d="M220.29,485.43c9.69,1.55,17.49,4.09,28.12,7.94.75-1.38,2.24-6.98,2.6-11.12.47-5.4-10.79-.35-14.66-3.32-2.66-2.04,10.56-10.58,21.81,1.86l-9.74,38.81-31.54-8.73c-6.93-1.92-11.89-7.7-11.34-14.05s6.95-12.64,14.75-11.4ZM244.07,513.75l2.97-12.74c-15.21-7.73-33.86-13.96-35.9-4.32s17.52,13.71,32.92,17.06Z"/>
      <path class="cls-1" d="M135.49,467.3c-6.82-1.24,14.02-14.63.73-26.59-6.48-5.83-14.51-10.51-22.85-14.52l-8.96,10.53c-.6.71-3.58,1.13-4.54,1s-1.09-3.32-.19-4.39l23.99-28.73,14.28,9.11c2.53,1.61,5.95,7.69,5.17,10.53s-4.37,7.57-6.22,9.55c4.39,4.4,9.48,10.2,10.67,15.37,1.42,6.17-6.01,19.25-12.09,18.15ZM137.34,420.17c-1.94-2.83-7.63-6.64-11.49-8.86l-7.52,8.69,11.44,7.15c.95.59,4.74.19,5.91-.2s2.4-5.71,1.67-6.78Z"/>
      <path class="cls-1" d="M416.17,492.69l-22.68,9,4.27,16.72-5.74,1.13-9.75-38.74,19.21-6.15c6.97-2.23,12.53,7.28,11.81,13.09,6.75-.66,13.87-1.14,19.43.76,4.25,1.45,8.38,9.14,8.78,14.5l.34,4.55c.09,1.15-4.29,1.99-4.68.9l-1.79-4.93c-1.23-3.4-3.68-8.02-6.09-9.65s-10.16-2.37-13.12-1.2ZM403.21,490.22c2.79-1.04,4.84-7.04,2.57-9.38-4.04-4.16-17.13,1.69-16.39,4.54l2.37,9.09,11.46-4.26Z"/>
      <path class="cls-1" d="M580.73,407.15l-33.21-23.45,2.71-5.2,13.4,8.78,19.25-26.98-13.04-9.83,2.9-3.37c.67-.77,3.77,1.12,4.7,1.77l29.19,20.4-2.41,5.89-15.2-10.86-19.6,27.52,14.78,9.99-3.46,5.34Z"/>
      <path class="cls-1" d="M520.7,465.25c-9.95,7.54-20.36,14.42-31.98,19.03,6.69-12.24,36.79-19.29,30.27-31.39-.89-1.65-5.89-1.76-7.53-.83l-19.16,10.9c-5.47,3.11-11.42,3.02-15.11-.21s-6.54-11.82-2.69-15.76c6.32-6.46,13.8-11.3,21.5-15.71l3.3-1.89c.72-.41.8,3.94.12,4.42l-19.75,14.07c-1.71,1.22-1.68,7.72-.29,9.15,1.67,1.71,6.91,1.89,9.1.5l19.65-12.44c4.22-2.67,12.54.21,14.72,3.62,3.22,5.04,3.06,12.6-2.14,16.54Z"/>
      <path class="cls-1" d="M306.69,489.13l7.18,1.17-3.68,31.82c-13.02,10.74-32.06,8.19-42.76-4.23l2.88-32.58,7.23,1.47-2.4,30.36c5.51,8.82,20.12,9.77,27.88,2.98l3.67-30.99Z"/>
      <path class="cls-1" d="M584.87,331.42l28.95,12.57c9.9-3.42,15.31-15.39,11.75-25.14l-27.19-13.06c-.5-1.3,1.42-6.48,2.49-6.99l28.58,13.39c5.78,15.52-2.6,33.85-18.57,39.25l-24.88-11.47-3.28-1.51c-1.01-.47.63-3.84,2.15-7.05Z"/>
      <path class="cls-1" d="M550.9,437.98c17.42-9.96,9.28-24.79,13.15-24.78h4.49c1.84.01,4.75,17.24-19.23,30.64-8.75,4.89-18.56,3.58-25.33-2.1-7.33-6.16-9.2-17.08-4.11-25.81,9.65-16.55,29.99-19.59,29.76-17.52l-.64,5.6c-8.97-1.22-18.81,3.54-23.48,12.4-3.61,6.86-1.08,15.46,2.96,19.63,6.37,6.56,14.96,6.22,22.44,1.95Z"/>
      <polygon class="cls-1" points="599.62 289.32 601.2 283.64 636.55 293.82 645.55 263.18 650.05 262.97 639.03 301.04 599.62 289.32"/>
    </g>
  </g>
</svg>