<?xml version="1.0" encoding="UTF-8"?>
<svg id="Capa_2" data-name="Capa 2" xmlns="http://www.w3.org/2000/svg" viewBox="0 0 464.42 499.84">
  <defs>
    <style>
      .cls-1 {
        fill: #060606;
      }
    </style>
  </defs>
  <g id="Capa_1-2" data-name="Capa 1">
    <g>
      <path class="cls-1" d="M218.82,116.58l.29,118.32-56.88-38.87-26.04.03.02-196.06c31.52,8.44,55.2,32,69.25,60.92,7.86,17.47,13.31,35.95,13.36,55.66ZM173.71,78.01l-4.18-11.53,11.3-8-13.85.29-3.96-13.27-4.24,13.29-12.42-.55c-.37.48-.7.85-1.59,1.09l11.51,7.56-4.6,12.9,10.88-8.32,10.94,8.73-.15-1.81.36-.38ZM173.74,78.78l.21-.54-.21.54ZM201.17,115.63c.42-.94.67-1.69.51-2.14l-4.2-11.45,11.2-7.8-13.72.19-3.49-12.44c-.14-.51-.84-.38-1.04-.06-.12.19-.24.42-.35.8l-3.27,11.7-12.79-.62c-.22.63-.62.78-1.42,1.04l11.65,7.61-4.87,13.35,11.12-8.73,10.68,8.56ZM162.6,144.88l10.83,8.71c.07-.73.4-1.7.16-2.37l-4.09-11.41,9.21-6.04c.91-.59,1.62-1.02,1.94-2.15l-13.73.59-3.58-13.09c-.15.19-.32.64-.99.59l-3.51,12.5-12.68-.57c-.18.67-.6.83-1.39,1.06l11.51,7.68-4.83,13.24,11.16-8.74ZM190.79,181.43l10.81,8.72c.03-.85.39-1.9.08-2.77l-3.91-10.99,11.23-7.84-13.86.19-3.97-13.29-4.12,13.3-12.05-.53-2.25.88,11.71,7.82-4.68,12.98,11.02-8.48Z"/>
      <path class="cls-1" d="M317.89,281.36c-9.96,6.34-19.94,10.99-30.88,14.96-20.31,7.12-41.37,10.67-63.31,10.91v-67.79s130.15.02,130.15.02c-5.89,17.46-20.05,31.55-35.96,41.9Z"/>
      <polygon class="cls-1" points="210.11 297.55 167.01 254.66 192.88 254.5 193.02 239.45 219.05 239.44 219.03 306.22 210.11 297.55"/>
      <path class="cls-1" d="M386.01,398.07l-4.12-28.93-13.67,27.51c-.38.75-.67,1.22-1.26,1.39s-1.47.2-1.83-.51l-14.36-28.69-4,29.12c-1.97.28-3.5.26-5.23.09l6.14-43.01c.16-.34,1.53-.61,1.83-.3l16.98,34.15,16.69-33.79c.24-.49,1.29-.56,1.87-.36l6.23,43.1c-1.53.43-2.91.45-5.28.25Z"/>
      <path class="cls-1" d="M148.1,387.9c-1.12,5.98-6.25,9.57-12.06,10.06l-14.61.14v-43.38s13.42.15,13.42.15c4.73.05,8.55,3.34,9.61,7.54,1.17,4.65-.27,9.15-4.89,11.98,6.16,1.87,9.74,6.98,8.52,13.51ZM139.24,366.45c.6-3.56-1.7-6.86-5.07-6.95l-7.45-.2v13.45c5.9.22,11.53-.39,12.52-6.3ZM136.25,393.18c4.01-.61,6.58-4.04,6.54-7.67-.08-7.2-8.42-8.81-16.09-8.03l.07,16.07,9.48-.37Z"/>
      <path class="cls-1" d="M189.02,397.85c-2.27.51-4.1.33-6.4.25l-15.43-19.88c-.16-.21-.88-.34-1.5-.07v19.75c-1.89.37-3.54.35-5.43.12v-43.34c6.43-.19,12.65-.41,18.94.54,5.82.88,9.63,6.04,9.11,11.75-.54,7.99-6.31,10.77-14.54,11.21l15.24,19.66ZM175.53,373.5c4.24-.02,7.08-2.9,7.3-6.74.2-3.62-2.4-7.27-6.38-7.33l-10.78-.14.02,14.26,9.85-.05Z"/>
      <path class="cls-1" d="M268.37,459.1c-7.5.43-13.8-2.32-18.38-7.22s-6.72-11.89-5.64-18.97c1.64-10.81,10.43-18.72,21.3-19.22,12.19-.56,22.49,7.89,23.88,19.98,1.49,12.97-7.82,24.67-21.16,25.43ZM284.33,441.61c2.11-7.76-.55-15.39-6.51-19.82-6.01-4.46-13.86-5.04-20.39-1.06-6.04,3.69-9.57,10.68-8.61,18.29,1.1,8.67,8.26,15.19,16.65,15.72s16.52-4.53,18.86-13.13Z"/>
      <path class="cls-1" d="M368.56,457.74c-.47.57-1.11.35-1.61-.22l-27.84-31.88-.08,32.37-4.55-.02v-42.88c.06-.25.9-.52,1.22-.15l28.29,32.48.1-32.46,4.44-.08v42.84Z"/>
      <path class="cls-1" d="M178.25,457.8c-.46.79-1.61-.3-2.08-.83l-27.28-31.24-.15,32.26h-4.54s.23-43.8.23-43.8l29.29,33.19.13-32.48,4.45.1-.07,42.81Z"/>
      <path class="cls-1" d="M214.91,383.86c-1.03-1.29-1.57-2.74-2.05-4.32l12.26-.09-6.75-14.1-15.51,32.65-5.89.02,20.25-42.93c.22-.47,2.05-.81,2.29-.3l20.1,42.99c-2,.63-3.85.51-5.81.16l-6.66-14.09h-12.23Z"/>
      <path class="cls-1" d="M86.6,383.82l-1.9-4.19,12.21-.19-6.76-14-15.44,32.49c-1.98.31-3.63.38-5.89.03l20.28-42.98c.23-.48,2.05-.61,2.26-.15l20.08,42.98c-1.91.5-3.78.46-5.77.19l-6.73-14.1-12.33-.09Z"/>
      <path class="cls-1" d="M308.92,383.85c-.93-1.36-1.48-2.77-2.04-4.33l12.24-.07-6.75-14.1-15.51,32.66-5.89.03,20.25-42.94c.21-.45,2.04-.81,2.28-.3l20.11,42.99c-2.01.63-3.88.52-5.78.17l-6.68-14.09h-12.23Z"/>
      <path class="cls-1" d="M201.78,450.29c8.47,7.26,20.87,5.73,27.82-2.41l3.61,2.56c-4.69,6.21-11.8,8.63-19.28,8.72-12.16.14-21.68-8.29-22.96-20.26-1.49-13.81,8.96-25.28,22.95-25.23,7.58.03,14.66,2.71,19.26,9.15-1.03.98-2.12,1.91-3.55,2.67-6.77-8.66-19.59-10.02-28.03-2.59s-8.21,20.21.18,27.39Z"/>
      <path class="cls-1" d="M275.75,383.84l-17.67-.05-2-4.33,19.67-.08-.02-24.5c1.66-.43,3.34-.45,5.39-.17l.02,43.13c-1.74.5-3.42.38-5.4.21v-14.21Z"/>
      <polygon class="cls-1" points="131.56 219.55 118 206.34 107.3 209.25 118.03 195.9 131.62 195.91 131.56 219.55"/>
      <polygon class="cls-1" points="115.37 453.69 115.34 458.04 94.23 458.03 94.23 414.79 98.69 414.84 98.69 453.64 115.37 453.69"/>
      <path class="cls-1" d="M323.25,453.67c.42,1.31.23,2.73.16,4.33l-20.92.04v-43.06c1.62-.23,2.89-.21,4.43-.02v38.75s16.33-.04,16.33-.04Z"/>
      <path class="cls-1" d="M254.92,397.86c-1.82.43-3.54.4-5.45.16v-43.22c1.95-.34,3.65-.35,5.46-.11v43.16Z"/>
      <path class="cls-1" d="M130.08,457.85c-1.39.35-2.78.21-4.33.12v-42.95c1.41-.27,2.71-.3,4.33-.01v42.85Z"/>
      <path class="cls-1" d="M257.3,499.42l-.31-12.45-5.13,11.59c-.24.54-.37.78-.81.84-.72.11-1-.17-1.3-.84l-5.13-11.6-.29,12.38-2.04-.02v-16.47s3.06.03,3.06.03l5.46,12.41,5.53-12.42,2.98-.04v16.46s-2.02.13-2.02.13Z"/>
      <path class="cls-1" d="M351.26,499.25c-.91.27-2.39.35-2.76-.17l-9.27-12.93-.08,13.15c-.8.13-1.32.12-2.02,0v-16.47s2.67.06,2.67.06l9.23,13.24.11-13.31,2.15.07-.03,16.36Z"/>
      <path class="cls-1" d="M441.92,499.8c-5.24.02-8.69-3.72-8.75-8.62-.08-5.5,4.26-9.27,9.53-8.83s8.66,5.07,7.72,10.43c-.72,4.1-4.01,6.99-8.5,7.01ZM448.27,490.59c-.3-3.98-3.34-6.51-6.85-6.25s-6.09,3.15-6.01,6.89,3.16,6.87,6.9,6.61c3.47-.24,6.26-3.26,5.96-7.25Z"/>
      <path class="cls-1" d="M421.76,499.8c-5.68.26-9.52-4.08-9.12-9.44.35-4.76,4.07-8.01,8.65-8.03s8.33,3.21,8.68,7.95c.37,5.07-2.81,9.27-8.2,9.52ZM427.73,491.44c.21-4.14-2.84-7.14-6.43-7.13s-6.51,3.01-6.44,6.92,2.88,6.6,6.43,6.61c3.32.01,6.25-2.54,6.44-6.41Z"/>
      <path class="cls-1" d="M158.02,499.75c-5.61.67-9.83-3.21-9.9-8.5s3.85-9.13,9.08-8.91c4.7.2,8.16,3.62,8.3,8.42.13,4.49-2.75,8.44-7.48,9ZM163.26,490.97c-.04-4.02-3.18-6.77-6.67-6.66-3.29.1-6.07,2.86-6.22,6.41-.16,3.93,2.54,7.04,6.22,7.14s6.71-2.62,6.67-6.89Z"/>
      <path class="cls-1" d="M38.86,499.15l-4.47-6.95c-.28-.44-1.91-.44-2.22-.02l-.15,7.13c-.75.13-1.42.1-2.06.02v-16.5s6.33.05,6.33.05c2.62.02,4.34,1.62,4.52,3.81.21,2.61-.98,4.65-4,5.12l4.53,7.41c-.61.29-2.13.47-2.47-.06ZM36.59,489.75c1.52-.34,2.09-1.48,2-2.6-.18-2.26-3.09-2.74-6.5-2.28v5.03c1.49.24,2.91.21,4.5-.15Z"/>
      <path class="cls-1" d="M117.13,499.15c-.78.42-2.24.45-2.75-.02l-9.24-13.02-.12,13.21c-.69.1-1.2.12-2.02-.01v-16.36c.83-.25,1.73-.23,2.68.01l9.23,13.15.08-13.16c.67-.21,1.47-.22,2.16,0v16.2Z"/>
      <path class="cls-1" d="M143.94,499.07c-.49.55-2.34.53-2.69.06l-9.25-13.2-.13,13.38c-.69.11-1.2.13-2.02,0v-16.36c.84-.25,1.72-.21,2.7,0l9.2,13.15.09-13.15c.67-.21,1.46-.24,2.17.04l-.07,16.09Z"/>
      <path class="cls-1" d="M274.34,491.71h-7.7s0,5.75,0,5.75l8.81-.02c-.05.5-.14,1.01.02,1.93l-11.01.02v-16.58s10.53,0,10.53,0c.07.72.1,1.42-.08,1.96h-8.24s-.02,5.01-.02,5.01h7.84s-.16,1.92-.16,1.92Z"/>
      <path class="cls-1" d="M178.56,499.37l-4.27-7.04c-.35-.57-2.04-.63-2.52-.16l-.11,7.1c-.67.15-1.19.16-2.01.02v-16.45s6.53.05,6.53.05c2.44.02,4.21,1.7,4.4,3.9.2,2.35-.96,4.43-3.98,5.05l4.44,7.35c-.94.28-1.46.24-2.47.18ZM178.32,487.18c-.08-1.11-.89-2.24-2.24-2.28l-4.42-.13v5.24c3.79.25,6.86-.03,6.66-2.83Z"/>
      <path class="cls-1" d="M288.38,499.37l-4.27-7.04c-.34-.57-2.04-.63-2.52-.15l-.11,7.1c-.67.15-1.19.16-2.01.02v-16.45s6.53.05,6.53.05c2.42.02,4.22,1.7,4.38,3.88.18,2.37-.93,4.46-3.97,5.07l4.43,7.35c-.93.28-1.44.24-2.46.18ZM288.13,487.19c-.08-1.11-.9-2.25-2.23-2.29l-4.42-.13v5.24c3.77.26,6.86-.05,6.66-2.83Z"/>
      <path class="cls-1" d="M55.7,483.11c.44-.48,1.38-.39,2.1-.23l-.1,11.44c-.03,3.42-2.69,5.4-5.89,5.52-3.64.13-6.52-2.04-6.55-5.83l-.07-11.17h2.16s.04,10.77.04,10.77c0,2.6,1.84,4.27,4.16,4.24s3.98-1.69,4.1-4.27l.04-10.48Z"/>
      <path class="cls-1" d="M95.68,495.32l-7.9.17c-1.75,2.04-.76,4.46-4.3,3.96l7.15-16.37c.19-.43,1.8-.46,2.14-.1l6.99,16.48c-1.15.06-2.29.04-2.49-.42l-1.59-3.71ZM94.76,493.2l-2.99-7.47-3.38,7.61,6.37-.14Z"/>
      <path class="cls-1" d="M24.8,491.7l-7.72.02v5.73s8.76.01,8.76.01c.1.71.1,1.2,0,1.92h-10.86s0-16.57,0-16.57h10.38s.02,1.96.02,1.96l-8.24.05-.04,4.96,7.69.02v1.91Z"/>
      <path class="cls-1" d="M235.06,495.43l-8.17-.04-1.75,3.74c-.22.46-1.55.43-2.33.06l7.21-16.2c.22-.41,1.93-.34,2.12.09l6.85,16.11c-.78.38-2,.35-2.32-.03-.83-.98-1-2.05-1.61-3.72ZM234.04,493.29l-3.08-7.53-3.2,7.63,6.28-.1Z"/>
      <path class="cls-1" d="M329.96,495.45l-8.15-.07-1.78,3.75c-.19.4-1.5.44-2.32.05l7.07-16.02c.25-.56,2.01-.61,2.23-.08l6.87,16.13c-.73.32-1.95.35-2.3-.04-.84-.92-1.01-2.04-1.62-3.73ZM328.95,493.3l-3.12-7.58-3.27,7.64,6.39-.06Z"/>
      <path class="cls-1" d="M408.49,499.16c-.48.29-1.14.3-2.06.21l-.04-7.65-8.73-.02v7.61c-.83.11-1.31.1-2.03,0l-.02-16.39c.61-.17,1.38-.18,2.06,0v6.87s8.71-.02,8.71-.02l.04-6.9,2.03-.04.03,16.33Z"/>
      <path class="cls-1" d="M211.98,499.14c-.61.35-1.25.34-2.04.16v-7.59s-8.73,0-8.73,0l-.02,7.63-2.07-.03v-16.48s2.04.04,2.04.04l.04,6.9,8.72.02v-6.88c.57-.14,1.15-.13,2.02-.09l.02,16.31Z"/>
      <path class="cls-1" d="M368.98,499.74c-2.34.18-4.47-.19-5.91-2.02-.4-.51,1.19-1.88,1.64-1.44,1.77,1.75,4.27,2.22,6.17.36.56-.55.81-1.51.65-2.18-.54-2.33-4.47-2.07-6.86-3.98-1.88-1.51-2.04-4.73-.21-6.47,2.36-2.23,6.44-2.36,8.85.05.4.39-1.11,1.83-1.54,1.48-1.27-1.03-2.49-1.45-4.09-1.03-.96.25-2.45,1.22-2.17,2.89.55,3.3,8.34,1.95,8.35,7.47,0,2.56-1.81,4.63-4.9,4.87Z"/>
      <path class="cls-1" d="M305.48,496.25c2.58,2.47,6.38,1.95,8.69-.5.3-.32,1.75.85,1.48,1.24-2.04,2.95-5.97,3.37-9.24,2.26-2.96-1.01-5.15-4.01-5.32-7.5-.19-3.79,1.49-7.06,4.73-8.58,3-1.4,7.05-1.15,9.47,1.56.39.44-1.13,1.69-1.66,1.48-2.06-2.08-5.16-2.65-7.64-.66-3.24,2.6-3.74,7.61-.51,10.7Z"/>
      <path class="cls-1" d="M379.44,490.18c-.39,2.78.81,5.25,2.76,6.59,4.38,3.02,7.67-1.07,8.33-1.04.5.03,1.55.94,1.06,1.52-2.37,2.84-6.39,3.18-9.65,1.78s-5.06-4.82-4.8-8.65c.22-3.3,2.13-6.08,4.9-7.28,3.03-1.31,6.85-1.06,9.15,1.58.45.51-.66,1.33-1.13,1.35-1.24.08-3.34-3.35-7.69-.74-1.36.82-2.62,2.56-2.95,4.89Z"/>
      <path class="cls-1" d="M72.98,483.32c.31-.79,1.84-.68,2.32-.33l-6.22,15.98c-.21.53-2,.73-2.24.19l-6.26-16.13c.87-.38,1.58-.31,2.42-.08l4.88,13.16,5.09-12.8Z"/>
      <path class="cls-1" d="M2.04,492.02v7.3c-.83.11-1.33.1-2.04-.01v-16.5s6.42.08,6.42.08c2.62.03,4.34,1.93,4.43,4.3s-1.57,4.65-4.35,4.72l-4.45.11ZM6.04,490c1.75-.02,2.62-1.31,2.53-2.83-.08-1.27-.95-2.38-2.53-2.39l-3.99-.04v5.3s3.99-.04,3.99-.04Z"/>
      <path class="cls-1" d="M190.41,499.2c-.81.33-1.58.21-2.19.13l-.02-14.45-5.35-.1.02-1.97,13.01.02c-.09.71-.1,1.22.02,1.9l-5.51.08.03,14.39Z"/>
      <path class="cls-1" d="M464.4,497.44c-.06.5-.14,1.01.02,1.94h-9.7s0-16.55,0-16.55h2.05s0,14.6,0,14.6h7.62Z"/>
      <polygon class="cls-1" points="145.04 208.78 136.2 209.02 136.34 200.68 145.04 208.78"/>
      <path class="cls-1" d="M80.37,499.21c-.52.25-1.37.26-2.19.09v-16.48s2.16.02,2.16.02l.03,16.37Z"/>
      <path class="cls-1" d="M296.97,499.13c-.74.38-1.36.34-2.16.16v-16.27c.77-.27,1.37-.27,2.15,0l.02,16.12Z"/>
    </g>
  </g>
</svg>