<?xml version="1.0" encoding="UTF-8"?>
<svg id="Capa_2" data-name="Capa 2" xmlns="http://www.w3.org/2000/svg" viewBox="0 0 1863.93 488.47">
  <g id="Capa_1-2" data-name="Capa 1">
    <g>
      <path d="M1863.93,194.92l-8.59,9.09c-.75.78-4.11-1.06-4.35-1.93,5.27-10,9.76-20.09,12.94-30.43v23.27Z"/>
      <path d="M124.64,488.47c-7.75-13.77-22.31-19.65-38.29-19.68l-51.76-.08c-15.75-.03-31.11-9.81-31.1-26.67l.1-309.75,41.2-.03.67-6.33,14.66-6.49c.6-1.44.28-4.86-.56-6.31s-3.87-3.33-5.53-3.41l-12.48-.61,8.21-10.16c2.36-2.92,1.77-8.01.03-11.99l-15.87,7.75c-2.26,1.1-6.11-5.11-4.5-7.28l8.33-4.82c-2.3-5.24-6.24-10.04-11.56-12.99l-8.1-1.83-5.53-7.57-10.51,1.9,2.85-7.67L0,44.37l9.34,3.09,6.42-5.85,1.08,12.99c4.69.93,9.29,2.78,12.48,6.66l6.34-4.3,5.73,9.24c5.06-2.12,9.31-4.52,14.18-7.86l-7.7-7.71,13.55-4.86c-3.19-3.62-6.32-6.84-2.94-12.29l-9.24-6.35,6.55-2.95.58-11.11,7.44,7.56,7.79-.98-4.39,11.3c5.62,3.18,5.61,4.38,4.93,10.95l16.02-1.18-3.06,10.43c7.27,1.03,13.94.7,20.72-3.23l-8.44-9.32c6.52-.46,11.97-.62,18.36-.67l-.12-16.14c-.94-2-3.67-4.84-5.7-7.03l6.42-4.99,4.65-9.79,4.73,10.04,6.3,3.89-5.76,7.32-.23,17.71c6.99-.88,12.84-1.21,20.7-.62l-7.11,9.63c5.71,2.69,12.51,3.77,19.21,2.03l-3.84-9.52,14.44.44c-1.69-6.6-.49-7.68,4.39-11.74l-4.51-9.62,7.35,1.06,8.03-8.4.44,12.37,5.15,3.59-8.09,3.32c.95,2.76,1.77,5.03,2,6.72.21,1.57-2.64,3.7-4.29,5.29,5.27,2.63,9.57,4.88,14.55,8.09l-9.01,6.2,9.96,5.74c2.3,1.33,5.64,2.32,8.14,2.88l1.26-9.48,8.11,4.45c3.24-3.29,6.58-5.46,10.53-6.95l1.21-12.54,6.69,4.65,10.33-4.34-5.45,11.09,3.18,8.04-11.86-.07c-1.17,5.72-4.72,7.04-9.29,8.81-5.36,2.08-9.98,6.43-14.2,10.85l7.57,5.23c1.72,1.55-1.39,7.28-3.67,6.96l-11.71-7.19c-3.48,5.66-2.05,10.74,1.91,15.18l7.02,7.85c-5.17.62-9.63.68-13.83,3.04-2.03,1.14-2.15,7.28-1.19,9.09l10.52,6.29.74,4.9h41.19s-.27,311.65-.27,311.65c-.01,13.66-14.79,24.12-27.04,24.26l-58.17.65c-13.76.15-25.76,7.48-32.47,19.63ZM125.48,67.26l2.38-11.61-12.77.22,2.55,11.35,7.84.04ZM76.16,70.85l.03-12.3-11.36,1.65,5.36,12.42,5.97-1.76ZM169.81,70.18l4.06-8.68-10.97-2.36.04,9.9,6.87,1.14ZM107.56,80.02c2.05-1.28,3.46-4.42,3.98-6.84l-13.9,1.94c1.2,4.87,5.45,7.7,9.92,4.9ZM122.38,77.72l2.12,1.83-1.88-6.36-5.09,12.9c2.32-2.24,3.75-5.3,4.85-8.37ZM147.05,74.35l-13.75-.98c.78,4.01,3.48,6.59,6.32,6.9,3.79.41,6.72-1.83,7.43-5.92ZM161.74,83.48l-.53-7.55-3.79,7.22,3.04-2.82.67,3.61.61-.46ZM90.19,103.99c-1.96-3.88-6.46-5.82-11.74-7,5.36-4.36,7.46-9.58,9.83-15.25.54-1.3.11-3.01-1.77-4.38.33,8.88-4.3,17.44-12.76,20.23-3.15,1.04-6.76,1.11-8.14,4.48,8.28-5.16,18.29-4.72,23.99,2.58l.59-.66ZM76.53,82.81l.3-3.73-13.19,4.05c1.73,3.69,4.11,5.28,7.07,5.19,2.08-.06,5.65-3.34,5.82-5.51ZM185.18,83.06l-12.28-3.8c-.57,5.11,1.83,7.98,5.27,8.61,2.85.52,6.24-1.41,7.01-4.8ZM162.04,84l-.72.54c.5,2,1.38,4.28,2.42,6.06l.68-.58-2.38-6.03ZM123.63,96.21l4.11-6.32-5.26-4.82-4.59,5.75,5.74,5.4ZM155.57,86.29c.87.11-.95-.12-1.56-.2l-1.7,2.18c-.18.23,1.17.58,1.35.35l1.9-2.33ZM91.54,97.58c.91-.45,3.32-3.76,2.8-5.16-.55-1.49-2.49-3.24-4.69-5.04l-3.47,6.3,5.37,3.9ZM99.58,89.91l-5.94-2.23c1.75,1.81,3.39,2.56,5.29,3.07l.65-.84ZM115.49,92.81l-4.5-1.68c1.63-1.03,3.81-2.56,4.44-3.23-5.82,2.4-10.33,3.09-15.39,2.68l-.53.39,2.84.89c-2.99,1.8-6.8,3.4-7.49,7.38,5.38-6.74,12.65-8.57,20.16-5.71l.47-.72ZM151.04,95.24l-3.54-3.55,3.12-1.79-11.73.85c-6.16.45-11.92,5.26-14.04,10.94l-1.9.96c-.51.26,1.05,2.53,1.61,2.94,1.44-5.55,5.15-10.38,9.62-12.23,6.42-2.65,11.44-.76,16.87,1.87ZM159,100.09l5.33-4.22-4.61-6.7-4.98,5.22,4.26,5.7ZM164.91,90.53l-.77.78,5.19,5.12.73-.7-5.14-5.2ZM116.12,93.18l-.69.71,5.82,5.23c-.92-2.9-3.02-4.65-5.13-5.94ZM170.65,96.32c-.28-.2-.27-.12-.18.96.52-.33-.98.62-2.15,1.37l11.48,1.31,2.15.76c.27.1.21-.44,0-.64-.23-.23-1.41-1.15-1.71-1.23l-9.58-2.53ZM164.08,100.98l-6.06,4.49c-.83-3.14-2.35-6.68-4.76-8.5,1.94,4.53,3.35,8.14,4.15,12.38l6.66-8.36ZM60.42,106.94c.93-.83,2.84-3.99,2.35-5.34s-2.78-3-4.97-4.25l-2.59,6.78,5.21,2.81ZM193.34,104.74l-1.58-5.98-5.5,3.97,2.94,4.36c.55.82,4.39-1.41,4.14-2.35ZM146.65,107.12c-.34-4.26-3.07-6.8-6.35-7.31-3.02-.46-6.05,2.36-7.15,6.14l13.5,1.17ZM114.46,106.44c-1.36-4.15-4.32-5.86-7.52-5.19-2.84.6-5.09,2.85-5.89,6.85l13.4-1.66ZM90.09,105.37l1.6,4.13,1.32-7.8-2.38,3-.54.67ZM83.67,111.36c-2.44-3.46-6.1-5.1-9.81-3.67-2.41.93-4.09,4.65-4.2,8.28l14.01-4.61ZM178.64,116.06c.25-3.38-1.33-6.94-3.83-8.09-2.96-1.37-6.29.08-8.33,3.66l12.16,4.43ZM194.22,132.08c-21.56-12.74-44.7-17.05-68.38-18.21-25.74,1.01-50.92,5.98-74.22,18.25l142.59-.04ZM124.19,469.03c9.58-8.4,21.62-12.91,34.66-12.93l50.36-.07c14.21-1.32,25.76-10.98,28.9-25.18l-.09-294.01H8.25s-.21,38.52-.21,38.52l.31,257.41c.02,13.6,14.33,22.61,26.28,23.28l52.65.11c13.49.03,26.14,4.47,36.92,12.86Z"/>
      <path d="M524.99,185.02l-47.19,79.33c-.98,1.65-3.08,3.48-4.44,3.79-1.53.35-4.87-1.3-5.82-2.84-7.12-11.48-12.45-23.07-18.27-35.29l-19.34-40.64c-6.64,26.71-12.6,51.2-21.94,75.79-3.47,9.12-11.28,26.93-16.51,24.44-6.76-3.22-16.92-13.36-15.09-17.73,1.07-2.54,7.49,4.91,12.36-1.55,19.61-26.01,28.2-58.06,36.02-88.99-7.48-15.27-22.61-11.36-17.39-19.4,10.49.29,19.82,1.55,29.9,3.82,3.61,1.37,6.2,3.66,7.88,7.31l25.15,54.7,9.56,18.14c9.31-14.45,16.93-27.69,24.74-42.08l21.91-40.38c6.36-1.1,12.71.76,17.86,4.3l9.13,67.21,3.8,17.76c.94,4.4,4.12,5.83,9.07,8.15-6.63,5.28-14.04,7.04-21.83,8.93-3.03-.13-5.5-1.89-6.04-5.08l-13.53-79.67Z"/>
      <path d="M1257.37,226.26l-24.86,39.15c-.82,1.28-2.29,2.81-3.35,3.17-1.23.43-4.42-1.13-5.07-2.44l-7.77-15.64-15.35-32.64-5.86-14.56-4.71-12.79-3.61,10.6-16.9,49.64c-4.33,12.71-9.22,24.19-15.97,35.84-.77,1.33-3.44,3.33-4.94,2.62-7.96-3.78-17.44-11.64-15.96-18.43l5.96,2.13c3.71,1.33,13.22-11.27,16.35-17.87l19.95-42.06c2.61-5.5,2.46-11.15,3.83-17.11l1.89-8.24c2.94-1.76,4.93-4.94,2.98-8.35-1.3-2.27-3.2-6.18-5.62-7.41l-8.69-4.41c-.8-.4-1.91-2.14-1.96-2.96-.32-4.85,23.17-1.45,33.97,1.99l9.96,25.81c7,18.14,13.85,35.71,23.24,53.3l26.04-41.16,13.77-23.05,7.06-11.79c2.07-1.25,5.64-3.03,7.24-5.88,4.26-1.33,10.5.51,14.69,2.2l1.03,23.36.99,16.94,2.55,25.79c.79,7.99,2.39,15.64,5.07,23.13,1.17,3.26,4.16,4.39,7.59,5.05-.16,1.04-2,3.37-3.21,3.82l-15.38,5.61c-1.01.37-3.67.3-4.67-.08-1.16-.44-2.57-2.75-2.86-4.09l-2.7-12.63-8.24-51.02-3.41-14.26-23.06,38.73Z"/>
      <path d="M1689.9,243.18c-5.79,13.5-15.45,29.08-28.8,24.28-21.59-7.75-10.44-63.6,16.68-72.1,5.6-1.76,9.47.52,13.29,4.99l-.19-34.65-1.2-12.85c6.19-.47,11.69,1.19,17.6,4.46l-2.18,46.07c-1.07,22.75-1.35,44.48-.22,67.42-6.16.1-11.26-2.16-15.92-5.84l.95-21.79ZM1689.42,209.59c-1.26-4.27-5.55-7.29-9.41-7.11s-8.08,2.94-9.38,7.26c-4.31,14.37-8.14,44.88.36,47.84,9.42,3.29,22.52-34.06,18.42-47.99Z"/>
      <path d="M897.44,243.72c-3.91,7.26-6.56,15.19-13.54,20.23-4.51,3.26-9.6,5.26-15.07,3.43-22.39-7.49-10.17-65.37,18.27-72.29,5.02-1.22,8.03,1.24,11.49,5.08l-.06-21.24-1.78-26.01c6.56,0,12.03,1.44,18.12,4.54l-1.71,38.35-1.12,48.95.17,25.95c-6.24-.43-11.94-2.31-15.7-6.18l.92-20.79ZM893.32,204.12c-2.32-1.89-6.48-2.33-9.02-.87-5.35,3.06-7.17,8.62-8.41,14.29-2.96,13.51-5.03,38.38,3.48,40.08,10.25,2.05,26.15-43.55,13.96-53.5Z"/>
      <path d="M1105.67,253.6l-3.6-12.39-1.79,9.03c-1.39,6.99-7.59,11.95-13.57,15.33-7.7,4.35-16.49.28-20.23-7.26-2.12-4.27-3.29-8.49-2.14-13.42l3.79-16.24,4.64-11.15c2.55-6.14,8.05-11.46,12.75-16.04s11.35-7.11,18.13-5.7l8.37,7.96,7.33-2.14-.47,23.45c-.2,9.88.29,19.58,2.47,29.06.89,3.88,3.35,5.01,7.55,6.81-6.27,5.79-15.24,11.55-19.52,7.37-.94-.92-.65-4.12-1.05-5.5l-2.66-9.17ZM1087.81,256.8c12.3-13.93,19.82-34.71,15.35-51.26-1.31-1.97-5.75-3.41-7.82-2.59-2.19.87-5.35,3.06-6.5,5.63-5.48,12.25-12.43,42.56-1.04,48.23Z"/>
      <path d="M639.95,261.14c-4.93,5.44-14.41,11.41-17.86,9.34-1.08-.65-2.83-2.92-3-4.33l-3.26-26.56c-4.62,12.88-11.7,29.33-26.02,28.37-20.01-1.34-20.74-42.01,2.19-65.08,3.49-3.51,8.12-5.93,12.64-7.18,5.11-1.41,9.81.75,11.69,5.64,2.33,6.07,7.73-.75,13.54.66-1.16,17.98-.2,34.72,3.1,52.05.71,3.71,2.87,5.56,6.98,7.08ZM614.43,211.93c-.12-5.37-3.44-9.02-8.27-9.31-4-.24-8.09,2.06-9.82,6.61-6.68,17.57-8.1,48.83,1.4,48.42s17.08-28.73,16.7-45.72Z"/>
      <path d="M800.37,261.83c-5.7,4.64-13.99,10.21-17.46,8.59-1.09-.51-2.91-2.87-3.06-4.1l-3.13-26.44c-4.51,13.61-13.11,30.81-27.56,27.88-18.39-3.73-17.58-38.89-1.32-59.55,4.69-5.96,10.58-10.81,17.83-12.37,5.97-1.29,10.81,1.41,12.46,7.84,5.65.19,12.77-4.16,12.58-.76-1,17.72-.35,34.74,3.21,52.14.6,2.96,3.31,4.46,6.44,6.78ZM775.15,211.06c-.27-5-4.87-8.47-8.87-8.5-4.2-.03-7.82,2.66-9.53,7.12-6.14,16.01-8.13,46.55,1.3,47.93,9.42,1.37,18.12-27.83,17.1-46.55Z"/>
      <path d="M1368.39,253.85l10.86-11.59c.73-.77,3.85.18,3.94,1.05l.39,3.79c-6.81,8.09-14.24,14.94-23.65,19.53-8.5,3.1-17.49,2.07-23.73-3.73-7.38-12.16-9.53-25.75-3.21-38.17l6.99-13.74c3.91-7.68,23.33-21.31,34.26-10.87,5.06,4.83,7.18,14.85,2.74,20.66-5.24,6.85-13.04,10.85-19.41,16.36l-11.35,9.84c-.04,3.46,2.08,9.38,5.33,11.3,5.32,3.14,12.35.37,16.84-4.42ZM1362.4,207.25c-.53-2.1-3.51-4.31-5.08-4.02-9.17,1.66-13.45,24.57-11.69,35.96,13.09-11.55,21.01-15.22,16.78-31.94Z"/>
      <path d="M1749.17,258.13c11.98-5.46,15.38-15.97,19.14-16,1.17-.01,2.97,3.12,2.24,4.15-9.03,12.72-23.48,25.46-38.54,21.09-5.91-1.71-10.83-6.52-12.62-12.74-7.36-25.49,8.12-55.52,29.61-58.47,10.43-1.43,17.2,6.04,18.23,15.58.59,5.49-.98,8.07-5.04,11.34l-28.74,23.1c.31,4.48,1.35,9.05,5.25,11.92,2.5,1.83,7.64,1.31,10.47.02ZM1750.74,223.98c.5-6.68,1.65-16.07-3.4-20.53-3.61-3.19-8.71,2.65-10,6.07-3.69,9.82-4.6,19.7-3.87,30.2l17.27-15.74Z"/>
      <path d="M962.96,254.41l10.7-10.94c.77-.79,2.84-1.38,3.6-.74.83.69,1.22,3.25.56,4.14-5.83,7.8-12.52,15.25-21.47,19-5.93,2.49-12.28,3.43-18.52.51-17.75-8.31-16.4-42.14,1.05-61.23,3.21-3.51,8.73-6.68,12.99-7.92,8.54-2.49,15.59,1.77,18.87,9.34,1.73,4,4,11.79-.21,15.19l-29.29,23.67c.49,5.04,1.4,10.49,5.77,12.9,4.82,2.65,12.11,0,15.95-3.92ZM958.12,223.31c-4.25-8.38,1.3-16.7-5.68-19.64-8.18-3.45-12.68,23.08-11.19,36.23l16.87-16.59Z"/>
      <path d="M1612.74,258.89c12.14,5.2,24.66-16.42,28.54-16.85,1.17-.13,2.94,3.36,2.21,4.3-11.16,14.5-29.01,29.43-44.07,18.42-7.31-5.34-8.11-13.5-8.58-21.97-.96-17.6,6.28-35.09,22.09-43.72,6.11-3.33,13.75-4.48,19.71-.45s8.96,14.28,5.8,20.96l-31.91,26.09c-1.51,4.41,1.34,11.15,6.19,13.22ZM1623.2,224.36c1.92-12.42-1.12-25.46-7.83-21.09-8.88,5.8-9.85,23.33-9.35,36.4l17.18-15.31Z"/>
      <path d="M1409.4,264.39c.05,6-8.67,3.43-15.96-1.89l.43-33.36c.09-6.72,1.67-14.21-.27-20.45l-3.46-11.17c5.76-2,14.62.9,20.05,4.33l-1.6,32.22,9.74-25.7c-1-5.97,1.4-11.4,7.81-13.8.9-1.7,5.92-2.22,6.37-.49-.43,9.57-.92,18.84,4.7,26.74,1.39,1.96,2.83,4.62,3.78,6.93-6.7,4.98-16.48.17-20.82-9.04-2.43,6.36-4.56,11.74-8.58,17.16-1.66,9.17-2.25,19.27-2.18,28.51Z"/>
      <path d="M1047.6,268.56c-5.74.79-11.35-1.49-15.39-5.3l3.76-34.44c2.67-12.85,2.62-25.46,2.91-38.64.27-12.39.57-24.01-1.24-36.91,6.43-.67,12.25,1.13,18.17,4.14l-2.47,29.48-1.79,36.26-2.22,20.41c-.91,8.34-2.02,15.85-1.72,25Z"/>
      <path d="M1484.16,225.31c-.06-6.06.54-12.17-1.17-17.43l-3.39-10.49c7.67-1.99,13.72.26,20.31,4.15l-1.13,15.95-1.83,19.09,9.57-23.74c3.26-8.09-1.66-12.36,6.75-17.66,2.48-1.57,4.89-2.65,8.23-3.14l1.21,15.9c.56,7.42,4.99,13.59,9.24,19.91-4.88,1.74-10.64,1.57-15.3-1.1-3.17-1.82-4.91-5.97-6.26-9.56-8.13,16.23-11.59,32.62-12.95,50.74-5.61-.54-10.52-2.26-14.69-5.36l1.51-25.94-.1-11.33Z"/>
      <path d="M649.72,259.34c1.32-16.83,1.71-32.24.52-48.48-.36-4.86-1.63-8.88-3.04-14.07,7.35-1.27,19.69,2.58,19.4,6.38l-2.48,32.53,9.87-25.47.77-9.22c3.08-4.88,7.61-8.18,13.5-8.72l.59,11.92c.43,8.69,3.36,16.15,9.79,22.98-9.09,4.94-17.46.43-21.96-9.28-7.4,16.15-11.2,32.01-11.82,49.7-6.82.14-15.58-2.56-15.14-8.26Z"/>
      <path d="M1778.51,264.94c-3.05-1.95-4.66-5.55-3.73-8.51,2.26-7.2,5.03-13.77,9.98-11.69l1.69,8.77c.72,3.74,3.6,7.35,6.41,8.36,4.02,1.44,8.06.98,11.5-1.49,2.57-1.84,3.92-5.42,3.9-8.57-.02-2.92-2.23-6.56-5.06-8.36l-16.67-10.62c-9.07-5.77-11.66-16.64-4.99-25.44,12.52-16.51,37.08-12,37.56-5.35.38,5.38-3.21,13.94-5.59,13.93-3.21-.01-2.68-6.44-7.24-11.29-3.81-4.05-10.26-3.14-13.77.7-1.3,1.42-2.52,4.23-2.5,5.96s1.81,4.7,3.53,5.9l23.35,16.34c4.93,3.45,5.36,11.03,3.54,16.78-5.42,17.12-26.52,24.44-41.9,14.59Z"/>
      <path d="M1068.27,443.95l-14.42.06-4.71,14.32-7.25.5c-3.63.25-8.93.53-10.84-3.39l-7.69-15.8-2.82-.15-.11,19.2-8.16.03.02-45.49,16.76-.23c5.81-.08,8.96,5.17,9.37,10.46.5,6.36-1.16,11.25-7.17,14.84l6.7,12.33c1.18,2.17,4.72,4.27,6.78,4.89l14.21-42.01,8.1-1.37,14.79,46.29-9.23.08-4.33-14.56ZM1026.92,418.44c-1.6-.81-5.14-.81-6.42-.27l.06,16.91c3.16.07,6.19-.59,7.91-2.59,3.06-3.55,1.92-12.31-1.55-14.05ZM1066.77,439.31l-5.71-18.28-5.81,18.15,11.52.13Z"/>
      <path d="M1564.4,259.17c11.92-2.95,15.1-15.88,19.63-13.86,2.67,1.19.49,4.8-.85,6.59-6.19,8.25-13.86,15.14-24.1,17.13-11.43,2.22-21.57-5.02-23.03-16.36-1.16-8.97-1.28-18.07,1.33-26.85,1.96-6.62,6.25-12.27,10.48-17.58,13.69-17.2,36.5-12.92,34.09-4.82l-3.47,11.69c-.26.88-2.16,2.31-3.02,2.28-4.16-.11-2.24-11.24-8.24-13.78-5.08-2.16-11.04,2.54-12.67,7.65-4.09,12.76-4.64,26.65-1.92,39.63,1.23,5.86,5.55,9.83,11.78,8.28Z"/>
      <path d="M1629.67,318.83c1.66.39,1.51,5.41.09,5.74l-13.09-.47c-2.13.65-3.06,6.74-1.18,7.83,4.81,2.79,9.85,4.53,13.78,8.34,2.87,2.78,5.49,21.8-4.64,23.67-5.85,1.08-12.87-1.25-18.18-2.44-1.4,2.05-7.66,4.92-9.01,1.38l-5.08-13.33-9.38-.18-3.89,14.43-6.41.21,3.46-9.36,2.05-5.53-5.65,3.05c1-11.16,4.9-19.58,9.01-29.55,1.11-2.69,3.49-6.15,7.54-3.7,2.73,1.65,4.76,6.73,5.63,10.59l5.33,1.77c.7,3.91.16,7.88-.14,12.46-.27,4.24,2.4,9.96,3.72,14.11l1.32,1.31c.4.39,2.41.36,2.26-.18l-.83-2.89c.11-.42.47-1.78.28-1.05l1.92,2.47c.4.51,2.06-1.2,2.69-1.71l9.57,2.13c1.29.29,4.04-.08,5.06-.79,1.17-.81,1.85-4.05,1.45-5.55-2.31-8.53-13.61-5.98-20.31-16.62-2.14-3.4-2.59-8.99.7-11.43l7.59-2.84c4.41-1.65,8.99-3.16,14.34-1.9ZM1592.66,344.69l1.12-5.41c-3.86-1.03-4.8-2.7-6.76-6.88l-2.53,12.12,8.17.17Z"/>
      <path d="M979.21,458.55l-3.22-33.63-12.43,31.63c-.3.76-1.91,1.97-2.65,1.94-.93-.05-2.23-1.48-2.69-2.58l-12.65-30.31-2.59,32.67-5.26-.05,3.86-45.66,7.83-.22,13.43,32.05,12.28-31.31,7.85-.14,4.65,45.46-8.42.13Z"/>
      <path d="M940.45,364.2l-3.5-32.81-12.52,31.76-2.91,1.05c-.69.25-1.39-1.61-1.73-2.41l-13.07-30.47-2.47,32.09c-.86.73-4.18.78-5.08.17l3.54-45.16,8.37.05,13.01,31.19,12.57-31.22,7.65-.3,4.26,45.69-8.1.36Z"/>
      <path d="M1341.88,364.03l-3.33-33.22-12.24,30.42c-.51,1.26-1.14,2.89-2.03,3.09s-2.71-1.33-3.06-2.18l-13.12-31.29-2.88,32.63-5,.35,3.89-45.54,8.24-.06,12.9,31.5,12.82-31.4,7.46-.12,4.32,45.58-7.96.23Z"/>
      <path d="M1073.49,119.28c-2.64,9.37-10.8,15.18-20.24,14.9l-17.21-.51.03-49.26,22.08-.31c7.31.98,12.56,5.52,15.24,12.21,1.99,7.38,2.33,15.07.1,22.96ZM1061.26,93.35c-3.46-4.97-10.29-5.19-15.8-4.51l.04,39.24c4.23.59,9,.98,12.96-.86,6.97-3.22,9.53-24.22,2.81-33.88Z"/>
      <path d="M1583.71,121.45c-3.05,8-10.77,12.79-18.98,12.64l-18.23-.32v-49.5s20.93-.43,20.93-.43c7.72-.16,14.42,5.1,16.78,12.47,2.58,8.04,2.67,16.79-.51,25.13ZM1573.34,95.07c-2.96-6.25-10.68-7.17-17.38-6.14v39.58c4.17.25,7.62.29,11.67-.31,8.79-1.29,11.04-21.85,5.71-33.14Z"/>
      <path d="M1494.84,118.97c-2.65,9.69-10.85,15.47-20.49,15.2l-17.29-.47.07-49.32,22.56-.18c8.13,1.3,13.68,6.84,15.64,14.58,1.1,6.53,1.37,13.38-.49,20.17ZM1483.99,95.91c-2.73-6.64-10.36-8.14-17.49-6.93l-.05,39.46c4.8.46,9.51.37,13.65-1.2,5.71-2.17,8.51-20.11,3.9-31.33Z"/>
      <path d="M1346.07,134.28c-5.48-.08-9.51-1.39-11.51-5.74l-6.84-14.85-3.44-.05-.12,19.99-9.4.23v-49.51s19.02-.26,19.02-.26c7.57-.1,11.34,6.94,10.84,13.95-.41,5.84-2.53,10.27-8.35,13.52,2.87,5.98,5.76,12.47,10.67,16.83,1.27,1.13,2.7,2.1,2.92,3.11.3,1.38-1.95,2.79-3.79,2.76ZM1332.17,90.02c-2.16-1.17-5.66-1.48-7.87-1.1l.1,19.47c3.45-.05,6.94-.64,8.53-2.6,3.27-4.05,2.63-13.94-.75-15.77Z"/>
      <path d="M906.45,134.52c-9.65-.24-17.24-5.47-19.53-14.58-1.91-7.62-1.97-16.03.44-23.56,2.88-9.01,11.45-12.99,20.44-13.05,10.31-.07,18.69,5.3,20.88,15.65,1.33,6.29,1.35,13.36-.11,19.71-2.38,10.35-11.24,16.09-22.11,15.83ZM909.16,128.79c4.94-.04,8.79-2.68,9.66-7.66,2.15-12.39,1.92-29.59-8.83-31.65-4.92-.94-10.6-.21-12.6,4.85-2.93,7.42-2.68,16.69-1.02,24.31,1.43,6.54,6.16,10.19,12.79,10.14Z"/>
      <path d="M720.86,268.39c-6.71,1.12-16.09-1.59-15.76-7.61.89-16,1.52-31.39.85-47.27l-3.03-17.23c6.75-.41,13.03,1.39,18.84,4.36-1.28,22.98-1.42,44.55-.9,67.74Z"/>
      <path d="M641.17,133.63c-3.43.85-5.06-.14-6.77-2.06l-27.88-31.32-.26,33.58-5.69-.6.1-49.43c3.7-.83,5.09.75,7.03,2.94l27.39,30.83.11-33.28h5.94s.03,49.34.03,49.34Z"/>
      <path d="M1449.03,263.29l.67-23.18.77-18.9-.66-11.32c-.18-3.06-2.44-6.16-3.86-9.74-.59-1.47,3.88-3.21,5.86-2.5l13.53,4.85c.65.23,2.35,2.14,2.05,2.68l-1.33,2.48c-3.14,19.71-2.44,39.55-1.66,59.72-5.44,1.97-11.57-.18-15.37-4.09Z"/>
      <path d="M978.33,132.79c0,2.1-4.7.89-5.9-.46l-28.34-32.02-.08,33.44h-5.81s0-49.73,0-49.73c1.72-.36,4.75.04,5.82,1.24l28.6,32.26.15-33.48,5.67.02-.1,48.74Z"/>
      <path d="M807.78,84.06l9.27-.03-.12,33.99c-.02,6.91-4.26,12.68-10.69,14.92-4.85,1.69-10.15,1.97-15.29,1-6.82-1.28-11.89-7.06-11.93-14.31l-.21-35.63,9.3-.02.14,35.8c0,2.29,1.31,5.96,2.85,7.01,4.37,3,11.31,2.63,14.19-.12,1.22-1.17,2.39-4.76,2.4-6.63l.12-35.98Z"/>
      <path d="M1089.87,364.16l-1.67-10.19-.25-9.53.09-10.06,1.14-15.48,14.55-.5c5.29-.18,11.93,1.38,15.39,5.8,6.57,8.4,7.05,20.49,2.73,29.89-2.83,6.16-8.61,10.16-15.4,10.14l-16.57-.06ZM1113.2,354.48c3.66-6.87,3.24-15.77,1.2-22.71s-9.63-9.53-16.47-7.89l-.31,35.13c5.07,1.18,12.54,1.17,15.58-4.53Z"/>
      <path d="M1207.46,454.09l-7.11-14.54-2.74-.11.05,19.05-8.24-.09v-45.31s15.76-.27,15.76-.27c6.95-.12,10.83,5.95,10.77,12.45-.06,5.83-2.13,10.17-7.71,13,2.89,5.81,5.51,11.44,9.82,15.52,1.07,1.02,2.77,2.53,3.57,3.58-4.72,3.4-11.68,1.81-14.17-3.29ZM1204.59,418.63c-1.58-.86-4.79-1.26-6.98-1.28l.05,17.67c2.49.15,5.75-.29,7.47-1.72,3.36-2.79,2.89-12.8-.54-14.67Z"/>
      <path d="M1018.1,362.35c-5.73,4.95-13.03.87-15.73-5.13-2.15-4.78-2.93-8.68-7.6-13.49l-.71,20.35h-8.11s0-45.13,0-45.13l16.48-.45c6.27-.17,9.94,5.88,9.95,11.76.02,5.98-2.17,10.47-7.25,13.88l3.93,8.28c1.75,3.68,4.52,6.09,9.04,9.92ZM1001.57,324.54c-1.6-1.33-4.45-1.66-7.35-1.6v17.62c2.71-.04,5.86-.48,7.22-1.77,2.89-2.74,3.09-11.79.13-14.25Z"/>
      <path d="M1175.81,453.95c-8.47,8.55-23.75,6.97-29.69-3.28-4.74-8.18-4.42-18.18-1.59-26.73,2.7-8.17,10.09-11.86,18.29-11.59,8.51.28,15.62,4.59,17.76,13.28,2.27,9.24,2.06,21.44-4.76,28.33ZM1163.32,453.95c4.95,0,8.1-2.57,9.14-6.97,2.59-10.96,1.42-27.16-8.5-29.07-4.16-.8-9.19-.2-10.95,4.27-3.04,7.7-2.19,17.12.06,24.96,1.33,4.63,5.24,6.82,10.26,6.81Z"/>
      <path d="M1200.53,363.65c.02.42-10.01,2.83-13.64-4.79l-6.07-12.73c-.37-.78-3.24-1.7-3.25-.83l-.18,18.6-8.32-.1.15-45.1,16.73-.18c5.53-.06,9.05,4.93,9.5,10.09.54,6.2-1.45,11.86-7.23,15.13l5.78,11.25c1.01,1.97,4.64,4.72,6.43,6.16l.1,2.49ZM1183.95,323.82c-1.58-.7-4.9-.94-6.42-.65v17.14c2.25.34,5.92-.18,7.37-1.71,2.75-2.9,2.24-13.37-.95-14.78Z"/>
      <path d="M605.58,363.77c-15.05,4.1-15.11-13.82-20.99-19.27-.37-.34-1.68,1.57-1.68,2.23v17.34s-8.42-.03-8.42-.03v-45.43s16.7-.16,16.7-.16c6.09-.06,9.52,5.52,9.58,10.97.07,6.04-1.76,11.1-7.18,14.25,2.63,5.28,4.84,11.11,9.15,15.07,1.61,1.48,3.97,3.1,2.85,5.03ZM589.78,324.09c-1.55-.96-4.29-1.26-6.8-1.34l-.09,17.68c2.16.17,5.56-.34,7.24-1.77,3.07-2.6,2.8-12.61-.35-14.57Z"/>
      <path d="M1526.53,117.55l-16.11.16-4.74,15.83-6.62.2,17.22-49.38,8.98-1.4,16.35,50.5-10.25.54-4.84-16.44ZM1524.98,112.3l-6.12-20.27-6.76,20.39,12.88-.12Z"/>
      <path d="M1436.7,117.7l-15.93-.03-4.93,16.09-6.57-.02,17.2-49.53,8.84-1.45,16.55,50.99-10.39.07-4.77-16.12ZM1435.2,112.37l-6.31-20.42-6.46,20.46,12.77-.04Z"/>
      <path d="M1244.87,117.74l-15.61-.16-5.34,16.15-6.38-.03,16.95-49.49,9.03-1.16,16.59,50.69-10.15.21-5.1-16.21ZM1243.29,112.26l-6.42-20.35-6.38,20.51,12.8-.16Z"/>
      <path d="M1105.08,117.72l-15.81-.14-5.17,16.37-6.37-.33,17.02-49.24,8.97-1.48,16.44,50.52-10.22.54-4.85-16.24ZM1103.54,112.27l-6.16-20.35-6.75,20.55,12.91-.2Z"/>
      <path d="M1616.72,117.56l-16.04.09-5.07,16.11-6.42-.05,17.31-49.34,8.92-1.39,16.63,50.45-10.17.52-5.16-16.39ZM1615.41,112.27l-6.38-20.08-6.66,20.23,13.04-.14Z"/>
      <path d="M1458.47,332.18c3.09,14.5-.25,29.79-15.25,31.88-6.01.84-12.02-.43-16.35-4.46-8.98-8.36-8.1-28.23-1-36.36,3.57-4.08,9.22-5.19,14.58-5.2,8.96-.02,16.12,5.24,18.02,14.13ZM1441.01,359.02c4.73-.1,8.11-2.5,9.05-7.04,1.4-6.74,1.42-14.59-.4-21.15-1.44-5.17-5.16-7.34-10.15-7.51-11.88-.39-11.79,14.09-9.39,27.46.99,5.53,4.82,8.36,10.89,8.23Z"/>
      <path d="M781.03,352.65c-2.67,7.66-9.33,11.42-16.47,11.99s-13.77-2.29-17.51-9.08-3.75-14.71-2.77-22.16c1.34-10.25,9.58-16,19.64-15.52,8.13.39,14.71,4.12,17.23,12.27,2.13,6.91,2.5,15.02-.11,22.49ZM772.6,354.48c3.08-8.58,2.3-18.23-.93-26.32-1.52-3.8-5.77-5.02-9.25-5.13-3.08-.1-7.32,1.21-8.53,4.92-2.61,8-2.2,17.15.32,25.18,1.23,3.93,5.24,5.83,8.54,6.03s8.28-.34,9.84-4.68Z"/>
      <path d="M1502.6,318.99l-.07,44.55c-1.56,1.28-4.73.25-6.22-1.46l-24.25-27.9-.47,29.87h-4.91s.12-45.89.12-45.89c1.95-.07,4.51.68,5.39,1.71l5.39,6.35,8.5,10.22,11.18,12.41.43-30.31,4.9.44Z"/>
      <path d="M1298.32,102.07c.32-3.81.22-8.52-2.07-11.32-1.88-2.29-6.2-2.41-8.84-1.96l.02,45h-9.37s0-49.44,0-49.44l18.27-.39c7.5-.16,12.08,6.8,11.84,14.14-.16,4.78-1.69,9.59-5.1,12.61s-8.55,4.13-13.67,3.87v-4.61c5.19.02,8.46-2.48,8.92-7.9Z"/>
      <path d="M1571.84,363.38c-.04.23-9.65,4.02-14.96-5.48l-7.67-13.74-.25,19.85-8.17.03-.75-33.65c-.09-3.94-.56-7.13.16-11.61l12.72-.17c6.57-.09,9.55,4.78,10.34,10.49s.47,12.18-5.37,15.12l3.85,7.88c2.18,4.45,5.92,7.24,10.52,8.85l-.4,2.44ZM1554.87,324.59l-6.11-1.63v17.79c2.47-.09,5.45-.79,6.7-2.29,3.24-3.87,1.63-13.27-.59-13.87Z"/>
      <path d="M672.5,131.17c-7.74,5.29-16.93,4.11-24.56-.32l1.81-7.79c6.3,3.33,10.98,6.27,17.87,4.38,2.34-.64,3.1-5.42,2.33-8.03-1.73-5.86-10.29-6.12-16.38-10.93-6.98-5.52-6.35-17.81,1.1-22.44,6.63-4.12,13.79-2.76,21.43-1.45l-1.22,7.42c-5.93-1.51-9.8-3.11-15.31-1.98-1.69.35-3.08,4.47-2.58,6.12,2.18,7.14,11.32,6.37,17.62,12.25s5.26,17.74-2.11,22.78Z"/>
      <path d="M1404.21,84.71c1.64-.55,4.2-.71,6.18-.6l-15.88,49.62h-9.47s-16.01-49.6-16.01-49.6l9.95-.1,12.83,40.89,12.39-40.2Z"/>
      <path d="M1212,84.57c1.6-.63,4.48-.57,5.85-.05l-16.02,48.99-9.06.28-16.84-49.77,9.97-.14,13.27,41,12.84-40.31Z"/>
      <path d="M1025.41,110.36l-14.56.04-.1,17.67,17.68.36.02,5.44-27.01-.05-.02-49.86,25.68-.03-.15,5.24-16.2-.04.06,16.23,13.67.14c1,.01,1.4,2.83.92,4.87Z"/>
      <path d="M712.08,346.68l-7.45-.57.06-4.66,15.61-.04-.06,19.49c-12.95,5.34-26.72,6.25-31.83-6.13-2.84-6.87-3.49-14.92-1.4-22.17,3.98-13.83,17.39-16.36,31.45-13.62l-1.21,6.71c-10.66-3.5-21.18-3.18-22.28,5.5-1.3,10.32-.47,25.89,6.29,27.62,3.68.94,6.93.3,10.66-.42l.16-11.71Z"/>
      <path d="M1239.95,349.93c-3.26-.88-8.9-.9-12.55-.48l-5.24,14.51-4.73-.09,8.96-27.32,6.47-18.04,7.84-.36,14.33,45.81-8.67.24-6.42-14.28ZM1240.48,344.64l-6.19-16.53-5.61,16.36,11.79.17Z"/>
      <path d="M836.79,120.98c2.68,9.63,12.74,9.12,23.34,5.5l.26,4.97c-13.38,5.17-28.35,4.64-33.07-8.45-2.88-7.98-3.05-16.84-.53-25.09,4.16-13.63,19.57-16.94,33.85-13.14l-1.95,6.63-12.06-1.82c-5.21-.79-10.03,2.84-10.86,8.04-1.25,7.84-1.1,15.78,1.01,23.37Z"/>
      <path d="M840.53,349.25l-14.24-.3-4.65,15.07-5.69-.2,15.4-45.25,7.93-.66,14.34,45.86-8.83.46-4.27-14.98ZM838.82,344.1l-5.65-18.1-5.73,18.56,11.38-.45Z"/>
      <path d="M1154.18,364.38l-4.14-15.05-12.94-.63-5.5,15.32-4.79-.28,5.88-16.77,10.08-28.29,7.83-.56,6.84,22.8.55,9.01,2.92,10.4c1.5.55,3.7,2.44,3.08,3.56l-9.81.49ZM1149.2,344.51l-4.55-17.77-6.24,17.7,10.79.07Z"/>
      <path d="M1278.66,450.9c-3.59,8.89-15.79,10.91-25.68,5.34l2.07-7.52c4.84,3.27,9.52,5.64,15.24,3.78,1.75-.57,2.68-4.71,2.28-6.51-.55-2.48-2.61-4.44-5.13-5.76l-9.25-4.86c-4.75-2.5-5.07-9.28-3.33-14.31,1.46-4.2,6.01-9.14,11.56-8.66l11.61.99-1.44,7.08c-4.3-1.28-8.82-2.69-13.02-1.88-1.5.29-2.51,4.6-1.97,5.99,2.31,6,10.5,5.32,15.91,12.16,3.13,3.96,3.19,9.1,1.15,14.16Z"/>
      <path d="M878.25,360.29c-6.75,6.29-15.76,5.13-22.95,1.02l2.09-6.94c5.39,2.97,9,4.81,14.57,3.71,1.93-.38,3.4-4.51,3.03-6.46-.41-2.14-2.2-4.44-4.36-5.55l-9.51-4.87c-4.14-2.12-5.04-7.73-4.74-11.93s2.76-8.37,7.4-10.15c5.33-2.05,10.85-1.2,16.77.07l-1.48,6.73c-4.79-1.62-9.07-2.82-13.35-1.92-1.56.33-2.65,4.29-2.2,5.69,1.92,5.99,10.35,5.68,15.76,11.44,4.58,4.87,4.02,14.45-1.03,19.15Z"/>
      <polygon points="703.61 133.72 694.09 133.78 694.07 89.31 681.29 89.09 681.14 83.96 716.55 83.98 716.4 89.07 703.59 89.33 703.61 133.72"/>
      <path d="M809.2,360.9c-6.74,5.51-15.02,4.54-21.95.49l1.73-7.24c5.22,3,9.59,5.22,14.94,3.8,1.83-.49,3.14-4.56,2.87-6.43-.26-1.77-2.09-4.37-3.95-5.35l-9.43-4.93c-4.94-2.59-5.85-8.49-4.75-13.79,1.99-9.52,12.37-10.85,23.43-8.54l-1.19,6.99c-4.7-1.51-9.28-2.92-13.5-1.64-1.58.48-2.38,4.84-1.71,6.33,2.26,5.01,11.38,5.14,15.97,11.29,4.12,5.51,3.04,14.55-2.44,19.03Z"/>
      <polygon points="1067 342.89 1066.77 359.13 1082.93 359.34 1082.91 364.1 1058.72 364.12 1057.85 339.76 1058.53 318.79 1081.53 318.54 1082.01 323.48 1066.91 323.68 1066.93 337.87 1080.68 338.04 1080.7 342.8 1067 342.89"/>
      <path d="M1393.56,360.88c-6.63,5.57-15.05,4.54-21.95.42l2.08-6.8c4.99,2.6,9.35,4.84,14.59,3.48,1.79-.47,2.99-4.62,2.68-6.42-.29-1.68-2.17-4.35-3.91-5.22l-7.69-3.87c-4.66-2.34-7.09-6.96-6.98-11.67s2.65-9.99,7.94-11.72,10.24-1.09,16.02,0l-.94,6.77c-4.84-1.25-8.63-2.41-13.06-1.8-1.63.22-2.97,4.27-2.5,5.71,1.99,6.12,9.86,5.36,15.21,11.26,4.81,5.3,4.19,15.12-1.48,19.88Z"/>
      <polygon points="760.11 133.7 750.64 133.82 750.67 89.28 737.38 89.21 737.48 83.96 772.96 83.96 772.82 88.99 760.05 89.28 760.11 133.7"/>
      <path d="M632.81,342.69l-13.91.18.02,16.4,15.56-.11.29,4.89-24.22.03-.03-45.46,22.3-.12c.24,1.02.5,3.99.46,4.89l-14.38.12v14.27s13.66,0,13.66,0l.24,4.9Z"/>
      <polygon points="977.03 342.81 964.26 342.87 964.44 359.16 979.81 359.17 980.39 364.05 955.93 364.15 955.85 318.64 978.65 318.55 978.4 323.59 964.25 323.51 964.29 337.92 977.1 338.01 977.03 342.81"/>
      <path d="M1278.94,360.18c-6.55,6.05-15.73,4.98-22.77,1.14l2.11-6.84c5.2,2.51,8.41,4.17,13.64,3.74,2.07-.17,4-3.91,3.95-5.76-.08-2.68-1.81-5.18-4.35-6.42l-9.04-4.42c-3.66-1.79-4.98-7.12-4.86-10.76.13-3.95,1.98-8.67,5.95-10.81,5.78-3.11,12.12-2.36,18.18-.63l-1.61,6.55c-5.07-1.68-8.96-2.88-13.33-1.62-1.55.45-2.4,4.43-1.89,5.92,1.9,5.61,9.65,5.15,14.74,10.41,4.75,4.91,4.58,14.62-.71,19.5Z"/>
      <polygon points="1142.37 133.67 1133.17 133.86 1133.18 89.23 1119.99 89.12 1120.1 83.99 1155.39 83.97 1154.9 88.99 1142.39 89.03 1142.37 133.67"/>
      <polygon points="1247.41 437.4 1233.69 437.49 1233.66 453.56 1249.44 453.56 1249.37 458.54 1225.33 458.58 1225.24 413.06 1248.44 413.05 1248.3 417.89 1233.66 417.81 1233.65 432.76 1247.5 432.73 1247.41 437.4"/>
      <path d="M1530.63,343.02l-12.32-.13-.21,16.21,16.97.05-.04,4.88-24.77.16.46-45.42,21.33.05c.57.87.61,4.28.14,4.93l-13.78.04-.1,14.05,12.51.13-.19,5.06Z"/>
      <path d="M1039.06,359.41l12.07-1.67-.43,4.49c-6.15,2.33-13.44,3.12-20,1.4-10.68-2.8-13.91-21.84-8.31-34.46,5.11-11.51,16.84-12.16,29.46-10.32l-1.27,6.63-11.98-1.82c-10.52-1.6-11.88,15.97-8.44,29.2.93,3.57,4.8,7.12,8.89,6.55Z"/>
      <polygon points="1108.2 433.65 1108.4 438.33 1094.53 438.32 1094.48 458.66 1086.08 458.67 1086.09 413.01 1109.12 413.07 1109.06 417.98 1094.6 418 1094.44 433.67 1108.2 433.65"/>
      <path d="M375.93,163.69c-8.99,16.15-14.6,39.62-15.73,40.28-2.3,1.34-9.7-3.77-13.07-9.04,6.43-14.33,15.15-26.1,26.42-36.39l3.29,1.63c.76.37-.48,2.77-.9,3.53Z"/>
      <path d="M335.13,204.61c-5.1-1.3-9.29-4.71-12.4-8.14-.28-1.93.51-5.46,1.54-7.3,6.41-11.45,14.48-21.63,23.82-30.69,1.24.24,2.93.88,3.34,1.64s-.3,2.73-.81,3.65c-7.16,12.82-11.34,25.76-15.48,40.84Z"/>
      <path d="M1855.55,167.2c-3.29,11.42-23.37,40.09-27.43,36.72-.65-.54-1.46-2.13-1.55-2.84,7.25-13.83,11.42-27.32,16.48-42.36,5.13,1.68,8.93,4.47,12.49,8.49Z"/>
      <path d="M877.22,133.17c-2.55.52-5.67.65-9.51.72l.02-49.9,9.47.02.02,49.16Z"/>
      <polygon points="1364.14 133.69 1354.78 133.8 1354.78 83.95 1363.98 83.98 1364.14 133.69"/>
      <polygon points="590.37 133.68 581.21 133.78 581.15 84.03 590.35 83.95 590.37 133.68"/>
      <polygon points="731.87 133.69 722.5 133.81 722.5 84 731.87 83.98 731.87 133.69"/>
      <polygon points="1170.93 133.7 1161.62 133.81 1161.53 84.29 1170.89 84.2 1170.93 133.7"/>
      <polygon points="663.64 359.31 663.79 364.23 640.77 364.06 640.82 318.89 649.15 318.87 648.9 359.16 663.64 359.31"/>
      <polygon points="1138.51 453.53 1138.57 458.53 1115.32 458.58 1115.37 413.49 1123.65 413.11 1123.67 453.55 1138.51 453.53"/>
      <polygon points="1003.47 458.24 994.9 458.38 994.83 413.02 1003.37 413.08 1003.47 458.24"/>
      <polygon points="1214.25 363.82 1205.24 363.84 1205.32 318.59 1213.68 318.47 1214.25 363.82"/>
      <polygon points="736.29 364.03 728.11 364.06 728.09 318.33 736.25 318.34 736.29 364.03"/>
      <polygon points="1412.85 363.67 1404.65 364.14 1404.77 318.56 1413.14 318.39 1412.85 363.67"/>
      <polygon points="678.31 363.92 669.76 364.07 669.76 318.89 678.21 318.52 678.31 363.92"/>
      <path d="M728.15,171.26c-6.15,6.16-20.2,18.03-23.84,16.61-.85-.33-.62-2.65-.05-3.55l17.64-27.69c2.56-.18,5.15,1.82,6.64,3.97,2.27,3.28,3.15,7.12-.38,10.66Z"/>
      <polygon points="1365.56 363.95 1357.47 364.13 1357.26 318.79 1365.5 318.5 1365.56 363.95"/>
      <polygon points="902.79 79.96 899.8 77.43 910.02 63.99 915.13 69.59 902.79 79.96"/>
      <path d="M186.55,148.29l39.38-.28-.03,110.53H20.77s.03-110.25.03-110.25l47.66-.14,46.08.02,32.03-.05,39.98.17ZM152.42,248.54c-10.44-10.47-17.12-23-19.84-37.83,17.9.32,34.44,7.97,46.69,21.15l.14-59.77c-12.18,12.76-28.53,19.21-46.13,20.14,1.21-13.85,8.71-24.37,18.76-34.12l-60.4.09c10.49,9.13,17.12,20.35,19.16,33.87-17.24-1.9-32.67-8.95-44.79-20.95l.08,59.34c12.66-13.65,28.61-20.05,45.77-20.04-2.25,15.21-9.54,27.01-19.6,38.12h60.15Z"/>
      <polygon points="170.76 445.55 139.46 445.67 139.43 266.25 170.78 266.2 170.76 445.55"/>
      <path d="M51.98,445.48l-22.98.24c-4.5.05-7.52-3-8.28-7.6l.04-171.89h31.19s.03,179.26.03,179.26Z"/>
      <polygon points="111.96 445.42 80.76 445.66 80.8 266.27 112 266.29 111.96 445.42"/>
      <path d="M225.88,436c-.09,4.87-2.86,9.45-7.2,9.49l-24.12.19v-179.38s31.29.03,31.29.03l.03,169.67Z"/>
    </g>
  </g>
</svg>