<?xml version="1.0" encoding="UTF-8"?>
<svg id="Capa_2" data-name="Capa 2" xmlns="http://www.w3.org/2000/svg" viewBox="0 0 516.66 670.02">
  <defs>
    <style>
      .cls-1 {
        fill: #060606;
      }
    </style>
  </defs>
  <g id="Capa_1-2" data-name="Capa 1">
    <g>
      <path class="cls-1" d="M258.27,24.83l-.19,206.11-22.28.23c-1.7.02-3.36-.03-4.96.66l-12.03.31c-3.53.09-6.9.96-10.51.7-1.51-.11-2.66.58-4.04.66l-7.27.4c-2.66.65-5.16.55-7.88.89l-7.42.92-6.58.83-6.96.93c-1.66.22-3.46.61-5.15.86l-5.77.86-5.58.94-4.88.82-4.77.87-3.99.77-16.62,3.37-7.44,1.77-21.96,5.51-11.25,3.14-13.93,4.47c-14.29,4.59-27.99,9.73-41.86,15.91V71.93s10.31-4.77,10.31-4.77c22.13-9.24,44.53-16.92,67.73-22.54l18.6-4.51,4.28-.95,22.16-4.46,4.5-.72,5.13-.93,5.42-.8c4.14-.61,8.45-1.2,12.45-1.89,2.03-.35,3.85,0,5.85-.83l4.97-.36c2.12-.77,4.09-.48,6.24-.8,3.85-.58,7.44-.83,11.34-.97,1.17-.04,2.53-.96,3.91-.74,3.63.59,7-.45,10.47-.63l15.75-.81,24.21-.41ZM70.43,151.7c0-1.1-.04-2.11.52-3.34l24.95,44.08,12.7.1c.59,0,1.46-.48,1.46-1.26v-84.94s18.68-.07,18.68-.07l.06-13.18-18.65-.07-.17-16.9-13.44.1v16.85s-18.37.04-18.37.04v13.17s18.39.03,18.39.03l-.16,61.9-25.04-44.31-14.18-.04v68.63s13.26.05,13.26.05v-40.85ZM159.94,189.78c6.77-3.98,10.28-10.73,9.98-18.52-.23-5.82-2.24-11.34-7.02-14.81-10.91-7.92-26.42-3.39-28.65-11.44-.6-2.17-.18-4.1.92-5.83,1.66-2.61,4.6-3.42,7.67-3.46,9.97-.13,15.79,5.71,17.14,5.35.36-.1.71-.5,1.02-.96l6.18-9.52c-4.77-4.14-10.47-6.31-16.56-7.25-9.72-1.51-20.33-.43-26.97,6.86-3.7,4.06-4.89,9.07-4.83,14.46.08,7.57,4.14,13.83,11.12,16.86,9.42,4.1,18.35,2.45,22.84,6.39,2.78,2.45,2.59,6.91.12,9.43-5.68,5.78-16.86,3.43-23.92-1.32l-4.34-2.92-7.43,8.36c-.62.69-1.23,1.29-1.04,2.24.11.55.69,1.11,1.36,1.63,11.6,8.87,30.73,11.35,42.43,4.47ZM195.85,179.16c-3.2-1.84-4.83-5.19-5.22-8.63-.91-8.03-.87-15.88-.1-23.92.32-3.3,1.53-6.51,4.19-8.6,2.86-2.25,6.66-2.7,10.41-1.54,5.3,1.64,7.04,7.49,7.85,7.67.37.08.82.05,1.25-.15l11.33-5.06c-2.88-8.86-10.5-14.71-19.62-15.86s-18.54.83-24.6,8.2c-3.75,4.56-5.46,10.27-5.91,16.27-.56,7.4-.58,14.65.07,22.06.6,6.89,3.05,13.38,8.13,18.01,5.12,4.67,11.74,6.04,18.54,6.02,10.55-.03,20.09-5.96,23.38-16.17l-12.75-5.49c-1.45,2.63-2.63,5.08-4.99,6.64-3.44,2.27-8.18,2.7-11.96.53Z"/>
      <path class="cls-1" d="M258.3,670.02l-120.44-83.75-71.75-51.73-19.47-15.57c-10.11-8.97-18.82-18.68-26.44-29.97C7.9,470.07.13,447.87.12,424.91l-.12-368.43,21.85-10.62c20.43-8.86,41.43-16.13,62.94-22.13,111.7-31.19,230.28-31.64,342.21-1.33,22.32,6.04,44.11,13.38,65.34,22.39l24.32,11.71-.18,369.27c-.01,23.56-8.61,46.17-21.46,65.31-8.15,11.59-17.41,21.42-28.08,30.54l-18.42,14.44-65.68,47.34-124.54,86.62ZM258.27,24.83l-24.21.41-15.75.81c-3.47.18-6.85,1.22-10.47.63-1.37-.22-2.73.69-3.91.74-3.91.14-7.5.39-11.34.97-2.14.32-4.11.03-6.24.8l-4.97.36c-1.99.82-3.82.48-5.85.83-4.01.69-8.31,1.28-12.45,1.89l-5.42.8-5.13.93-4.5.72-22.16,4.46-4.28.95-18.6,4.51c-23.2,5.62-45.6,13.3-67.73,22.54l-10.3,4.77v204.81c13.86-6.18,27.57-11.32,41.85-15.91l13.93-4.47,11.25-3.14,21.96-5.51,7.44-1.77,16.62-3.37,3.99-.77,4.77-.87,4.88-.82,5.58-.94,5.77-.86c1.68-.25,3.49-.64,5.15-.86l6.96-.93,6.58-.83,7.42-.92c2.72-.34,5.22-.24,7.88-.89l7.27-.4c1.38-.08,2.53-.77,4.04-.66,3.6.26,6.98-.61,10.51-.7l12.03-.31c1.61-.7,3.26-.65,4.96-.66l22.28-.23c80.64.06,159.18,13.68,233.5,45.66l.02-204.81c-10.64-5.08-21.43-9.32-32.56-13.32-18.57-6.67-37.38-12.06-56.63-16.74-47.34-11.16-95.63-16.99-144.13-16.9ZM162.86,468.76c-8.05-2.72-15.26-6.98-21.09-12.92-7.44-7.58-9.06-17.83-3.89-27.14,7.69-13.82,24.79-24.58,38.82-32.3,14.94-8.23,30.32-14.69,46.08-21.14,7.49-3.06,14.97-3.93,22.84-1.52,4.67,1.43,8.99,3.5,12.46,7.23-.15-22.86-4.64-55.66-28.34-63.84-13.8-4.76-31.1-.47-43.48,6.7-3.65,4.12-5.65,9.59-7.6,14.72-5.12,13.4-7.66,27.24-9.09,41.54-.06.55-1.11.55-1.43.19-.24-.27-.59-.7-.72-1.33l-1.77-8.68c-.54-2.64-1.27-5.16-2.5-7.51-.6-1.14-1.49-1.47-2.78-.96-6.05,2.41-13.05,3.18-19.27.64s-7.8-14.23-19.15-11.57c-4.01.94-7.09,3.28-10.7,5.73,2.68-4.64,6.19-8.17,10.65-10.6,3.5-1.9,7-2.01,10.9-1.42l20.02,3.08c5.58.86,15.22-.23,17.18-4.62l8.42-18.77c-4.15-2.87-8.43-4.09-13.2-4.75-11.93-1.64-23.77-1.21-35.77.39-26.67,3.56-51.04,15.33-70.48,33.94-14.34,13.73-25.6,30.3-33.41,48.52-.16.36-.32.67-.26.97.03.16.28.15.63-.04l15.35-7.82,20.08-10.02-34.98,43.51c-.26.32-.56.48-.54.64.02.19.43.38.63.24s.51-.17.83-.26l28.91-8.65c.21-.06.91-.28,1.16-.28.19,0,.24.53-.34.7l-25.42,29.91-.42.47c-.66.75-1.04,1.29-.71,2.21,8.5,24,26.59,42.92,47.03,57.8l55.07,40.08,125.74,87.81,42.74-29.65-41.68-32.55c-1.02-.52-1.15-1.62-.84-2.41.26-.67,1.18-1.25,2.22-.81l56.83,24.34,59.98-42.13-69.26-29.19c-1.09-.52-1.15-1.56-.8-2.4.29-.68,1.05-1.01,2.18-.78l88.53,17.68,39.63-29.05,15.54-12.51c7.66-6.84,14.6-14.18,20.66-23l-121.94-7.32c-1.2-.07-1.41-1.54-1.2-2.16.24-.71.8-1.19,2.02-1.26l131.16-7.19c4.46-10.69,7.35-22.09,7.38-33.83l.09-33.78-82.32,12.84c-1.32.21-2.12-.11-2.37-1.14-.21-.88.1-1.81,1.32-2.17l83.4-24.95-.04-72.31-8.71-3.79c-14.49-6.5-29.1-11.9-44.65-16.83-3.26,39.96-18.42,75.49-45.64,105.04-23.14,24.5-52.43,42.75-84.62,52.79-29.87,9.32-67.42,10.1-98.14,5.56-17.65-2.61-43.29-9.11-52.48-25.1-9.27,8.31-12.12,18.87-7.17,30.14,3.01,6.64,7.67,12.23,13.23,16.66l.59.44c-.15.29-.5.37-.76.11-.03-.13-.12-.22-.33-.19Z"/>
      <path class="cls-1" d="M372.53,134.09l-12.72-12.97c-7.53-7.67-19.2-12.4-29.05-7.24-6.35,3.32-11.24,9.52-11.83,16.8-1.21,14.76,7.35,27.64,17.29,38.01l10.86,11.33c-8.24-.8-15.56-1.74-23.36-1.74-12.68-13.38-21.96-29.74-20.52-48.56s16.76-32.77,34.83-33.83c13.75-.8,26.19,6.93,35.77,16.65,14.28-15.13,34.27-22.59,52.97-11.06l-3.2,3.41-8.21,8.42c-12.4-5.13-23.1,2.65-31.61,11.58l-8.51,8.94c-.85.89-1.76,1.21-2.71.24Z"/>
      <path class="cls-1" d="M429.09,202.69c-10.36.2-28.63.16-36.39,5.43-3.97,2.7-7.26,6.08-10.4,9.67l-7.54,8.61c-.75.86-2.07.08-2.66-.59l-8.36-9.54-3.54-3.47c-3.07-3.01-6.21-5.74-10.42-7.01s-8.48-2.15-12.94-2.33l-19.7-.77-7.6-.36v-15.6s18.22.4,18.22.4c7.34.16,14.32.97,21.48,2.48,16.94,3.57,22.22,14.13,24.36,14.49s7.04-10.62,23.98-14.33c7.43-1.62,14.64-2.43,22.23-2.65l18.08-.52.1,15.7-8.9.4Z"/>
      <path class="cls-1" d="M367.45,92.03l-4.08-4.23c-2.21-2.29-4.33-4.99-4.75-8.26-.61-4.77,1.13-9.32,3.61-13.24.32-.3.57-.15.68-.06.58.49,0,10.55,6.63,15.02-1.23-6.01-2.36-11.23-1.26-16.8s4.12-10.79,9.67-13.23c-1.5,3.81-2.39,6.98.2,9.62l5.41,5.49c3.62,3.67,5.78,8.42,5.45,13.72-.64,10.39-7.34,18.37-17.09,22.9-.2-4.51-1.59-7.95-4.46-10.93Z"/>
      <path class="cls-1" d="M400.59,180.02l9.02-9.6c8.48-9.03,16.82-19.14,18.54-31.65l15.67-11.31c.99,3.06.64,6.12.41,9.33-1.21,16.74-9.31,29.22-20.37,41.52-7.66-.04-14.73.84-23.27,1.7Z"/>
      <path class="cls-1" d="M390.53,154.99c-.73.53-1.43.4-1.7.08-.49-.59-.09-1.09.38-1.58l16.18-16.95,9.21-9.58,9.8-10.28,8.75-9.15,7.89-8.26c.56-.58.83-.91,1.51-.99.56-.06,1.8.15,1.81,1.08l.08,14.65c0,1.53-.88,2.8-2.07,3.66l-32.01,22.92-19.85,14.4Z"/>
    </g>
  </g>
</svg>