<?xml version="1.0" encoding="UTF-8"?>
<svg id="Capa_2" data-name="Capa 2" xmlns="http://www.w3.org/2000/svg" viewBox="-449 0 1796.25 898.25">
  <g id="Capa_1-2" data-name="Capa 1">
    <g>
      <g>
        <path d="M332.61,19.12c252.22-66.55,511.45,94.89,554.44,352.06.39,2.3,2.16,6.1,2.95,8.54.61,11.75,2.07,23.71,3.01,35.44,15.46,193.31-92.72,372.12-270.75,447.49-29.57,12.52-61.08,21.68-92.87,26.51-.31,1.11.95,2.35,1,2.99.03.41-.82,1.42-1,2h-164.82l2.99-1.01v-.98s-3.99-1.01-3.99-1.01c1.66-.03,3.34.04,4.99,0-.3-1.14-1.63-2.44-2.71-2.77-4.4-1.35-12.35-1.4-17.47-2.51-142.26-30.89-264.84-138.79-316.46-272.89-9.14-23.75-14.95-48.71-21.89-73.01-.71-2.5.87-5.52-2.58-7.41l-.49,1.99h-1c-.53-56.24.4-112.57,0-168.81.02.61,1.92,3.23,1.01,4.99,5.19-3.97,4.8-13.21,6.25-19.21,20.44-84.16,57.44-152.29,117.2-214.43,6.93-7.2,17.87-13.04,23.09-18.37,36.45-37.24,84.27-63.22,131.64-83.46,3.14,2.11,2.12-.76,4.14-1.98,6.24-3.76,20.17-6.26,27.49-8.48,4.84-1.47,10.47-4.28,15.81-5.69ZM761.14,720.34c5.77-3.44,12.62-14.69,17-20.46,113.24-149.35,112.89-351.61-2.43-501.05C645.5,30.09,413.74-13.77,230.42,99.22c-37.32,23-80.14,60.55-106.87,94.97C57.51,279.2,24.71,390.27,37.71,497.32c.86,7.1,1.43,17.97,3.29,24.5.25.87,1.93.75,1.95,1.32.2,4.79-.3,4.55.72,10.17,24.56,135.23,130.97,257.73,259.55,304.82,94.7,34.68,212.14,37.02,305.08-5.91,2.18.4,3.62-.16,5.56-.93,46.82-18.48,95.35-55.09,129.6-90.67,6.07-6.31,14.4-11.5,17.67-20.28Z"/>
        <path d="M608.31,832.21c-92.94,42.93-210.38,40.59-305.08,5.91-128.59-47.09-234.99-169.59-259.55-304.82-1.02-5.62-.53-5.39-.72-10.17-.02-.57-1.7-.44-1.95-1.32-1.86-6.53-2.43-17.4-3.29-24.5-13-107.04,19.8-218.12,85.84-303.13,26.73-34.41,69.56-71.96,106.87-94.97C413.74-13.77,645.5,30.09,775.71,198.83c115.32,149.44,115.67,351.7,2.43,501.05-4.38,5.77-11.23,17.01-17,20.46-1.93,1.15-3.53,2.88-5.99,3,158.42-178.64,132.58-454.04-57.04-598.73C500.37-26.28,216.13,31.78,92.71,246.19c-28.29,49.14-54.48,124.46-52.77,181.47-1.65,1.04-1,3.79-1.02,5.48-.63,59.79,5.3,109.4,26.99,165.33,45.79,118.07,145.7,210.83,267.7,246.22,18.02,5.23,45.36,12.66,63.5,11.6.83-.05,10.81,2.49,15.41,2.89,5.23.45,9.65.84,14.98,1,14.16.43,29.8.49,43.95,0,55.07-1.9,118-19.58,166.81-44.95,1.29,1.51-2.8,3.34-3.69,3.81-8.57,4.47-17.53,9.13-26.28,13.17Z"/>
        <path d="M421.52,1.14c17.39-.7,38.63-.91,55.94,0,144.45,7.63,283.49,94.68,357.6,217.76,27.32,45.38,46.68,98.64,55.94,150.83-1.69,2.19-1.15,7.01-1,9.99-.79-2.44-2.56-6.24-2.95-8.54C844.06,114,584.83-47.44,332.61,19.12l-4-2c16.07-4.35,32.27-8.01,48.74-10.7,8.83-1.44,20.36-1.41,28.51-3.3.81-.19.62-1.89,1.1-1.87,6.01.25,8.88.11,14.55-.11Z"/>
        <path d="M890.99,369.73c20.79,117.16-3.26,236.28-70.11,333.95s-171.16,167.37-287.5,188.47c-.84-.19-2.06.13-3,0-.05-.64-1.31-1.88-1-2.99,31.79-4.83,63.3-13.99,92.87-26.51,178.03-75.37,286.21-254.18,270.75-447.49-.94-11.74-2.4-23.69-3.01-35.44-.16-2.98-.7-7.8,1-9.99Z"/>
        <path d="M328.62,17.12l4,2c-5.35,1.41-10.98,4.22-15.81,5.69-7.32,2.22-21.25,4.71-27.49,8.48-2.02,1.22-1,4.09-4.14,1.98-47.37,20.24-95.2,46.22-131.64,83.46-5.21,5.33-16.16,11.16-23.09,18.37-59.76,62.13-96.76,130.26-117.2,214.43-1.46,6-1.06,15.24-6.25,19.21.91-1.77-.98-4.39-1.01-4.99-.02-.51.91-1.45,1-2,3.32-20.56,11.82-49.19,18.98-68.92C74.47,161.02,191.41,54.22,328.62,17.12Z"/>
        <path d="M6.98,534.54l.49-1.99c3.45,1.9,1.86,4.92,2.58,7.41,6.94,24.3,12.74,49.25,21.89,73.01,51.61,134.1,174.2,241.99,316.46,272.89,5.12,1.11,13.07,1.16,17.47,2.51,1.08.33,2.42,1.63,2.71,2.77-1.66.05-3.33-.02-4.99,0-13.86.28-37.89-7.36-51.71-11.72-49.85-15.75-98.57-41.17-139.08-73.18-5.33-4.21-10.84-8.56-15.98-12.99-21.62-18.62-41.96-38.79-59.11-61.26-4.23-5.54-7.99-10.59-12.81-15.66-9.48-15.57-20.23-30.32-29.14-46.28-23.27-41.7-40.29-88.48-48.77-135.52Z"/>
        <path d="M761.14,720.34c-3.28,8.78-11.6,13.97-17.67,20.28-34.25,35.58-82.78,72.19-129.6,90.67-1.94.77-3.38,1.33-5.56.93,8.75-4.04,17.71-8.7,26.28-13.17.89-.47,4.98-2.3,3.69-3.81,42.34-22.01,85.35-56.36,116.87-91.9,2.46-.12,4.06-1.84,5.99-3Z"/>
        <path d="M213.75,272.83c-10.79,15.43-21.96,31.4-29.96,48.45-61.25,130.6-23.03,288.4,95.97,370.5,158.48,109.33,380.18,41.23,445.42-140.26,2.52.61,2.59-1.92,3.01-3.99l.99,1c-48.66,139.75-190.12,220.82-334.81,194.47-39.69-7.23-72.36-20.68-106.32-42.47-48.25-30.96-85.7-74.04-110.26-126.03-8.57-18.14-14.91-37.41-18.98-56.94-12.39-59.4-9.2-117.85,11.99-173.81,12.76-33.7,31.43-62.83,54.94-89.9,2.07.64.03,2.98-.58,3.91-3.28,4.97-7.78,9.88-11.4,15.07Z"/>
        <path d="M740.16,512.57c-2.4,11.56-6.94,24.33-10.99,35.96l-.99-1c-.42,2.07-.49,4.61-3.01,3.99,34.03-94.66,18.69-200.55-42.97-280.17-87.21-112.61-232.28-143.72-361.58-86.42-4.71,2.09-9.29,4.22-13.83,6.64-3.78,2.02-9.05,7.55-13.14,5.34,222.95-135.76,499.42,60.89,446.5,315.65Z"/>
        <path d="M755.15,577.49c-1.14-4.45-1.18-10.15,4.27-10.86l47.5,24-.28,4.91-4.83.75c-10.01-5.67-20.37-10.74-30.68-15.8-1.16-.57-7.02-5.02-5.98-1.52.77,2.61,8.6,9.03,10.97,11.51,1,1.04,2.01,1.99,3,3,3.91,4.01,8.19,7.95,11.99,11.99,1.3,1.39,6.85,7.29,6.75,8.5l-4.44,4.32-45.25-5.83,2.3,3.19,35.67,17.3c2.23,1.54-.98,5.78-2.66,6.36-2.85.98-1.98-1.57-3.05-1.85-13.48-3.56-26.44-13.3-39.31-19.46-2.33-1.12-6.69.13-6.88-5.03-.04-1.23,3.97-8.48,4.59-8.57l47.29,7.06c.95-3.02-1.3-2.9-1.99-3.99-.45-.71-.4-1.75-1.43-3.02-7.5-9.25-19.23-18.14-27.54-26.94Z"/>
        <path d="M424.51,66.07c-.55,8.75-1.09,17.63-2.12,26.34-.56,4.69-4.15,30.3-5.81,32.15-1.56,1.74-4.99,2.35-6.56.45l-19.46-44.95-7.69,49.73c-.72,2.33-5.3,1.4-6.88.28l-21.4-54.01c2.56.23,5.04-1.86,6.42,1.04l15.77,42.19,2.78,1.71c.04-6.29.33-13.12,1.13-19.35.52-4.05,3.73-26.41,4.8-28.16,1.61-2.62,6.13-3.58,8.57-1.44l17.96,42.95,3.37-17.6c1.76-8.27,0-19.92,2.33-27.64.7-2.33,4.47-3.98,6.79-3.69Z"/>
        <path d="M566.35,820.22c-12.21,4.41-14.92-5.65-22.44-12.01-8.81-7.45-12.95-7.1-23.58-2.38l5,23.76c-.41,1.37-4.65,2.98-5.93,2.2-3-1.84-7.48-31.43-9-36.78-4.94-2.7-1.84-3.76-2.01-7.22-.1-2.09-3.4-8.97-1.54-11.58,10.12-1.9,26.04-8.73,35.99-6.88,4.22.79,9.03,6.95,10.06,10.91,2.52,9.72-3.76,14.21-10.49,19.51,8.94,3.63,15.23,11.24,22.27,17.66.97.89,2.14.9,1.68,2.81ZM514.54,780.39c-1.02,1.56,2.03,15.26,3.35,16.87,2.05,2.49,16.48-1.67,19.84-3.16,7.32-3.22,11.64-9.15,5.5-16.19-5.52-6.33-21.58,1.01-28.7,2.48Z"/>
        <path d="M375.57,769.28c2.71-2.43,6.31,1.37,7.83,3.66,6.97,10.48,10.66,28.97,16.95,39.99.57.99,1.75,2.89,2.71,3.29,2.05.84,1.34-1.38,1.61-2.35,3.34-12.23,4.3-25.15,6.92-37.55l6.95-.05c-3.44,15.8-4.99,32.09-7.99,47.94-.81,4.27-1.14,8.94-6.4,8.99-3.52-3.07-4.54-6.37-6.61-10.26-3.51-6.57-6.58-14.79-9.41-21.67-2.55-6.2-4.79-14.65-9.53-19.02.41,4.37-1.23,8.41-1.87,12.61s-.91,6.63-1.84,11.15-2.03,13.55-3.49,17.49c-1.11,3-4.47,1.39-6.7.6,2.36-13.85,5.32-27.63,7.78-41.48.81-4.57.12-8.88,3.12-13.36Z"/>
        <path d="M505.43,103.03l14.98,28.95-9.77-2.21c-5.72-13.43-10.45-32.43-29.3-28.16l-3.35,23.44-6.47-.09,6.98-55.84c1.17-1.12,28.72,3.22,32.16,4.21,17.02,4.91,12.76,30.44-5.22,29.71ZM484.59,76.2l-2.18,16.35c.25,3.48,11.41,4.29,14.53,4.47,6.74.4,14.17,1.49,16.93-6.03,5.17-14.13-21-14.81-29.28-14.79Z"/>
        <path d="M748.16,298.8c4.98-2.04,36.88-22.78,38.98-21.55,3.36,1.97.43,6.58-2.1,8l-44.26,25.38c-2.66-1.58-4.4-4.83-3.2-7.85l22.54-45.94c-.62-.6-5.52,2.21-6.66,2.82-8.17,4.37-21.5,15.06-29.26,17.7-1.14.39-2.71.93-3.84.26l-2.16-4.22c5.52-3.65,46.52-29.25,49.26-28.46,2.31.66,3.35,5.84,2.2,7.92l-20.76,41.2-.76,4.73Z"/>
        <path d="M681.95,685.6c12.79-2.64,26.16,6.4,32.43,17.06,12.85,21.83-5.38,31.38-18.81,45.57l-39.21-39.58.83-2.84c7.47-4.47,16.45-18.49,24.76-20.2ZM687.73,691.9c-5.76-.13-22.68,11.62-21.36,16.74,1.08,4.16,24.45,22.29,27.29,28.74.82.82,1.69,1.14,2.84.83,2.81-.74,13.66-13.87,14.75-17.32,3.41-10.83-12.69-28.75-23.52-28.99Z"/>
        <path d="M728.42,691.09c-.59-.26-9.48-5.79-10.73-6.72-28.64-21.19-2.61-62.38,28.85-45.83,18.15,9.55,23.82,33.81,6.54,47.26-5.41,4.21-18.41,7.97-24.66,5.29ZM725.91,641.65c-9.43,1.94-16.66,16.48-12.9,25.43,5.88,13.98,25.96,24.48,38.18,11.84,16.75-17.33-6.7-41.1-25.29-37.27Z"/>
        <path d="M169.55,195.19c26.51-3.64,48.67,30.43,26.22,50.19-23.83,20.98-61.67-12.55-43.8-38.8,3.8-5.58,10.78-10.45,17.57-11.39ZM172.56,201.18c-4.96.18-11.77,4.28-14.75,8.23-8.69,11.55-1.97,23.32,8.07,30.87,19.1,14.36,40.61-5.99,29.53-24.53-3.82-6.39-15.21-14.85-22.85-14.57Z"/>
        <path d="M317.13,90.61c29.15.41,39.13,50.02,8.14,57.51-40.29,9.74-51.67-58.12-8.14-57.51ZM310.37,97.26c-4.29.9-10.06,6.01-12.15,9.83-7.51,13.77,5.26,38.16,22.66,35.66,28.72-4.12,16.51-51.13-10.52-45.49Z"/>
        <path d="M710.93,194.16c31.61-5.92,45.84,35.59,16.28,52.24-32.52,18.32-58.8-26.39-26.31-47.29,2.36-1.52,7.47-4.47,10.03-4.95ZM729.82,235.52c17.74-17.7-1.08-43.71-21.93-32.42-12.29,6.66-20.95,20.15-11.51,33.1,8.9,12.2,23.89,8.85,33.44-.68Z"/>
        <path d="M587.29,93.08c-.38,1.84,1.45,7.3-1.42,6.93-5.3-.68-28.78-11.25-31.51-9.54-1.79,2.92-5.96,13.81-4.09,16.12,2.79,3.44,23.13,5.93,27.46,9.31,1.89,1.48.02,5.95-2.69,5.9-4.99-.1-24.38-9.97-27.2-9.56-3.5,5.27-6.15,13.25-6.34,19.63.92,1.31,26.87,6.97,30.41,10.04,3.07,2.67,1.46,7.2-2.81,5.87l-37.29-12.76,18.52-53.52,36.96,11.56Z"/>
        <path d="M635.46,758.47c-2.05,3.5,7.91,14.15,9.37,17.86,3.35-.01,22.51-16.64,28.37-18.62,1.07-.36,2.06-.81,3.07.02,1.25.91,1.18,2.5.8,3.85-.98,3.44-29.46,20.22-34.2,23.6l-31.57-47.86c5.99-.73,31.3-21.42,34.32-20.85,2.26.43,3.33,3.29,1.71,5.41-2.55,3.33-26.56,15.99-25.64,19.47l9.19,12.86,23.32-15.48c5.33-1.73,6.84,2.24,2.99,6.01-3.09,3.03-21.09,12.61-21.74,13.72Z"/>
        <path d="M601.31,745.31c-.23,1.92.78,4.51-.64,6.1-2.96,3.3-26.86,9.41-28.22,13.56.61,4.94,3.34,11.17,6.49,15.23,1.53.35,22.76-10.67,27.33-11.52,5.34-.99,3.31,5.17-1.41,7.65-2.91,1.53-21.69,8.03-22.35,9.1-1.84,2.99,4.44,15.64,6.44,18.77l30.11-12.77c2.28-.54,4.83,1.98,4.17,4.21-.77,2.6-34.45,14.32-38.87,17.61-5.81-14.46-12.08-28.76-18.1-43.15-.31-.73-1.5-.79-1.8-1.6-.52-1.42-1.45-6.26-1.17-7.52l34-15.18,4.02-.47Z"/>
        <path d="M642.4,169.09c9.96-.58,3.81,7.19,4.11,12.1.65,10.36,20.35,24.57,25.99,11.47,4-9.3-18.74-24.63-14.8-36.75.98-3.01,5.95-7.9,9-8.98,12-4.25,29.02,10.08,28.61,22.53-.12,3.6-2.89,11.11-7.15,8.05-2.37-3.35.36-7.07.03-10.93-.84-9.62-21.15-21.99-22.91-8.03-1.48,11.74,25.32,26.17,10.51,41.4-15.04,15.46-46.41-12.17-33.37-30.86Z"/>
        <path d="M631.97,115.3c2.65,3.2-.19,9.42-.56,13.32-.51,5.43-.62,11.43-1.25,16.74-1.24,10.44-4.53,20.86-3.88,31.58-12.71-1.17-4.14-14.12-5.9-22.25-.53-.85-15.59-9.65-17.13-10.2-7.81-2.76-14.17,16.31-22.89,6.97l44.36-37.54c1.91-1.86,5.82-.36,7.25,1.37ZM627.28,120l-20.93,18.55c-.57,2.55,13.25,8.34,15.46,10.39,1.67-.1,2.2-12.62,2.65-15.3.76-4.6,2.19-9.04,2.83-13.64Z"/>
        <path d="M454.48,782.27l38.96-4v6c-5.97-.23-12.08,1.69-17.82,2.45-1.74.23-3.73-.85-5.48-.47-.51.11-1.35,3.87-6.09,1.13-3.19.72-.32,14.75.38,17.45l25.37-1.43,1.71,2.36c.89,3.12-5.54,5.08-7.82,5.31s-4.04-.95-5.73-.83c-4.33.31-8.83,1.79-13.48,1.01l2.01,26.97-6.99.99c.44-10.25-2.03-20.41-2.99-30.48-.37-3.83-.65-7.85-1.01-11.47-.54-5.38.12-9.18-1-14.98Z"/>
        <path d="M115.9,273.78c6.35-.02,9.44,7.96,15.82,6.92,1.53-3.46,11.09-21.2,13.6-21.55,10.01-1.41-7.69,22.56-9.38,25.18,3.35,5.06,20.1,9.83,20.89,15.03.42,2.74-.38,4.82-3.44,4.46l-46.45-28.63c-.44-1.5.77-3.08,1.39-4.38,2.44-5.2,11.62-20.37,15.08-24.87s8.69-4.35,7.23,1.19c-1.14,4.3-17.2,23.83-14.74,26.67Z"/>
        <path d="M135.83,555.52c1.33,1.06,2.76,1.09,3.82,2.67,2.57,3.85,13.02,30.76,14.69,36.26.39,1.28.81,2.57.38,3.92l-5.78.97-6.13-16.87-47.83,17.91-2.03-5.31,46.87-18.59c.54-.43-3.52-7.84-4-8.98-1.2-2.87-1.49-6.48-3.99-9.42.18-.79,3.09-2.39,3.99-2.56Z"/>
        <path d="M192.51,165.12c1.15-.22,2.21-.45,3.25.31l30.67,35.38c4.35,1.13,16.17-15.43,20.97-16.76,2.58-.71,3.93,2.01,4.14,4.23-.31,1.6-22.44,20.9-24.57,21.44-.86.22-1.67.38-2.54.06l-35.18-39.84c-1.57-2.51.92-4.36,3.26-4.82Z"/>
        <path d="M237.39,129.1c2.47-.22,23.52,36.87,27.29,41.39,1.08.91,1.88.36,2.95-.06,4.36-1.71,18.84-13.98,21.33-13.37,2.01.49,3.17,2.81,2.24,4.87-1.89,4.14-23.51,13.44-27,18.98l-31.34-47.61c-.26-1.56,3.2-4.09,4.54-4.2Z"/>
        <path d="M118.85,436.66c1.91,1.77-12.17,9.66-12.8,11.68-1.25,4.01,4.41,15.68,3.81,16.28l-13.48-7.98-16.48,7.97c6.52-11.77,5.7-18.77-7.82-23.12l-.18-3.84,15.97-1.52,7.52-15.46c3.41-.77,3.64,12.72,6.91,15.05,3.63,2.59,12.31,1.97,16.55.93ZM97.87,430.65c-5.12-.58-5.33,4.8-7.92,7.57-2.18,2.33-5.1,2.47-7.05,4.92,4.92,3.43,3.49,8.43,4.99,13.48,1.53,1.06,7.34-3.65,9.49-3.63,2.52.02,3.79,3.9,6.48,3.63-2.73-8.17,2.29-9.47,4-15.96-1.64-.56-5.74-1.19-6.72-2.3-.41-.47-.32-1.8-.89-2.59-1.13-1.55-3.48-1.1-2.38-5.12Z"/>
        <path d="M320.63,184.93c-3.68,3.11-8.48,6.42-12.62,8.85-31.12,18.26-60,38.55-83.98,67.35-3.03,3.64-4.94,10.5-10.28,11.7,3.62-5.18,8.13-10.1,11.4-15.07.61-.93,2.66-3.28.58-3.91,20.01-23.04,41.83-41.05,67.92-56.94,4.09,2.21,9.35-3.32,13.14-5.34,4.55-2.42,9.13-4.56,13.83-6.64Z"/>
        <path d="M353.59,762.29l5.55,2.01c.18.37-.38,7.52-.57,8.3-2.01,7.98-7.08,19.97-9.97,29.65-.94,3.15-1.18,7.42-2,9.99-.37,1.16-2.57,5.56-3.66,5.9l-5.41-1.55c2.16-11.01,5.93-21.6,9.07-32.32.42-1.45.51-3.31,1-4.99.52-1.79,1.36-3.76,2-5.99.42-1.46.5-3.3,1-4.99.4-1.36,2.72-4.79,3-5.99Z"/>
        <path d="M798.1,434.65l1.99.49-2.99,3.5c-1.92.94-3.71,2.13-5.99,2.01l6.06,13.95,13-1.4c1.31-2.81.76-4.87,2.92-7.57,1.45-1.81,5.62-4.98,7.84-6.15l-.86-1.83h7c-3.72,4.27-9.53,6.27-12.57,10.93l4.57,16.03-13.46-8.6-16.5,9.6c1.14-6.45,6.3-14.11,1.03-19.51-2.76-2.82-7.78-4.91-10.02-8.44,5.67-.38,13.19.14,17.98-3.01Z"/>
        <path d="M798.1,434.65l6.49-14.96,7.48,16.47c4.75,1.06,9.7.29,14.51.49,2.27.09,1.82-.54.48,1h-7s.86,1.84.86,1.84c-2.23,1.16-6.39,4.33-7.84,6.15,1.89-4.88-.81-3.76-1.99-5.76-1.38-2.35.61-4.15-3.5-4.18l-.61-3c-4.25,1.07-5.22,3.65-9.89,5.95l2.99-3.5-1.99-.49Z"/>
        <path d="M132.84,669.39c.8-5.21,9.98-16.12,10.9-23.57.73-5.86-3.25-13.68-7.96-17l-19.6,12.45c-2.17.21-6-4.46-3.39-6.41l46.57-28.42c1.86-.24,1.19.37,1.71,1.27,4.06,7.09,16,24.36,16.67,31.33.6,6.26-3.77,12.01-9.27,14.54-9.17,4.2-12.77-.85-19.64-6.17-.77,10.33-6.05,21.72-12,29.97-2.06-2.77-4.6-4.04-4-7.99ZM156.5,615.57c-.7.19-11.71,7.31-12.22,7.83-1.14,1.15-1.56,1.54-1.31,3.3.29,2.03,9.47,15.99,11.35,17.71,7.87,7.22,17.35,2.03,15.23-9.25-.42-2.26-8.74-17.34-10.27-18.69-1.01-.89-1.25-1.33-2.79-.9Z"/>
        <path d="M267.69,734.32c2.73-5.12,5.6-11.15,10.01-3.61-.14,2.65-2.06,4.53-3.02,6.61-.87,1.88-7.46,13.34-6.99,13.97l24.69,12.88c1.29.42,1.88,0,2.78-.86,2.86-2.71,6-14.4,8.91-18.09,2.54-2.09,5.83.36,7.37,2.58l-25.34,48.39-3.35,1.99c.18-2.07-2.55-2.29-2.98-3.57-1.52-4.56,11.94-21.38,10.45-24.32-.67-1.31-24.29-13.35-25.95-13.07l-11.66,22.98c-1.35.96-6.44-1.83-6.78-3.56,7.64-13.89,14.4-28.34,21.84-42.32Z"/>
        <path d="M193.77,656.41l1.57,4c-11.15,15.15-48.95,30.35-21.9,49.79,6.88,4.6,13.69-1.58,18.81-5.87,7.61-6.39,15.04-14.74,22.51-21.45,2.4-2.26,7.09,3.96,4.99,6.49-1.35.47-3.76,2.49-5.01,3.49-10.56,8.45-23.31,28.6-39.22,25.26-7.1-1.49-15.69-9.86-18.09-16.86-2.17-6.34-1.3-10.9,2.19-16.57,2.54-4.12,23.38-24.23,27.66-27.27,3.33-2.37,3.02-1.6,6.49-1Z"/>
        <path d="M224.73,700.36c-.29-3.67,2.46-6.16,5.97-4.5,1.95.92,9.07,7.35,11.69,9.31,3.53,2.63,5.8,4.83,8.79,7.18,3.77,2.97,17.24,8.65,10.06,14.05-3.78,2.84-7.19-4.63-10.06-7.05-5.97-5.03-6.9-2.56-11.45,2.52-7.33,8.2-12.87,18.41-20.01,26.44-1.41,1.58-4.37,6-6.31,5.84-2.72-.23-4.84-3.18-3.16-5.79l28.3-36.68c.23-2.7-11.22-10.47-13.84-11.31Z"/>
        <path d="M725.18,551.52c-65.24,181.49-286.94,249.59-445.42,140.26-119-82.1-157.22-239.89-95.97-370.5,8-17.05,19.17-33.02,29.96-48.45,5.34-1.2,7.24-8.05,10.28-11.7,23.98-28.81,52.87-49.09,83.98-67.35,4.14-2.43,8.94-5.75,12.62-8.85,129.3-57.29,274.37-26.18,361.58,86.42,61.66,79.62,77,185.51,42.97,280.17ZM438.5,190.92c-.34,0-.76-.08-1,0-4.21,1.31-4.65,14.03-6.54,17.94-1.15,2.39-7.42,7.16-9.12,9.36-3.44,4.49-4.85,12.67-11.32,12.65.36-3.86-4.29-1.08-6.43-1.07-.91,0-2.33-1.18-2.56-.93-.17.19.32,1.86-.26,2.68-1.44,2.03-8.62,6.55-10.77,8.77-5.84,6.02-8.34,17.65-8.9,26-.41,6.13,1.66,19.42.78,23.75-.95,4.67-10.22,16.22-10.88,21.16-2.62,19.49,7.92,41.71,18.21,57.82,4.03,6.3,9.5,11.84,12.81,18.65-.59.03-2.01.88-3.44,1.01-9.19.78-12.43-2.65-17.53,6.99-.11.21-1.24.4-1.48,1.02-1.07,2.8-1.14,37.93-.45,42.36.46,2.96,4.31,7.81,6.95,9.04,3.45,1.61,9.8-.99,12.06,1.92,1.66,2.14.46,5.37,1.14,7.85,2.71,9.92,6.93,19.04,8.66,29.3,3.61,21.37,8.31,43.77,13.32,65.67.39,1.68-.39,3.83-.03,4.91,1.88,5.66,1.07,3.46,1.95,8.98,3.11,19.7,10.09,36.88,11.87,57.14.14,1.59,1.74,3.32,1.68,4.06-.11,1.38-5.02,6.08-5.67,7.28-2.85,5.29-2.84,11.43-4.03,17.18l1.98-1.02c.97,6.3-3.05,12.34-3.07,18.49-.04,16.18,11.64,29.84,28.44,29.36.98-.03,12.91-2.64,13.82-3.08,5.09-2.44,12.36-15.17,13.5-20.54,1.95-9.19-1.9-9.67-2.77-16.71-1-8.1,2.28-16.02-2.53-23.44-1.69-2.6-9.19-8.65-9.2-10.34,1.83-7,4.31-14,5.92-21.04,11.48-49.93,23.15-99.56,34.81-149.49.2-.85-.2-2.08.2-3.26,1.58-4.71,8.5-1.84,12.09-2.93.46-.14,5.48-4.19,5.66-4.58,3.22-7.02,2.71-39.24.6-47.23-2.55-9.68-14.24-7.4-21.54-7.92-7.52-2.07-2.63-2.12-1.44-5.93s1.53-10.12,2.7-14.28c9.35-33.29,23.68-65.63,10.47-100.89-.15-.4-5.07-11.21-4.74-5.75-1.04-2.05-8.57-12.55-10.01-13.56-1.65-1.15-2.71.57-2.97.57s-3.52-3.23-3.75-3.71c-3-6.27-2.65-15.49-5.48-22.52-1.02-2.55-2.05-5.47-4.75-6.74-1.6-4.8-6.65-10.85-6.85-11.68-.41-1.77,2.51-7.82-1.81-9.2-2.8-.9-4.42,2.04-5.71,1.84-2.43-.38-2.36-7.39-8.2-7.92-2.38-.21-4.56,1.17-6.9,1.08-4.8-.18-8.78-1.26-14.03-1.08-1.92.06-4-1.03-3.45,1.99ZM340.94,340.09c.63-.82,2.6-1.12,3.2-2.31,2.14-4.24-5.14-11.85-8.82-10.87-.39.1-6.22,4.04-6.64,4.42-3.65,3.36-8.8,9.64-12.35,13.12-9.72,9.54-16.78-.98-25.83-6.04-19.02-10.65-38.65-14.27-57.7-3.07-13.98,8.22-22.37,25.99-24.95,41.98-.5,3.08-2.42,22.87-2.05,24.75.14.73,1.74.54,1.93,1.3,1.49,6.06-1.1,10.3,2.61,18.2,6.29,13.38,14.13,21.73,28.14,26.8,2.99,1.08,7.47-.32,10.09,3.74-4.02,5.83-6.16,20.02-15.2,19.47-6.66-.41-7.62-4.34-15.91-1.73-18.63,5.87-24.28,26.94-27.59,44.32-2.52,13.26-6.34,37.1,1.05,48.7,3.64,5.71,7.64,6.61,14.27,5.58,7.19-1.12,7.99-3.71,11.52-8.48,5.21-7.04,8.17-14.15,12.33-22.87.27-.57,1.2-.52,1.57-1.32,3.42-7.48,2.32-17.57,13.13-14.73,8.76,2.3,20.51,11.6,31.15,14.79,25.81,7.73,41.13-8.88,54.11-29.36,16.09-25.38,26.33-56.48,9.98-84.67-9.12-15.74-26.58-19.61-43.32-22.59,5.42-8.52,10.5-17.29,16.56-25.4,8.87-11.88,19.75-22.02,28.72-33.72ZM678.23,492.59c25.66-29.53,32.19-107.83,7.7-138.57-20.5-25.73-57-25.14-86.37-19.52-11.77,2.25-29.43,10.01-39.45,2.28-3.45-2.66-2.74-8.11-9.19-7.01-4.47.76-4.31,7.94-3.33,11.28.76,2.6,12.79,19.28,15.24,21.72,1.35,1.35,6.66,5.2,8.27,5.7,5.91,1.83,14.09-1.03,20.22,3.75-9.44,7.27-9.29,22.32-8.99,33.46-4.63,0-7.99-3.58-12.63-3.92-12.69-.94-21.21,19.85-18.13,30.19.88,2.95,5.47,6.29,8.81,5.27,5.91-1.79,6.56-7.01,7.01-12.51,14.05-1.37,11.14,15.37,12,24.37.24,2.54,2.09,4.09,2.02,8.05-.14,8.43-2.89,24.1-8.54,30.5-2.44,2.77-5.87,3.8-8.03,5.96-5.99,5.98-12.16,12.78-15.49,19.98-.08.18-1.52.54-1.86,1.69-.82,2.83,3.56,8.94,6.42,9.34,6.48.05,9.34-6.63,14.28-9.18l-.84-1.8c3.03-4.37,26.28,3.57,31.1,5.3,7.86,2.81,15.05,7.5,23.32,9.28,4.46-.96,8.84-2.26,13.26-3.39,1.28-.33,2.64.7,3.6.51,6.57-1.34,32.04-21.12,37.23-27.06,1.36-1.56,2.46-3.49,2.35-5.65ZM353.59,584.49c-8.57,8.54-12.75,3.03-22.01,5.46-2.41.63-9.45,6.86-9.93,6.5.53-4.23-5.83.27-5.02-3.97,5.41-.45,9.66-7.36,5.58-12.09-1.99-1.58-21.19-3.02-23.26-2.19-1.06.42-2.12,1.37-2.75,2.33-5.04,7.68-.9,27.09-2.61,36.46,1.42,1.25,2.6,4.78,3.45,5.54.72.64,16.71,2.04,19.08,1.98,3.13-.08,5.96-2.04,8.02-1.99,1.72.04,3.22,1.7,5.03,1.86,8.51.74,13.82.84,18.89-6.64,1.22-.15,6.06,2.81,6.53,3.69.32.61-.72,2.72.55,3.06,3.43-.4,7.43.5,10.73-.26,1.75-.4,3.83-2.65,4.22-2.64.61,0,1.78,2.21,3.19,2.66,9.26,2.94,13.76-12.56,4.56-14.6-6.73-1.49-8.26,3.81-10.76,3.83-5.43.05-2.2-9.83-3.5-13.01l6.03-.46c5.03-7.42-2.13-8.18-5.69-11.87-2.53-2.61-1.83-7.71-9.7-5.69-1.18.3-.47,1.88-.63,2.04ZM526.4,582.49c-1.55-1.04-4.09-3.7-5.65-3.82-.59-.04-10.55,3.78-11.04,4.1-.28.19-4.02,5.11-4.13,5.43-.81,2.52.29,2.83.84,4.27l6.71,12.49c-3.87,2.41-1.38,15.18,1.01,17.52,1.53,1.5,3.38,1.57,5.27,1.96.81.17,2.05-.03,3,0,.85.02,1.49,1.16,3.24.06,3.22-2.02,4-6.3,6.25-9.03l5.51,9.97c1.7-.25,3.24-.88,4.98-1,7.94-.54,8.85-.45,15.52-5,.89-.61,1.11-2.41,1.72-2.76.86-.49,2.3.03,2.93-.3.98-.52.83-1.63,1.47-1.83,1.01-.32,12.6.38,13.67,1.04,2.58,1.61,3.63,8.4,7.2,8.88,1.28.17,6.53-.86,7.51-1.52s-.99-4.97,3.61-5.34c3.03.5,6.78,5.97,9,6.64,1.97.59,10.49.52,12.72.14,7.25-1.25,11.47-9.48,11.24-16.29-.08-2.23-2.37-7.86-2.56-10.05-.13-1.5,1.04-3.7.93-6.03-.16-3.44-2.18-8.01-5.13-9.94-10.65-6.97-16.76-1.38-25.41,5.22-8.7-13.93-19.79-6.74-25.47,5.18l-1.91-.1-.62-1.96-3.44,1.06c1.82-6.76-11.27-13.45-16.21-12.81-2.18.28-5.48,2.05-7.77,2.82-2.62.89-8.65,4.06-10.54,3.95-1.57-.09-3.04-2.01-4.44-2.95Z"/>
        <path d="M97.87,430.65c-1.1,4.03,1.25,3.57,2.38,5.12.57.78.48,2.12.89,2.59.97,1.11,5.07,1.74,6.72,2.3-1.71,6.5-6.72,7.8-4,15.96-2.69.28-3.96-3.6-6.48-3.63-2.15-.02-7.96,4.69-9.49,3.63-1.49-5.05-.07-10.05-4.99-13.48,1.95-2.45,4.86-2.59,7.05-4.92,2.59-2.76,2.8-8.15,7.92-7.57Z"/>
        <path d="M797.1,438.65c4.67-2.3,5.63-4.88,9.89-5.95l.61,3c4.11.03,2.12,1.83,3.5,4.18,1.18,2,3.88.88,1.99,5.76-2.16,2.7-1.61,4.75-2.92,7.57l-13,1.4-6.06-13.95c2.29.12,4.07-1.06,5.99-2.01Z"/>
        <path d="M340.94,340.09c-8.97,11.69-19.85,21.83-28.72,33.72-6.06,8.11-11.14,16.87-16.56,25.4,16.74,2.97,34.2,6.85,43.32,22.59,16.34,28.2,6.1,59.29-9.98,84.67-12.98,20.48-28.3,37.09-54.11,29.36-10.64-3.19-22.39-12.49-31.15-14.79-10.82-2.84-9.71,7.25-13.13,14.73-.37.8-1.29.75-1.57,1.32-4.16,8.72-7.12,15.83-12.33,22.87-3.54,4.78-4.34,7.36-11.52,8.48-6.63,1.03-10.64.13-14.27-5.58-7.39-11.6-3.57-35.43-1.05-48.7,3.31-17.38,8.96-38.46,27.59-44.32,8.29-2.61,9.25,1.32,15.91,1.73,9.03.55,11.17-13.63,15.2-19.47-2.61-4.06-7.1-2.66-10.09-3.74-14.02-5.07-21.86-13.42-28.14-26.8-3.71-7.9-1.12-12.14-2.61-18.2-.19-.76-1.79-.57-1.93-1.3-.37-1.88,1.55-21.67,2.05-24.75,2.58-15.99,10.98-33.76,24.95-41.98,19.05-11.2,38.68-7.58,57.7,3.07,9.05,5.06,16.11,15.58,25.83,6.04,3.54-3.48,8.69-9.76,12.35-13.12.42-.39,6.25-4.32,6.64-4.42,3.67-.98,10.96,6.63,8.82,10.87-.6,1.19-2.57,1.49-3.2,2.31ZM290.66,403.68c12.09-25.66,31.02-47.49,51.48-66.9l-6.03-7.99-25.1,25.85-3.34-.42c-43.09-37.52-93.92-27.74-97.91,34.99-2.07,32.55,10.24,57.58,45.93,57.92l-15.96,30.05c-10.44-2.69-18.76-8.4-28.9-.99-15.31,11.18-20.92,51.83-21.13,69.83-.12,10.47,3.21,22.43,16.08,19.02,11.96-3.17,25.95-39.69,28.95-51.46,1.11-.25,1.94.12,2.94.53,19.18,7.7,41.93,29.64,64.71,16.69,34.21-19.45,63.06-99.5,18.29-121.65-9.32-4.61-19.7-5.96-30.01-5.46Z"/>
        <path d="M485.44,215.9c.1.3-.1.7,0,1-7.74-10.53-18.89-24.52-32.96-24.97l-.99.5c-1.15,4.01,2.63,4.73,3.99,6.49,10.12,13.14,4.08,32.61,4.95,48.49.61,11.14,1.66,26.27,14.03,30.42.08.5-.18,1.12,0,1.48l.99.52c-.06,1.66.09,3.34,0,4.99-.01.2-.98.69-1,1-12.61.69-20.96-2.75-23.74-15.72-2.79-13.02,2.37-25.2,1.76-38.22-2.47-.23-4.62.32-6.51,1.98-5.26,4.6-8.93,30.2-11.74,38.21s-9.77,20.23-19.71,18.75c-.06-.79-2.25-1.57-2.85-2.63-10.33-18.16,7.46-18.06,14.64-30.03,4.34-7.24,5.64-16.12,9-23.96,2.86-6.67,7.27-12.25,9.33-19.64,2.24-8.06,1.47-13.79-.13-21.92-.47-1.11-4.71-1.71-6.01-1.71-.56-3.02,1.52-1.93,3.45-1.99,5.25-.17,9.23.9,14.03,1.08,2.34.09,4.53-1.3,6.9-1.08,5.84.53,5.78,7.54,8.2,7.92,1.29.2,2.9-2.74,5.71-1.84,4.32,1.38,1.4,7.43,1.81,9.2.19.83,5.24,6.88,6.85,11.68Z"/>
        <path d="M549.37,513.57c3.32-7.19,9.5-14,15.49-19.98,2.16-2.16,5.58-3.19,8.03-5.96,5.65-6.4,8.39-22.07,8.54-30.5.07-3.96-1.78-5.51-2.02-8.05-.86-8.99,2.06-25.74-12-24.37-.45,5.5-1.1,10.71-7.01,12.51-3.35,1.02-7.93-2.32-8.81-5.27-3.08-10.34,5.44-31.13,18.13-30.19,4.64.34,8,3.91,12.63,3.92-.3-11.14-.45-26.19,8.99-33.46-6.13-4.78-14.32-1.92-20.22-3.75-1.61-.5-6.92-4.36-8.27-5.7-2.45-2.44-14.48-19.12-15.24-21.72-.98-3.34-1.13-10.52,3.33-11.28,6.44-1.09,5.74,4.35,9.19,7.01,10.02,7.73,27.69-.03,39.45-2.28,29.37-5.62,65.87-6.22,86.37,19.52,24.49,30.74,17.96,109.03-7.7,138.57-4.46,5.13-12.23,12.05-17.83,15.87-1.01.69-2.04,2.86-3.15.11,16.87-12.6,27.35-25.45,33.46-45.95,12.74-42.78,14.41-122.45-45.91-126.9-14.83-1.09-34.06-.19-48.69,2.33-7.01,1.21-20.21,6.17-26.25,5.73-2.76-.2-7.24-1.93-9.45-3.58-2.6-1.94-5.38-8.48-7.53-8.49-8.22-.06,1.85,15.57,3.67,18.35,2.01,3.08,8.62,11.85,11.45,13.52,8.54,5.05,24.4.82,33.78-.89,6.97,3.4-1.55,5.96-3.97,8.03-15.12,12.95-11.26,21.82-11.95,40-1.96,3.2-11.93-4.86-14.49-5.57-13.16-3.62-17.79,17.49-15.99,26.97.81,4.25,4.81,4.21,6.87.93,2.22-3.55-.42-9.43,4.33-11.65,4.01-1.87,8.62-.04,11.19,3.32,7.4,9.7,7.49,37.12,5.11,48.94-4.24,21.04-22.15,24.46-31.52,40.9-.55.96-1.14,1.81-1.01,2.99h-.98s-.01-3.99-.01-3.99Z"/>
        <path d="M383.56,400.69l.21,40.25c3.67,9.04,15,.74,18.27,7.7l38.46,177.8c.45,5.06-7.55,10.65-8.75,17.71-1.08,6.32,1.69,8.59,1.69,11.75,0,3.94-4.4,11.03-3.85,17.85,1.97,24.59,35.9,30.93,47.05,8.3,6.54-13.27-.09-14.39-1.12-24.26-.38-3.61,1.02-6.41,1.03-9.87.03-10.14-4.98-14.78-12.07-20.48-1.04-3.84,1.37-6.22,2.17-9.32,13.24-51.17,24.02-103.25,36.79-154.5l1.01.52,3.99-9.51c-11.65,49.93-23.33,99.56-34.81,149.49-1.62,7.04-4.1,14.04-5.92,21.04.01,1.69,7.51,7.74,9.2,10.34,4.82,7.42,1.54,15.34,2.53,23.44.87,7.04,4.71,7.52,2.77,16.71-1.14,5.37-8.41,18.1-13.5,20.54-.91.44-12.85,3.05-13.82,3.08-16.8.48-28.48-13.17-28.44-29.36.02-6.15,4.04-12.19,3.07-18.49l-1.98,1.02c1.19-5.75,1.18-11.89,4.03-17.18.65-1.2,5.56-5.9,5.67-7.28.06-.74-1.54-2.47-1.68-4.06-1.78-20.25-8.76-37.44-11.87-57.14-.87-5.51-.07-3.32-1.95-8.98-.36-1.09.42-3.23.03-4.91-5.01-21.9-9.72-44.3-13.32-65.67-1.73-10.26-5.95-19.39-8.66-29.3-.68-2.48.53-5.72-1.14-7.85-2.26-2.91-8.61-.31-12.06-1.92-2.63-1.23-6.49-6.08-6.95-9.04-.69-4.43-.62-39.56.45-42.36.24-.62,1.37-.81,1.48-1.02-.17,1.92-.24,4.33,2,4.99Z"/>
        <path d="M541.38,581.49c2.28-.77,5.59-2.54,7.77-2.82,4.95-.64,18.04,6.05,16.21,12.81l3.44-1.06.62,1.96,1.91.1c5.69-11.91,16.77-19.1,25.47-5.18,8.64-6.6,14.75-12.19,25.41-5.22,2.95,1.93,4.97,6.5,5.13,9.94.11,2.32-1.06,4.53-.93,6.03.19,2.18,2.48,7.82,2.56,10.05.23,6.81-3.98,15.04-11.24,16.29-2.24.39-10.76.45-12.72-.14-2.22-.67-5.97-6.13-9-6.64-4.6.38-2.66,4.71-3.61,5.34s-6.23,1.69-7.51,1.52c-3.58-.48-4.62-7.27-7.2-8.88-1.07-.67-12.66-1.36-13.67-1.04-.64.2-.48,1.32-1.47,1.83-.63.33-2.07-.19-2.93.3-.61.35-.83,2.15-1.72,2.76-6.66,4.55-7.58,4.47-15.52,5l-6.85-5.7c-1.11-4.31,5.72-6.96,5.82-7.77-6.55-7.73-14.06-12.77-6.23-23.26,1.89-2.53,4.85-3.34,6.26-6.22ZM555.36,606.47c1.11,1-4.49,6.29-5.61,6.87-2.53,1.3-12.98,1.39-12.28,5.47,1.04,6.13,12.47,1.99,15.96.2,9.93-5.08,13.73-23.8,6.95-32.04-11.74-14.27-34.84,5.6-20.5,18.5,5.79,5.21,9.09,1.39,15.49.99ZM598.32,607.46l-6.56-1.93c-1.41-3.71.88-21.37-1.58-22.9-1.27-.79-5.99-.08-7.6.6-1.97.84-13.39,17.55-14.63,20.33-.94,2.13-3.28,7.86.02,8.81l15.36-.93.92,9.57,6.92-.72.27-9.71c2.5-.72,4.78-1.49,6.86-3.13-2.02,25.36,43.76,13.48,22.05-6.63-.32-1.83,3.41-3.12,3.92-5.9,2.86-15.6-20.95-16.5-24.55-4.47-1.81,6.05,4.89,8.16,4.5,10.37-2.06,1.75-4,5.11-5.93,6.63Z"/>
        <path d="M354.59,621.45c-.47-.88-5.31-3.84-6.53-3.69-5.07,7.48-10.37,7.38-18.89,6.64-1.81-.16-3.31-1.82-5.03-1.86-2.06-.04-4.88,1.92-8.02,1.99-2.37.06-18.36-1.35-19.08-1.98-.86-.75-2.03-4.29-3.45-5.54,1.71-9.37-2.42-28.78,2.61-36.46.63-.96,1.69-1.91,2.75-2.33,2.08-.83,21.27.61,23.26,2.19,4.08,4.73-.17,11.64-5.58,12.09-.81,4.24,5.55-.26,5.02,3.97.48.35,7.52-5.87,9.93-6.5,9.25-2.43,13.44,3.08,22.01-5.46l2,2c-1.48,1.06-7.11,8.32-6.93,9.36.21,1.21,3.18,2.49,3.73,4.33,1.41,4.74-1.87,17.55,3.2,20.27l-1,1ZM320.63,603.47l-1.12-6.88-14.87.89v-10c6.87-1.55,20.06,5.22,15.05-6.55-4.18-1.58-8.49.29-12.44.47-1.29.06-9.6-2.45-9.6,1.59v36.96c0,.75,1.64,1.33,2.52,1.48,3.34.54,15.42.35,18.74-.25.89-.16,1.79-.45,2.58-.87l.14-5.85h-16.98v-10.99s9.99,1,9.99,1c-3.97,1.08-7.55,2.15-6.99,6.99,6.15-1.78,11.17,1.88,17.35,1.92,2.8-.68,1.55-9.84-4.37-9.9ZM325.63,615.46c.07,12.37,25,5.29,20.23-5.73-2.44-5.64-13.53-6.53-12.23-10.74.85-2.76,8.75-.88,11.32-1.67l1.2-.8c2.93-4.03-6.3-5.17-9-5.08-4.46.15-9.76,2.82-10.47,7.61-1.43,9.63,7.99,8.41,12.92,13.91-3.55,5.86-8.32,1.53-13.96,2.5Z"/>
        <path d="M407.53,387.71c28.78-1.05,62.15-1.17,90.9,0,1.9.08,4.5.82,6.99,1,7.3.52,18.99-1.76,21.54,7.92,2.11,7.99,2.62,40.21-.6,47.23-.18.39-5.2,4.44-5.66,4.58-3.59,1.09-10.5-1.78-12.09,2.93-.4,1.18,0,2.41-.2,3.26l-3.99,9.51-1.01-.52c1.32-5.29.68-12.53,4.16-17.81,5.99-1.1,14.51,2.63,16.38-5.1,1.58-6.53,1.1-32.87.47-40.56-.66-8.08-2.86-7.89-10.49-8.49-38.83-3.06-81.64,2.35-120.89.05-5.72.57-10.5,2.22-9.5,8.98-2.24-.66-2.17-3.08-2-4.99,5.1-9.63,8.34-6.2,17.53-6.99,1.43-.12,2.85-.97,3.44-1.01,1.65-.1,3.34.06,4.99,0Z"/>
        <path d="M485.44,215.9c2.7,1.26,3.73,4.19,4.75,6.74,2.83,7.04,2.48,16.25,5.48,22.52.23.48,3.49,3.71,3.75,3.71,3.01,12.89.31,26.5-5.99,37.96-4.36,1.93-6.97,2.59-11.99,2,.08-1.31-.14-2.7,0-4,.84-7.8,7.05-18.71,8.54-27.92,2.43-14.99.06-26-4.55-40.01-.1-.3.1-.7,0-1Z"/>
        <path d="M678.23,492.59c.11,2.16-.99,4.09-2.35,5.65-5.19,5.94-30.65,25.73-37.23,27.06-.96.19-2.33-.83-3.6-.51-4.42,1.13-8.8,2.43-13.26,3.39-8.26-1.78-15.46-6.47-23.32-9.28-4.82-1.73-28.08-9.67-31.1-5.3l.84,1.8c-4.94,2.55-7.79,9.23-14.28,9.18-2.86-.39-7.24-6.5-6.42-9.34.33-1.15,1.77-1.51,1.86-1.69v3.99s.99,0,.99,0c-.13-1.18.46-2.03,1.01-2.99.64,14.48,7.6,1.61,12.49-1.99,13.05-9.6,35.61,4.96,48.46,9.47,16.83,5.91,31.68-3.57,44.93-13.47,1.11,2.74,2.14.57,3.15-.11,5.6-3.82,13.37-10.73,17.83-15.87Z"/>
        <path d="M402.54,387.71c-3.31-6.82-8.78-12.35-12.81-18.65-10.29-16.11-20.84-38.32-18.21-57.82.67-4.94,9.94-16.48,10.88-21.16.88-4.33-1.19-17.62-.78-23.75.56-8.35,3.05-19.98,8.9-26,2.16-2.22,9.33-6.74,10.77-8.77.58-.82.1-2.5.26-2.68.22-.25,1.65.94,2.56.93,2.13,0,6.78-2.79,6.43,1.07l-1,1c-5.16-2.7-16.09,8.59-18.98,12.49-10.87,14.69-2.83,32.92-6.2,47.74-.61,2.67-6.08,8.8-7.52,12.45-8.78,22.24,4.45,47.25,16.72,65.17,4.28,6.25,8.36,12.8,13.98,17.98-1.66.06-3.34-.1-4.99,0Z"/>
        <path d="M353.59,584.49c.15-.15-.56-1.73.63-2.04,7.87-2.02,7.17,3.08,9.7,5.69,3.56,3.69,10.72,4.45,5.69,11.87l-6.03.46c1.3,3.18-1.93,13.07,3.5,13.01,2.5-.02,4.02-5.32,10.76-3.83,9.2,2.03,4.69,17.54-4.56,14.6-1.41-.45-2.59-2.65-3.19-2.66-.38,0-2.47,2.24-4.22,2.64-3.3.76-7.3-.13-10.73.26-1.26-.33-.22-2.44-.55-3.06l1-1c2.05,1.1,11.45,2.02,11.98-.52,0-3.52-6.13-4.66-7-6.22-1.13-2.05-1.36-9.34-1.04-11.8.82-6.26,7.74-.84,8.07-7.92.15-3.13-6.31-.87-8.03-1.52v-8c-1.22.73-2.85,1.19-3.99,2l-2-2ZM373.28,612.65c-4.19,1.28-3.16,8.09.81,8.81,8.92,1.63,8.25-11.58-.81-8.81Z"/>
        <path d="M541.38,581.49c-1.42,2.88-4.37,3.69-6.26,6.22-7.83,10.49-.33,15.52,6.23,23.26-.11.81-6.93,3.46-5.82,7.77l6.85,5.7c-1.74.12-3.28.75-4.98,1l-5.51-9.97c-2.25,2.73-3.03,7.01-6.25,9.03-1.75,1.1-2.39-.04-3.24-.06,3.41-2.29,4.57-4.36,4.99-8.49,1.13-11.07.44-22.46-1-33.46,1.41.94,2.88,2.86,4.44,2.95,1.89.11,7.92-3.06,10.54-3.95Z"/>
        <path d="M512.41,261.85c-.33-5.45,4.59,5.36,4.74,5.75,13.21,35.26-1.12,67.6-10.47,100.89-1.17,4.17-1.52,10.5-2.7,14.28s-6.08,3.87,1.44,5.93c-2.49-.18-5.09-.92-6.99-1,1.83-2.34,2.72-5.16,3.5-7.98,4.71-16.93,9.45-33.88,13.48-50.95,5.22-22.13,7.63-35.59,0-57.94-1.1-3.22-1.31-5.65-3-8.99Z"/>
        <path d="M410.53,246.86c-.79-2.02-1.55-13.04-1-14.98l1-1c6.47.01,7.87-8.16,11.32-12.65,1.69-2.21,7.97-6.98,9.12-9.36,1.88-3.91,2.33-16.63,6.54-17.94-.92,8.86-2.47,16.28-8.02,23.45-2.15,2.77-10.96,10.74-10.96,14.01v19.98c0,2.1-6.42,2.52-7.99-1.5Z"/>
        <path d="M526.4,582.49c1.44,11.01,2.13,22.4,1,33.46-.42,4.13-1.58,6.21-4.99,8.49-.95-.03-2.18.17-3,0l-1.91-1.18c-.42-.82.92-1.66.91-1.82l4.88-.15c.44-.57-.04-1.47.12-1.85.53-1.32.93-1.43,1.07-3.38.56-7.58.81-22.86-.02-30.19-.16-1.39-.08-1.42-1.05-2.39-4.03-4.02-22.28,6.43-13.26,8.85,3.15.84,3.55-1.78,6.26-1.85.06.99-.07,2,0,2.99-2.08,7.64-.67,16.49-1,24.48-.05,1.23.76,3.71-1,3.49v-25.47l-7.99-3.5c-.55-1.44-1.65-1.75-.84-4.27.1-.32,3.84-5.24,4.13-5.43.49-.33,10.46-4.15,11.04-4.1,1.56.12,4.09,2.78,5.65,3.82Z"/>
        <path d="M512.41,261.85c1.69,3.34,1.9,5.77,3,8.99h-1c-.09-.28-1.94-4.66-2.21-5.19-1.97-3.82-5.49-6.37-6.28-10.79-4.38,5.56-3.59,15.14-5.82,22.15-.7,2.21-3.97,9.19-5.67,10.29-.48.31-.95-.5-1-.47,6.3-11.46,9.01-25.07,5.99-37.96.27,0,1.32-1.72,2.97-.57,1.44,1,8.97,11.5,10.01,13.56Z"/>
        <path d="M506.42,592.48l7.99,3.5v25.47c1.76.22.95-2.26,1-3.49.33-8-1.08-16.84,1-24.48.6,7.94-1.11,18.04-.08,25.5.24,1.74,2.06,2,2.08,2.47,0,.16-1.33,1-.91,1.82l1.91,1.18c-1.89-.39-3.73-.46-5.27-1.96-2.39-2.34-4.88-15.11-1.01-17.52l-6.71-12.49Z"/>
        <path d="M492.44,325.77c4.79,4.74,4.33,11.23,4.04,17.53-.68,15.04-5.29,35.94-24.02,35.41-.95-.37-2.55-.32-3.35-.91-1.08-.81-.47-1.77-.65-2.08.84-5.18,6.9-9.31,9.97-13.5,9.16-12.54,7.64-17.5,10.01-31.45.52-3.05,1.49-4.02,4-4.99Z"/>
        <path d="M451.48,317.78c-1.12-3.21-2.37-6.43-4.16-9.33-2.18-3.52-6.88-5.36-5.82-10.65,7.6-1.06,13.87,8.32,17.4,14.06,6.74,10.95,9.5,19.9,2.42,31.72l-5.84.17-.99-8c.27-7.04-.72-11.44-3-17.98Z"/>
        <path d="M397.54,311.79c5.46-.91,10.22,2.02,14.66,4.82,11.29,7.11,22.31,19.67,16.39,33.71-.88.65-2.4.65-3.43.31-1.33-.44-9.87-19.36-14.13-23.85-2.07-2.18-16.79-11.65-13.48-14.99Z"/>
        <path d="M515.41,328.77c-4.03,17.07-8.76,34.02-13.48,50.95-.79,2.82-1.68,5.64-3.5,7.98-28.74-1.17-62.12-1.05-90.9,0-5.62-5.18-9.71-11.73-13.98-17.98,0-.67,0-1.33,0-2,5.3,4.05,11.73,16.85,18.54,17.92l85.28-.03,17.05-57.85,1,1Z"/>
        <path d="M409.53,231.88c-.55,1.95.21,12.96,1,14.98-2.19,2-2,.89-2.33-1.24-1.32-8.57,1.99-16.7-10.2-6.75-16.74,13.66-9.1,33.58-11.51,51.37-.73,5.37-7.57,12.41-8.86,18.11-5.08,22.36,4.33,36.47,13.65,55.11.95,1.91,2.29.3,2.27,4.26,0,.67,0,1.33,0,2-12.27-17.92-25.51-42.93-16.72-65.17,1.44-3.65,6.92-9.78,7.52-12.45,3.38-14.82-4.67-33.04,6.2-47.74,2.88-3.9,13.82-15.19,18.98-12.49Z"/>
        <path d="M414.52,290.81c9.94,1.48,16.9-10.73,19.71-18.75s6.48-33.61,11.74-38.21c1.9-1.66,4.04-2.21,6.51-1.98.61,13.02-4.54,25.2-1.76,38.22,2.78,12.97,11.13,16.41,23.74,15.72-.01.19,1.32,1.13,1,1.99-18.75.74-26.36-7.52-27.58-25.64-.17-2.57-.4-10.56-.28-12.87.14-2.92,7.08-9.86.4-14.4-3.56.03-10.31,33.31-11.99,37.94-3.13,8.65-11.55,23.08-22.47,19.97-.3-.84,1.01-1.75,1-1.99Z"/>
        <path d="M485.44,216.9c4.6,14.01,6.98,25.02,4.55,40.01-1.49,9.21-7.7,20.12-8.54,27.92h-5.99c.09-1.66-.06-3.34,0-4.99l.95-1c.62,1.72.3,4.8,2.98,3.92,1.44-.91,5.07-12.14,5.77-14.69,6.22-22.48,6.44-43.26-10.2-61.17-2.61-2.8-13.31-11.29-16.45-12.42-1.79-.64-5.91,2.39-6.04-2.55,14.07.45,25.23,14.44,32.96,24.97Z"/>
        <path d="M492.44,325.77c.71-.28.64-1.75,2.52-.09.99.87,3.91,5.29,4.02,6.54.59,6.54-1.87,28.78-4.58,34.72-.52,1.13-2.04,1.28-2.8,2.4-5.2,7.7-8.81,13.42-19.14,9.38,18.73.53,23.34-20.37,24.02-35.41.28-6.3.74-12.79-4.04-17.53Z"/>
        <path d="M515.41,328.77l-1-1c3.53-16.79,5.19-40.51,0-56.94h1c7.63,22.35,5.22,35.81,0,57.94Z"/>
        <path d="M488.44,330.77c-2.37,13.95-.85,18.91-10.01,31.45-3.07,4.2-9.13,8.32-9.97,13.5-3.67-6.38,3.16-7.91,6.97-12.51,4.7-5.69,9.53-15.93,10.77-23.19.55-3.21-.26-6.6.45-9.54.43-1.75,2.32-2.9,1.79.29Z"/>
        <path d="M454.48,335.76c-.05,1.33.05,2.67,0,4l-1.95-2.54-1.04-19.44c2.27,6.54,3.27,10.94,3,17.98Z"/>
        <path d="M474.46,277.83c-12.36-4.15-13.42-19.28-14.03-30.42-.87-15.88,5.16-35.35-4.95-48.49-.37-3.06.79-2.12,2-.5,5.98,8,4.47,8.63,5,17.97.8,13.89-2.81,46.93,7.46,56.47,1.52,1.42,4.21.7,5.02,3.91.14.56-.51,1-.5,1.06Z"/>
        <path d="M320.63,603.47c5.92.07,7.17,9.22,4.37,9.9-6.18-.04-11.2-3.7-17.35-1.92-.56-4.84,3.02-5.91,6.99-6.99.8-.22,5.35-1.01,5.99-1Z"/>
        <path d="M523.4,619.45v-35.96c.98.98.9,1,1.05,2.39.82,7.33.58,22.61.02,30.19-.14,1.95-.54,2.06-1.07,3.38Z"/>
        <path d="M323.61,459.63c-5.4-4.43-9.32-11.35-15.04-15.42-18.74-13.33-43.95-4.72-65.11-8.81-9.21-1.78-20.19-6.73-19.73-17.72,6.24,5.89,10.64,10.5,19.73,11.73,14.86,2.01,29.83-2.17,45.44.51,16.52,2.84,30.61,13.08,34.7,29.71Z"/>
        <path d="M265.89,448.85c26.47-2.62,59.31,9.73,52.48,41.99-1.2,5.65-8.93,21.76-15.2,21.81l-55.04-29.03,17.76-34.77ZM251.7,480.62c-.45.55,2,2.35,2.67,2.81,8.57,5.95,30.89,18.01,40.59,22.34s12.04,3.2,16.86-6.51c14.96-30.15-12.46-49.94-40.68-46.68-2.62.3-5.58,3.6-7.12,5.84-2.2,3.2-6.34,10.6-8.09,13.86-1.85,3.45-.69,8.07-4.23,8.34Z"/>
        <path d="M242.45,352.98c12.44-2.28,22.63,4.44,32.14,11.34,2.63,1.91,15.71,12.53,16.58,14.42.39.86.56,1.41.51,2.38-.09,1.67-10.79,19.67-12.45,20.62-9.97,5.71-36.19-.24-43.95-9.11-8.83-10.09-7.8-36.92,7.17-39.66ZM236.11,361.11c-3.19,4.98-3.12,16.02-2.14,21.86,1.59,9.48,15.56,15.82,24.25,16.71,4.19.43,14.84,0,18.75-1.2,4.67-1.44,6.82-11.28,10.57-14.5.56-2.08-1.88-6.62-3.34-8.28-3.77-4.28-23.76-18.1-29.05-18.89-6.22-.93-15.39-1.37-19.03,4.31Z"/>
        <path d="M218.48,506.8c1.79-.36,3.58-.59,5.3.24l.8,2.8c-5.82,11.78-9.55,27.47-16.62,38.39-1.46,2.25-3.62,5.49-6.66,5.29-2.34-.69-1.58-7.42-1.4-9.37.91-9.93,7.1-35.01,18.59-37.35ZM217.64,514.67c-3.46-3.83-10.1,6.4-11.23,8.89s-2.98,16.15.87,16.97c2.13.45,5.68-9.45,6.48-11.45.97-2.43,5.31-12.82,3.88-14.4Z"/>
        <path d="M626.29,362.73c13.76,1.15,26.31,2.74,35.47,13.98,17.44,21.39,16.76,80.44,4.66,104.57-2.66,5.3-11.67,17.3-17.72,18.25-8.72,1.37-19.68-6.73-24.38-13.46l1.97-123.34ZM660.87,484.23c14.1-21.99,14.65-84.45-1.19-105.45-4.7-6.23-13.6-10.61-21.13-11.82-2.54-.41-5.08-.44-7.63-.09-2.81.92-1.44,10.27-1.65,13.33-2.07,31.22.62,64.1.05,95.94-.06,3.1-1.45,5.25-.84,8.75.97,5.54,16.35,14.18,22.33,10.74,1.16-.67,9.08-9.88,10.05-11.4Z"/>
        <path d="M617.3,370.72l-3.02,115.84c-7.74.53-29.93,6.04-25.47-7.97,3.69-2.33,7.21-2.27,11-4.98,11.58-8.27,7.72-22.3,8.51-34.45,1.48-22.8,3.82-45.55,3.98-68.44h5ZM610.31,483.6c-.29-2.38.8-11.77-1.47-12.68-3.57-.6-3.62,2.82-6.03,4.69-3.94,3.05-9.04,3.65-11.48,7.5l18.98.5Z"/>
        <path d="M607.57,614.2c-5.97-6.25,6.85-15.85,11.28-3.83-.18,5.52-7.8,7.47-11.28,3.83Z"/>
        <path d="M616.06,588.73c6.81,6.91-8.23,13.92-8.75,4.15-.22-4.16,6-6.94,8.75-4.15Z"/>
        <path d="M545.63,589.75c6.75-6.33,15.63,8,6.46,11.99-6.71,2.92-11.82-6.96-6.46-11.99Z"/>
        <polygon points="583.34 605.46 574.34 605.95 583.34 591.48 583.34 605.46"/>
        <path d="M251.7,480.62c3.54-.27,2.38-4.89,4.23-8.34,1.75-3.26,5.89-10.67,8.09-13.86,1.54-2.24,4.49-5.54,7.12-5.84,28.23-3.26,55.65,16.53,40.68,46.68-4.82,9.71-6.89,10.95-16.86,6.51s-32.02-16.39-40.59-22.34c-.66-.46-3.11-2.25-2.67-2.81Z"/>
        <path d="M236.11,361.11c3.63-5.67,12.81-5.24,19.03-4.31,5.29.79,25.29,14.61,29.05,18.89,1.46,1.66,3.9,6.2,3.34,8.28-3.75,3.22-5.9,13.05-10.57,14.5-3.91,1.21-14.56,1.63-18.75,1.2-8.68-.89-22.65-7.23-24.25-16.71-.98-5.84-1.05-16.88,2.14-21.86Z"/>
        <path d="M217.64,514.67c1.43,1.58-2.91,11.97-3.88,14.4-.8,2.01-4.35,11.9-6.48,11.45-3.85-.81-2.05-14.36-.87-16.97s7.77-12.72,11.23-8.89Z"/>
        <path d="M660.87,484.23c-.98,1.52-8.89,10.74-10.05,11.4-5.98,3.44-21.36-5.2-22.33-10.74-.61-3.5.79-5.65.84-8.75.57-31.85-2.12-64.73-.05-95.94.2-3.06-1.16-12.41,1.65-13.33,2.55-.35,5.09-.32,7.63.09,7.54,1.21,16.44,5.6,21.13,11.82,15.84,20.99,15.29,83.46,1.19,105.45Z"/>
        <path d="M610.31,483.6l-18.98-.5c2.43-3.85,7.54-4.44,11.48-7.5,2.41-1.87,2.46-5.29,6.03-4.69,2.28.92,1.18,10.3,1.47,12.68Z"/>
        <path d="M412.53,449.64h82.91s-.26,5.24-.26,5.24c-12.22,48.91-21.35,98.61-33.19,147.6-.89,3.68-3.91,18.74-7.17,19.84-6.4,1.35-7.68-4.78-9.03-9.65l-33.26-163.02Z"/>
        <path d="M517.41,403.69c-.06.47-.98,1.5-1.07,3.38-.4,8.59.42,17.33.11,25.92-.23.99-1.95,1.25-2.76,1.39-7.19,1.28-15.02.04-21.71.23-29.45.82-63.85,3.21-92.98,1.08-2.24-.16-4.25-.89-6.45-1.04v-29.47c0-.27,1.02-2.34,1.68-2.54,3.77.65,7.2-.79,10.76-1,31.85-1.93,72.83-1.23,104.97,0,2.05.08,3.87.76,5.85,1.13l.6-2.08h1c-.08.98.12,2.02,0,3Z"/>
        <path d="M516.41,400.69l-.6,2.08c-1.98-.37-3.8-1.05-5.85-1.13-32.14-1.23-73.12-1.92-104.97,0-3.57.22-6.99,1.66-10.76,1-.66.2-1.68,2.27-1.68,2.54v29.47c2.2.15,4.21.88,6.45,1.04,29.13,2.13,63.53-.26,92.98-1.08,6.69-.19,14.52,1.04,21.71-.23.82-.14,2.53-.4,2.76-1.39.31-8.6-.52-17.34-.11-25.92.09-1.88,1.01-2.91,1.07-3.38-.92,9.2,1.23,20.61.05,29.51-.27,2.04-.57,3.5-2.74,4.25-18.25.47-36.52.08-54.78.16-19.77.08-42.12,2.06-61.88.03-1.94-.2-6.76-.8-7.38-2.61.53-4.92-1.86-32.73,1.63-34.32,5.28-2.42,27.27-.76,34.75-.97,27.83-.77,55.95-.92,83.92-.08,1.9.06,3.78-.09,5.44,1.04Z"/>
      </g>
      <path d="M449.12,0h0C201.08,0,0,201.08,0,449.12h0c0,248.04,201.08,449.12,449.12,449.12h0c248.04,0,449.12-201.08,449.12-449.12h0C898.25,201.08,697.17,0,449.12,0ZM862.63,449.12c0,228.57-185.29,413.86-413.86,413.86h0c-228.57,0-413.86-185.29-413.86-413.86h0c0-228.57,185.29-413.86,413.86-413.86h0c228.57,0,413.86,185.29,413.86,413.86h0Z"/>
    </g>
  </g>
</svg>