<?xml version="1.0" encoding="UTF-8"?>
<svg id="Capa_2" data-name="Capa 2" xmlns="http://www.w3.org/2000/svg" viewBox="0 0 798.17 604.59">
  <defs>
    <style>
      .cls-1 {
        fill: #060606;
      }
    </style>
  </defs>
  <g id="Capa_1-2" data-name="Capa 1">
    <g>
      <path class="cls-1" d="M492.72,433.25c-1.3.9-4.85,1.13-6.25.81-1.32-.3-2.82-2.46-3.13-4,4.45-9.53,2.63-22.88-4.3-25.17-7.83-2.6-14.36,5.21-17.64,13.92-7.42,19.71-9.84,41.34-5.32,61.98,1.51,6.9,4.5,13.71,9.53,18.16,7.46,6.61,17.91,4.13,24.02-3.04,9.5-11.14,18.41-35.12,20-49.16l2.67-23.63,30.32,13.69c-3.54,16.37-8.55,64.05,1.8,65.66,3.24.5,10.37-8.68,11.43-14.47.81-4.46.59-8.53,5.28-10.62,8.03-22.26,13.68-44.99,16.14-68.63.41-3.94-.35-7.94.89-11.49,1.47-4.21,4.43-7.74,9.15-8.24,5.27-.56,11.37.99,15.5,3.68,3.79,2.47,3.08,5.28,2.84,8.86-.51,7.7.96,15.49,3.34,23.01l17.13,54.04,4.57,17.52c2.06,7.89.26,15.02-1.95,23.54l21.5-17.78,11.06-12.39c-5.4-1.34-9.98-3.44-12.85-7.95-3.79-5.94-3.28-13.84-.08-20.07,6.14.15,10.48,4.32,13.09,8.53,3.19,5.16,2.42,10.42,1.22,17.11,8.07-10.67,13.79-23.16,16.79-36.47-6.75,2.76-13.63.14-18.21-5.81-2.64-3.43-3.55-8.36-3.44-12.87,5.78-2.29,11.37-.28,15.4,3.18,4.34,3.73,5.65,9.11,6.34,14.68,7.46-33.78-2.24-68.52-24.95-93.73l.3,3.03c.07.74-1.04,1.91-1.87,2.52-6.76,4.91-15.71,2.05-19.65-5.25,2.7-3.54,6.41-5.38,10.61-5.04,3.57.28,6.74,2.7,10.56,4.86-6.44-7.39-13.63-13.49-21.27-18.46-.7,3.94-3.29,5.92-6.75,6.63s-7.46-1.08-10.15-3.44c2.21-5.1,6.6-6.01,12.12-6.09l-11.82-5.77c-.95-.47-1.97-2.31-1.98-3.38-.02-.99,2.38-2.59,3.37-2.12l14.49,6.82c-3.25-5.67-3.81-12.17.53-16.88,4.25.67,7.89,4.67,8.63,8.33.97,4.78.09,9.37-3.86,12.47,48.12,31.91,65.25,98.55,34.02,148.27,6.55-4.86,11.84-8.29,19.56-8.17,5.86.09,11.58,1.36,17.05,4.73-1.36,7-5.31,13.49-11.42,17.28-9.59,5.95-21.05,4.78-30.58-.98l3.19-9.85c-12.74,17.08-28.74,31.79-47.63,42.96-5.67,3.35-11.12,5.82-17.87,5.84-17.94.06-34.82-9.12-43.02-25.62-3.58,3.66-7.19,7.2-11.7,8.55-10.6,3.17-21.02-1.23-27.98-9.52-6.68-7.94-9.09-17.47-10.89-27.69-6.31,19.98-17.17,40.61-38.56,38.12-20.85-2.43-37.29-15.41-44.22-36.1-6.03,18.42-13.08,40.53-33.14,35.64-17.22-4.2-26.34-21.46-28.24-39.37-4.39,12.87-11.95,37.32-22.94,39.1-20.32,3.29-38.21-15.35-41.45-36.59-3.2-21.01-1.38-42.58,5.95-62.52,4.35-11.83,12.93-25.23,24.45-28.86,15.96-5.04,32.05,2.52,40.2,16.85l2.99-8.27c.51-1.4,2.68-3.07,4.51-2.68,10.55,2.29,26.93,9.78,30.04,17.31.45,1.08-1.15,3.08-1.83,4.42-9.35,18.5-18.76,68.9-10.52,83.44,1.13,2,4.92,2.37,6.28.71l6.32-7.8c5.28-10.54,9.31-21.26,12.91-32.65-1.72-15.57-.23-30.82,4.23-45.67,5.58-15.64,15.59-28.34,32.87-28.14,13.53.16,26.84,5.93,33.75,18.04,4.3,7.53,6.26,22.78-1.5,28.15ZM351.23,483.38c6.86-18.02,12.09-36.17,15.73-55.19,1.89-9.87-1.1-21.3-8.4-20.73-12.06.93-19.81,29.78-22.33,43.81-2.75,15.34-5.51,34.85-.74,48.63.31.89,1.89,2.29,2.72,2.46,4.11.84,10.21-11.61,13.01-18.97ZM592.61,509.61c21.65-2.41-.02-58.48-7.73-77.06l-9.41,33.72-7.55,27.86c3.49,10.59,13.74,16.69,24.68,15.47Z"/>
      <path class="cls-1" d="M456.33,300.91c-11.35-2.76-20.87-9.24-28.87-17.2l-2.44-5.2c-2.8,7.03-5.79,13.26-11.62,17.74-7.74,5.96-18.36,5.46-26.71.26-16.73-10.42-18.61-31.5-19.65-50.7.06-13.98.98-27.44,2.93-41.17l30.52,13.77c-2.98,16.38-4.67,32.22-4.55,48.43.83,6.78,1.42,15.95,5.42,17.33,4.5,1.55,8.94-7.01,12.37-13.12l11.19-29.73c1.39-21.41,3.54-42.23,7.61-63.19,2.36-12.15,24.11-.79,31.86,9.55-3.19,12.82-6.13,24.71-6.47,38.28l10.58-24.34c4.41-10.15,18.28-30.39,26.1-28.45,12.24,3.04,22.21,10.41,30.51,19.43,1.33,1.45,3.64,5.49,3.17,7.31-5.12,19.68-9.25,38.73-10.66,58.97-.65,9.3-.97,25.56,3.36,28.28,3.16,1.99,9.28-6.98,12.67-13.18,4.72-10.31,8.8-20.45,12.02-31.38-.04-26.53,10.55-70.78,39.25-72.4,14.11-.79,26.13,5.98,33.12,18.12l2.67-8.08c.65-1.98,2.93-3.37,5.15-2.79,10.39,2.72,27.73,9.83,29.82,18.71-4.12,6.61-6.59,13.13-8.49,20.58-4.33,16.92-7.36,33.8-7.12,51.28.1,7.07,1.22,15.6,5.77,16.3s9.48-7.89,12.38-14.2c6.82-14.84,11.35-30,15.3-45.84.45-1.81,2.56-3.65,3.89-3.48,1.7.21,3.43,2.63,3.07,4.57l-6.35,33.73c-2.12,11.25-6.31,21.52-11.97,31.35-4.02,6.99-11.16,10.92-19.26,10.02-18.17-2.02-29.32-20.62-31.28-39.65-4.27,12.32-12.05,38.07-23.43,39.16-12.86,1.24-24.78-5.21-32.25-15.5-3.29-4.53-5.22-9.48-7.57-15.22-4.6,15.14-12.08,36.33-29.13,33.95-7.94-1.11-14.57-5.34-19.84-11.36-6.87-7.84-9.99-17.57-11.17-28.06-2.7-23.97-.87-47.04,3.7-71.08-6.63,7.66-10.78,15.55-14.69,24.28-10.34,23.06-17.48,47.17-21.38,72.17l.48,11.75ZM595.36,267.78c7.8-19.78,13.91-39.98,17.2-61.04.91-5.83-.67-12.14-4.75-15.8-2.94-2.63-7.56-1.1-10.21,1.66-3.9,4.05-6.67,9.26-8.8,14.85-7.27,19-10.43,39.13-10.52,59.62-.03,6.84,1.82,17.01,5.29,17.29,3.82.31,9.22-10.04,11.8-16.58Z"/>
      <path class="cls-1" d="M90.08,311.62c-9.98,6.55-34.89-15.57-35.26-22.32-.57-10.4-.45-19.82.27-30.1,2.91-41.69,11.57-98.29,26.4-136.96.95-2.48,3.33-4.66,6.02-4.44,6.44.55,12.55,3.25,17.2,7.49,2.75,2.5,1.8,5.02,1,8.04-6.49,24.44-10.44,48.82-13.89,74.15,20.93-4.84,40.53-12.3,53.8-28.67,12.91-15.93,16.21-38.67,7.28-57.39-6.46-13.55-19.95-21.32-34.28-23.78s-29.04-.72-43.47,3.55c-22.45,6.65-40.86,22.51-49.72,44.26-.52,1.28-1.13,2.73-1.69,3.4-2.84,3.45-16.09-15.08-20.51-22.39-4.41-7.29-4.26-15.5.26-22.73,15.41-24.61,53.85-37.15,82.78-34.86,45.34,3.59,90.07,40.28,92.32,86.98,2.11,43.76-35.51,71.86-75.26,81.61,13.38,19.02,28.41,36.05,49.51,45.28,10.08,3.41,20.29,6.37,31.06,6.67,4.3.12,7.68,1.63,8.14,6.68,1.04,11.46-8.47,21.17-20.47,20.99-6.84-.1-13.75-2.07-19.44-5.97l-23.25-15.93c-12.41-8.5-21.5-19.75-30.25-31.9l-10.72-14.89c-1.22,16.75-1.29,31.91-.18,47.82l2.37,15.41Z"/>
      <path class="cls-1" d="M751.88,91.24c-53.83,25.25-113.81,32.49-157.78-12.94-34.98,37.46-84.86,39.36-130.45,23.84l-28.41-11.17,2.51,10.05,6.4,25.52c1.24,4.95,3.67,10.88-.53,15.7-2.91,3.34-6.94,6.06-11.34,5.38-3.44-.53-8.81-2.57-10.03-6.92l-6.4-22.89-1.86-7.23-10.4-40.4c-1.36-5.29,1.44-12.68,7.08-15.51,3.77-1.89,8.19-1.21,11.92.72l28.61,14.83c15.46,8.01,32.08,12.44,49.54,14.86l12.84.9c10.62.75,21.16-1.25,31.1-4.53,17.13-5.64,30.6-17.01,40-31.9,2.46-3.9,7.66-5.4,11.39-4.71,4.58.84,7.23,3.55,9.76,7.52,11.43,17.98,29.77,28.42,50.82,32.29l16.43,1.42c22.94.23,54.04-9.61,74.14-20.54l17.47-9.5c7.05-3.84,14.12-2.94,18.55,3.83,2.39,3.65,2.22,7.28,1.09,11.5l-4.02,15-56.94,205.98c-1.43,5.16-6.99,7.7-10.76,8.11-8.8.97-14.64-9.32-13.73-12.79l5.86-22.28,23.66-85.85,5.41-19.37,17.48-63.41c.56-2.02,1.21-3.81.58-5.52Z"/>
      <path class="cls-1" d="M311.78,355.5c-17.95-1.27-33.16-12.53-40.84-28.1-1.57-3.18-2.19-6.94-1.84-10.22,6.34-1.91,4.71,8.54,11.49,15.16,4.57,4.46,10.79,5.75,16.93,6.29,14.34,1.25,21.5-2.69,25.58-16.81,1.93-10.22,2.47-20.4,2.6-30.97l.28-23.34c-4.97,11.75-9,27.22-20.47,32.91-21.07,1.34-35.59-12.5-41.03-31.91-8.25,18.92-19.35,35.33-40.53,32.37-34.57-4.84-47.43-35.18-47.63-68.12-.11-18.14,2.79-37.69,13.85-51.62,7.64-9.63,18.22-12.07,29.92-10.91,23.17,2.3,39.48,23.49,33.73,46.6-2.5,10.05-9.94,18.67-19.97,21.46-8.77,2.44-17.73,1.58-26.09-3.06-.88,14.19-.23,32.2,8.92,44,6.49,7.37,16.47,8.33,24.14,2.13,8.86-7.17,19.49-25.09,20.38-33.85,1.48-14.5,1.69-28.31,6.61-42.08,3.12-8.73,6.71-17.06,12.76-23.96,8.34-9.51,19.99-12.95,32.24-9.65,8.78,2.37,15.85,8.2,21.19,16.14,7.41-7.03,23.99-3.31,32,4.57l-4.31,18.38c-2.4,19.6-3.78,38.7-4.71,58.44-1.05,22.32-2.04,50.67-12.41,69.18-6.63,11.83-18.53,17.98-32.78,16.97ZM236.27,194.49c-.5-2.94-2.47-5.97-4.88-6.85-11.93-4.34-21.47,23.51-22.48,37.78,16.1-2.47,29.89-15.93,27.36-30.93ZM311.39,269.32c7.93-20.3,14.18-41,17.56-62.57.87-5.52-.51-11.35-4.22-15.01-2.83-2.8-7.93-1.61-10.55,1.22-4.68,5.06-7.82,11.05-10.09,17.75-6.25,18.47-9.41,37.58-9.19,57.17.07,6.7,1.48,15.96,4.88,17.05s9.04-9.03,11.61-15.6Z"/>
      <path class="cls-1" d="M185.56,489.68c5.49-35.2,11.45-71.93,23.36-105.05,2.98-8.29,19.29-2.84,25.27,6.61l-8.68,39.42-9.26,62.79c16.21-1.53,31.29-7.87,42.88-19.49,20.85-20.92,27.26-51.72,18.65-79.85-6.99-22.84-28.33-32.14-51.31-34.01l-12.38-.05c-18.46,1-34.89,8.1-48.61,20.33-8.85,7.89-15.99,16.73-20.4,28.13-3.85-.41-6.21-2.46-8.33-5.17-4.96-6.33-10.02-12.53-13.64-19.8-7.61-15.3,10.27-30.87,24.86-38.74,18.02-9.72,38.2-14.43,58.77-13.69,25.26.91,48.15,11.33,65.47,29.18,20.4,21.04,29.95,48.84,26.58,78.05-1.82,15.76-6.07,30.29-14.41,43.7-15.23,24.51-41.96,38.88-70.88,36.04l-1.35,22.63-.58,27.46c-.25,12,.67,23.29,3.48,35.1-9.69,6.95-35.2-15.51-35.35-22.85-.5-24.04,1.16-47.14,3.38-71.36-8.59-4.14-15.95-10.36-20.05-19.06-1.51-3.21-1.8-6.78.49-9.79l22.02,9.47Z"/>
      <path class="cls-1" d="M604.36,34.35c-3.28,3.55-7.9,4.88-12.32,4.24-4.01-.57-7.97-3.23-10.43-7.26-4.63-7.6-4.51-17.16.43-24.54,2.76-4.12,6.95-6.54,11.54-6.78s9.45,2.04,12.39,6.21c6.01,8.52,5.79,20.12-1.61,28.12Z"/>
      <path class="cls-1" d="M408,188.73l-5.11,21.66-30.39-13.72c1.23-8.53,3.06-16.48,5.88-24.59,11.54-.94,31.38,9.17,29.62,16.65Z"/>
      <path class="cls-1" d="M550.05,407.78l-4.89,20.21-30.46-13.93,5.64-24.02c9.32-1.99,19.91,3.67,27.57,9.6,1.98,2.19,3.04,5.02,2.14,8.13Z"/>
      <path class="cls-1" d="M205.58,133.33c2.6,2.8,9.24,3.18,11.74.27l6.5-7.55c1.06,13.22-10.91,24.04-20.96,21.32-16.38-4.43-14.31-36.03,1.86-53.31,4.95-5.29,12.6-7.85,19.31-5.5,3.61,1.26,5.63,4.76,5.53,8.02s-2.68,6.92-6.72,7.33c-.36-1.65-1.28-5.47-2.85-6.06-5.36-2-10.7,1.64-13.42,6.2-1.85,3.09-2.85,6.37-4.04,9.98-2.13,6.43-2.32,13.49,3.06,19.3Z"/>
      <path class="cls-1" d="M324.08,147.22l-3.16-2.86c-7.71-.22-12.14,6.62-17.69,1.42-2.62-2.45-2.81-5.52-1.31-9.23,2.61-6.46,6.98-6.63,7.43-8.54.64-2.73-5.22-7.59.78-19.36,2.97-5.84,9.71-9.26,16.22-6.7l7.33-7.14c1.71,1.92,3.14,4.81,3.17,6.5l-4.96,1.85c-1.06.4-.53,3.53-.24,4.72,2.3,9.39-2.51,19.87-12.06,22.4l-8.59,2.28c-1.09.29-2.18,2.99-1.75,3.99,1.9,4.46,11.06-5.91,19.08-.64,1.4,3.49-.93,8.25-4.25,11.3ZM324.05,108.28c-.99-.81-4.3-.82-5.48-.16-4.6,2.56-6.17,8.93-2.5,13.03,1.34,1.49,5.36.84,6.65-.32,3.69-3.33,4.07-10.3,1.33-12.55Z"/>
      <path class="cls-1" d="M282.87,137.28c6.33,3.27,11.84-.21,15.2-6.19,1.59,4.37-1.31,8.52-4.2,11.98-3.63,4.36-8.88,5.77-13.81,3.92-5.2-1.95-7.14-6.56-7.26-12.44-.14-7.16.96-14.11,4.31-20.36,2.83-5.3,5.78-9.91,11.71-12.28,3.5-1.4,8.23-1.23,11.02,1.79,4.08,4.42,3.51,11.18-.16,15.83-6.67,8.47-17.44,7.46-19.15,12.42-.45,1.31.89,4.57,2.33,5.31ZM294.83,111.13c-.5-.97-2.38-2.41-3.46-2.19-5.76,1.18-9.56,6.48-9.37,12.4,8.23-2.03,15.48-5.15,12.84-10.21Z"/>
      <path class="cls-1" d="M240.42,147.45c-3.69,1.29-7.78-.89-9.88-4.02-6.63-9.86-2.44-25.84,4.57-36.26,1.55-2.31,5.02-4.36,7.59-5.41,4.37-1.79,9.68-.41,11.82,4.09,6.37,13.41.35,36.54-14.09,41.6ZM249.57,112.14c-.45-2.15-3.62-3.3-5.43-2.91-9.69,2.1-12.82,24.75-4.86,26.93,7.24,1.98,12.8-11.99,10.29-24.03Z"/>
      <path class="cls-1" d="M360.95,147.61c-5.47.56-8.93-4.41-10.26-9-4.5-15.53,7.04-41.94,21.75-36.89,13.41,4.61,6.96,44.02-11.49,45.89ZM372.44,113.59c-.25-1.87-2.7-4.21-4.25-4.39-10.9-1.3-14.55,24.79-7.1,26.88s12.81-11.72,11.35-22.49Z"/>
      <path class="cls-1" d="M707.48,450.07c-5.85,3.74-12.91,4.4-19.67,3.53-2.28-7.96.42-15.9,6.1-21.76,6.2-6.4,15.34-8.69,24.34-6.99,2.4,9.9-1.97,19.59-10.77,25.22Z"/>
      <path class="cls-1" d="M414.59,42.54c-1.76,3.42-5.15,5.51-7.98,6.04-3.87.73-7.68-.77-10.22-3.78-5.58-6.6-6.42-16.03-1.55-23.2,1.91-2.8,5.18-4.66,7.97-4.86,3.25-.23,6.83,1.03,9.13,3.54,5.48,6,6.51,14.76,2.65,22.26Z"/>
      <path class="cls-1" d="M793.86,43.8c-2.53,3.01-5.86,4.96-9.09,4.93-3.5-.03-7.04-1.97-9.2-5.35-4.93-7.7-3.08-18.8,4.16-24.37,5.61-4.32,12.93-2.41,16.11,3.52,3.58,6.68,3.13,15.21-1.98,21.27Z"/>
      <path class="cls-1" d="M707.13,404.65c-4.06,6.19-10.5,9.85-17.76,10.79-3.27-6.37-4.03-13.66-.95-20.15,3.56-7.5,10.68-12.17,19.04-13.77,4.68,7,4.48,15.77-.34,23.13Z"/>
      <path class="cls-1" d="M258.01,145.59l1.77-13.48,4.08-23.02,3.92-17.25c.31-1.38.95-3.17,1.67-3.9s3.24-.97,4.27-.92l2.19.1c.56.02.64,1.71.69,2.55-6.14,18.38-8.77,36.87-10.15,56.46-2.29,1.15-5.39,1.04-8.43-.54Z"/>
      <path class="cls-1" d="M690.23,369.01c-2.33,5.15-6.43,8.55-11.22,10.9-2.54-3.23-5-6.96-5.53-10.92-1.21-8.89,3.97-16.61,12.05-20.62,6.08,5.01,8.1,13.12,4.7,20.64Z"/>
      <path class="cls-1" d="M342.33,144.81c-.35,3.11-7.77,2.93-8.8.34l2.81-19.05,4.86-23.9,7.63.05c-4.45,14.51-4.81,27.7-6.5,42.56Z"/>
      <path class="cls-1" d="M660.51,351.91c-4.55-2.57-6.88-8.08-7.03-12.38-.19-5.43,1.9-9.71,5.7-13.53l2.55-2.56c5.18,3.63,8.12,8.78,7.47,15.24-.49,4.86-3.73,11.31-8.69,13.23Z"/>
      <path class="cls-1" d="M679.91,416.47c-6,2.67-12.22,1.37-16.72-3-3.29-3.2-4.88-7.98-5.47-12.58,5.37-2.54,11.32-1.84,15.55,1.74s6.52,7.91,6.63,13.84Z"/>
      <path class="cls-1" d="M649.62,381.79c-1.76-1.79-2.97-3.7-4.22-6.18,5.08-4.7,12.18-5.89,18.02-2.3,3.43,2.11,6.11,5.36,7.74,8.95-6.48,6.22-15.47,5.73-21.54-.47Z"/>
      <path class="cls-1" d="M350.81,93.64c-1.14,2.46-4.75,3.53-6.71,1.73-1.02-.93-.94-4.08-.28-5.48s3.36-3.01,4.77-2.5c1.26.46,2.68,1.38,3.03,2.12.42.89-.29,3-.81,4.13Z"/>
    </g>
  </g>
</svg>