<?xml version="1.0" encoding="UTF-8"?>
<svg id="Capa_2" data-name="Capa 2" xmlns="http://www.w3.org/2000/svg" viewBox="0 0 296.78 172">
  <g id="Capa_1-2" data-name="Capa 1">
    <g>
      <path d="M66.21,0l.14,3.21h3.07v4.67l-.21.21h-2.86v2.65c4.39-.36,7.79,3.2,7.53,7.54h1.68s0,3.21,0,3.21c1.77.32,3.28,2,3.49,3.77,1.08-.53,2.18-1.97,3.16-2.49.19-.1.41-.25.62-.1l1,2.42c1.39.21,2.76,1.13,2.34,2.68,1.58-1.54,3-.36,4.39.69l2.78-1.52c.84,1.01.97,2.52,2.59,2.58.22,0,.99-.73,1.35-.9,2.53-1.2,5.29.44,5.76,3.14.08.45-.14.97.22,1.32.85.83,2.54.3,3.56.13.58,1.45-.21,4.8,2.34,3.66.4-.18,1.39-1.79,1.71-1.57l3.07,4.78c2.21.7,2.49,5.07,2.38,7.01-.12,2.21-1.62,6.97-3.07,8.65-.51.59-1.38.84-1.95,1.26-.68.51-1.28,1.22-1.96,1.73.68.31,4.07.39,4.43-.03.08-.1.17-.59.34-.85.67-1.04,1.81-1.32,2.9-.71,1.7.95,1.08,3.81-.34,4.8l-1.32.84c3.63,1.29,5.64,6.06,2.08,8.71-.45.34-.75.39-1.21.61-.11.05-.26-.02-.16.23.19.5,1.22,1.74,1.58,2.33,23.17,37.3,2.54,86.36-40.1,95.78C32.29,180.45-8.07,140.46,1.39,95.16c1.71-8.17,5.19-16.14,9.98-22.95-5.08-1.66-3.9-7.82.56-9.42l-1.54-1.04c-.94-.88-1.44-2.5-.91-3.7.85-1.91,3.84-1.44,4.01.67,1.48.4,3.07.39,4.58.03-4.62-2.97-5.55-9.16-1.4-12.98h-6v-8.23h8.72c.29-.42.32-.92.55-1.4.79-1.62,2.52-2.72,3.92-3.77-.48-4.16,4.36-6.35,7.27-3.37,2.18-.58,4.51-1.15,6.66-.13l5.76-6.66,4.51,3.62c.22-1.88,1.6-3.89,3.49-4.33v-3.21h1.81c-.11-4.38,3.44-8.28,7.95-7.4v-2.79h-3.07V3.21h3.07V0h4.88ZM64.82,1.53h-1.95v3.07h-3.07v1.95h3.07v6.28c-4.1-1.63-8.06.98-7.81,5.44h1.95c-.22-3.78,4.61-5.53,6.56-2.23,2.47-3.13,6.65-1.71,6.83,2.23h1.95c.09-4.23-3.48-6.93-7.54-5.58v-6.14h3.07v-1.95h-3.07V1.53ZM74.3,19.54h-21.63v1.53h21.63v-1.53ZM58.26,27.21l-1.81,3.7c-.36-.19-2.12-.51-2.08-.96.02-.22.68-1.29.82-1.7.62-1.7.92-3.44-.42-4.89-1.98-2.15-4.7-.47-5.3,1.97s.5,4.1,2.36,5.44c.05.2-1.99,2.88-2.33,2.97-1.7-.45-3.26-.45-4.95.06-.9.27-4.72,2.18-3.56,3.41.75.79,1.8-.67,2.52-1.1,8.33-5.06,12.24,8.29,3.8,8.96-1.84.15-3.85-.14-5.7.02-.53.18-.58,1.5.44,1.57,2.89.21,6.26.06,9.14-.36,3.04-.44,6.11-1.36,8.84-2.75.19-.02,2.52,1.81,3.33,1.93,1.2.17,2.83-1.41,3.9-1.9,3.54,1.9,7.66,2.73,11.65,2.88-.17-.27-.26-.62-.44-.89-.13-.19-.4-.25-.47-.37-.12-.21-.03-.5-.14-.7-.1-.17-1.44-.98-1.89-1.74-1.13-1.91-.61-3.04-.17-4.92.14-.58-.17-1.19.45-1.64.23-.17.56-.18.77-.35.22-.18.32-.59.55-.85.49-.54,1.08-.97,1.61-1.46-.55-.16-.95.41-1.53.14-.16-.08-2.19-2.64-2.22-2.82.2-.5.91-.78,1.29-1.17,1.79-1.87,1.6-5.18-.47-6.76-2.56-1.95-5.35,1.23-4.57,3.87l1.16,3.32-2.03.83c-.37-.98-.82-2.14-1.37-3.03-.1-.16-.48-.8-.65-.74l-1.03,1.16,1.52,3.16c-1.94.61-4.37,1.39-5.44,3.21h-.2c-1.43-1.66-3.44-2.58-5.5-3.22-.27-.38,1.12-2.66,1.36-3.15.02-.23-1.06-1.28-1.23-1.16ZM58.4,22.33h-2.23c1.17,2.52,4.56,6.99,7.61,6.98,2.74-.01,6.46-4.54,7.33-6.98h-2.02c-1.02,1.67-3.17,4.89-5.32,4.97-2.03.08-4.64-3.25-5.35-4.97ZM44.86,28.74l1.19.83,1.6-1.88-1.07-.89-.53.4-1.05-.91.42-.55-1.73-1.32-5.32,6.28c-.29.95.1,1.78.83,2.37l2.93-3.31c.16-.01.92.66.99.8.09.2-.3.4-.15.7.13.26.81.6,1.05.84l1.54-2.09-.93-.69-.78.25-.93-.89,1.32-1.46,1.02.9-.39.63ZM105.56,35.02c-1.16.61-4-.64-4.16-1.91-.03-.28.13-.59.12-.94-.07-1.55-1.63-2.59-3.11-2.28-.72.15-1.38,1.09-1.73,1.2-1.41.42-3.13-.65-3.81-1.86l-.18-.04-2.39,1.38c-.32-.49-2.01-2.01-2.52-1.96s-1.42,1.64-1.96,1.96c-.61-1-1.62-1.52-2.44-2.3,2.87-1.48.17-1.24-.7-1.96-.28-.24-.25-.98-.56-1.18l-.14.7-.56-.42-.14.64-.56-.08.14.56-.7-.14.42.7c-.34.01-.74-.11-.97.21.24.57,1.56.56,1.78.8.08.09.17.59.34.85.5.76,1.46,1.19,1.2,2.22-.09.37-.97,1.21-1.29,1.5-.96.88-3.33,2.49-3.71,3.69-.11.36-.14.66-.15,1.03l-.54.1-.14-.64c-.54.2-.51.82-.05,1.1.37.23.8.07,1,.18.07.04.96,1.11.98,1.19.24.81-.98,1.85-.96,2.33.59.77.47,2.33.77,3.01.03.08.99,1.25,1.08,1.29.26.11.52.13.8.1.34-.34-1.06-1.52-1.19-1.94-.19-.61-.01-1.61-.31-2.29l2.27-2.88c.78.19.48,1.46.77,1.75.15.15.7.36.97.57s.63.71.86.82c.38.18.92.08,1.32.35.36.24,1.04,1.79,1.66,2.38.82.78,2.61,1.61,3.22,2.36.67.81,0,1.78.62,2.46.69.35,1.53-.99,2.31-1.04.9-.06,2.77.83,3.77.96.69.09,1.4-.12,1.97-.09.23.01.4.26.8.26s.76-.32,1.12-.02c.59.51.63,1.94.76,2.03l1.82-.36c.13.6-.2,1.01-.36,1.53-.07.24-.02.53-.1.74-.07.2-.93,1.85-1.01,1.92-.44.41-1.39-.46-2.02,0l.07.27c.19-.17.73-.15.77.14-.41-.12-1.48.91-.68.65.37-.12.67-.31,1.1-.23l-.14.98,1.04-.69c.58-.04.58.68,1.05.69l-.68-1.44,1.1-2.04c.55-.14.59.48.97.69l.56-1.12c-.17,1.23-.84,2.87,1.13,2.29.27-1.31.63-2.62.54-3.97,1.07.25,1.4-.8,2.23-1.11l-.91,3.91c1.29-1.13,1.57-2.98.91-4.54-.33-.77-.99-1.09-.99-2.09,0-1.24,1.27-2.04,2.38-1.54,2.04.92,2.79,4.78,2.37,6.77l.98-2.02c1.02-2.62,1.14-5.48.54-8.22-.16-.72-.43-1.41-1.31-1.36-1.12.07-1.25,2.35-2.28,3.03-.89.58-1.97.27-1.46-.9.11-.26.47-.25.68-.44.48-.45.24-.83.37-1.3.12-.42.98-1.16.83-1.89l.81-.17c-.21-.33-.48-.38-.28-.82l-.55-.15.14-.56h-.56s-.21-.56-.21-.56c-.31,1.14-1.96.35-2.3,1.19-.14.34.53.16.71.44.1.16.16.6.24.84.05.14.29.33.29.39-.02.51-1.23,0-1.72.08-.42.07-1.79,1.11-2.17.91-.83-.83.28-1.16.77-1.75.09-.11.37-.28.14-.42-1.91,1.09-2.38,1.23-2.53,3.5-.08,1.24-.19,2.44-.32,3.69-.17,1.69.49,1.79-1.05,2.99-.16.13-.68.64-.83.42l-.71-1.4c1.35-1.37,1.9-2.44,2.03-4.39.07-1.04-.19-2.47.21-3.42.5-1.17,2.71-1.71,2.84-2.19l-.54-3.67ZM56.02,29.72l1.22-2.58-.58-.77c-.18.62-.29,1.27-.48,1.89-.12.37-1.02,1.67-.15,1.46ZM71.65,29.72l-.91-3.07-.21-.28-.51.84c.53.62.74,1.54,1.17,2.18.12.18.16.38.44.32ZM76.68,30.84v.2c.4.3,1.1,1.72,1.57,1.72.09,0,1.51-.28,1.63-.32.58-.2,1.31-1.27,1.81-1.67-.49-.34-.87-1.35-1.26-1.67s-1.27-.45-1.67-.91c-.33,1.03-1.13,2.17-2.09,2.65ZM50.58,30.84c-.94-.45-1.59-1.44-2.02-2.38l-3.42,4.18c1.32-.15,2.67-.3,3.96.11.29-.06,1.59-1.76,1.48-1.92ZM40.54,45.21c-.47-3.37-1.08-6.74-1.88-10.05-.25-1.04-.82-3.87-1.39-4.61-1.21-1.57-4.32-.17-5.88,0-1.42.14-1.08-.38-1.96-.94-1.35-.86-3.53-.22-3.89,1.36-.28,1.19.37,1.64-.69,2.66-1.01.96-4.11,2.58-3.81,4.36.13.8,2.63,3.99,3.27,4.83,1.52,2.02,3.74,5.06,5.49,6.79.12.12.29.37.47.34,2.79-2.69,6.35-4.54,10.28-4.73ZM67.46,29.58c-1.17.66-2.47,1.4-3.87,1.36s-2.57-.76-3.8-1.36l-.56,1.39c1.64.45,3.1,1.31,4.4,2.38,1.32-1.05,2.76-1.91,4.39-2.38l-.56-1.39ZM43.47,33.35c-.22-.32-1.49-1.55-1.8-1.37-.25.69-1.8,1.88-1.95,2.45-.11.4.29,1,.26,1.43l1.27-1.31c.71-.41,1.4-1.08,2.22-1.2ZM44.3,38.93h-3.98c-.58.67-.03,2.26.83,2.38.49.07,3.04-.12,3.15,0-.25,2.12,2.09,3.63,3.9,2.43.55-.36.64-.88,1-1.24.29-.3.77-.42,1.11-.85.69-.89.61-2.49-.21-3.28-.26-.25-.87-.45-1.01-.6-.2-.22-.23-.72-.67-1.08-1.72-1.41-4.4.02-4.12,2.23ZM17.37,41.16h4.26s.29.24.35-.07c.1-.55-.81-2.02-1.33-2.02h-8.44v2.09l.56.06.13,1.47h-.7s0,1.39,0,1.39h2.51v-1.4s-.7,0-.7,0l.02-1.31c.12-.37,1.87-.3,2.01-.1l.06,1.4h-.7s0,1.53,0,1.53c.05.07.18-.14.21-.14h2.3v-1.4s-.56,0-.56,0v-1.54ZM76.95,42.42c-.47-1.19.25-1.79.8-2.72-.02-.32-1.37-1.01-1.5-.28-.15.84.02,2.4.7,3ZM85.05,44.09c-.31-.92-.99-.68-1.59-.99-.34-.18-.72-.75-1.07-1.02-.38-.3-1.16-.32-1.25-1.05-1,.18-.57,3.07-.07,3.07h3.98ZM22.46,42.42h-3.28v2.09c1.37-.41,2.71-1.01,4.19-.84.11-.1-.78-1.22-.91-1.26ZM43.47,42.7h-1.95l.14,1.4h2.51c-.31-.42-.71-.83-.7-1.4ZM11.41,69.03c-1.42-1.32.52-3,1.68-3.61,2.06-1.09,4.37-1.81,6.45-3.04,4.4-2.62,8-6.65,11.13-10.64.43-.63-.58-1.45-1.15-1.16-2.61,3.01-5.86,8.85-10.47,5.17-3.83-3.06-1.99-8.14,2.4-9.32.61-.16,1.98-.09,2.18-.76.54-1.83-2.51-.88-3.36-.56-7.24,2.72-6.15,12.23,1.29,13.43-2.09,1.54-5.96,2.36-8.41,1.43-1.13-.43-.66-.59-1.02-1.36s-1.59-.54-1.59.46c0,2.77,4.13,2.93,6.13,2.88-.16.23-.65.41-.93.54-2.74,1.28-6.96,2.26-6.3,6.2.38,2.29,3.5,3.11,4.74,1.04.31-.52.75-2.06-.02-2.27-1.6-.44-1.03,1.13-1.44,1.58-.33.35-.97.32-1.32,0ZM86.69,45.25c-.43-.41-4.08-.07-4.9-.16l-.19.18-.03,1.47,5.07-.16c.51-.18.35-1.06.06-1.34ZM25.35,45.93l-2.33,2.9c-1.46-1.49-4.34-.52-4.4,1.61-.02.55.35.98.38,1.41s-.17.89-.06,1.48c.19,1.03,1.4,1.9,2.41,1.89.43,0,.91-.32,1.27-.35.44-.03.85.22,1.39.12,1.6-.29,2.46-2.42,1.65-3.78-.14-.24-.79-.66-.75-.9.51-.73,2.13-2.08,2.09-2.95-.03-.69-1.09-1.77-1.66-1.44ZM13.37,72.05c-.74.63-3.08,4.65-3.69,5.72-21.09,37.06,1.07,83.98,42.7,91.59,49.81,9.1,89.29-42.32,67.12-88.06-.95-1.96-4.13-7.94-5.56-9.23-.55-.5-1.29-.61-1.88-1.47-.45-.66-.36-1.3-.65-1.86-.22-.42-1.71-1.99-2.14-2.46-21.88-23.84-58.77-26.71-84.14-6.55-2.82,2.24-6.57,5.57-8.72,8.44-.75.99-.79,2.12-1.62,2.98-.44.45-1.05.6-1.41.9ZM36.91,47.17c-.19-.18-2.95,1.19-2.79,1.39.83-.1,1.57,1.38,2.23,1.05.48-.24.15-1.87.56-2.44ZM110.58,61.96h2.16c.86,0,2.67-.53,3.29-1.18.68-.71,1.22-2.68-.21-2.6-.83.04-.63.8-.84,1.26-.43.93-3.82.93-4.74.84-1.5-.14-3.26-.96-4.54-1.74,4.3-.6,7.31-4.73,5.93-9-.25-.78-1.42-3.15-2.44-2.16-.68.66.38,1.55.66,2.13,1.92,3.92-1.77,7.89-5.82,7.29.18.43.21,1.23-.28,1.46s-.94-.18-1.4,0c2.65,2.41,5.39,4.19,8.6,5.77,1.55.76,5.66,1.85,5.35,4.12-.11.84-1.13,1.63-1.74.78-.33-.47-.06-1.2-.63-1.46-.87-.39-1.31.28-1.24,1.1.22,2.42,3.14,3.22,4.59,1.27,1.58-2.11.21-4.45-1.82-5.57l-4.87-2.31ZM44.44,47.58h-6.31c-.44.24-.19,1.45-.27,1.84-.07.33-.41.59-.39.94l6.97-2.79ZM89.34,47.89c-.07-.12-.8-.44-1.02-.45-.43-.04-.75.13-1.12.14-1.46.03-2.93,0-4.39,0l6.91,2.79.21-.07c-.75-.42-.39-2.08-.59-2.41ZM27,52.05c.13.14,1.48-1.75,1.66-1.88l-.9-1.04-1.16,1.35.4,1.58ZM36.07,50.93c-.83.08-1.86-1.48-2.56-1.24l-3.72,4.73,6.28-3.49ZM97.47,54.42l-3.44-4.44c-1.16-.67-1.75,1.05-2.97.81l6.42,3.63ZM100.96,54.42l-3.41-4.19c-.43-.34-1.44-.03-1.48.5-.05.59,2.54,3.31,3,3.98l.28.13,1.61-.42ZM101.79,52.89c-.39-.02-.95-.24-1.18-.56-.52-.73.12-1.84-1.47-1.53l2.1,2.65.56-.56ZM111.84,66.98h.2s1.05-.77,1.05-.77l-2.79-1.18c.39.74,1.23,1.21,1.54,1.95ZM16.95,65.17l-2.79,1.11c.54-.02.85.34,1.19.7l1.6-1.81Z"/>
      <path d="M296.73,93.49c.06.52.07,1.72,0,2.23-.28,2.18-1.97,4.54-3.95,5.47-2.77,1.3-4.97.8-7.83.67-1.14-.05-2.29.05-3.42,0-.06-.37.06-.24.3-.32.87-.27,1.08,0,1.22-1.16.42-3.5-.28-7.71.02-11.29-.15-1.64-1.83-1.03-1.82-1.25,0-.31.18-.28.4-.31,1.02-.13,2.37.25,3.44.11,4.57-.64,11.01.18,11.64,5.85ZM285.57,88.82v11.02c0,1.38,2.6,1.39,3.54,1.31,2.37-.2,4.22-1.34,4.79-3.72.97-4.02-.67-7.94-4.95-8.78-.56-.11-3.19-.43-3.38.17Z"/>
      <path d="M193.47,156.42c-.07-.4.09-.23.32-.3,1.08-.31,1.1-.33,1.21-1.59.31-3.52-.23-7.46,0-11.02-.16-1.36-1.24-.67-1.96-1.32,1.54-.36,3.12.28,4.68-.11l1.32.18-1.25.42c-.15.11-.22.27-.26.44-.3,1.35.23,3.35-.11,4.78l.15.28h7.12c.14-.09.18-.19.21-.35.11-.62.04-2.23,0-2.94-.02-.39-.1-1.7-.24-1.98-.06-.11-.08-.19-.22-.22l-1.5-.44c.63-.51,1.61-.08,2.3-.07,1.25.02,2.47-.16,3.7,0-.64.56-1.6.14-1.66,1.34.13,3.53-.21,7.23-.01,10.74.02.33.12,1.37.31,1.56.45.23.96.16,1.46.29.24.07.39-.1.32.3h-6.14c-.07-.41.09-.23.32-.3.67-.2,1.02-.06,1.18-.92.19-1.1.31-4.46.18-5.56-.02-.2-.02-.36-.22-.48h-7.19v6.07c0,.88,1.07.74,1.63.89.24.06.39-.1.32.3h-6Z"/>
      <path d="M141.56,156.42c-.07-.4.08-.23.32-.3.74-.2,1.07.07,1.2-.9.39-3.01.31-7.66.16-10.74-.08-1.55-.12-2.12-1.96-2.02-.03-.15,0-.26.14-.35.17-.11,3.59.08,4.12.08,2.53,0,4.94-.38,7.41.67,5.04,2.14,5.11,9.79.59,12.5-3.72,2.24-7.92.79-11.99,1.06ZM146.41,143.07c-.31.05-.79.09-.81.45.16,3.2-.21,6.6,0,9.78.11,1.72.31,2.27,2.17,2.43,5.35.46,7.76-3.94,6.04-8.69-1.03-2.83-4.52-4.42-7.4-3.97Z"/>
      <path d="M249.01,101.59l1.33-.28c.17-.16.3-1.19.33-1.49.24-2.71.27-7.9.02-10.59-.03-.32-.08-.84-.34-1.05-.44-.35-1.31-.06-1.61-.55.75-.25,1.61,0,2.3,0,2.6,0,5.18-.32,7.77.18,7.13,1.37,7.31,11.24.88,13.64-2.65.99-4.44.54-7.11.41-.98-.05-2.14.12-3.08.01-.21-.02-.43-.03-.48-.28ZM253.22,88.64c-.15.22-.16.48-.18.73-.18,2.48-.12,6.01,0,8.52.02.47.12,2.1.25,2.4.39.92,2.57.93,3.44.85,3.96-.33,5.3-3.22,4.97-6.89-.39-4.33-4.5-6.38-8.48-5.62Z"/>
      <path d="M160.65,60.04c5.27-.54,9.31,2.41,8.82,7.98-.39,4.34-4.18,7.21-8.44,6.91-9.33-.66-9.38-13.96-.38-14.89ZM160.37,61.01c-4.4.6-4.45,7.34-2.59,10.33,2.01,3.24,6.98,3.72,8.49-.25,1.64-4.32-.31-10.85-5.9-10.08Z"/>
      <path d="M191.63,114.6c5.6-.58,9.74,2.98,8.64,8.78-.76,3.99-4.29,6.34-8.26,6.11-9.25-.56-9.5-13.95-.38-14.89ZM191.34,115.57c-4.48.61-4.51,7.45-2.54,10.42,2.19,3.29,7.15,3.57,8.49-.55s-.45-10.62-5.96-9.87Z"/>
      <path d="M157.05,101.86c-.06-.39.08-.24.33-.3.33-.07.7-.01,1-.25.61-.5.3-2.01.34-2.73.15-3.1-.02-6.25.14-9.35.02-.35.16-1.97.36-2.02l10.74,11.02c.1-1.03.1-2.1.07-3.14,0-.3-.14-.58-.15-.84-.02-1.05.23-5.48-.31-6.03l-1.64-.52c.87-.47,2.01-.06,3.01-.07.65,0,1.46-.42,2.01.07l-1.19.48c-.2.19-.29.52-.33.79-.2,1.42-.13,4.01-.16,5.56-.02.98.15,7.36-.13,7.61-.37.05-.58-.15-.84-.35-2.04-1.55-5.22-5.14-7.12-7.12-1.03-1.08-1.95-2.28-3.06-3.28l.31,8.97c.21,1.23.69.96,1.6,1.2.24.06.39-.1.32.3h-5.3Z"/>
      <path d="M171.63,74.65c-.11-.03-.29-.24-.07-.35.79-.09,1.54-.04,1.61-1.04l.2-12.78.22-.48,10.81,10.88-.13-6.07c.04-.86.23-3.54-.48-3.98-.5-.32-1.42.12-1.48-.55h4.95c.06,0,.31.23.07.35-1.28.02-1.4.37-1.52,1.55-.38,3.8.14,8.25-.15,12.13l-.35.59-10.68-10.72.13,8.03c.1,1.41.3,2.22,1.96,2.02v.42h-5.09Z"/>
      <path d="M213.15,101.86c-.06-.4.08-.23.32-.3.29-.08.82-.07,1.01-.26s.33-1.28.35-1.6c.19-2.68.28-8.01,0-10.61-.16-1.46-.95-.91-1.95-1.4.79-.46,1.73-.06,2.57-.06,2.32,0,6.4-.76,7.64,1.85,1.05,2.21-.4,4.28-2.05,5.67v.15c1.43,1.67,2.83,3.99,4.54,5.37.86.69,1.1.6,2.07.87.25.07.36-.04.3.32h-3.56c-1.49,0-4.2-4.48-5.1-5.64-.46-.37-1.52-.22-2.09-.16-.1.07-.11.18-.13.29-.1.53.03,3.83.17,4.44.18.83.86.59,1.48.76.25.07.36-.04.3.32h-5.86ZM217.05,88.61v6.07c1.1.63,2.77.65,3.52-.53,1.62-2.55-.12-6.6-3.52-5.54Z"/>
      <path d="M146.45,87.91c-.65-.02-1.44,0-1.52.78.35,2.8-.95,9.51,1.18,11.5,1.78,1.67,5.04,1.14,5.9-1.22.44-1.21.29-2.14.3-3.31.03-2.33.02-4.66,0-6.98-.23-.8-.97-.69-1.6-.78-.19-.03-.42-.06-.21-.27.99-.31,1.96.02,3.01,0,.68-.01,1.56-.43,2.15.07l-1.25.42-.26.44c-.29,5.91,1.74,14.49-7.2,13.56-6.48-.68-3.97-8.93-4.59-13.13-.18-1.21-.74-.94-1.71-1.09-.19-.03-.42-.05-.21-.27,1.31-.21,2.63.04,3.98,0,.57-.02,1.9-.54,2.02.27Z"/>
      <path d="M155.73,129.21c-.11-.03-.29-.24-.07-.35.59-.09,1.13-.05,1.61-.48,2.15-4.4,3.73-9.11,5.62-13.64.6-1.02,1.13.85,1.35,1.36,1.53,3.46,2.67,7.54,4.35,10.86.3.6.63,1.2,1.18,1.62l1.39.42c-.16.25-.37.2-.62.22-.52.04-4.25.01-4.4-.15-.16-.44.35-.21.41-.28.21-.24-1.31-3.84-1.52-4.4h-4.48c-.17.11-1.38,3.45-1.39,3.79,0,.87.84.46,1.25.68.23.11,0,.35-.07.35h-4.6ZM164.59,123.21l-1.68-4.74c-.09-.07-.25.23-.31.32-.68,1.26-1.03,3.09-1.65,4.42h3.63Z"/>
      <path d="M245.23,114.43c1.39,3.16,2.51,6.44,3.85,9.62.43,1.01,1.45,3.89,2.25,4.45l1.58.51c-.16.25-.37.2-.62.22-.51.04-4.08.04-4.27-.07-.13-.08-.16-.2-.14-.35l.4-.32-1.53-4.13-4.6.06c-.1.88-1.65,3.5-1.11,4.19.24.31.78.18,1.13.2v.42s-4.89,0-4.89,0v-.42c1.07.11,1.64-.22,2.15-1.13l5.14-12.86c.11-.29.34-.44.66-.38ZM246.22,123.21c-.45-1.34-.87-3.07-1.46-4.33-.05-.1-.24-.5-.35-.42l-1.68,4.74h3.49Z"/>
      <path d="M257.38,74.65v-.42c1.07.11,1.64-.22,2.15-1.13l5.31-13.11.43-.13,5.44,13.13.72.95,1.58.51c-.16.25-.37.2-.62.22-1.4.11-2.87-.06-4.27-.07l-.14-.35.4-.32-1.53-4.13c-.64.09-4.38-.23-4.6.06-.1.88-1.65,3.5-1.11,4.19.24.31.78.18,1.13.2v.42h-4.88ZM266.31,68.65c-.45-1.34-.87-3.07-1.46-4.33-.05-.1-.24-.5-.35-.42l-1.68,4.74h3.49Z"/>
      <path d="M246.77,64.33c-.6.02-.35-.64-.45-1.01-.69-2.58-5.18-2.78-7.18-1.8-1.41.69-2.41,2.63-2.56,4.14-.48,4.94,2.37,8.72,7.59,8.01,1.57-.21,2.05-1.39,2.66-2.64.4-.01.07,1.44.03,1.7-.29,1.67-.3,1.76-2,2.05-5.49.94-11.49-1.66-11.07-8,.34-5.15,4.81-7.03,9.42-6.77.55.03,3.73.4,3.82.78l-.26,3.55Z"/>
      <path d="M154.25,115.13c-.01.34.06,3.74-.33,3.75-.31-.45-.22-.95-.46-1.49-.75-1.68-3.49-1.99-5.1-1.84-5.86.54-5.81,9.75-1.02,12.15,1.73.87,5.05,1.02,6.21-.81.24-.13.35-1.44.65-1.3.27.13.19.36.18.58-.03.49-.37,2.4-.66,2.7-.76.8-4.77.62-5.9.44-4.9-.79-7.77-4.83-6.32-9.73,1.64-5.53,8.08-5.6,12.75-4.45Z"/>
      <path d="M190.39,142.34c.02.91.08,1.95.02,2.85-.03.46-.04,1.07-.56.9.36-3.37-4.94-3.83-7.07-2.82-4.72,2.24-3.25,11.71,2.68,12.3,2.26.23,3.71-.11,4.57-2.27.06-.14.06-.5.31-.38.27.13.19.36.18.58-.02.42-.36,2.38-.59,2.63-2.41.89-5.83.81-8.2-.17-6.13-2.54-5.86-11.69.49-13.68,2.71-.85,5.45-.35,8.19.05Z"/>
      <path d="M236.01,115.13c-.14,1.03-.03,2.1-.12,3.13-.02.24.03.46-.22.62l-.65-1.72c-.52-.72-1.06-1.06-1.9-1.31-10.42-3.05-9.93,14.04.15,12.35,1.08-.18,1.71-.79,2.18-1.73.17-.33.09-.92.57-.89-.07.96.01,3.03-.94,3.46-1.5.67-4.74.51-6.35.13-8.36-1.97-7.76-13.77,1.09-14.59,2.02-.19,4.2.18,6.18.55Z"/>
      <path d="M264.08,101.86c-.06-.4.08-.23.32-.3.95-.26,1.28-.1,1.85-1.09,1.93-3.95,3.09-8.8,5.06-12.66.14-.27.25-.55.51-.74.2.18.38.36.52.6,2.02,3.61,2.98,9.04,5.11,12.61.72,1.21.74.94,1.95,1.26.25.07.36-.04.3.32h-5.02c-.12-.41.33-.25.41-.5.15-.5-1.34-3.57-1.52-4.32l-4.45-.04c-.18.11-1.42,3.69-1.41,3.96.01.23.18.36.36.46.45.25,1.11-.04,1.03.44h-5.02ZM273.15,96l-1.68-4.88-1.9,4.59.15.29h3.42Z"/>
      <path d="M148.47,60.28c4.97.67,3.8,7.63-.98,7.95-.39.03-1.07.13-1.04-.42,4.34-.08,3.8-7.24-.61-6.68l-.21.21v11.54c.17,1.61.75,1.14,2.01,1.48l-.14.28h-5.72c-.06,0-.31-.23-.07-.35l1.12-.28c.26-.25.4-1.77.43-2.22.16-2.69.19-6.69,0-9.36-.04-.59-.07-1.48-.7-1.68-.39-.12-1.32.08-1.26-.48h7.19Z"/>
      <path d="M163.19,154.54c.2,1.13,2.38,1,3.26.89,1.7-.21,1.1-.95,1.69-1.8.14-.2.29-.07.34.09.11.43-.19,2.65-.67,2.78l-8.66-.08c-.07-.4.09-.23.32-.3.87-.26,1.06-.09,1.19-1.18.44-3.58-.3-7.9.02-11.57l-.44-.68-1.38-.43c.63-.51,1.61-.08,2.3-.07,2.2.05,4.63.14,6.77-.28-.08.76-.07,1.55-.13,2.31-.02.25.03.46-.22.62l-.55-1.26c-.16-.16-1.08-.41-1.26-.41h-2.58v4.95l.21.21h2.79s.75-.15.8-.17c.28-.1.34-.43.66-.39-.18.86,0,2.07-.14,2.86-.03.16-.08.25-.21.35-.23,0-.31-1.15-.52-1.36-.03-.03-.7-.31-.74-.31h-2.86c.19,1.56-.26,3.75,0,5.23Z"/>
      <path d="M205.19,88.61v5.16h2.86c.4,0,1.52-.64,1.6-.56l-.28,3.21c-.57.05-.3-.8-.55-1.2-.12-.19-.74-.48-.92-.48h-2.72v5.37c0,.95,2.77.84,3.39.73.32-.05.8-.26,1.02-.52.39-.45.16-1.21.76-1.26,0,.62.05,2.69-.65,2.9l-8.55-.11c-.04-.55.89-.26,1.19-.55.14-.14.3-.83.33-1.07.29-2.51.26-8.46.02-11.01-.06-.66-.13-1.08-.83-1.26-.38-.1-.95.08-1.13-.34.83-.3,1.63,0,2.44,0,2.15.03,4.48.14,6.57-.25l.21.31c-.35.85.17,1.91-.49,2.58-.39-.36-.05-.94-.49-1.32-.13-.11-1.04-.35-1.18-.35h-2.58Z"/>
      <path d="M237.29,154.68c.24,1.13,3.74,1,4.4.22.39-.45.16-1.21.76-1.26.11.13-.15,2.57-.31,2.76-.06.07-.15.09-.23.11l-8.66-.08c-.04-.55.88-.26,1.19-.55.17-.16.32-1.18.34-1.47.23-2.7.25-7.93,0-10.61-.03-.37-.07-.76-.34-1.05l-1.47-.48c.6-.45,1.58-.08,2.29-.07,1.73.03,3.74.1,5.45,0,.39-.02.76-.11,1.12-.26l.21.32c-.35.85.17,1.91-.49,2.58-.37-.32-.09-.84-.39-1.21-.14-.18-1.07-.46-1.28-.46h-2.51l-.18.21c0,.06.11.1.11.14v4.81h3.14c.54,0,1-.86,1.32-.34l-.27,2.99c-.57.05-.3-.8-.55-1.2-.12-.19-.74-.48-.92-.48h-2.72v5.37Z"/>
      <path d="M189.28,87.91l-.98.21-.14.29c.94,3.02,2.05,6.09,3.25,9.03.13.31.22.78.52.94l3.79-9.69-.06-.61c-.09-.17-1.59-.07-1.22-.45.93-.25,1.9,0,2.87,0,.57,0,1.32-.38,1.88.07l-1.21.46-.49.49-6.06,13.5-.48-.08-5.41-13c-.38-.89-1.35-1.22-2.26-1.16-.06-.31.03-.28.28-.35.72-.2,1.61.08,2.29.08,1.04,0,2.04-.13,3.08-.14l.35.42Z"/>
      <path d="M202.4,60.14v2.72c0,.08-.33.29-.42.21-.06-.79-.2-1.2-.97-1.47-.1-.03-.86-.21-.91-.21h-2.72v11.78c.24,1.61,1.73.79,2.02,1.2l-.14.28h-5.93v-.42s1.22-.17,1.22-.17c.04-.04.31-.83.31-.88v-11.79c-1.09.09-3.91-.27-4.61.62-.23.3-.22.65-.48.91-.3-.2-.21-.46-.19-.74.02-.34.34-2.1.62-2.17.42.1.8.24,1.24.27,3.03.18,6.86.11,9.92,0,.35-.01.68-.17,1.04-.15Z"/>
      <path d="M183.28,114.7v2.58c0,.11-.18.47-.42.35.09-.77-.27-1.23-.97-1.47-.1-.03-.86-.21-.91-.21h-2.72v11.93c0,1.16,1.84.78,2.02,1.05l-.14.28h-5.93v-.42s1.26-.21,1.26-.21l.27-1.12v-11.51s-3,0-3,0c-.19,0-1.14.22-1.32.35-.39.28-.47.84-.77,1.18-.29-.2-.22-.45-.2-.75.03-.34.37-2.1.62-2.16.42.09.8.24,1.24.27,3.03.18,6.86.11,9.92,0,.35-.01.68-.17,1.04-.15Z"/>
      <path d="M222.43,60.28c.1,0,.28-.22.49-.14l-.28,2.79c-.61.01-.3-.66-.55-1.06-.06-.09-.58-.48-.64-.48h-3.56v5.02h3.7c.15,0,.72-.62.77-.56-.01.86-.06,1.73-.13,2.59-.02.24.01.46-.22.62-.3-2.22-2.49-1.54-4.12-1.67v5.79c0,1.41,1.8.88,2.02,1.19l-.14.28h-5.93v-.42s1.22-.17,1.22-.17c.12-.12.27-.95.29-1.17.27-2.78.26-8.21.02-11.01-.12-1.48-.78-1.06-1.96-1.32l.21-.28c2.81-.21,6.03.28,8.79,0Z"/>
      <path d="M236.87,90.7h-.42c.23-3.32-5.47-3.34-4.68,0,.48,2.02,5.1,3.36,5.51,6.49.51,3.89-2.63,5.32-6.04,4.93-.32-.04-1.5-.36-1.7-.53-.54-.47.08-2.76-.06-3.5h.42c.01.67.17,1.47.56,2.02,1.27,1.83,4.84,1.36,4.89-1.12.06-2.97-5.74-4.08-5.59-8.23.12-3.48,4.54-4.05,7.13-3.07.32.32.01.76,0,1.12-.02.63.01,1.26,0,1.88Z"/>
      <path d="M208.68,114.84c.18.14,0,.25-.17.32-.66.28-1.45-.23-1.63.88.2,3.38-.3,7.12-.01,10.46.07.81.19,1.4,1.08,1.57.62.12,2.4.12,3.01,0,1.03-.2,1.02-1.18,1.43-1.92.44,0,.08,2.55-.2,2.87-.1.11-.2.19-.36.2h-9s0-.41,0-.41l1.22-.17.3-.89c-.14-3.62.21-7.41.07-11.01-.02-.58-.05-1.27-.72-1.44-.38-.09-1.03.15-1.02-.45h6Z"/>
      <path d="M226.96,142.47c-.77-.04-1.67.02-1.81.92.2,3.34-.29,7.03-.01,10.32.13,1.54.55,1.64,2.02,1.74,1.1.08,2.62.12,3.16-1.04.15-.32.03-.95.55-.92.01.62-.03,2.7-.59,2.97l-9.18-.04c-.07-.4.09-.23.32-.3.74-.22,1.06-.08,1.2-1.04-.22-3.74.34-7.89.02-11.58-.02-.25-.02-.51-.18-.73l-1.5-.52c.63-.5,1.58-.08,2.29-.07,1.13.02,2.23-.08,3.35-.15l.36.42Z"/>
      <path d="M255.43,60.28c-.22.88-1.32-.09-1.53,1.19.2,3.76-.3,7.86-.01,11.58.02.25.05.75.24.91.54.46,1.36.05,1.85.48-.17.25-.37.2-.62.22-1.83.14-3.69-.16-5.52,0v-.42c1.04.05,1.39,0,1.52-1.06.44-3.57-.3-7.92.02-11.57-.13-1.15-.83-.8-1.68-1.05-.04-.05.18-.28.21-.28h5.51Z"/>
      <path d="M210.49,60.28c-.22.88-1.32-.09-1.53,1.19.3,3.69-.43,8.11-.01,11.72.19,1.59,2.1.78,2.09,1.25-.17.25-.37.2-.62.22-1.83.14-3.69-.16-5.52,0v-.42c2.06.39,1.51-1.89,1.53-3.13.04-2.87.21-6.21.06-9.03-.02-.42-.11-1.22-.57-1.35-.37-.11-1.03.17-1.02-.45h5.58Z"/>
      <path d="M231.43,60.28c-.2.84-1.34,0-1.53,1.19.24,3.68-.35,7.82-.01,11.44.04.4.08.85.43,1.11.56.42,1.19-.03,1.67.42-.17.25-.37.2-.62.22-1.27.09-3.65.11-4.9,0-.31-.03-.65.02-.62-.43.7.04,1.4.05,1.53-.78.15-.93.13-2.48.15-3.47.05-1.99.07-4.17,0-6.16-.02-.51-.1-2.44-.21-2.71-.31-.75-1.41-.07-1.46-.84h5.58Z"/>
      <path d="M220.33,114.84l.14.28c-.04.05-.09.1-.16.12-.99.25-1.27-.25-1.43,1.22-.28,2.6-.21,7.65-.02,10.32.12,1.68.21,2.18,2.1,2.02v.42c-.12.13-2.78-.1-3.28-.1-.32,0-2.85.35-2.86-.1.29-.37.73-.12,1.11-.28.46-.2.53-1.32.57-1.81.2-2.8.23-7.56,0-10.34-.13-1.61-.45-1.04-1.45-1.34-.19-.06-.27-.2-.23-.39h5.51Z"/>
      <path d="M240.22,101.86c-.04-.54.87-.28,1.2-.54.2-.16.31-.79.33-1.06.36-3.61-.25-7.77,0-11.43-.16-1.01-1.02-.71-1.67-1.13.73-.42,1.54-.07,2.3-.06.9,0,2.01-.2,2.8-.14.25.02.45-.06.62.21l-1.25.42c-.3.23-.41,1.75-.43,2.22-.16,2.8-.04,5.87.14,8.66.04.53-.07,1.16,0,1.66.17,1.03.9.67,1.64.87.25.07.36-.04.3.32h-6Z"/>
      <path d="M212.17,156.42c-.07-.42.1-.22.34-.28.33-.08.84-.06,1.05-.35.18-.26.28-1.8.3-2.22.12-2.68.26-7.03-.02-9.62-.03-.28-.16-1.02-.33-1.2l-1.32-.49c.16-.24.37-.21.62-.22.85-.05,1.97.17,2.94.16.6-.01,1.9-.53,2.02.27-.96-.02-1.42.18-1.53,1.19.23,3.56-.31,7.51,0,11.02.15,1.68.52,1.11,1.77,1.45.24.07.39-.1.32.3h-6.14Z"/>
      <path d="M175.89,101.86c-.07-.48.85-.32,1.16-.45.43-.18.49-1.49.52-1.98.16-2.8.27-7.47,0-10.19-.12-1.17-.52-1.37-1.67-1.33.13-.83,1.56-.29,2.16-.27,1.21.03,2.4-.22,3.56,0-.26.46-.97.21-1.33.55-.2.18-.29.66-.32.93-.31,2.57-.22,8.08-.02,10.73.02.28.17,1.28.32,1.43.45.24.98.18,1.45.29.25.06.4-.1.33.3h-6.14Z"/>
      <path d="M195.26,110.54l.58,1.65c-1.57-.3-2.79.71-4.11,1.12-.11.03-.37.24-.35-.07,0-.06.77-.78.91-.9.37-.33,1.95-1.59,2.3-1.74.21-.09.45-.13.67-.05Z"/>
      <path d="M63.53,61.29c38.35-.14,60.99,43.65,38.23,74.81-19.95,27.31-61.28,25.26-78.51-3.77-18.5-31.18,4.18-70.91,40.28-71.04ZM63,62.93c-23.99.09-44.54,20.51-44.65,44.51h44.65v-44.51ZM109.19,107.45c-.1-8.92-3.05-17.74-8.12-25.02-8.26-11.86-21.97-19.33-36.53-19.49v44.51h44.65ZM63,108.98H18.35c-.11,24.06,20.57,44.85,44.65,44.79v-44.79ZM109.19,108.98h-44.65v44.79c24.08.05,44.73-20.72,44.65-44.79Z"/>
      <path d="M73.61,158.52c.02.57-.76.1-.79.78.28,2.15.3,4.38.86,6.48.34.33,1.01-.13.91.41l-3.35.28c.05-.32.51-.23.63-.41.33-.48-.17-2.54-.08-3.22l-3.91.42c.19.56.14,3.02.65,3.19.33.11,1-.21.89.3l-3.49.28c.24-.41.89-.27.85-.91-.21-.83-.45-6.03-.84-6.29-.26-.17-.75.09-.98-.27.17-.28.39-.18.62-.21.9-.13,1.82-.15,2.72-.28.09.43-.5.37-.63.55-.33.47.25,2.28.08,2.94l3.9-.42-.41-2.86-.97-.28c.17-.27.4-.17.63-.22.85-.16,1.85-.2,2.72-.27Z"/>
      <path d="M122.16,113.87l-.58,1.58c-2.01,3.45-7.23,1.95-7.51-1.93-.39-5.31,6.57-6.36,7.89-1.75.09.32.03.66.13.99.18.63,1.27,1.87,1.31,2.32.02.19-.12.3-.26.39h-.57s-.41-1.6-.41-1.6ZM117.11,110.55c-2.31.39-3.46,3.69-1.09,4.79,2.11.98,5.67.26,5.51-2.61-.13-2.18-2.7-2.47-4.42-2.18Z"/>
      <path d="M100.4,72.84c.42.07.61.48,1.08.17l4.75-3.83c.27-.07-.56-1.49-.04-1.23.14.07,1.78,2.13,2.02,2.44,1.66,2.2,2.89,4.56.21,6.62-1.61,1.23-3.41,1.02-4.95-.2-.75-.6-2.38-2.64-2.94-3.48-.11-.17-.17-.28-.13-.49ZM107.05,70.34c-.63.74-4.35,3.21-4.54,3.85-.24.82,1.22,2.2,1.93,2.48.89.35,1.43.14,2.23-.27,1.62-.84,2.29-2.29,1.86-4.09-.1-.44-.98-2.1-1.48-1.96Z"/>
      <path d="M85.05,62.23l.07-.28c.32,0,.65.32.91-.06l2.96-5.14c.44-.8-.27-.78-.45-1.36.13-.11,2.15,1.05,2.47,1.23,1.9,1.12,4.05,2.37,3.64,4.94-.21,1.32-1.55,2.83-2.86,3.14-2.71.64-4.46-1.51-6.73-2.48ZM90.44,57.23c-.25.08-2.47,4.09-2.68,4.58-.52,1.18.17,1.57,1.24,1.98,3.13,1.21,5.21-2.76,3.64-5.04-.31-.45-1.64-1.71-2.2-1.53Z"/>
      <path d="M38.81,158.47c-2.76,2.68-6.02-.35-8.46-1.83l.74.05c.17-.06.25-.21.37-.33.62-.66,2.58-4.02,3.01-4.94s-.11-.62-.35-1.4l3.81,2.26c2.32,1.47,2.97,4.17.88,6.2ZM33.04,157.64c.35.44,1.99,1.12,2.56,1.15,1.53.07,2.91-2.03,2.99-3.41.06-.96-.37-1.91-1.06-2.58-.28-.27-1.34-1.11-1.68-.85-.46,1.01-3,4.39-2.99,5.24,0,.16.08.33.18.46Z"/>
      <path d="M16.79,132.46c4.19-.3,6.45,6.16,2.17,8.04-5.75,2.54-8.9-7.56-2.17-8.04ZM17.62,133.57c-2.24.31-4.8,3.09-3.11,5.28,1.82,2.35,5.82-.38,5.74-2.84-.04-1.46-1.13-2.64-2.63-2.43Z"/>
      <path d="M39.56,55.12c-.15.35-.71.49-.47.94l3.26,6.24-.45.19-7.36-2.21,2.23,3.98c.42.46.76.32,1.26.07-.01.16.08.3-.09.43-.42.33-1.87.93-2.43,1.1l.49-.56v-.41s-3.28-6.42-3.28-6.42l7.81,2.23-2.29-4.05c-.34-.47-.73-.16-1.19-.13-.08-.37.09-.24.27-.35.66-.39,1.51-.89,2.24-1.05Z"/>
      <path d="M15,122.38l-3.21,7.39c1.06-.68,3.32-.98,4.23-1.69.52-.4.25-.69.23-1.24.36-.07.25.07.34.28.33.7.61,1.74.77,2.51l-.73-.67-7.08,2.21,3.49-7.39-4.38,1.69c-.7.29-.03.83-.44,1.24l-.9-2.79.74.67,6.94-2.2Z"/>
      <path d="M70.77,50.98c.98,1.12.13,2.79-1.01,3.44v.15c.82,1.38,1.49,2.73,2.98,3.45.19.09.38-.09.31.31-1.07.06-2.16-.1-2.91-.93-.48-.53-1.13-2.11-1.48-2.42-.24-.21-.68-.13-.97-.28-.18.02-.52,2.33-.08,2.72.28.24.77.05.69.49l-3.21-.28c.27-.44.89-.13.91-.83-.01-1.55.41-3.17.48-4.68.02-.35.07-1.24-.02-1.51-.16-.46-.89-.14-.81-.65,1.34.21,4.18-.04,5.11,1.03ZM67.88,50.79l-.26,3.12c.7.53,1.73.3,2.04-.57.49-1.37-.2-2.72-1.78-2.54Z"/>
      <path d="M23.23,66.42c-.07-.33.05-.35.23-.54.3-.3,1.22-1.05,1.6-1.33.12-.09.58-.47.68-.36l-.31.93c1,1.1,2.89,4.3,4.46,4.33.35,0,.95-.3,1.23-.51,1.55-1.22.24-2.68-.63-3.83-.3-.39-1.72-2.14-2.01-2.31-.55-.32-.68.08-1.19.15-.05-.23.08-.28.21-.41.12-.11,1.94-1.64,2.02-1.54.06.4-.37.59-.26,1.01.14.51,2.33,2.68,2.8,3.49.94,1.63.7,3.13-.82,4.26-3.44,2.57-4.99-2.08-7.23-3.69l-.77.37Z"/>
      <path d="M100.12,144.14c-.22-.28,1.52-1.97,1.74-2.37.45-.19-.02.74.07.84l1.6.42c.27-.03,1.74-1.74,1.72-2l-.89-1.49-.56.42c-.19.04-.26,0-.21-.21.12-.42,1.42-1.67,1.81-2.03.07.35-.26.62-.28.92-.07.95,3.73,6.7,3.63,7.24l-.45.19c-2.24-.53-4.66-1.79-6.89-2.19-.6-.11-.76-.09-1.3.26ZM107.1,144.28l-1.47-2.51c-.17.32-1.42,1.39-1.19,1.67l2.65.84Z"/>
      <path d="M24.35,76.19l-1.74,2.51.07-.84-1.64-.39c-.34,0-1.38,1.72-1.57,2.13l.97,1.4c.19.08.47-.13.42-.35.21-.02.33-.06.28.21-.02.11-1.17,1.85-1.25,1.93-.15.14-.24.1-.43.09.27-.42.41-.87.17-1.36-1.1-1.8-2.42-3.49-3.49-5.3-.24-.4-.59-.83-.58-1.3.26-.26,6.22,1.42,7.2,1.52.66.07.99-.03,1.59-.26ZM18.91,78.98l1.25-1.6c0-.2-2.41-.7-2.79-.77l1.54,2.37Z"/>
      <path d="M112.58,92.75c.25.2,1.58.37,2.01.44,1.98.32,4,.44,5.96.86.15-.02.11.27.08.34-.15.33-4.89,3.46-5.64,4.13-.22.2-.53.47-.7.7-.22.3-.09.78-.49.69l-.56-2.93.44.54h.3s1.23-.88,1.23-.88l-.44-2.57-1.94-.15c-.1.1.24.85-.28.7-.06-.77-.55-1.7-.56-2.44-.01-.63.53.53.6.59ZM118.26,94.47l-2.79-.28.42,1.95,2.37-1.67Z"/>
      <path d="M101.23,63.21c.03.24-.01.47-.06.7-.3,1.41-2.34,6.35-2.15,7.29.05.24.3.39.26.66-.22.22-2.11-1.66-2.37-1.88l.83.07.57-1.73-1.83-1.55c-.24-.12-1.68.6-1.68.98l.21.63-2.02-1.61c-.21-.5,1.04.34,1.26,0,2.13-.94,4.26-2.5,6.36-3.41.2-.09.37-.2.61-.15ZM99.42,65.03c-.09-.09-1.61.79-1.8.92-.16.1-.73.39-.57.61l1.53,1.12.84-2.65Z"/>
      <path d="M62.02,161.59c-.56.03-.29-.45-.41-.77-.21-.58-.62-.85-1.19-1.06-4.83-1.73-5.48,5.89-1.67,6.41.52.07,1.74.1,2.15-.2.21-.15.57-1.13.77-.77.09.17-.2,1.16-.32,1.36-.54.93-3.2.31-4.08-.03-3.87-1.53-3.23-7.1.92-7.59,1.28-.15,3.01.08,4.08.76l-.26,1.87Z"/>
      <path d="M59.93,50.79l.14,2.79c.5-.16,1.08-.04,1.57-.17.34-.09.46-.39.8-.39-.03.3.13,1.82-.21,1.81-.33-1.05-1.28-.7-2.16-.69l.26,2.85c.54.13,1.81.23,2.17-.2.18-.22.14-.82.42-.69.41.18-.05,1.15.06,1.52l-5.01.29.83-.77-.43-6.47c-.16-.26-1.09.07-.96-.44l4.82-.38c.34.06.27,1.64,0,1.64-.46-1.26-1.27-.7-2.3-.7Z"/>
      <path d="M11.79,87.07c-2.62-.45-3.79,3.42-1.72,4.86,1.7,1.18,4.32,1.35,5.35-.74.28-.56.56-1.61.38-2.21-.06-.19-1.15-1-.6-1.08.29-.04,1.46.77,1.53,1.1.17.78-.88,3.1-1.4,3.77-2.19,2.83-6.7,1.54-7.02-2.03-.14-1.63.64-3.27,1.52-4.6l.18-.04c.54.42,1.42.36,1.77.96Z"/>
      <path d="M118.38,88.31l-1.94.57.87-1.01c.43-1.05-.25-2.76-1.16-3.37-1.67-1.13-4.91.26-5.26,2.26-.18,1.07.39,3.31,1.61,3.5.36.06.62-.27.87.09-.02.31-1.53.58-1.86.47-.26-.09-.92-1.42-1.05-1.74-.99-2.46-.72-5.16,2.08-6.12,3.47-1.19,5.74,2.31,5.84,5.35Z"/>
      <path d="M110.58,139.4c.4.05.58.31,1.04.29,1.27-.06,2.44-2.11,2.28-3.25-.21-1.42-2.29-2.87-3.67-2.91-1.51-.04-3.13,1.41-3.25,2.91-.05.66.39.85.53,1.42-.57-.08-1.42-.7-1.4-1.32.04-1.28,2.01-3.62,3.18-4.09,1.95-.79,4.44.17,5.17,2.16.86,2.32-.58,4.54-2.2,6.12-.24-.07-1.93-1.09-1.67-1.33Z"/>
      <path d="M25.3,141.25c.06.03.64.91.79,1.09.2.23,1.3,1.11,1.05,1.39-.45-.11-.67-.5-1.17-.12-1.31,1.31-3.07,2.45-4.34,3.75-.14.14-.27.28-.3.49,0,.21.75.88.17.9-.93-1.45-3.52-2.96-2.71-4.94.59-1.44,3.22-1.53,3.96-.22.1.17.2.47-.14.42-1.46-1.75-4.21,1.36-2.11,2.5l4.49-3.89c.73-.85-.29-1.21-.07-1.4.03-.02.31-.02.39.03Z"/>
      <path d="M94.4,150.98c-.33.07-.41-.34-.66-.4-.33-.08-1.22.56-1.54.78-.1.07-.24-.04-.16.23l1.39,2.17c.79-.23,1.49-.8,1.87-1.52.2,0,.87,1.37.77,1.67-.7-.84-1.58-.2-2.1.48l1.42,2.29c.93-.2,2.29-.94,1.79-2.07.17-.19,1.13,1,.63,1.54-.79.85-2.89,1.57-3.77,2.51-.43-.29.18-.38.21-.77.02-.17-.06-.29-.11-.45-.19-.55-2.7-4.33-3.18-4.92-.12-.14-.21-.28-.42-.29-.19-.14-.96.52-.9.07l3.86-2.71c.45-.21.98,1.27.88,1.38Z"/>
      <path d="M55.46,50.37l-.1.42c-.44.02-.57.29-.7.66-.74,2.02-.81,4.95-1.47,7.04-.06.18-.18.58-.45.52-.37-.08-3.75-5.55-4.4-6.21-.28-.39-.66-.29-1.04-.35-.18-.03-.43-.05-.21-.27l3.21-.56-.54.48,3.05,4.68.84-5.58c-.1-.1-.85.24-.7-.28l2.51-.56Z"/>
      <path d="M48.49,156.84l-.77,1.53c.08-1.28-.91-1.21-1.82-1.65l-1.04,2.63c.86.19,1.45.77,2.37.42l-.56,1.53h-.41c.46-1.03-.96-1.18-1.67-1.39l-.82,2.7c.1.3,1.45.75,1.76.75.6,0,.51-.62,1.02-.66l-.7,1.47-4.6-1.68c.31-.42.78.21,1.03-.36.51-1.42,1.13-2.81,1.62-4.24.14-.43.68-1.72.49-2.03-.17-.28-.73-.1-.63-.56l4.74,1.54Z"/>
      <path d="M7.32,114.98c-1.14-.22-.63,2.5-.48,2.52l6-1.11c.49-.15.56-.47.39-.92l.37-.2.42,3.35c-.31-.02-.34-.61-.44-.67-.52-.32-5.55.97-6.54.95.24,1.01.11,2.19,1.25,2.58,0,.29-1.29.26-1.54.15l-1.11-6.43c.03-.42,1.5-.68,1.68-.21Z"/>
      <path d="M121.89,100.19c-.32,2.15.22,4.51.42,6.7-.42-.13-1.44.41-1.67-.07l.7-.45v-2.13c-2.15.26-4.44.19-6.53.73-.3.29.07,1.04-.45.94.09-.97-.21-1.94-.24-2.9,0-.23-.07-.28.17-.45l.56.7,6.35-.42c-.11-.57-.05-2.03-.48-2.38-.17-.14-.61-.05-.5-.33.15-.37,1.35.04,1.67.07Z"/>
      <path d="M7.18,101.87c.1.5-.55.11-.77.55l-.21,1.96,3.07.14c-.2-.78.32-1.7-.28-2.37.29.03,1.81.1,1.81.35-.16.27-.63.14-.77.34-.12.16-.28,1.74-.2,1.82,1.31-.2,2.99.88,3.28-.98.23.17.21.35.2.61-.05.87-.26,1.85-.27,2.74-.57,0,0-.64-.8-.81-1.9-.03-3.81-.39-5.7-.45-.2,0-.59.04-.73.18-.26.26.04.9-.45.8l.28-5.16,1.53.28Z"/>
      <path d="M79.19,53.72c-.45.11-.22-.38-.34-.71-.38-1.03-2.1-1.48-2.36-.1-.19,1.05,1.74,2.32,1.97,3.42.51,2.47-1.58,3.46-3.67,2.69-1.55-.57-.93-1.27-.41-2.52.34.38.09.97.28,1.39.39.89,2.32,1.08,2.56-.1.34-1.68-2.87-2.91-1.8-5.28.44-.97,1.6-1.16,2.56-1,1.7.27,1.65.67,1.22,2.2Z"/>
      <path d="M85.75,154.47l-.63.56-.04.31,2.48,5.35c.97.56,2.78-.49,2.24-1.75.26-.31.88,1.19.63,1.68-.19.38-3.85,1.65-4.47,2.09-.25-.63.49-.27.32-1.15-.16-.8-1.5-3.44-1.94-4.34-.15-.3-.59-1.3-.82-1.42l-.84.15c.05-.34.52-.48.79-.61.68-.33,1.55-.77,2.28-.86Z"/>
      <path d="M113.65,118.89c-.02.46-.06.71.38.95.63.34,4.91,1.43,5.73,1.53.17.02.43.1.57.01l.37-.82c.27.18.16.29.12.53-.14.89-.62,1.9-.75,2.82-.6-.38.23-.75-.6-1.15l-5.47-1.38c-.84,0-1.08,1.7-.88,2.29.1.29.74.34.67.79-.38-.09-1.57-.44-1.65-.79-.14-.59,1.21-3.72,1.2-4.61l.31-.18Z"/>
      <path d="M13.18,112.61l-.5-.82-6.51.29-.65.81-.14-3.07c.47-.1.23.47.45.66.06.06.38.13.49.14,1.4.06,3.82-.11,5.27-.24.35-.03.71-.14,1.06-.2l.41-1.05.14,3.49Z"/>
      <path d="M45.14,53.03c.08.4-.46.38-.54.65-.19.59,1.9,5.12,2.11,6.08.25.69.86.04,1.36.31l-3.35,1.19c.91-.62.53-1.17.28-2.02-.49-1.64-1.3-3.22-1.8-4.87-.23-.3-1.11.22-.99-.36l2.93-.98Z"/>
      <path d="M83.09,61.12c.08.38-.17.31-.46.25-.79-.19-2-.8-2.75-1.16,1.24.11,1.39-1.17,1.78-2.13.36-.9,1.28-3.06,1.42-3.89.13-.77-.2-.52-.55-1.03.38-.03,2.92.89,2.93,1.05.02.3-.59.03-.74.08l-2.41,6.13c-.11.44.44.64.78.7Z"/>
      <path d="M6.91,96l.08.85c.88.19,6.34,1.48,6.73,1.22.19-.26.1-1.04.58-.96l-.56,3.35c-.49.11-.17-.4-.34-.7-.16-.27-3.25-.83-3.81-.93-.47-.09-2.75-.54-2.97-.4l-.55.63c.25-.89.3-1.86.54-2.75.07-.24-.1-.39.3-.32Z"/>
      <path d="M12.52,81.6c.25.43,4.97,2.33,5.69,2.9.61.16.64-.59,1.12-.78.05.24-.08.41-.16.61-.11.28-1.13,2.31-1.23,2.39s-.28.13-.28,0c.02-.35.27-.53,0-.83-.23-.27-4.21-2.29-4.83-2.57-.19-.09-.97-.44-1.08-.42-.29.05-.39.61-.79.53l1.53-2.79c.05.26-.09.74.03.95Z"/>
      <path d="M111.56,126.01c.04.2-.14.44-.11.61.07.38,2.28,1.21,2.76,1.41.59.25,2.89,1.26,3.31,1.31.63.06.36-.57.87-.54l-.98,2.79c-.49.11-.19-.43-.3-.74-.16-.44-5.12-2.08-5.87-2.51-.16-.06-.3-.04-.44.06-.38.25-.2.74-.65.69-.04-.24.03-.44.11-.66.15-.42.71-1.86.9-2.17.1-.18.15-.29.39-.24Z"/>
      <path d="M79.61,156.84c-.02.27-.52.35-.56.52-.12.43,1.55,6.4,1.84,6.58.24.15.83-.11,1.09.09l-3.21,1.05c-.08-.4.45-.38.54-.65.12-.35-1.29-5.13-1.56-5.8-.08-.19-.23-.66-.38-.75-.26-.16-.7.29-.84-.2l3.07-.84Z"/>
      <path d="M103.58,36.72l.18,1.55c-1.13.71-2.02,1.12-2.43,2.5-.62,2.1.66,4.34-1.56,5.97-1.96,1.44-4.2.18-6.32-.24-.38-.08-.81.04-1.15-.11-.25-.11-.87-.93-1.19-1.18-1.18-.94-2.86-1.62-3.42-3.14-1.52-4.06,3.6-4.44,3.91-7.54.07-.75-.15-1.45-.21-2.17l1.15-.67c.65.21,1.14.75,1.85,1.03.84.32,1.81.54,2.68.17.76-.32.67-1.02,1.71-.95,1.51.11.71,1.6,1.12,2.52.58,1.32,2.3,2.11,3.67,2.26ZM98.72,33.07c-.54.16-.73.63-1.3.86-1.52.63-3.58-.08-4.84-1,.17.92.13,2.04-.23,2.91-.75,1.84-3.93,3.03-3.92,5.02,0,1.87,3.32,3.13,4.39,4.45,1.96.15,5.95,2.33,7.04-.29.33-.78.07-1.67.13-2.53.17-2.66.62-2.91,2.34-4.62.12-.11.2-.12.15-.34-2.04-.41-4.16-2.19-3.77-4.47Z"/>
      <path d="M87.84,33.77c-.07.79.53,1.74.18,2.48-.11.22-1.07.95-1.36,1.29-.96,1.11-1.46,2.42-1.32,3.91-2.63-.26-2.15-2.5-2.44-4.46.29-.41.78-.64,1.12-.98s1.67-1.87,1.84-1.97c.24-.14,1.88-.39,2-.27ZM87,34.89c-.31-.32-1.72,1.39-2.02,1.68s-.72.47-.97.83l.2,2.38,1.28-2.56c.54-.88,1.82-1.13,1.51-2.33Z"/>
      <path d="M88.96,35.44v-2.16c0-1.21-1.45-.81-2.17-.91-.17-.02-.26.07-.21-.21.04-.23,1.22-2.16,1.4-2.24.96.22,1.57,1.07,1.78,2,.29,1.27.43,2.74-.8,3.52Z"/>
      <path d="M69.7,33.07c.17,1.4.4,2.79.14,4.19-.45-.27-1.48-.3-1.86-.55-.26-.17-.08-.74-.64-.93-1.03-.34-1.29.52-1.09,1.38.29,1.27,2.81,1.34,2.9,1.71-.06.51-1.79,2.61-2.13,2.55-1.58-.94-2.89-3.2-2.29-5.04s3.31-2.75,4.98-3.32ZM69,36l-.14-1.67-1.67.56,1.81,1.11ZM65.51,37.82c.05,1,.78,1.73,1.46,2.37l.76-.76-1.52-.85-.71-.75Z"/>
      <path d="M57.42,37.12c-.21-1.34-.05-2.72.21-4.05,2.07.75,5.28,1.78,5.09,4.53-.1,1.41-1.25,3.26-2.56,3.82-.85-.7-1.56-1.56-2.04-2.56.78-.53,1.92-.42,2.59-1.18.49-.56.74-1.75-.18-1.93-.99-.2-.82.66-1.23.94-.19.13-1.77.54-1.87.43ZM60.07,34.89l-1.67-.56-.14,1.67c.52.12.53-.37.84-.62l.97-.49ZM61.75,37.54c-.22,1.07-1.4,1.4-2.23,1.88l.76.76c.67-.61,1.29-1.33,1.54-2.22.04-.14.18-.46-.08-.43Z"/>
      <path d="M73.88,38.37l-2.51-.7c.34-1.64.23-3.46-.14-5.08l2.59-1.01,2.43,2.98c-.96,1.17-2.17,2.21-2.36,3.82ZM73.31,37.09c.13-.08,1.09-2.35,1.67-2.56l-1.44-1.85-1.2.48.16,3.73c.06.26.62.31.8.21Z"/>
      <path d="M56.02,32.52c-.33,1.68-.42,3.47-.13,5.15l-2.5.55c-.22-1.05-.83-2.06-1.55-2.85-.19-.21-.86-.49-.78-.78l2.31-3,2.65.92ZM54.91,36.98c-.36-1.21-.03-2.54.07-3.77l-1.25-.56-1.47,1.89c.82.73,1.35,1.68,1.81,2.66l.84-.22Z"/>
      <path d="M52.4,44.37c.28-.67.69-1.25.91-1.95.25-.81.38-1.66.35-2.51l2.7-.69c.7,1.09,1.35,2.23,2.31,3.12,0,.38-5.5,2.12-6.28,2.02ZM56,40.35l-1.45.39-.48,2.38,3.07-.98-1.14-1.79Z"/>
      <path d="M73.59,39.92c.02.8.15,1.59.36,2.36.23.8.6,1.35.9,2.09-.78.03-6.27-1.61-6.28-2.02.93-.88,1.76-1.94,2.24-3.14l2.77.71ZM73.19,43.12l-.49-2.37-1.45-.41c-.19.7-.78,1.18-1.13,1.8l3.07.98Z"/>
      <path d="M53.47,24.32c.5.45.65,1.32.59,1.97-.05.49-.92,3.1-1.43,3-1.45-.96-2.09-2.54-1.28-4.18.4-.82,1.28-1.56,2.13-.79ZM52.62,24.99c-.84.69-.98,2.19-.16,2.92.3,0,1.2-2.81.16-2.92Z"/>
      <path d="M74.41,24.02c.7-.14,1.4.64,1.64,1.24.62,1.56.03,3.34-1.53,4.04-.84-1.25-2.15-3.89-.57-5.02.14-.1.27-.22.45-.26ZM74.72,27.91c1.04-.31.68-2.94-.07-2.94-.99,0-.2,2.47.07,2.94Z"/>
      <path d="M61.61,42.7c-.04-.42.46-.51.7-.77.48-.52.9-1.18,1.33-1.74l2.02,2.43-2.02,1.18-2.02-1.11ZM63.14,42.56l.56.22c.92-.16-.1-1.73-.56-.22Z"/>
      <path d="M36.07,33.63c-.9.12-1.78.38-2.65.63-.4.11-1.4.58-1.63.61s-.41-.32-.64-.43c-1.62-.71-2.89.43-3.02,2.07l-3.85,2.56-.88-1.2c.89-1.87,3.88-2.45,4.26-4.75.1-.63-.14-1.12.04-1.7.63-.16.83.46,1.26.75,1.9,1.32,4.37-.13,6.46-.19l.65,1.66Z"/>
      <path d="M37.05,38.37c-.92-.18-2.44.79-3.17.81-.25,0-.92-.6-1.38-.66-1.55-.21-2.26,1.11-2.43,2.44l-2.89,1.87-.19-.05c-.18-.49-1.25-1.2-.83-1.68.45-.52,2.56-1.8,3.25-2.19,2.23-1.25,4.71-2.08,7.22-2.57l.41,2.03Z"/>
      <path d="M37.74,41.02l.28,1.95-2.17.56c-.93-.85-2.45-1.03-3.25.1-.37.52-.33,1.34-.57,1.66-.07.09-1.78,1.29-1.89,1.28l-1.17-1.32c-.1-.36.58-.7.86-.91,2.24-1.66,5.15-2.93,7.92-3.32Z"/>
      <path d="M20.89,53.13c-.45-.45.11-1.07.1-1.44-.02-.4-.69-.64-.31-1.43.34-.71,1.13-.11,1.56.19.59.42,2.23,1.65,1.76,2.43-.35.58-1.08.05-1.42.03-.39-.02-1.13.77-1.69.21Z"/>
      <path d="M47.83,39.18c.32.34,1.42.27,1.06,1.34-.11.32-.85.4-1.1.71-.19.24-.17.61-.42.84-.34.31-.85.24-1.1-.15-.27-.42-.33-3.61.22-3.8,1.24-.42.99.7,1.34,1.06Z"/>
      <path d="M54.49,66.7v8.51h7.4v7.12h-7.4v23.86h-7.12v-23.86h-6.42c.31.24,1.23,1.29,1.49,1.37.49.15.9-.14,1.35-.11.61.04,1.31.79,2.04.69-.26,1.18-1.38.16-2.02.13-.74-.03-1.61.41-1.46,1.27h3.28c.33.66.26,1.93.22,2.73-.19,3.34-1.92,4.75-4.55,6.48.58,1.12.45,1.88-.33,2.85,1.61,1.36.7,2.99-.98,3.65,1.53,1.42,3.51,2.32,3.07,4.81h-11.02c-.33-1.99.64-3.01,2.09-4.12-.69-.52-.84-1.22-.66-2.06.07-.33.54-.83.51-.99-.01-.07-.77-1.22-.83-1.27-.2-.15-.72-.23-1.02-.38-2.04-1-3.93-2.05-5.17-4.04-3.24-5.21-.03-12.21,6.41-11.99.69.02,1.54.27,2.22.29,1.51.04,2.94-.48,4.4.27v-6.7h7.4v-8.51h7.12ZM52.95,68.23h-4.05v8.3l-.21.21h-6.98s-.11-.18-.21-.14v4.19h7.19l.21.21v24.07h4.05v-24.07l.21-.21h7.19v-4.05h-7.19l-.21-.21v-8.3ZM34.67,95.58c-1.33-1.17-3.12-1.91-4.38-3.22-2.92-3.04-1.34-8.06,3.19-7.8,2.48.15,4.06,2.09,6.53,1.08s-.6-2.6-1.93-2.62c-.63,0-1.6.29-2.22.28-.47,0-1.01-.26-1.53-.28-1.42-.06-2.68-.14-3.96.51-3.85,1.94-3.98,7.27-1.13,10.17.77.78,3.17,2.29,4.22,2.49.47.09.66-.65,1.22-.61ZM44.16,87.35h-13.4c-.17,2.04.23,3.38,1.75,4.74l4.05,2.94c.18.02,2.56-.65,2.84-.78,1.13-.51,4.76-3.3,4.76-4.59v-2.3ZM39.38,95.48c-1.42.2-3.11,1.04-4.56,1.3-.71.55-.43,1.39.46,1.42,1.28-.58,3.49-.7,4.65-1.33.84-.45.66-1.56-.55-1.39ZM39.79,98.55l-4.88,1.38c-.55.33-.41.95.04,1.3l.61.06c.71-.34,4.78-1.1,4.95-1.62s-.14-1.13-.72-1.12ZM41.37,105.07c.1-.58-.51-1.04-.91-1.39-.75-.65-1.68-1.01-2.22-1.92-.1-.02-1.85.5-2.02.6-.33.19-2.43,1.93-2.55,2.19-.08.17-.13.33-.11.52h7.81Z"/>
      <path d="M61.61,121.19c-.12.91-.9,2.32-1.67,2.83v2.03c.03.13.73.31.97.45.28.17,1.64,1.14,1.75,1.32.18.29,0,1.34-.14,1.68-.39.99-2.08,1.73-3.07,1.81-.74.06-1.35-.21-2.02-.07l-1.95,2.79c1.65,1.78,1.34,4.29-.41,5.89.7,1.49.81,2.81-.04,4.27-.16.28-.76.91-.79,1.04-.2.73.43,1.26-.33,2.59-.31.54-.72.72-.91.97-.14.19-.16.68-.34.99-.8,1.37-2.62,1.32-3.45,0-.16-.26-.19-.59-.37-.88-.48-.74-1.17-1.06-1.31-2.18-.06-.52.18-1.22.11-1.49-.03-.12-.63-.75-.79-1.04-.84-1.45-.75-2.79-.05-4.28-1.74-1.59-2.11-4.12-.4-5.88-.73-.31-1.56-2.57-1.95-2.79s-1.43.11-2.02.07c-1.11-.08-2.72-.81-3.1-1.92-.1-.28-.33-1.29-.19-1.5.05-.08,1.06-.91,1.22-1.02.69-.46,1.42-.68,2.12-1.09-.02-.58.12-1.35-.01-1.91-.09-.41-.47-.57-.65-.89-.55-.98-.82-1.98-.72-3.12-.44.38-1.87.88-2.16,1.26-.19.26-.31,1.14-.51,1.58-.67,1.45-2,2.39-3.61,2.46.21.45.56.83.7,1.32.59,2.04.99,6.42,1.11,8.66.07,1.41,0,2.38-1.21,3.25s-2.82.95-4.08.09c-1.35-.92-1.35-2-1.26-3.48.05-.89.84-6.49.64-6.78-2.33-.51-4.59-1.3-6.15-3.2s-1.86-4.25-1.81-6.7l-3.27-2.04.13-.41c.13-.09.26-.17.43-.14.48.09,2.76,1.87,3.06,1.61.13-1.06.79-1.93,1.26-2.85-.34-.38-2.49-1.73-2.09-2.31.37-.53,2.18,1.46,2.6,1.66.25.05,1.58-1.62,2.14-1.53.19-.26-2.5-2.49-1.46-2.79.57-.16,1.69,1.95,2.26,2.21,3.47-1.38,7.13-.93,10.29,1l2.45-3.01c.31-.38.73-.24.7.27-.04.63-2.16,2.5-2.49,3.25l.95,1.08c-.25.23-2.29,2.57-2.09,2.73.44.02.84-.43,1.18-.7,1.66-1.29,3.19-2.79,4.82-4.11l.7-.07v.6s-5.72,4.77-5.72,4.77l-.69,2.72.79.04,7.99-4.58c.39-.04.6.56.22.78l-3.98,2.37h2.58c.11,0,.87-.76,1.06-.9,3.34-2.32,7.37-2.01,10.24.9h4.81c-.07.73.09,1.6,0,2.3ZM37.88,114.98c.35-.36-1.16-1.2-1.39-1.33-2.82-1.58-6.36-1.67-9.12.1-4.47,2.86-4.1,9.88.79,12.14.91.42,3.71.87,4.15,1.44.12.15.08.46.22.5h1.59c.28-2.3-2.22-2.26-3.67-2.96s-2.82-2.46-3.01-4.11c-.62-5.23,4.31-7.85,8.89-6.37.55.18.99.57,1.56.6ZM32.86,118.47c0-1.07-.29-2.02-1.21-2.63-.31-.21-1.55-.85-1.55-.27-.02,1.58,1.18,2.85,2.76,2.9ZM36.49,115.26c-1.8.24-2.73,1.44-2.79,3.21,1.78,0,2.87-1.49,2.79-3.21ZM46.88,120.14c-1.28-.23-3.18.17-4.54,0-.02.48,0,1.03.35,1.4h2.86l.14.35-.21.21h-2.58c-.09.46,1.23,1.4,1.47,1.4h2.02v1.12h-2.51v1.67h14.65v-1.67h-2.23v-1.12h2.02c.44,0,1.44-.94,1.6-1.4h-2.72c-.15,0-.27-.4-.21-.56h3.21l.14-1.4h-4.67c-.76,0-.66,1.44-.63,1.95h-1.12c-.06-1.09-.1-2.24,1.03-2.78l.09-.29c-2.4-1.52-5.36-1.77-7.67.07.97.41,1.42,1.06,1.52,2.11.03.29-.22.57.01.89h-1.12c.07-.8.06-1.78-.91-1.95ZM33,121.26c-.18-1.88-1.59-3.1-3.49-2.93.09,1.88,1.65,3.1,3.49,2.93ZM37.05,118.33c-1.95-.15-3.19,1.08-3.49,2.93,1.87.15,3.38-1.02,3.49-2.93ZM33,123.77c-.48-1.93-1.99-2.65-3.91-2.37.41,1.98,2.03,2.63,3.91,2.37ZM37.46,121.4c-1.9-.3-3.37.51-3.91,2.37,1.82.31,3.57-.41,3.91-2.37ZM42.73,127.43c-.71.12-1.41.68-1.99,1.08-.07.86,1.29,1.24,1.97,1.27.6.02,1.27-.29,1.82-.29,1.34,0,2.01,3.04,3.22,3.61l1.44-.75c-1.11-.58-1.39-1.65-2.03-2.57-1.05-1.49-2.46-2.69-4.42-2.35ZM49.46,138.01c-1.24-.37-1.55-1.53-.49-2.37,1.68-1.33,4.42-1.36,5.93-3.28.61-.77,1.34-2.87,2.43-2.87s1.35.51,2.73.08c2.09-.65.22-1.93-.94-2.13-3.96-.67-4.23,3.74-6.82,5.11-1.72.92-5.07,1.46-5.43,3.78-.19,1.24.37,1.91,1.28,2.64l1.22-.67.09-.29ZM48.21,127.68h-.7s.63,1.12.63,1.12l.07-1.12ZM52.12,127.68h-2.37l.14,4.47,2.06-.87c.21-1.18.17-2.4.17-3.6ZM54.35,127.68h-.7s-.14,1.39-.14,1.39l.84-1.39ZM34.53,129.35h-2.37l-.66,6.87c.25,1.31,1.98,1.74,3.03,1.01s.39-3.03.29-4.18c-.11-1.23-.23-2.46-.28-3.7ZM52.54,135.49c1.39.66,1.24,1.68.05,2.49-1.38.94-4.54,1.82-4.78,3.73-.12.93.15,1.71.89,2.28l1.04-.92c-1.54-1.91,1.78-2.77,3.03-3.52,2-1.19,3.16-2.68,1.37-4.78l-.3-.02-1.3.73ZM50.68,136.08c-.56.17-.53,1.15.12,1.24,1.11.15.99-1.56-.12-1.24ZM53.64,140.67l-1.38.54c.99,1.66-.78,1.98-1.82,2.86s-2.13,2.22-.77,3.42c.19.17.61.27.7.42.27.45-.34,1.72.98,1.13-.05-1.34.21-1,.9-1.61.5-.44.6-.96.55-1.61-.19-.21-1.21,1.11-1.83.36-.7-.86,1.49-1.64,1.96-1.98,1.13-.82,1.49-2.35.69-3.53Z"/>
      <path d="M65.79,125.31l1.33-.14,2.58-5.65c-1.81-.41-3.01-2.21-2.2-4.01.77-1.7,3.09-2.23,4.46-.94.27.25.45.81.73.85,2.79.06,5.63-.12,8.15-1.43-.62-3.14,2.79-5.61,5.47-3.54,1.22.95,1.34,2.11,1.32,3.57,2.5,1.28,5.34,1.46,8.1,1.4l.18-.04c1.75-3.28,6.55-.72,4.98,2.54-.41.85-1.32,1.3-2.16,1.6l2.58,5.66,1.33.14v2.02c0,.14-.27.98-.35,1.18-.96,2.53-3.83,3.7-6.35,2.79l-.07.98-4.27,10.59-5.29-1.53c-.18,1.63.2,4.34-2.17,4.33-2.55-.02-1.7-3.69-2.15-5.24-1.22.03-2.36-.07-2.9-1.32l-8.91-1.81.3-2.24,2.72-4.05c-2.64,1.32-5.97.32-7.04-2.52-.08-.21-.35-1.04-.35-1.18v-2.02ZM86.58,118.05h12.07c.09,0,.74-.43.83-.56,1.42-1.94-2.52-3.46-2.44-.7-3.81.21-8.15.1-11.28-2.32,2.1-4.34-5.16-4.43-3.11-.1l-.04.18c-3.23,2.25-7.42,2.48-11.24,2.23.19-1.98-2.72-2.04-2.66-.07.02.76.47,1.21,1.21,1.31,3.48.49,8.05-.42,11.58,0,.15.02.32,0,.42.14.53,7.94,1.11,15.87,1.73,23.8.04.57-.26,2.25.63,2.17.4-.04.45-.74.49-1.06.72-6.87.87-14.01,1.4-20.93.1-1.37.25-2.75.42-4.12ZM80.58,119.45h-8.79l2.53,5.84,1.23.02v1.95l1.6-2.23c1.02.92,2.46,1.39,3.84,1.25l-.42-6.84ZM96.63,119.45h-8.79l-.56,7.53c2.31.05,3.67,2.34,5.95,2.5.15.01.42.12.33-.19s-.7-1.23-.7-1.54v-2.44l1.23-.02,2.53-5.84ZM73.05,125.31l-2.23-5.3-2.51,5.3h4.74ZM100.12,125.31l-2.44-5.3-2.3,5.3h4.74ZM74.16,126.7h-6.84c.03,4.65,6.68,4.62,6.84,0ZM101.1,126.7h-6.84c.11,4.65,6.83,4.59,6.84,0ZM81.14,127.68c-.39-.02-.78.04-1.17-.02-.56-.08-2.36-.77-2.6-.62l-5.44,8.72c.76.23,1.5.62,2.3.7,2.37.24,5.67-1.23,6.77,1.67l.8-.3-.67-10.16ZM94.4,131.03c-1.25-.19-2.46-.37-3.61-.93-.67-.32-2.89-2.11-3.52-1.67l-.8,10.66c.79.36,3.02,2.13,3.81,1.42l4.11-9.49Z"/>
      <path d="M91.77,83.56c3.39.26,7.36-.89,9.82,2.11,3.48,4.26-.11,10.46-5.51,8.93l3.97,10.05c.15.4.21,1.17-.1,1.5-.05.05-1.25.68-1.32.7-1.44.39-1.98-1.64-2.55-2.62l-.62.29h-22.19s-.15-.43-.15-.43c-.6.8-1.23,3.12-2.51,2.8-.87-.22-2.13-.93-1.71-2l4.01-10.29c-6.73,1.98-9.51-7.79-3.53-10.44,2.51-1.11,5.33-.26,7.93-.72l2.27-5.69c-2.63-9.82,12.47-9.9,9.86-.03l2.33,5.84ZM83.9,71.9c-4.05.58-4.06,6.73,0,7.32,5.67.82,5.7-8.13,0-7.32ZM70.81,105.35l12.79-22.46c.08-.28-1.03-2.26-1.28-2.5-.42-.42-1.3-.65-1.67-1.27l-10.24,25.91.4.32ZM88.54,79.26c-.74.26-1.21.88-1.95,1.19-.36.15-.82.27-1.2.33-.28.05-1.13-.14-1.03.22l14.02,24.35c.29-.2.18-.26.11-.53-.1-.38-.35-.92-.5-1.32-3-8.13-6.53-16.08-9.45-24.25ZM76.68,85.12h-4.95c-.6,0-1.98.62-2.49,1-1.94,1.46-2.14,5.01-.08,6.46,2.31,1.63,5.6.19,4.74-2.79-.68-2.37-3.84-1.51-3.11.04.31.66,1.73.24,1.58,1.35-.19,1.32-2.89.56-3.18-1.14-.56-3.28,3.47-4.37,5.48-2.13.25.28.3.67.62.84l1.4-3.63ZM87.56,89.58l-2.36-4.26c-.22-.27-1.06-.31-1.28-.11l-2.5,4.37h6.14ZM97.4,85.12c-1.53-.18-3.39.13-4.95,0l1.26,3.63c.55-.6.73-1.08,1.49-1.51,2.35-1.32,5.35.1,4.58,3.05-.3,1.17-2.54,2.39-3.12.87-.09-1.1,1.28-.64,1.58-1.3.8-1.78-2.85-2.43-3.14.21-.47,4.31,5.05,3.91,6.07.77.88-2.72-.99-5.39-3.77-5.72ZM90.07,103.12v-9.28c0-.15-1.45-2.5-1.63-2.55l-7.66-.03c-.17-.01-.28.03-.41.15-.16.14-1.41,2.52-1.42,2.75-.02.1.1.21.1.25v8.72h2.51v-9.98c0-.57,1.67-.57,1.67,0v9.98h2.51v-9.7s.31-.6.37-.64c.74-.48,1.37.21,1.41.95.16,3.03-.05,6.07-.05,9.1,0,.16,0,.18.15.28h2.44ZM94.26,103.12v-2.02l-2.51-4.12v6.14h2.51ZM77.23,103.12v-6l-2.45,4.04-.06,1.96h2.51Z"/>
      <path d="M99.28,40.33c.04.21-.26.17-.42.21-.73.16-1.49.22-2.22.37l-.3,2.63-1.41-2.36-2.64.55,1.78-2.02-1.08-2.16,2.31.93,1.81-1.91c.18.69-.23,1.48-.22,2.16,0,.94,1.65,1.19,2.38,1.6Z"/>
      <path d="M38.18,83.88c.53-.38,1.01.67.47.82-.5.14-.76-.62-.47-.82Z"/>
      <path d="M58.69,128.25c.21-.29.96-.03.82.47-.15.54-1.2.06-.82-.47Z"/>
      <path d="M43.03,128.92c-.53.38-1.01-.67-.47-.82.5-.14.76.62.47.82Z"/>
      <path d="M84.17,74.26c2.32-.53,2.15,3.29-.11,2.56-1.2-.39-1.12-2.28.11-2.56Z"/>
    </g>
  </g>
</svg>