<?xml version="1.0" encoding="UTF-8"?>
<svg id="Capa_2" data-name="Capa 2" xmlns="http://www.w3.org/2000/svg" viewBox="0 0 389.87 150.6">
  <defs>
    <style>
      .cls-1 {
        fill: #f7f6f6;
      }
    </style>
  </defs>
  <g id="Capa_1-2" data-name="Capa 1">
    <g>
      <rect class="cls-1" x="262.57" y="35.52" width="29.99" height="80.23"/>
      <path class="cls-1" d="M389.87,78.96c0-23.99-19.37-43.44-43.28-43.44-6.68,0-13,1.52-18.64,4.23v-4.23h-29.99v80.23h29.99v-36.73h.08c.75-8.15,7.57-14.52,15.89-14.52s15.13,6.38,15.89,14.52h.08v36.73h29.99v-36.65h0s0-.09,0-.14Z"/>
      <path class="cls-1" d="M108.81,35.52v3.81c-5.86-3.29-12.61-5.17-19.79-5.17-22.44,0-40.64,18.26-40.64,40.79s18.19,40.79,40.64,40.79c7.19,0,13.94-1.88,19.79-5.17v5.17h29.84V35.52h-29.84ZM108.8,76.8c-.2,8.74-7.32,15.77-16.07,15.77s-16.08-7.23-16.08-16.14,7.2-16.14,16.08-16.14c8.23,0,15.01,6.21,15.96,14.21h.12v2.31h0Z"/>
      <rect class="cls-1" x="262.57" y="0" width="29.99" height="30.11" rx="12.55" ry="12.55"/>
      <path class="cls-1" d="M40.67,87.8c-5.84,0-10.58-4.75-10.58-10.62h.03v-12.91h14.7v-30.1h-14.7V14H.14v20.17h-.14v30.1l.02,12.91C.02,99.72,18.22,117.99,40.67,117.99c1.4,0,2.78-.07,4.15-.21v-30.83c-1.27.55-2.67.85-4.15.85Z"/>
      <path class="cls-1" d="M193.83,34.17c-7.19,0-13.94,1.88-19.79,5.17v-3.81h-29.84v115.08h29.84v-40.01c5.86,3.29,12.61,5.17,19.79,5.17,22.44,0,40.64-18.26,40.64-40.79s-18.19-40.79-40.64-40.79ZM190.12,92.57c-8.76,0-15.87-7.03-16.07-15.77h0v-2.31h.04v.87c.55-8.42,7.52-15.07,16.04-15.07s16.08,7.23,16.08,16.14-7.2,16.14-16.08,16.14Z"/>
    </g>
  </g>
</svg>